<svg width="159" height="76" viewBox="0 0 159 76" fill="none" xmlns="http://www.w3.org/2000/svg">
<path d="M76.2697 24.276C76.2697 24.636 76.2457 25.068 76.2457 25.548C76.2217 26.076 76.1737 26.556 76.1017 27.012C76.0057 27.492 75.8857 27.924 75.7417 28.26C75.5497 28.62 75.3097 28.812 75.0217 28.836C74.8777 28.86 74.7817 28.836 74.6857 28.764C74.5897 28.716 74.4937 28.572 74.4457 28.38C74.3497 28.188 74.3017 27.924 74.2777 27.588C74.2297 27.252 74.2057 26.82 74.2057 26.292V14.604C74.2057 14.292 74.0617 14.052 73.7737 13.884C73.4857 13.74 73.0537 13.596 72.5017 13.452C72.3097 13.428 72.1657 13.38 72.0697 13.284C71.9497 13.212 71.9017 13.092 71.9017 12.9C71.9017 12.756 71.9737 12.612 72.1657 12.468C72.3097 12.348 72.5497 12.252 72.8857 12.204C73.0297 12.204 73.3417 12.18 73.7977 12.156C74.2297 12.156 74.6857 12.156 75.1177 12.204C75.4777 12.252 75.7897 12.324 76.0777 12.42C76.3417 12.54 76.4857 12.684 76.4857 12.876C76.4857 13.044 76.4617 13.212 76.4137 13.404C76.3657 13.548 76.3417 13.716 76.3177 13.86C76.2697 14.028 76.2697 14.196 76.2697 14.388V24.276ZM73.5817 32.244C73.7497 32.196 73.8937 32.148 74.0377 32.076C74.1577 31.98 74.2777 31.908 74.4217 31.812C74.5417 31.692 74.6617 31.596 74.8057 31.548C74.9017 31.476 75.0457 31.428 75.2377 31.404C75.5017 31.356 75.7657 31.356 76.0537 31.356C76.3177 31.356 76.5817 31.356 76.8697 31.404C77.1097 31.452 77.3257 31.548 77.4697 31.716C77.6137 31.86 77.6857 32.028 77.6857 32.22C77.6857 32.748 77.3017 33.06 76.5817 33.156C75.0457 33.348 73.5337 33.54 72.0697 33.756C70.5817 33.948 69.0697 34.14 67.5337 34.356C66.1417 34.548 65.4697 33.924 65.4697 32.532V30.132C65.4697 29.844 65.3257 29.604 65.0617 29.412C64.7737 29.268 64.3657 29.124 63.8137 29.004C63.6217 28.98 63.4777 28.932 63.3817 28.836C63.2617 28.764 63.2137 28.644 63.2137 28.452C63.2137 28.308 63.2857 28.14 63.4777 27.996C63.6217 27.876 63.8617 27.804 64.1977 27.756C64.3417 27.732 64.6537 27.708 65.1097 27.684C65.5417 27.684 65.9977 27.708 66.4297 27.732C66.7897 27.78 67.0777 27.876 67.2937 28.02C67.4857 28.188 67.5817 28.356 67.5817 28.524V32.532C67.5817 32.724 67.6057 32.868 67.7017 32.94C67.7497 32.988 67.8697 33.012 68.0377 32.988L73.5817 32.244ZM70.0057 19.956C70.0057 20.772 69.8617 21.492 69.5977 22.14C69.3097 22.812 68.9257 23.412 68.4457 23.892C67.9417 24.396 67.3657 24.804 66.7177 25.092C66.0457 25.404 65.3497 25.596 64.6297 25.692C63.8857 25.788 63.1897 25.764 62.5417 25.596C61.8697 25.452 61.3177 25.188 60.8377 24.804C60.3337 24.444 59.9497 23.964 59.6857 23.364C59.3977 22.788 59.2537 22.092 59.2537 21.276C59.2537 20.484 59.3977 19.764 59.6857 19.092C59.9497 18.444 60.3337 17.868 60.8377 17.364C61.3177 16.884 61.8697 16.476 62.5417 16.164C63.1897 15.876 63.8857 15.66 64.6297 15.564C65.3497 15.468 66.0457 15.492 66.7177 15.636C67.3657 15.804 67.9417 16.068 68.4457 16.428C68.9257 16.812 69.3097 17.292 69.5977 17.868C69.8617 18.468 70.0057 19.164 70.0057 19.956ZM67.7977 20.244C67.7977 19.14 67.4857 18.324 66.9097 17.796C66.2857 17.292 65.5417 17.1 64.6297 17.22C63.6937 17.34 62.9257 17.724 62.3497 18.372C61.7497 19.044 61.4617 19.932 61.4617 21.036C61.4617 22.116 61.7497 22.908 62.3497 23.436C62.9257 23.964 63.6937 24.18 64.6297 24.06C65.0617 24.012 65.4937 23.868 65.9017 23.652C66.2857 23.46 66.6217 23.172 66.9097 22.836C67.1737 22.524 67.3897 22.14 67.5577 21.684C67.7017 21.252 67.7977 20.772 67.7977 20.244ZM86.024 32.052C86.024 31.38 86.144 30.78 86.432 30.204C86.672 29.676 87.056 29.196 87.536 28.764C87.992 28.38 88.544 28.044 89.216 27.756C89.864 27.516 90.584 27.324 91.376 27.228C92.144 27.132 92.888 27.132 93.56 27.228C94.208 27.324 94.76 27.516 95.24 27.804C95.696 28.116 96.056 28.5 96.344 28.98C96.584 29.484 96.728 30.06 96.728 30.732C96.728 31.404 96.584 32.004 96.344 32.58C96.056 33.108 95.696 33.588 95.24 34.02C94.76 34.404 94.208 34.74 93.56 35.028C92.888 35.268 92.144 35.46 91.376 35.556C90.584 35.652 89.864 35.652 89.216 35.556C88.544 35.436 87.992 35.244 87.536 34.956C87.056 34.668 86.672 34.284 86.432 33.804C86.144 33.3 86.024 32.724 86.024 32.052ZM97.064 15.084C96.536 15.708 95.936 16.284 95.312 16.812C94.664 17.364 93.992 17.892 93.272 18.396C93.8 18.492 94.304 18.564 94.784 18.612C95.24 18.708 95.528 18.732 95.672 18.708C95.768 18.732 95.888 18.732 96.008 18.684C96.104 18.66 96.224 18.636 96.368 18.588L96.944 18.444C97.136 18.396 97.328 18.42 97.544 18.468C97.88 18.564 98.24 18.684 98.6 18.804C98.936 18.948 99.272 19.14 99.656 19.332C99.968 19.5 100.136 19.74 100.136 20.052C100.136 20.34 100.064 20.508 99.92 20.604C99.752 20.724 99.56 20.796 99.368 20.82C99.176 20.868 99.008 20.868 98.84 20.844C98.648 20.844 98.504 20.82 98.384 20.772L91.592 19.5C90.224 20.364 88.832 21.108 87.416 21.78C85.976 22.476 84.608 23.052 83.288 23.532C83.192 23.58 83.12 23.604 83.024 23.604C82.928 23.628 82.832 23.628 82.76 23.604C82.664 23.604 82.592 23.58 82.544 23.508C82.472 23.46 82.448 23.364 82.448 23.22C82.448 23.004 82.616 22.812 82.952 22.668C84.728 21.876 86.576 20.844 88.496 19.596C90.368 18.348 92.168 16.956 93.848 15.396C93.056 15.54 92.288 15.66 91.52 15.756C90.752 15.876 90.128 15.972 89.696 16.068C88.688 16.308 87.992 16.524 87.656 16.716C87.512 16.812 87.416 16.86 87.344 16.884C87.248 16.932 87.176 16.956 87.128 16.956C86.888 17.004 86.696 16.98 86.552 16.932C86.168 16.86 85.808 16.74 85.424 16.596C85.016 16.452 84.656 16.308 84.32 16.116C84.032 15.972 83.888 15.828 83.888 15.66C83.888 15.3 84.128 15.132 84.656 15.156C85.04 15.204 85.496 15.204 86.024 15.156C86.528 15.132 87.08 15.084 87.68 15.012C88.448 14.94 89.456 14.796 90.656 14.604C91.832 14.412 93.152 14.196 94.592 13.908C94.688 13.884 94.808 13.86 94.904 13.836C95 13.836 95.072 13.788 95.168 13.716C95.384 13.62 95.624 13.524 95.864 13.476C96.104 13.452 96.344 13.428 96.608 13.428C96.848 13.452 97.088 13.476 97.376 13.524C97.592 13.572 97.736 13.62 97.808 13.692C97.856 13.788 97.88 13.908 97.88 14.028C97.88 14.124 97.808 14.244 97.712 14.388C97.592 14.58 97.376 14.796 97.064 15.084ZM100.64 24.204C100.112 24.252 99.536 24.324 98.864 24.372C98.168 24.468 97.424 24.54 96.656 24.636C95.624 24.78 94.568 24.9 93.488 25.044C92.384 25.188 91.352 25.332 90.368 25.476C89.36 25.644 88.472 25.788 87.68 25.908C86.864 26.052 86.24 26.196 85.808 26.292C85.472 26.388 85.136 26.532 84.8 26.7C84.536 26.844 84.272 26.964 84.008 27.036C83.72 27.132 83.408 27.156 83.072 27.06C82.592 26.964 82.16 26.796 81.776 26.604C81.344 26.412 81.08 26.268 80.936 26.172C80.72 26.076 80.624 25.908 80.624 25.692C80.624 25.452 80.72 25.284 80.912 25.188C81.08 25.116 81.32 25.068 81.608 25.044C82.064 25.068 82.568 25.068 83.144 25.02C83.672 24.996 84.152 24.948 84.584 24.9C84.8 24.876 85.208 24.828 85.784 24.732C86.336 24.684 86.984 24.588 87.752 24.492C88.472 24.396 89.264 24.3 90.128 24.18C90.968 24.084 91.784 23.964 92.576 23.844C93.344 23.748 94.064 23.628 94.712 23.532C95.336 23.436 95.816 23.364 96.152 23.292C96.656 23.196 97.04 23.076 97.304 22.956C97.544 22.86 97.712 22.788 97.856 22.692C97.952 22.62 98.072 22.548 98.192 22.5C98.288 22.476 98.408 22.452 98.6 22.404C98.744 22.404 98.912 22.38 99.152 22.356C99.344 22.356 99.56 22.332 99.8 22.332C100.016 22.332 100.232 22.356 100.472 22.356C100.664 22.38 100.856 22.404 101.024 22.404C101.624 22.524 101.936 22.764 101.936 23.148C101.936 23.436 101.816 23.652 101.6 23.844C101.36 24.06 101.048 24.18 100.64 24.204ZM88.16 31.764C88.16 32.604 88.448 33.204 89.024 33.588C89.6 33.924 90.368 34.044 91.376 33.924C92.384 33.78 93.176 33.492 93.752 33.012C94.304 32.508 94.592 31.836 94.592 30.972C94.592 30.108 94.304 29.508 93.752 29.148C93.176 28.812 92.384 28.692 91.376 28.812C90.368 28.956 89.6 29.244 89.024 29.724C88.448 30.228 88.16 30.9 88.16 31.764Z" fill="white"/>
<g filter="url(#filter0_d_84_401)">
<mask id="path-2-inside-1_84_401" fill="white">
<path d="M27 44H132V47H27V44Z"/>
</mask>
<path d="M132 44H27V50H132V44Z" fill="white" mask="url(#path-2-inside-1_84_401)"/>
</g>
<defs>
<filter id="filter0_d_84_401" x="2" y="23" width="155" height="53" filterUnits="userSpaceOnUse" color-interpolation-filters="sRGB">
<feFlood flood-opacity="0" result="BackgroundImageFix"/>
<feColorMatrix in="SourceAlpha" type="matrix" values="0 0 0 0 0 0 0 0 0 0 0 0 0 0 0 0 0 0 127 0" result="hardAlpha"/>
<feMorphology radius="5" operator="dilate" in="SourceAlpha" result="effect1_dropShadow_84_401"/>
<feOffset dy="4"/>
<feGaussianBlur stdDeviation="10"/>
<feComposite in2="hardAlpha" operator="out"/>
<feColorMatrix type="matrix" values="0 0 0 0 1 0 0 0 0 1 0 0 0 0 1 0 0 0 0.5 0"/>
<feBlend mode="normal" in2="BackgroundImageFix" result="effect1_dropShadow_84_401"/>
<feBlend mode="normal" in="SourceGraphic" in2="effect1_dropShadow_84_401" result="shape"/>
</filter>
</defs>
</svg>
