<svg width="110" height="57" viewBox="0 0 110 57" fill="none" xmlns="http://www.w3.org/2000/svg">
<path d="M40.306 5.73C40.306 5.514 40.216 5.334 40.036 5.19C39.838 5.082 39.532 4.974 39.118 4.884C38.974 4.848 38.866 4.812 38.794 4.74C38.704 4.704 38.668 4.614 38.668 4.47C38.668 4.362 38.722 4.236 38.866 4.128C38.974 4.038 39.154 3.984 39.406 3.948C39.442 3.948 39.532 3.93 39.676 3.912C39.784 3.912 39.928 3.894 40.108 3.876H40.612C40.774 3.894 40.936 3.912 41.116 3.912C41.17 3.93 41.224 3.93 41.278 3.93C41.314 3.948 41.35 3.948 41.404 3.948L44.716 3.462C44.842 3.444 44.95 3.408 45.058 3.336C45.148 3.282 45.238 3.21 45.346 3.138C45.436 3.066 45.526 3.012 45.634 2.958C45.706 2.922 45.814 2.886 45.958 2.85C46.156 2.832 46.39 2.814 46.66 2.796C46.912 2.796 47.146 2.796 47.362 2.814C47.542 2.868 47.704 2.94 47.812 3.048C47.92 3.174 47.974 3.3 47.974 3.426C47.974 3.84 47.686 4.074 47.146 4.146C46.282 4.254 45.436 4.38 44.572 4.488L41.98 4.866V8.952C41.98 9.096 41.998 9.168 42.052 9.186C42.088 9.222 42.142 9.24 42.25 9.222C43.438 9.078 44.68 8.808 45.958 8.412C47.218 8.034 48.478 7.566 49.738 7.026V2.616C49.738 2.382 49.63 2.202 49.414 2.076C49.198 1.968 48.874 1.86 48.46 1.77C48.316 1.752 48.208 1.716 48.136 1.644C48.046 1.59 48.01 1.5 48.01 1.356C48.01 1.248 48.064 1.122 48.208 1.014C48.316 0.923999 48.496 0.87 48.748 0.833999C48.856 0.815999 49.09 0.797999 49.432 0.78C49.756 0.78 50.098 0.797999 50.422 0.833999C50.692 0.87 50.926 0.923999 51.142 0.995999C51.34 1.086 51.448 1.194 51.448 1.338C51.448 1.464 51.43 1.59 51.394 1.734C51.358 1.842 51.34 1.95 51.322 2.058C51.286 2.202 51.286 2.328 51.286 2.472V5.262L51.682 5.208C51.808 5.19 51.934 5.154 52.042 5.082C52.15 5.028 52.24 4.956 52.33 4.884C52.42 4.812 52.51 4.74 52.6 4.686C52.672 4.65 52.78 4.614 52.924 4.578C53.122 4.56 53.32 4.542 53.536 4.542C53.734 4.542 53.932 4.56 54.148 4.578C54.328 4.632 54.49 4.704 54.598 4.812C54.706 4.938 54.76 5.064 54.76 5.19C54.76 5.604 54.472 5.838 53.932 5.91L51.286 6.234V6.9C51.286 7.17 51.268 7.494 51.268 7.854C51.25 8.25 51.214 8.61 51.16 8.952C51.088 9.312 50.998 9.636 50.89 9.888C50.746 10.158 50.566 10.302 50.35 10.32C50.242 10.338 50.17 10.32 50.098 10.248C50.026 10.212 49.954 10.104 49.918 9.96C49.846 9.816 49.81 9.618 49.792 9.366C49.756 9.114 49.738 8.79 49.738 8.394V7.998C49.09 8.322 48.406 8.628 47.686 8.916C46.966 9.222 46.246 9.492 45.562 9.726C44.86 9.978 44.212 10.194 43.6 10.356C42.97 10.536 42.448 10.662 42.016 10.698C41.386 10.77 40.954 10.68 40.702 10.392C40.432 10.122 40.306 9.672 40.306 9.06V5.73ZM48.964 15.882C49.09 15.846 49.198 15.81 49.306 15.756C49.396 15.684 49.486 15.63 49.594 15.558C49.684 15.486 49.774 15.414 49.882 15.378C49.954 15.324 50.062 15.288 50.206 15.27C50.404 15.234 50.602 15.234 50.818 15.234C51.016 15.216 51.214 15.234 51.43 15.27C51.61 15.306 51.772 15.378 51.88 15.504C51.988 15.612 52.042 15.72 52.042 15.864C52.042 16.26 51.754 16.494 51.214 16.566L48.01 16.998L44.806 17.43C43.762 17.574 43.258 17.106 43.258 16.062V13.794C43.258 13.578 43.15 13.398 42.952 13.254C42.736 13.146 42.43 13.038 42.016 12.948C41.872 12.93 41.764 12.894 41.692 12.822C41.602 12.768 41.566 12.678 41.566 12.534C41.566 12.426 41.62 12.3 41.764 12.192C41.872 12.102 42.052 12.048 42.304 12.012C42.412 11.994 42.646 11.976 42.988 11.958C43.312 11.958 43.654 11.976 43.978 11.994C44.014 12.03 44.068 12.03 44.122 12.03C44.158 12.03 44.212 12.048 44.248 12.066L48.604 11.436C48.73 11.418 48.856 11.382 48.964 11.31C49.072 11.256 49.162 11.184 49.252 11.094C49.342 11.022 49.432 10.968 49.522 10.914C49.594 10.878 49.702 10.842 49.846 10.806C50.044 10.788 50.242 10.77 50.458 10.77C50.656 10.77 50.854 10.788 51.07 10.806C51.25 10.86 51.412 10.932 51.52 11.04C51.628 11.166 51.682 11.292 51.682 11.418C51.682 11.832 51.394 12.066 50.854 12.138C49.846 12.282 48.856 12.408 47.848 12.534L44.842 12.966V16.062C44.842 16.314 44.95 16.44 45.184 16.404L48.964 15.882ZM69.2217 13.038V14.172C69.2037 14.64 69.1677 15.072 69.1137 15.504C69.0417 15.918 68.9517 16.296 68.8437 16.62C68.6997 16.926 68.5197 17.088 68.2857 17.124C67.8717 17.178 67.6737 16.422 67.6737 14.856V2.49C67.6737 2.256 67.5657 2.076 67.3497 1.95C67.1337 1.842 66.8097 1.734 66.3957 1.644C66.2517 1.626 66.1437 1.59 66.0717 1.518C65.9817 1.464 65.9457 1.374 65.9457 1.23C65.9457 1.122 65.9997 0.995999 66.1437 0.887999C66.2517 0.797999 66.4317 0.743999 66.6837 0.707999C66.7917 0.69 67.0257 0.671999 67.3677 0.653999C67.6917 0.653999 68.0337 0.671999 68.3577 0.707999C68.6277 0.743999 68.8617 0.797999 69.0777 0.87C69.2757 0.959999 69.3837 1.068 69.3837 1.212C69.3837 1.338 69.3657 1.464 69.3297 1.608C69.2937 1.716 69.2757 1.824 69.2577 1.932C69.2217 2.076 69.2217 2.202 69.2217 2.346V13.038ZM62.2917 4.47C62.5257 4.434 62.7057 4.362 62.8497 4.254L63.0837 4.146C63.1557 4.11 63.2457 4.074 63.3537 4.056C63.5157 4.038 63.6957 4.02 63.8757 4.002C64.0557 4.002 64.2177 4.02 64.3797 4.038C64.5237 4.074 64.6497 4.11 64.7577 4.164C64.8477 4.236 64.9017 4.344 64.9017 4.47C64.9017 4.578 64.8657 4.668 64.8117 4.776C64.7397 4.884 64.6677 4.992 64.5957 5.082C64.5597 5.154 64.5237 5.19 64.4877 5.226C64.4517 5.28 64.4157 5.334 64.3977 5.388C63.6057 7.332 62.6157 9.078 61.3917 10.626C60.1497 12.174 58.6737 13.578 56.9817 14.838C56.6937 15.018 56.4957 15.036 56.3517 14.874C56.2797 14.802 56.2617 14.712 56.2797 14.604C56.2797 14.514 56.3337 14.406 56.4597 14.28C57.7917 13.02 58.9797 11.652 60.0237 10.176C61.0677 8.736 61.8957 7.134 62.5257 5.388C61.9137 5.496 61.3737 5.586 60.8877 5.658C60.3837 5.748 59.9697 5.82 59.6457 5.892C59.5197 5.928 59.4117 5.964 59.3217 6C59.2137 6.072 59.1417 6.126 59.0697 6.18C58.9257 6.288 58.7817 6.36 58.6197 6.414C58.4397 6.486 58.2597 6.504 58.0617 6.45C57.7377 6.378 57.4137 6.288 57.1257 6.144C56.8197 6.036 56.6217 5.946 56.5317 5.874C56.3877 5.802 56.3337 5.694 56.3337 5.568C56.3337 5.424 56.3877 5.316 56.5137 5.244C56.6217 5.19 56.7837 5.154 56.9817 5.136C57.2697 5.154 57.5577 5.154 57.8637 5.118C58.1517 5.1 58.4217 5.082 58.6737 5.046L60.3117 4.812C60.9777 4.722 61.6437 4.614 62.2917 4.47Z" fill="white"/>
<g filter="url(#filter0_d_158_810)">
<mask id="path-2-inside-1_158_810" fill="white">
<path d="M25 24.9351H85V27.1974H25V24.9351Z"/>
</mask>
<path d="M85 24.1974H25V30.1974H85V24.1974Z" fill="white" mask="url(#path-2-inside-1_158_810)"/>
</g>
<defs>
<filter id="filter0_d_158_810" x="0" y="3.93506" width="110" height="52.2622" filterUnits="userSpaceOnUse" color-interpolation-filters="sRGB">
<feFlood flood-opacity="0" result="BackgroundImageFix"/>
<feColorMatrix in="SourceAlpha" type="matrix" values="0 0 0 0 0 0 0 0 0 0 0 0 0 0 0 0 0 0 127 0" result="hardAlpha"/>
<feMorphology radius="5" operator="dilate" in="SourceAlpha" result="effect1_dropShadow_158_810"/>
<feOffset dy="4"/>
<feGaussianBlur stdDeviation="10"/>
<feComposite in2="hardAlpha" operator="out"/>
<feColorMatrix type="matrix" values="0 0 0 0 1 0 0 0 0 1 0 0 0 0 1 0 0 0 0.5 0"/>
<feBlend mode="normal" in2="BackgroundImageFix" result="effect1_dropShadow_158_810"/>
<feBlend mode="normal" in="SourceGraphic" in2="effect1_dropShadow_158_810" result="shape"/>
</filter>
</defs>
</svg>
