<svg width="145" height="57" viewBox="0 0 145 57" fill="none" xmlns="http://www.w3.org/2000/svg">
<path d="M39.6382 14.892C39.6382 14.388 39.7282 13.938 39.9442 13.506C40.1242 13.092 40.3942 12.732 40.7542 12.408C41.0962 12.12 41.5102 11.868 42.0142 11.652C42.5002 11.472 43.0402 11.328 43.6342 11.256C44.2102 11.184 44.7502 11.184 45.2542 11.256C45.7402 11.346 46.1722 11.49 46.5322 11.706C46.8742 11.94 47.1442 12.246 47.3422 12.606C47.5222 12.984 47.6302 13.416 47.6302 13.92C47.6302 14.424 47.5222 14.892 47.3422 15.306C47.1442 15.72 46.8742 16.08 46.5322 16.404C46.1722 16.71 45.7402 16.962 45.2542 17.178C44.7502 17.358 44.2102 17.502 43.6342 17.574C43.0402 17.646 42.5002 17.628 42.0142 17.556C41.5102 17.466 41.0962 17.322 40.7542 17.106C40.3942 16.872 40.1242 16.566 39.9442 16.206C39.7282 15.828 39.6382 15.396 39.6382 14.892ZM44.7142 5.496L46.2982 5.298V2.436C46.2982 2.202 46.1902 2.022 45.9742 1.896C45.7582 1.788 45.4342 1.68 45.0202 1.59C44.8762 1.554 44.7682 1.518 44.6962 1.446C44.6062 1.41 44.5702 1.32 44.5702 1.176C44.5702 1.068 44.6242 0.942 44.7682 0.833999C44.8762 0.743999 45.0562 0.69 45.3082 0.653999C45.4162 0.635999 45.6502 0.618 45.9922 0.6C46.3162 0.6 46.6582 0.618 46.9822 0.635999C47.2522 0.671999 47.4862 0.725999 47.7022 0.797999C47.9002 0.887999 48.0082 0.995999 48.0082 1.14C48.0082 1.266 47.9902 1.41 47.9542 1.554C47.9182 1.662 47.9002 1.77 47.8822 1.878C47.8462 2.004 47.8462 2.13 47.8462 2.274V7.512C47.8462 7.782 47.8282 8.106 47.8282 8.466C47.8102 8.862 47.7742 9.222 47.7202 9.582C47.6482 9.942 47.5582 10.248 47.4502 10.5C47.3062 10.77 47.1262 10.914 46.9102 10.95C46.7122 10.986 46.5682 10.86 46.4602 10.59C46.3522 10.338 46.2982 9.816 46.2982 9.024V6.396L44.7142 6.594V7.332C44.7142 7.602 44.6962 7.908 44.6962 8.268C44.6782 8.628 44.6422 8.988 44.5882 9.312C44.5162 9.654 44.4262 9.942 44.3182 10.176C44.1742 10.428 43.9942 10.554 43.7782 10.572C43.6702 10.59 43.5982 10.572 43.5262 10.536C43.4542 10.518 43.3822 10.446 43.3462 10.302C43.2742 10.194 43.2382 10.014 43.2202 9.762C43.1842 9.546 43.1662 9.222 43.1662 8.826V3.84C43.1662 3.606 43.0582 3.426 42.8422 3.3C42.6262 3.192 42.3022 3.084 41.8882 2.994C41.7442 2.976 41.6362 2.94 41.5642 2.868C41.4742 2.814 41.4382 2.724 41.4382 2.58C41.4382 2.472 41.4922 2.346 41.6362 2.238C41.7442 2.148 41.9242 2.094 42.1762 2.058C42.2842 2.04 42.5182 2.022 42.8602 2.004C43.1842 2.004 43.5262 2.022 43.8502 2.058C44.1202 2.094 44.3542 2.148 44.5702 2.22C44.7682 2.31 44.8762 2.418 44.8762 2.562C44.8762 2.688 44.8582 2.814 44.8222 2.958C44.7862 3.066 44.7682 3.174 44.7502 3.282C44.7142 3.426 44.7142 3.552 44.7142 3.696V5.496ZM39.9802 5.028C39.8002 5.784 39.5302 6.486 39.2062 7.134C39.4582 7.386 39.6922 7.566 39.8722 7.71C40.0342 7.872 40.1422 7.962 40.1782 7.98C40.2502 8.034 40.3402 8.052 40.4482 8.052C40.5382 8.07 40.6282 8.088 40.7362 8.106C40.8802 8.142 41.0422 8.16 41.2042 8.178C41.3482 8.214 41.4742 8.304 41.5822 8.412C41.6542 8.52 41.7442 8.646 41.8522 8.79C41.9242 8.952 41.9962 9.114 42.0682 9.258C42.1222 9.42 42.1762 9.564 42.2302 9.708C42.2662 9.852 42.2842 9.978 42.2842 10.086C42.2842 10.23 42.2482 10.356 42.1762 10.446C42.0682 10.554 41.9422 10.608 41.7982 10.644C41.6902 10.68 41.5642 10.644 41.4202 10.572C41.2582 10.5 41.0602 10.356 40.8262 10.14C40.4662 9.834 40.1242 9.51 39.7642 9.15C39.3862 8.826 39.0262 8.484 38.6662 8.142C38.1982 8.898 37.6582 9.618 37.0462 10.302C36.4162 10.986 35.7322 11.652 35.0122 12.3C34.8322 12.444 34.6882 12.534 34.5442 12.552C34.3822 12.588 34.2562 12.552 34.1842 12.48C34.1122 12.39 34.0762 12.282 34.1122 12.174C34.1302 12.066 34.2202 11.94 34.3642 11.778C34.7602 11.346 35.1742 10.842 35.5882 10.284C35.9842 9.744 36.3622 9.168 36.7222 8.574C37.0462 7.998 37.3522 7.422 37.6042 6.846C37.8382 6.27 38.0182 5.748 38.1262 5.244C38.1262 5.172 38.1082 5.118 38.0362 5.046C37.9642 4.992 37.8742 4.938 37.7842 4.884C37.6762 4.848 37.5682 4.812 37.4782 4.776C37.3702 4.758 37.2802 4.74 37.2442 4.722C36.9022 4.632 36.7762 4.452 36.8662 4.182C36.8842 4.11 36.9562 4.02 37.0822 3.93C37.1902 3.858 37.3522 3.804 37.5862 3.804C37.8742 3.804 38.1982 3.84 38.5582 3.876C38.9002 3.948 39.2422 4.038 39.5842 4.164C39.8182 4.254 39.9622 4.362 40.0162 4.488C40.0522 4.632 40.0342 4.812 39.9802 5.028ZM41.2402 14.676C41.2402 15.324 41.4562 15.792 41.8882 16.08C42.3022 16.35 42.8782 16.44 43.6342 16.35C44.3902 16.26 44.9662 16.026 45.3982 15.648C45.8122 15.252 46.0282 14.748 46.0282 14.1C46.0282 13.452 45.8122 13.002 45.3982 12.714C44.9662 12.444 44.3902 12.354 43.6342 12.444C42.8782 12.552 42.3022 12.786 41.8882 13.146C41.4562 13.524 41.2402 14.028 41.2402 14.676ZM56.9619 3.372C57.1959 3.336 57.3759 3.264 57.5199 3.156L57.7539 3.048C57.8259 3.012 57.9159 2.976 58.0239 2.94C58.1859 2.94 58.3659 2.922 58.5459 2.904C58.7259 2.904 58.8879 2.904 59.0499 2.922C59.1939 2.958 59.3199 3.012 59.4279 3.066C59.5179 3.138 59.5719 3.246 59.5719 3.372C59.5719 3.48 59.5359 3.57 59.4819 3.678C59.4099 3.786 59.3379 3.894 59.2659 3.984L59.1579 4.128C59.1219 4.182 59.0859 4.236 59.0679 4.29C58.6539 5.154 58.1679 5.982 57.6099 6.738C57.0339 7.53 56.4219 8.268 55.7379 8.952C55.0359 9.654 54.2979 10.302 53.5239 10.914C52.7319 11.526 51.9219 12.102 51.0939 12.606C50.9679 12.678 50.8419 12.696 50.7159 12.696C50.5719 12.714 50.4819 12.678 50.4099 12.606C50.3379 12.534 50.3379 12.444 50.3739 12.318C50.4099 12.21 50.4819 12.102 50.6259 11.994C51.9939 10.986 53.2719 9.834 54.4239 8.538C55.5759 7.242 56.4759 5.838 57.1599 4.29C56.5479 4.38 55.9899 4.47 55.4679 4.542C54.9279 4.65 54.4959 4.74 54.1719 4.812C54.0459 4.848 53.9379 4.884 53.8479 4.92C53.7399 4.992 53.6679 5.046 53.5959 5.1C53.4519 5.208 53.3079 5.28 53.1459 5.334C52.9659 5.406 52.7859 5.424 52.5879 5.352C52.2639 5.298 51.9399 5.208 51.6519 5.064C51.3459 4.956 51.1479 4.866 51.0579 4.794C50.9139 4.722 50.8599 4.614 50.8599 4.47C50.8599 4.326 50.9139 4.218 51.0399 4.146C51.1479 4.092 51.3099 4.056 51.5079 4.056C51.7959 4.074 52.0839 4.074 52.3899 4.038C52.6779 4.02 52.9479 3.984 53.1999 3.948C53.3979 3.93 53.6499 3.894 53.9559 3.84C54.2439 3.804 54.5679 3.768 54.9099 3.714C55.2339 3.678 55.5939 3.624 55.9539 3.552C56.2959 3.498 56.6199 3.444 56.9439 3.372H56.9619ZM63.2619 5.262L63.6579 5.208C63.7839 5.19 63.9099 5.154 64.0179 5.082C64.1259 5.028 64.2159 4.956 64.3059 4.884C64.3959 4.812 64.4859 4.74 64.5759 4.686C64.6479 4.65 64.7559 4.614 64.8999 4.578C65.0979 4.56 65.2959 4.542 65.5119 4.542C65.7099 4.542 65.9079 4.56 66.1239 4.578C66.3039 4.632 66.4659 4.704 66.5739 4.812C66.6819 4.938 66.7359 5.064 66.7359 5.19C66.7359 5.604 66.4479 5.838 65.9079 5.91L63.2619 6.234V6.9C63.2619 7.17 63.2439 7.494 63.2439 7.854C63.2259 8.25 63.1899 8.61 63.1359 8.952C63.0639 9.312 62.9739 9.636 62.8659 9.888C62.7219 10.158 62.5419 10.302 62.3259 10.32C62.2179 10.338 62.1459 10.32 62.0739 10.248C62.0019 10.212 61.9299 10.104 61.8939 9.96C61.8219 9.816 61.7859 9.618 61.7679 9.366C61.7319 9.114 61.7139 8.79 61.7139 8.394V2.616C61.7139 2.382 61.6059 2.202 61.3899 2.076C61.1739 1.968 60.8499 1.86 60.4359 1.77C60.2919 1.752 60.1839 1.716 60.1119 1.644C60.0219 1.59 59.9859 1.5 59.9859 1.356C59.9859 1.248 60.0399 1.122 60.1839 1.014C60.2919 0.923999 60.4719 0.87 60.7239 0.833999C60.8319 0.815999 61.0659 0.797999 61.4079 0.78C61.7319 0.78 62.0739 0.797999 62.3979 0.833999C62.6679 0.87 62.9019 0.923999 63.1179 0.995999C63.3159 1.086 63.4239 1.194 63.4239 1.338C63.4239 1.464 63.4059 1.59 63.3699 1.734C63.3339 1.842 63.3159 1.95 63.2979 2.058C63.2619 2.202 63.2619 2.328 63.2619 2.472V5.262ZM63.0819 14.91C63.0819 15.09 63.0639 15.324 63.0279 15.612C62.9739 15.882 62.9199 16.152 62.8479 16.44C62.7579 16.692 62.6499 16.926 62.5419 17.142C62.4159 17.34 62.2719 17.448 62.1279 17.466C61.8939 17.484 61.7319 17.34 61.6599 17.034C61.5519 16.71 61.5159 16.152 61.5159 15.36V12.156C61.2819 12.192 60.9759 12.228 60.5979 12.282C60.2019 12.354 59.7879 12.408 59.3739 12.462L58.1319 12.678C57.7359 12.75 57.4119 12.822 57.1599 12.876C57.0519 12.912 56.9439 12.966 56.8539 13.002C56.7459 13.056 56.6559 13.11 56.5839 13.146C56.4399 13.254 56.2959 13.326 56.1339 13.38C55.9539 13.452 55.7559 13.47 55.5579 13.416C55.3779 13.38 55.2159 13.344 55.0719 13.29C54.8919 13.254 54.7479 13.2 54.6039 13.128C54.4599 13.074 54.3339 13.02 54.2439 12.966C54.1359 12.93 54.0459 12.876 54.0099 12.84C53.9379 12.804 53.9019 12.75 53.8659 12.696C53.8299 12.66 53.8119 12.588 53.8119 12.516C53.8119 12.372 53.8659 12.264 53.9919 12.192C54.0999 12.138 54.2619 12.102 54.4599 12.102C54.7479 12.12 55.0359 12.12 55.3419 12.084C55.6299 12.066 55.8999 12.03 56.1519 11.994C56.3679 11.976 56.6919 11.94 57.0879 11.868C57.4659 11.832 57.8799 11.76 58.3119 11.688C58.7259 11.634 59.1399 11.562 59.5719 11.49C59.9859 11.418 60.3459 11.364 60.6519 11.292C60.8319 11.256 60.9939 11.22 61.1019 11.184C61.1919 11.148 61.2819 11.112 61.3539 11.058C61.4259 11.022 61.5159 10.986 61.6059 10.95C61.6779 10.914 61.7679 10.896 61.8939 10.86C62.0379 10.86 62.2179 10.842 62.3979 10.824C62.5599 10.824 62.7219 10.842 62.8839 10.86C63.0279 10.896 63.1719 10.95 63.2799 11.004C63.3699 11.076 63.4239 11.184 63.4239 11.292C63.4239 11.418 63.3879 11.562 63.3159 11.742C63.2799 11.85 63.2619 11.976 63.2259 12.102C63.1899 12.246 63.1539 12.408 63.1539 12.606L63.0819 14.91ZM74.8666 4.362C75.0646 4.398 75.2446 4.434 75.3886 4.47L75.4966 4.452C75.6586 4.434 75.8026 4.398 75.9106 4.326C76.0186 4.272 76.1086 4.218 76.1986 4.146C76.2706 4.092 76.3426 4.038 76.4146 4.002C76.4686 3.966 76.5406 3.948 76.6306 3.93C76.7746 3.912 76.8826 3.894 76.9906 3.894C77.0806 3.894 77.2066 3.912 77.3866 3.93C77.4946 3.966 77.5846 3.984 77.6386 3.984C77.7106 3.984 77.7646 3.984 77.8006 3.948C77.8546 3.948 77.9446 3.948 78.0526 3.912C78.1426 3.912 78.2506 3.894 78.3946 3.858C78.6826 3.822 78.9706 3.822 79.2586 3.822C79.3486 3.84 79.4386 3.858 79.5106 3.858C79.5646 3.876 79.6186 3.894 79.6906 3.894H79.7086L80.6806 3.768C80.8066 3.75 80.9146 3.714 81.0226 3.66C81.1126 3.624 81.2026 3.57 81.2746 3.498C81.3466 3.444 81.4366 3.39 81.5086 3.336C81.5806 3.3 81.6706 3.264 81.7966 3.228C81.9586 3.21 82.0846 3.192 82.1926 3.192C82.2646 3.21 82.3726 3.228 82.5166 3.228C82.7686 3.264 82.9486 3.318 83.0566 3.39C83.1466 3.498 83.2006 3.624 83.2006 3.786C83.2006 3.966 83.1286 4.092 82.9846 4.182C82.8406 4.29 82.6606 4.344 82.4446 4.38C82.0666 4.452 81.6706 4.506 81.2566 4.542C80.8246 4.596 80.4286 4.65 80.0506 4.704V8.142C80.0506 8.304 80.0686 8.412 80.1406 8.448C80.1766 8.52 80.2666 8.538 80.3926 8.52L80.8066 8.448C80.9326 8.43 81.0406 8.394 81.1486 8.322C81.2206 8.286 81.3106 8.232 81.3826 8.16C81.4546 8.106 81.5446 8.052 81.6346 7.998C81.7066 7.962 81.7966 7.926 81.9226 7.89C82.2466 7.854 82.6066 7.854 82.9666 7.89C83.1646 7.926 83.3086 7.98 83.4166 8.088C83.4886 8.196 83.5426 8.322 83.5426 8.448C83.5426 8.826 83.2906 9.042 82.7866 9.096C82.3006 9.168 81.8506 9.24 81.4366 9.294C81.0046 9.366 80.5366 9.438 80.0686 9.51C79.2946 9.618 78.8086 9.402 78.6106 8.826C78.1066 9.204 77.5846 9.528 77.0626 9.816C76.5226 10.122 76.0546 10.302 75.6766 10.338C75.0466 10.41 74.6326 10.302 74.4346 9.996C74.2186 9.708 74.1106 9.276 74.1106 8.7V5.91C74.1106 5.766 74.0386 5.64 73.9126 5.55C73.7686 5.478 73.5706 5.424 73.3366 5.37C73.1926 5.352 73.1026 5.298 73.0306 5.226C72.9406 5.172 72.9046 5.082 72.9226 4.956C72.9226 4.866 72.9946 4.776 73.1026 4.668C73.1926 4.596 73.3726 4.524 73.6246 4.47C73.7506 4.452 73.9306 4.416 74.1466 4.38C74.3446 4.344 74.5786 4.344 74.8666 4.362ZM76.5586 14.154C76.4146 14.19 76.2886 14.244 76.1986 14.28C76.0906 14.352 75.9826 14.406 75.8926 14.46C75.7306 14.568 75.5686 14.64 75.3886 14.712C75.2086 14.802 74.9926 14.82 74.7586 14.748C74.3806 14.676 74.0206 14.55 73.6786 14.388C73.3186 14.244 73.0666 14.1 72.9586 13.974C72.9226 13.938 72.8866 13.902 72.8506 13.848C72.8146 13.812 72.7966 13.758 72.7966 13.686C72.7966 13.524 72.8686 13.398 73.0126 13.326C73.1386 13.254 73.3186 13.218 73.5346 13.2C73.8766 13.218 74.2186 13.218 74.5786 13.182C74.9026 13.164 75.2266 13.128 75.5326 13.092C75.7846 13.056 76.1446 13.002 76.5766 12.912C76.9906 12.84 77.4586 12.75 77.9986 12.624C78.5026 12.516 79.0606 12.372 79.6726 12.228C80.2666 12.084 80.8606 11.94 81.4726 11.76C82.0666 11.616 82.6606 11.454 83.2546 11.274C83.8306 11.112 84.3706 10.95 84.8746 10.788V2.472C84.8746 2.238 84.7666 2.058 84.5506 1.932C84.3346 1.824 84.0106 1.716 83.5966 1.626C83.4526 1.608 83.3446 1.572 83.2726 1.5C83.1826 1.446 83.1466 1.356 83.1466 1.212C83.1466 1.104 83.2006 0.977999 83.3446 0.87C83.4526 0.78 83.6326 0.725999 83.8846 0.69C83.9926 0.671999 84.2266 0.653999 84.5686 0.635999C84.8926 0.635999 85.2346 0.653999 85.5586 0.671999C85.8286 0.707999 86.0626 0.762 86.2786 0.833999C86.4766 0.923999 86.5846 1.032 86.5846 1.176C86.5846 1.32 86.5666 1.446 86.5306 1.59C86.4946 1.698 86.4766 1.806 86.4586 1.914C86.4226 2.058 86.4226 2.184 86.4226 2.328V13.02V14.154C86.4046 14.622 86.3686 15.054 86.3146 15.486C86.2426 15.9 86.1526 16.26 86.0446 16.584C85.9006 16.89 85.7206 17.07 85.4866 17.106C85.2886 17.124 85.1446 16.944 85.0366 16.584C84.9286 16.206 84.8746 15.63 84.8746 14.838V11.76C83.5606 12.228 82.1926 12.66 80.7886 13.056C79.3486 13.47 77.9446 13.83 76.5586 14.154ZM75.9466 8.916C76.1806 8.898 76.5226 8.79 76.9546 8.61C77.3866 8.448 77.9086 8.214 78.5206 7.89V5.352C78.5206 5.208 78.4666 5.1 78.3586 5.028C78.2506 4.956 78.0346 4.902 77.7466 4.866C77.6026 4.992 77.4226 5.064 77.2066 5.064L75.6406 5.298V8.592C75.6406 8.736 75.6586 8.826 75.7126 8.862C75.7486 8.916 75.8386 8.934 75.9466 8.916ZM101.856 4.812C101.856 5.424 101.73 5.964 101.478 6.432C101.208 6.918 100.866 7.332 100.452 7.656C100.02 7.998 99.5343 8.268 98.9943 8.466C98.4363 8.682 97.8783 8.808 97.3023 8.88C96.7263 8.952 96.1683 8.952 95.6283 8.88C95.0703 8.808 94.5843 8.664 94.1703 8.412C93.7383 8.196 93.3963 7.872 93.1443 7.458C92.8743 7.062 92.7483 6.54 92.7483 5.928C92.7483 5.316 92.8743 4.776 93.1443 4.272C93.3963 3.804 93.7383 3.39 94.1703 3.03C94.5843 2.688 95.0703 2.418 95.6283 2.202C96.1683 2.004 96.7263 1.86 97.3023 1.788C97.8783 1.716 98.4543 1.716 99.0123 1.788C99.5523 1.86 100.02 2.022 100.452 2.256C100.866 2.508 101.208 2.85 101.478 3.264C101.73 3.696 101.856 4.2 101.856 4.812ZM104.466 10.464C104.07 10.5 103.638 10.554 103.134 10.59C102.612 10.662 102.072 10.716 101.496 10.788C100.956 10.86 100.434 10.914 99.9123 10.986C99.3723 11.076 98.8323 11.148 98.3103 11.22V14.352C98.3103 14.622 98.2923 14.946 98.2923 15.324C98.2563 15.684 98.2203 16.062 98.1663 16.422C98.0943 16.764 97.9863 17.07 97.8783 17.34C97.7343 17.592 97.5543 17.736 97.3383 17.772C97.2303 17.772 97.1583 17.754 97.0863 17.718C96.9963 17.646 96.9243 17.556 96.8703 17.412C96.7983 17.268 96.7623 17.07 96.7443 16.818C96.7083 16.566 96.6903 16.242 96.6903 15.864V11.436C95.9703 11.544 95.3403 11.652 94.7823 11.742C94.2063 11.85 93.7563 11.94 93.4323 12.012C93.2883 12.048 93.1623 12.102 93.0363 12.138L92.6583 12.318C92.4423 12.426 92.2263 12.516 92.0103 12.588C91.7763 12.66 91.5423 12.678 91.2903 12.606C90.9303 12.534 90.6063 12.408 90.3183 12.264C89.9943 12.12 89.7963 12.012 89.6883 11.94C89.5263 11.868 89.4543 11.742 89.4543 11.58C89.4543 11.4 89.5263 11.274 89.6703 11.202C89.7963 11.148 89.9763 11.112 90.1923 11.094C90.5343 11.112 90.9123 11.112 91.3443 11.076C91.7403 11.058 92.1003 11.022 92.4243 10.986C92.5863 10.968 92.8743 10.932 93.3063 10.86C93.7203 10.824 94.2063 10.752 94.7823 10.68C95.3223 10.608 95.9163 10.536 96.5463 10.446C97.1583 10.374 97.7703 10.284 98.3463 10.194C98.9223 10.122 99.4443 10.05 99.9303 9.96C100.398 9.888 100.758 9.834 101.01 9.78C101.388 9.708 101.676 9.618 101.874 9.528C102.054 9.456 102.216 9.384 102.36 9.312C102.45 9.276 102.54 9.222 102.63 9.186C102.702 9.168 102.792 9.15 102.936 9.114C103.044 9.114 103.17 9.096 103.35 9.078C103.494 9.078 103.656 9.06 103.836 9.06C103.998 9.06 104.16 9.078 104.34 9.078C104.484 9.096 104.628 9.114 104.754 9.114C105.204 9.204 105.438 9.384 105.438 9.672C105.438 9.888 105.348 10.05 105.186 10.194C105.006 10.356 104.772 10.446 104.466 10.464ZM100.2 5.01C100.2 4.614 100.128 4.29 99.9843 4.002C99.8223 3.732 99.6243 3.516 99.3723 3.336C99.1023 3.192 98.7963 3.084 98.4543 3.03C98.0943 2.994 97.6983 2.994 97.3023 3.03C96.8703 3.084 96.4923 3.174 96.1503 3.3C95.7903 3.444 95.4843 3.642 95.2323 3.858C94.9623 4.092 94.7643 4.362 94.6203 4.668C94.4583 4.992 94.3863 5.334 94.3863 5.73C94.3863 6.126 94.4583 6.45 94.6203 6.702C94.7643 6.99 94.9623 7.206 95.2323 7.35C95.4843 7.53 95.7903 7.638 96.1503 7.674C96.4923 7.728 96.8703 7.728 97.3023 7.674C97.6983 7.638 98.0943 7.53 98.4543 7.386C98.7963 7.26 99.1023 7.08 99.3723 6.846C99.6243 6.63 99.8223 6.36 99.9843 6.036C100.128 5.748 100.2 5.406 100.2 5.01ZM120.098 13.038V14.172C120.08 14.64 120.044 15.072 119.99 15.504C119.918 15.918 119.828 16.296 119.72 16.62C119.576 16.926 119.396 17.088 119.162 17.124C118.748 17.178 118.55 16.422 118.55 14.856V2.49C118.55 2.256 118.442 2.076 118.226 1.95C118.01 1.842 117.686 1.734 117.272 1.644C117.128 1.626 117.02 1.59 116.948 1.518C116.858 1.464 116.822 1.374 116.822 1.23C116.822 1.122 116.876 0.995999 117.02 0.887999C117.128 0.797999 117.308 0.743999 117.56 0.707999C117.668 0.69 117.902 0.671999 118.244 0.653999C118.568 0.653999 118.91 0.671999 119.234 0.707999C119.504 0.743999 119.738 0.797999 119.954 0.87C120.152 0.959999 120.26 1.068 120.26 1.212C120.26 1.338 120.242 1.464 120.206 1.608C120.17 1.716 120.152 1.824 120.134 1.932C120.098 2.076 120.098 2.202 120.098 2.346V13.038ZM113.168 4.47C113.402 4.434 113.582 4.362 113.726 4.254L113.96 4.146C114.032 4.11 114.122 4.074 114.23 4.056C114.392 4.038 114.572 4.02 114.752 4.002C114.932 4.002 115.094 4.02 115.256 4.038C115.4 4.074 115.526 4.11 115.634 4.164C115.724 4.236 115.778 4.344 115.778 4.47C115.778 4.578 115.742 4.668 115.688 4.776C115.616 4.884 115.544 4.992 115.472 5.082C115.436 5.154 115.4 5.19 115.364 5.226C115.328 5.28 115.292 5.334 115.274 5.388C114.482 7.332 113.492 9.078 112.268 10.626C111.026 12.174 109.55 13.578 107.858 14.838C107.57 15.018 107.372 15.036 107.228 14.874C107.156 14.802 107.138 14.712 107.156 14.604C107.156 14.514 107.21 14.406 107.336 14.28C108.668 13.02 109.856 11.652 110.9 10.176C111.944 8.736 112.772 7.134 113.402 5.388C112.79 5.496 112.25 5.586 111.764 5.658C111.26 5.748 110.846 5.82 110.522 5.892C110.396 5.928 110.288 5.964 110.198 6C110.09 6.072 110.018 6.126 109.946 6.18C109.802 6.288 109.658 6.36 109.496 6.414C109.316 6.486 109.136 6.504 108.938 6.45C108.614 6.378 108.29 6.288 108.002 6.144C107.696 6.036 107.498 5.946 107.408 5.874C107.264 5.802 107.21 5.694 107.21 5.568C107.21 5.424 107.264 5.316 107.39 5.244C107.498 5.19 107.66 5.154 107.858 5.136C108.146 5.154 108.434 5.154 108.74 5.118C109.028 5.1 109.298 5.082 109.55 5.046L111.188 4.812C111.854 4.722 112.52 4.614 113.168 4.47Z" fill="white"/>
<g filter="url(#filter0_d_124_529)">
<mask id="path-2-inside-1_124_529" fill="white">
<path d="M25 24.9351H131V27.1974H25V24.9351Z"/>
</mask>
<path d="M131 24.1974H25V30.1974H131V24.1974Z" fill="white" mask="url(#path-2-inside-1_124_529)"/>
</g>
<defs>
<filter id="filter0_d_124_529" x="0" y="3.93506" width="156" height="52.2622" filterUnits="userSpaceOnUse" color-interpolation-filters="sRGB">
<feFlood flood-opacity="0" result="BackgroundImageFix"/>
<feColorMatrix in="SourceAlpha" type="matrix" values="0 0 0 0 0 0 0 0 0 0 0 0 0 0 0 0 0 0 127 0" result="hardAlpha"/>
<feMorphology radius="5" operator="dilate" in="SourceAlpha" result="effect1_dropShadow_124_529"/>
<feOffset dy="4"/>
<feGaussianBlur stdDeviation="10"/>
<feComposite in2="hardAlpha" operator="out"/>
<feColorMatrix type="matrix" values="0 0 0 0 1 0 0 0 0 1 0 0 0 0 1 0 0 0 0.5 0"/>
<feBlend mode="normal" in2="BackgroundImageFix" result="effect1_dropShadow_124_529"/>
<feBlend mode="normal" in="SourceGraphic" in2="effect1_dropShadow_124_529" result="shape"/>
</filter>
</defs>
</svg>
