<svg width="110" height="57" viewBox="0 0 110 57" fill="none" xmlns="http://www.w3.org/2000/svg">
<path d="M45.202 4.146C45.094 4.56 44.968 4.974 44.806 5.37C44.626 5.802 44.41 6.198 44.194 6.594C44.5 6.846 44.806 7.062 45.094 7.26C45.364 7.476 45.544 7.602 45.652 7.656C45.724 7.692 45.814 7.728 45.922 7.728C46.012 7.746 46.102 7.746 46.21 7.746C46.372 7.746 46.534 7.764 46.696 7.782C46.84 7.818 46.984 7.872 47.11 7.98C47.2 8.088 47.29 8.214 47.398 8.34C47.47 8.484 47.56 8.628 47.65 8.772C47.722 8.934 47.776 9.078 47.848 9.204C47.884 9.348 47.92 9.474 47.938 9.564C47.956 9.708 47.92 9.816 47.848 9.924C47.758 10.032 47.65 10.104 47.506 10.14C47.398 10.176 47.272 10.176 47.11 10.104C46.93 10.05 46.714 9.924 46.48 9.726L43.636 7.53C43.096 8.322 42.466 9.096 41.746 9.816C41.026 10.554 40.252 11.238 39.424 11.886C39.244 12.03 39.082 12.102 38.938 12.12C38.794 12.156 38.686 12.138 38.614 12.048C38.542 11.958 38.506 11.85 38.524 11.724C38.524 11.616 38.614 11.49 38.794 11.346C39.298 10.896 39.802 10.374 40.306 9.762C40.792 9.168 41.242 8.556 41.674 7.908C42.088 7.296 42.448 6.666 42.754 6.036C43.042 5.424 43.24 4.866 43.348 4.362C43.348 4.29 43.33 4.236 43.258 4.164C43.186 4.128 43.096 4.074 43.006 4.02C42.898 3.984 42.79 3.93 42.7 3.894C42.592 3.876 42.502 3.858 42.466 3.84C42.124 3.75 41.998 3.57 42.088 3.3C42.106 3.228 42.178 3.138 42.304 3.048C42.412 2.976 42.574 2.94 42.808 2.922C43.096 2.94 43.42 2.976 43.78 3.012C44.122 3.066 44.464 3.156 44.806 3.282C45.04 3.39 45.184 3.498 45.238 3.606C45.274 3.75 45.256 3.93 45.202 4.146ZM51.286 5.262L51.682 5.208C51.808 5.19 51.934 5.154 52.042 5.082C52.15 5.028 52.24 4.956 52.33 4.884C52.42 4.812 52.51 4.74 52.6 4.686C52.672 4.65 52.78 4.614 52.924 4.578C53.122 4.56 53.32 4.542 53.536 4.542C53.734 4.542 53.932 4.56 54.148 4.578C54.328 4.632 54.49 4.704 54.598 4.812C54.706 4.938 54.76 5.064 54.76 5.19C54.76 5.604 54.472 5.838 53.932 5.91L51.286 6.234V6.9C51.286 7.17 51.268 7.494 51.268 7.854C51.25 8.25 51.214 8.61 51.16 8.952C51.088 9.312 50.998 9.636 50.89 9.888C50.746 10.158 50.566 10.302 50.35 10.32C50.242 10.338 50.17 10.32 50.098 10.248C50.026 10.212 49.954 10.104 49.918 9.96C49.846 9.816 49.81 9.618 49.792 9.366C49.756 9.114 49.738 8.79 49.738 8.394V2.616C49.738 2.382 49.63 2.202 49.414 2.076C49.198 1.968 48.874 1.86 48.46 1.77C48.316 1.752 48.208 1.716 48.136 1.644C48.046 1.59 48.01 1.5 48.01 1.356C48.01 1.248 48.064 1.122 48.208 1.014C48.316 0.923999 48.496 0.87 48.748 0.833999C48.856 0.815999 49.09 0.797999 49.432 0.78C49.756 0.78 50.098 0.797999 50.422 0.833999C50.692 0.87 50.926 0.923999 51.142 0.995999C51.34 1.086 51.448 1.194 51.448 1.338C51.448 1.464 51.43 1.59 51.394 1.734C51.358 1.842 51.34 1.95 51.322 2.058C51.286 2.202 51.286 2.328 51.286 2.472V5.262ZM51.106 14.91C51.106 15.09 51.088 15.324 51.052 15.612C50.998 15.882 50.944 16.152 50.872 16.44C50.782 16.692 50.674 16.926 50.566 17.142C50.44 17.34 50.296 17.448 50.152 17.466C49.918 17.484 49.756 17.34 49.684 17.034C49.576 16.71 49.54 16.152 49.54 15.36V12.156C49.306 12.192 49 12.228 48.622 12.282C48.226 12.354 47.812 12.408 47.398 12.462L46.156 12.678C45.76 12.75 45.436 12.822 45.184 12.876C45.076 12.912 44.968 12.966 44.878 13.002C44.77 13.056 44.68 13.11 44.608 13.146C44.464 13.254 44.32 13.326 44.158 13.38C43.978 13.452 43.78 13.47 43.582 13.416C43.402 13.38 43.24 13.344 43.096 13.29C42.916 13.254 42.772 13.2 42.628 13.128C42.484 13.074 42.358 13.02 42.268 12.966C42.16 12.93 42.07 12.876 42.034 12.84C41.962 12.804 41.926 12.75 41.89 12.696C41.854 12.66 41.836 12.588 41.836 12.516C41.836 12.372 41.89 12.264 42.016 12.192C42.124 12.138 42.286 12.102 42.484 12.102C42.772 12.12 43.06 12.12 43.366 12.084C43.654 12.066 43.924 12.03 44.176 11.994C44.392 11.976 44.716 11.94 45.112 11.868C45.49 11.832 45.904 11.76 46.336 11.688C46.75 11.634 47.164 11.562 47.596 11.49C48.01 11.418 48.37 11.364 48.676 11.292C48.856 11.256 49.018 11.22 49.126 11.184C49.216 11.148 49.306 11.112 49.378 11.058C49.45 11.022 49.54 10.986 49.63 10.95C49.702 10.914 49.792 10.896 49.918 10.86C50.062 10.86 50.242 10.842 50.422 10.824C50.584 10.824 50.746 10.842 50.908 10.86C51.052 10.896 51.196 10.95 51.304 11.004C51.394 11.076 51.448 11.184 51.448 11.292C51.448 11.418 51.412 11.562 51.34 11.742C51.304 11.85 51.286 11.976 51.25 12.102C51.214 12.246 51.178 12.408 51.178 12.606L51.106 14.91ZM60.9057 4.632C61.0497 4.614 61.1577 4.578 61.2657 4.524C61.3377 4.488 61.4097 4.47 61.4817 4.434C61.5537 4.398 61.6257 4.344 61.7157 4.29C61.7877 4.254 61.8777 4.236 61.9857 4.218C62.1477 4.218 62.3277 4.2 62.5077 4.182C62.6877 4.182 62.8497 4.182 63.0117 4.2C63.1557 4.236 63.2817 4.29 63.3897 4.344C63.4797 4.416 63.5337 4.524 63.5337 4.65C63.5337 4.758 63.4977 4.848 63.4437 4.938C63.3717 5.046 63.3177 5.154 63.2457 5.244C63.1917 5.316 63.1557 5.37 63.1197 5.406C63.0837 5.46 63.0477 5.514 63.0297 5.55C62.5077 6.882 61.8777 8.142 61.1577 9.33C61.3737 9.546 61.5537 9.744 61.7337 9.888C61.8957 10.068 62.0037 10.158 62.0577 10.194C62.1117 10.266 62.1837 10.302 62.2917 10.302C62.3817 10.338 62.4717 10.356 62.5797 10.374C62.7057 10.41 62.8497 10.446 62.9937 10.5C63.1377 10.572 63.2457 10.662 63.3537 10.77C63.5337 11.004 63.6957 11.256 63.8397 11.508L64.2717 12.39C64.3257 12.516 64.3617 12.66 64.3617 12.822C64.3617 13.002 64.2897 13.146 64.1637 13.254C64.0917 13.308 64.0377 13.344 63.9657 13.38C63.8757 13.416 63.7857 13.434 63.7137 13.434C63.6057 13.434 63.4977 13.398 63.3537 13.308C63.1917 13.236 63.0117 13.074 62.8317 12.858C62.4357 12.462 62.0577 12.03 61.6617 11.598L60.4917 10.302C59.2857 11.994 57.8457 13.488 56.1717 14.766C55.8837 14.946 55.6857 14.964 55.5417 14.784C55.4697 14.73 55.4517 14.64 55.4697 14.532C55.4697 14.442 55.5237 14.334 55.6497 14.19C56.8377 13.002 57.9177 11.67 58.8897 10.194C59.8257 8.736 60.5817 7.188 61.1577 5.568C60.9417 5.604 60.7437 5.64 60.5997 5.658C60.4377 5.694 60.2937 5.712 60.1497 5.748L59.7357 5.838C59.5917 5.874 59.4477 5.91 59.2677 5.946C59.1417 5.982 59.0337 6.018 58.9617 6.054C58.8537 6.108 58.7817 6.162 58.7097 6.216C58.5657 6.324 58.4217 6.396 58.2597 6.468C58.0797 6.54 57.8997 6.558 57.7017 6.486C57.3777 6.432 57.0537 6.342 56.7657 6.198C56.4597 6.09 56.2617 6 56.1717 5.928C56.0277 5.856 55.9737 5.748 55.9737 5.604C55.9737 5.46 56.0277 5.352 56.1537 5.28C56.2617 5.226 56.4237 5.19 56.6217 5.19C56.9097 5.208 57.1977 5.208 57.5037 5.172C57.7917 5.154 58.0617 5.118 58.3137 5.082C58.5117 5.064 58.7097 5.046 58.8897 5.01C59.0697 4.992 59.2497 4.956 59.4477 4.92C59.6277 4.884 59.8437 4.848 60.0957 4.794C60.3117 4.758 60.5817 4.704 60.9057 4.632ZM69.7257 12.966V14.1C69.7077 14.568 69.6717 15 69.6177 15.432C69.5457 15.864 69.4557 16.224 69.3477 16.548C69.2037 16.854 69.0237 17.034 68.7897 17.07C68.5917 17.088 68.4477 16.908 68.3397 16.548C68.2317 16.17 68.1777 15.594 68.1777 14.802V2.436C68.1777 2.202 68.0697 2.022 67.8537 1.896C67.6377 1.788 67.3137 1.68 66.8997 1.59C66.7557 1.554 66.6477 1.518 66.5757 1.446C66.4857 1.41 66.4497 1.32 66.4497 1.176C66.4497 1.068 66.5037 0.942 66.6477 0.833999C66.7557 0.743999 66.9357 0.69 67.1877 0.653999C67.2957 0.635999 67.5297 0.618 67.8717 0.6C68.1957 0.6 68.5377 0.618 68.8617 0.635999C69.1317 0.671999 69.3657 0.725999 69.5817 0.797999C69.7797 0.887999 69.8877 0.995999 69.8877 1.14C69.8877 1.266 69.8697 1.41 69.8337 1.554C69.7977 1.662 69.7797 1.77 69.7617 1.878C69.7257 2.004 69.7257 2.13 69.7257 2.274V12.966ZM66.7557 12.318V13.452C66.7377 13.92 66.7017 14.352 66.6477 14.766C66.5757 15.198 66.4857 15.558 66.3777 15.882C66.2337 16.188 66.0537 16.368 65.8197 16.404C65.4057 16.458 65.2077 15.702 65.2077 14.136V8.628C65.0277 8.7 64.9197 8.754 64.8477 8.826C64.7397 8.898 64.6497 8.952 64.5597 8.988C64.4517 9.042 64.3077 9.06 64.1097 9.024C64.0017 9.024 63.8937 8.988 63.7857 8.952C63.6597 8.916 63.5337 8.88 63.4257 8.844C63.2817 8.808 63.1737 8.772 63.0657 8.718C62.9577 8.682 62.8677 8.628 62.7957 8.592C62.6877 8.538 62.6157 8.484 62.5797 8.412C62.5077 8.376 62.4897 8.304 62.4897 8.196C62.4897 8.106 62.5077 8.016 62.5797 7.944C62.6337 7.89 62.7417 7.854 62.9217 7.818L63.3897 7.764C63.4797 7.746 63.5697 7.728 63.6777 7.728C63.7497 7.728 63.8397 7.728 63.9477 7.71L65.2077 7.548V3.912C65.2077 3.678 65.0997 3.498 64.8837 3.372C64.6677 3.264 64.3437 3.156 63.9297 3.066C63.7857 3.048 63.6777 3.012 63.6057 2.94C63.5157 2.886 63.4797 2.796 63.4797 2.652C63.4797 2.544 63.5337 2.418 63.6777 2.31C63.7857 2.22 63.9657 2.166 64.2177 2.13C64.3257 2.112 64.5597 2.094 64.9017 2.076C65.2257 2.076 65.5677 2.094 65.8917 2.112C66.1617 2.148 66.3957 2.202 66.6117 2.274C66.8097 2.364 66.9177 2.472 66.9177 2.616C66.9177 2.76 66.8997 2.886 66.8637 3.03C66.8277 3.138 66.8097 3.246 66.7917 3.354C66.7557 3.498 66.7557 3.624 66.7557 3.768V12.318Z" fill="white"/>
<g filter="url(#filter0_d_123_526)">
<mask id="path-2-inside-1_123_526" fill="white">
<path d="M25 24.9351H85V27.1974H25V24.9351Z"/>
</mask>
<path d="M85 24.1974H25V30.1974H85V24.1974Z" fill="white" mask="url(#path-2-inside-1_123_526)"/>
</g>
<defs>
<filter id="filter0_d_123_526" x="0" y="3.93506" width="110" height="52.2622" filterUnits="userSpaceOnUse" color-interpolation-filters="sRGB">
<feFlood flood-opacity="0" result="BackgroundImageFix"/>
<feColorMatrix in="SourceAlpha" type="matrix" values="0 0 0 0 0 0 0 0 0 0 0 0 0 0 0 0 0 0 127 0" result="hardAlpha"/>
<feMorphology radius="5" operator="dilate" in="SourceAlpha" result="effect1_dropShadow_123_526"/>
<feOffset dy="4"/>
<feGaussianBlur stdDeviation="10"/>
<feComposite in2="hardAlpha" operator="out"/>
<feColorMatrix type="matrix" values="0 0 0 0 1 0 0 0 0 1 0 0 0 0 1 0 0 0 0.5 0"/>
<feBlend mode="normal" in2="BackgroundImageFix" result="effect1_dropShadow_123_526"/>
<feBlend mode="normal" in="SourceGraphic" in2="effect1_dropShadow_123_526" result="shape"/>
</filter>
</defs>
</svg>
