<svg width="40" height="40" viewBox="0 0 40 40" fill="none" xmlns="http://www.w3.org/2000/svg">
<path opacity="0.2" d="M33.75 7.5V32.5C33.75 32.8315 33.6183 33.1495 33.3839 33.3839C33.1495 33.6183 32.8315 33.75 32.5 33.75H7.5C7.16848 33.75 6.85054 33.6183 6.61612 33.3839C6.3817 33.1495 6.25 32.8315 6.25 32.5V7.5C6.25 7.16848 6.3817 6.85054 6.61612 6.61612C6.85054 6.3817 7.16848 6.25 7.5 6.25H32.5C32.8315 6.25 33.1495 6.3817 33.3839 6.61612C33.6183 6.85054 33.75 7.16848 33.75 7.5Z" fill="#F8F8F8"/>
<path d="M32.1346 30.3656C32.2507 30.4817 32.3428 30.6196 32.4057 30.7713C32.4686 30.9231 32.5009 31.0857 32.5009 31.25C32.5009 31.4142 32.4686 31.5768 32.4057 31.7286C32.3428 31.8803 32.2507 32.0182 32.1346 32.1343C32.0184 32.2505 31.8806 32.3426 31.7288 32.4055C31.5771 32.4683 31.4145 32.5007 31.2502 32.5007C31.086 32.5007 30.9233 32.4683 30.7716 32.4055C30.6198 32.3426 30.482 32.2505 30.3658 32.1343L20.0002 21.7671L9.63458 32.1343C9.40003 32.3689 9.08191 32.5007 8.75021 32.5007C8.4185 32.5007 8.10038 32.3689 7.86583 32.1343C7.63128 31.8998 7.49951 31.5817 7.49951 31.25C7.49951 30.9183 7.63128 30.6001 7.86583 30.3656L18.233 20L7.86583 9.63434C7.63128 9.39979 7.49951 9.08167 7.49951 8.74996C7.49951 8.41826 7.63128 8.10014 7.86583 7.86559C8.10038 7.63104 8.4185 7.49927 8.75021 7.49927C9.08191 7.49927 9.40003 7.63104 9.63458 7.86559L20.0002 18.2328L30.3658 7.86559C30.6004 7.63104 30.9185 7.49927 31.2502 7.49927C31.5819 7.49927 31.9 7.63104 32.1346 7.86559C32.3691 8.10014 32.5009 8.41826 32.5009 8.74996C32.5009 9.08167 32.3691 9.39979 32.1346 9.63434L21.7674 20L32.1346 30.3656Z" fill="#F8F8F8"/>
</svg>
