<svg width="110" height="56" viewBox="0 0 110 56" fill="none" xmlns="http://www.w3.org/2000/svg">
<path d="M42.628 14.594C42.628 14.09 42.718 13.64 42.934 13.208C43.114 12.812 43.402 12.452 43.762 12.128C44.104 11.84 44.518 11.588 45.022 11.372C45.508 11.192 46.048 11.048 46.642 10.976C47.218 10.904 47.776 10.904 48.28 10.976C48.766 11.048 49.18 11.192 49.54 11.408C49.882 11.642 50.152 11.93 50.368 12.29C50.548 12.668 50.656 13.1 50.656 13.604C50.656 14.108 50.548 14.558 50.368 14.99C50.152 15.386 49.882 15.746 49.54 16.07C49.18 16.358 48.766 16.61 48.28 16.826C47.776 17.006 47.218 17.15 46.642 17.222C46.048 17.294 45.508 17.294 45.022 17.222C44.518 17.132 44.104 16.988 43.762 16.772C43.402 16.556 43.114 16.268 42.934 15.908C42.718 15.53 42.628 15.098 42.628 14.594ZM48.586 5.594C48.712 5.576 48.82 5.54 48.928 5.468C49.018 5.414 49.108 5.342 49.216 5.27C49.306 5.198 49.396 5.144 49.504 5.072C49.576 5.036 49.684 5 49.828 4.982C50.026 4.964 50.224 4.946 50.44 4.928C50.638 4.928 50.836 4.946 51.052 4.964C51.232 5.018 51.394 5.09 51.502 5.198C51.61 5.324 51.664 5.45 51.664 5.576C51.664 5.99 51.376 6.224 50.836 6.296C49.594 6.476 48.388 6.62 47.218 6.764L43.582 7.25C42.538 7.394 42.034 6.944 42.034 5.882V3.776C42.034 3.56 41.926 3.38 41.728 3.236C41.512 3.128 41.206 3.02 40.792 2.912C40.648 2.894 40.54 2.858 40.468 2.786C40.378 2.732 40.342 2.642 40.342 2.498C40.342 2.39 40.396 2.282 40.54 2.174C40.648 2.084 40.828 2.012 41.08 1.976C41.188 1.976 41.422 1.958 41.764 1.94C42.088 1.94 42.43 1.94 42.754 1.976C42.808 1.994 42.862 1.994 42.916 1.994C42.952 1.994 42.988 2.012 43.042 2.03L48.226 1.292C48.352 1.274 48.46 1.238 48.568 1.166C48.658 1.112 48.748 1.04 48.856 0.967999C48.946 0.895999 49.036 0.842 49.144 0.788C49.216 0.751999 49.324 0.715999 49.468 0.68C49.666 0.661999 49.864 0.643999 50.08 0.625999C50.278 0.625999 50.476 0.643999 50.692 0.68C50.872 0.715999 51.034 0.788 51.142 0.895999C51.25 1.022 51.304 1.148 51.304 1.274C51.304 1.688 51.016 1.922 50.476 1.994C49.324 2.156 48.172 2.318 47.038 2.462L43.618 2.93V5.864C43.618 6.026 43.636 6.134 43.708 6.17C43.744 6.242 43.834 6.26 43.96 6.242L48.586 5.594ZM53.59 8.708C53.194 8.744 52.762 8.798 52.258 8.834C51.736 8.906 51.178 8.96 50.602 9.032C49.828 9.14 49.036 9.23 48.226 9.338C47.398 9.446 46.624 9.554 45.886 9.662C45.13 9.788 44.464 9.896 43.87 9.986C43.258 10.094 42.79 10.202 42.466 10.274C42.214 10.346 41.962 10.454 41.71 10.58C41.512 10.688 41.314 10.778 41.116 10.832C40.9 10.904 40.666 10.922 40.414 10.85C40.054 10.778 39.73 10.652 39.442 10.508C39.118 10.364 38.92 10.256 38.812 10.184C38.65 10.112 38.578 9.986 38.578 9.824C38.578 9.644 38.65 9.518 38.794 9.446C38.92 9.392 39.1 9.356 39.316 9.338C39.658 9.356 40.036 9.356 40.468 9.32C40.864 9.302 41.224 9.266 41.548 9.23C41.71 9.212 42.016 9.176 42.448 9.104C42.862 9.068 43.348 8.996 43.924 8.924C44.464 8.852 45.058 8.78 45.706 8.69C46.336 8.618 46.948 8.528 47.542 8.438C48.118 8.366 48.658 8.276 49.144 8.204C49.612 8.132 49.972 8.078 50.224 8.024C50.602 7.952 50.89 7.862 51.088 7.772C51.268 7.7 51.394 7.646 51.502 7.574C51.574 7.52 51.664 7.466 51.754 7.43C51.826 7.412 51.916 7.394 52.06 7.358C52.168 7.358 52.294 7.34 52.474 7.322C52.618 7.322 52.78 7.304 52.96 7.304C53.122 7.304 53.284 7.322 53.464 7.322C53.608 7.34 53.752 7.358 53.878 7.358C54.328 7.448 54.562 7.628 54.562 7.916C54.562 8.132 54.472 8.294 54.31 8.438C54.13 8.6 53.896 8.69 53.59 8.708ZM44.23 14.378C44.23 15.008 44.446 15.458 44.878 15.746C45.31 15.998 45.886 16.088 46.642 15.998C47.398 15.89 47.992 15.674 48.424 15.314C48.838 14.936 49.054 14.432 49.054 13.784C49.054 13.136 48.838 12.686 48.424 12.416C47.992 12.164 47.398 12.074 46.642 12.164C45.886 12.272 45.31 12.488 44.878 12.848C44.446 13.226 44.23 13.73 44.23 14.378ZM65.9997 6.566C66.1437 6.548 66.2697 6.512 66.3777 6.44C66.4677 6.386 66.5577 6.332 66.6477 6.26L66.9177 6.098C66.9897 6.062 67.0977 6.026 67.2417 5.99C67.4397 5.972 67.6377 5.954 67.8537 5.954C68.0517 5.954 68.2497 5.972 68.4657 5.99C68.6457 6.026 68.8077 6.116 68.9157 6.224C69.0237 6.35 69.0777 6.476 69.0777 6.602C69.0777 7.016 68.7897 7.25 68.2497 7.304C67.6017 7.412 66.9537 7.502 66.3417 7.574C65.6937 7.664 65.0637 7.736 64.4337 7.808V9.248C65.0277 9.176 65.5677 9.086 66.0537 9.014C66.5217 8.942 66.8997 8.888 67.1517 8.834C67.5297 8.762 67.8177 8.672 68.0157 8.582C68.1957 8.51 68.3217 8.456 68.4297 8.384C68.5017 8.33 68.5917 8.276 68.6817 8.24C68.7537 8.222 68.8437 8.204 68.9877 8.168C69.0957 8.168 69.2217 8.15 69.4017 8.132C69.5457 8.132 69.7077 8.114 69.8877 8.114C70.0497 8.114 70.2117 8.132 70.3917 8.132C70.5357 8.15 70.6797 8.168 70.8057 8.168C71.2557 8.258 71.4897 8.438 71.4897 8.726C71.4897 8.942 71.3997 9.104 71.2377 9.248C71.0577 9.41 70.8237 9.5 70.5177 9.518C70.1217 9.554 69.6897 9.608 69.1857 9.644C68.6637 9.716 68.1057 9.77 67.5297 9.842C66.7557 9.95 65.9637 10.04 65.1537 10.148C64.3257 10.256 63.5517 10.364 62.8137 10.472C62.0577 10.598 61.3917 10.706 60.7977 10.796C60.1857 10.904 59.7177 11.012 59.3937 11.084C59.1417 11.156 58.8897 11.264 58.6377 11.39C58.4397 11.498 58.2417 11.588 58.0437 11.642C57.8277 11.714 57.5937 11.732 57.3417 11.66C56.9817 11.588 56.6577 11.462 56.3697 11.318C56.0457 11.174 55.8477 11.066 55.7397 10.994C55.5777 10.922 55.5057 10.796 55.5057 10.634C55.5057 10.454 55.5777 10.328 55.7217 10.256C55.8477 10.202 56.0277 10.166 56.2437 10.148C56.5857 10.166 56.9637 10.166 57.3957 10.13C57.7917 10.112 58.1517 10.076 58.4757 10.04C58.6017 10.04 58.8177 10.004 59.1057 9.95C59.3937 9.914 59.7357 9.878 60.1317 9.824C60.5277 9.788 60.9597 9.734 61.4277 9.662C61.8957 9.608 62.3637 9.536 62.8497 9.464V8.024C62.4537 8.096 62.0937 8.132 61.7337 8.168L60.5997 8.33C59.5557 8.474 59.0517 8.006 59.0517 6.944V6.008C59.0517 5.864 58.9797 5.738 58.8537 5.63C58.7097 5.54 58.4217 5.45 58.0257 5.342C57.8817 5.324 57.7737 5.288 57.7017 5.216C57.6117 5.162 57.5757 5.072 57.5757 4.928C57.5757 4.82 57.6297 4.694 57.7737 4.586C57.8817 4.496 58.0617 4.442 58.3137 4.406C58.4217 4.406 58.6197 4.388 58.9077 4.37C59.1597 4.37 59.4477 4.388 59.7717 4.406C59.9877 4.442 60.1497 4.496 60.2577 4.55L66.0897 3.722V1.904C65.8377 1.94 65.5137 1.976 65.0817 2.03C64.6317 2.102 64.1637 2.156 63.6957 2.228C63.1917 2.3 62.7237 2.372 62.2917 2.444L61.2477 2.66C61.1397 2.696 61.0497 2.732 60.9597 2.768C60.8517 2.822 60.7437 2.876 60.6537 2.912C60.4917 3.002 60.3297 3.074 60.1857 3.128C60.0057 3.2 59.8257 3.2 59.6277 3.146C59.4477 3.11 59.2857 3.074 59.1237 3.002C58.9437 2.948 58.7997 2.876 58.6557 2.804C58.4937 2.75 58.3677 2.696 58.2597 2.624C58.1517 2.57 58.0617 2.516 58.0257 2.48C57.8997 2.39 57.8457 2.282 57.8457 2.156C57.8457 2.012 57.8997 1.886 58.0257 1.814C58.1337 1.76 58.2957 1.742 58.4937 1.742C58.7817 1.778 59.0697 1.778 59.3937 1.76C59.6997 1.76 59.9877 1.76 60.2397 1.724C60.4557 1.706 60.7977 1.67 61.2657 1.598C61.6977 1.544 62.1837 1.472 62.6877 1.4L64.1637 1.184C64.6317 1.112 65.0277 1.058 65.3337 0.985999C65.5137 0.95 65.6757 0.913999 65.7837 0.86C65.8737 0.823999 65.9637 0.788 66.0357 0.733999C66.1077 0.698 66.1977 0.661999 66.2877 0.625999C66.3597 0.589999 66.4497 0.571999 66.5757 0.553999C66.7197 0.553999 66.8997 0.536 67.0797 0.518C67.2417 0.518 67.4037 0.536 67.5657 0.553999C67.7097 0.589999 67.8537 0.625999 67.9617 0.68C68.0517 0.751999 68.1057 0.86 68.1057 0.967999C68.1057 1.112 68.0697 1.256 67.9977 1.4C67.9617 1.472 67.9257 1.562 67.8897 1.652C67.8537 1.76 67.8177 1.922 67.7997 2.102C67.7637 2.354 67.7277 2.588 67.6917 2.804L67.5837 3.524C67.9437 3.524 68.1417 3.668 68.1417 3.956C68.1417 4.172 68.0517 4.316 67.9077 4.406C67.7457 4.514 67.5477 4.586 67.3137 4.622L63.9837 5.054C62.8677 5.216 61.7697 5.36 60.6537 5.504V6.872C60.6537 7.034 60.6717 7.142 60.7437 7.178C60.7797 7.25 60.8697 7.268 60.9957 7.25L65.9997 6.566ZM68.0877 14.252C68.0877 14.432 68.0697 14.666 68.0337 14.954C67.9797 15.242 67.9257 15.512 67.8537 15.8C67.7637 16.052 67.6557 16.286 67.5477 16.502C67.4217 16.7 67.2777 16.808 67.1337 16.826C66.8997 16.844 66.7377 16.7 66.6657 16.394C66.5577 16.07 66.5217 15.494 66.5217 14.702V12.362C66.2337 12.398 65.8557 12.452 65.3877 12.524C64.9017 12.596 64.3977 12.686 63.8937 12.758C63.3537 12.848 62.8677 12.92 62.4177 12.992C61.9497 13.082 61.5897 13.154 61.3557 13.19C61.2477 13.226 61.1397 13.28 61.0497 13.316C60.9417 13.37 60.8517 13.424 60.7797 13.46C60.6357 13.568 60.4917 13.64 60.3297 13.712C60.1497 13.784 59.9517 13.802 59.7537 13.73C59.5737 13.694 59.4117 13.658 59.2677 13.604C59.0877 13.568 58.9437 13.514 58.7997 13.442C58.6557 13.388 58.5297 13.334 58.4397 13.28C58.3317 13.244 58.2417 13.19 58.2057 13.154C58.0617 13.082 58.0077 12.974 58.0077 12.83C58.0077 12.686 58.0617 12.578 58.1877 12.506C58.2957 12.452 58.4577 12.416 58.6557 12.416C58.9437 12.434 59.2317 12.434 59.5377 12.398C59.8257 12.38 60.0957 12.344 60.3477 12.308C60.5637 12.29 60.9237 12.236 61.4097 12.164C61.8777 12.11 62.3637 12.038 62.9037 11.948C63.4257 11.876 63.9477 11.804 64.4517 11.714C64.9557 11.642 65.3517 11.588 65.6577 11.516C65.8377 11.48 65.9997 11.426 66.1077 11.39C66.1977 11.354 66.2877 11.318 66.3597 11.264C66.4317 11.228 66.5217 11.192 66.6117 11.156C66.6837 11.12 66.7737 11.102 66.8997 11.084C67.0437 11.066 67.2237 11.048 67.4037 11.03C67.5657 11.03 67.7277 11.048 67.8897 11.066C68.0337 11.102 68.1777 11.156 68.2857 11.21C68.3757 11.282 68.4297 11.39 68.4297 11.498C68.4297 11.624 68.3937 11.786 68.3217 11.966C68.2857 12.074 68.2677 12.182 68.2317 12.308C68.1957 12.452 68.1597 12.632 68.1597 12.83L68.0877 14.252Z" fill="white"/>
<g filter="url(#filter0_d_153_783)">
<mask id="path-2-inside-1_153_783" fill="white">
<path d="M25 23.9351H85V26.1974H25V23.9351Z"/>
</mask>
<path d="M85 23.1974H25V29.1974H85V23.1974Z" fill="white" mask="url(#path-2-inside-1_153_783)"/>
</g>
<defs>
<filter id="filter0_d_153_783" x="0" y="2.93506" width="110" height="52.2622" filterUnits="userSpaceOnUse" color-interpolation-filters="sRGB">
<feFlood flood-opacity="0" result="BackgroundImageFix"/>
<feColorMatrix in="SourceAlpha" type="matrix" values="0 0 0 0 0 0 0 0 0 0 0 0 0 0 0 0 0 0 127 0" result="hardAlpha"/>
<feMorphology radius="5" operator="dilate" in="SourceAlpha" result="effect1_dropShadow_153_783"/>
<feOffset dy="4"/>
<feGaussianBlur stdDeviation="10"/>
<feComposite in2="hardAlpha" operator="out"/>
<feColorMatrix type="matrix" values="0 0 0 0 1 0 0 0 0 1 0 0 0 0 1 0 0 0 0.5 0"/>
<feBlend mode="normal" in2="BackgroundImageFix" result="effect1_dropShadow_153_783"/>
<feBlend mode="normal" in="SourceGraphic" in2="effect1_dropShadow_153_783" result="shape"/>
</filter>
</defs>
</svg>
