<svg width="420" height="539" viewBox="0 0 420 539" fill="none" xmlns="http://www.w3.org/2000/svg">
<path d="M203.098 439.422V442.068C203.056 443.16 202.972 444.168 202.846 445.176C202.678 446.142 202.468 447.024 202.216 447.78C201.88 448.494 201.46 448.872 200.914 448.956C199.948 449.082 199.486 447.318 199.486 443.664V414.81C199.486 414.264 199.234 413.844 198.73 413.55C198.226 413.298 197.47 413.046 196.504 412.836C196.168 412.794 195.916 412.71 195.748 412.542C195.538 412.416 195.454 412.206 195.454 411.87C195.454 411.618 195.58 411.324 195.916 411.072C196.168 410.862 196.588 410.736 197.176 410.652C197.428 410.61 197.974 410.568 198.772 410.526C199.528 410.526 200.326 410.568 201.082 410.652C201.712 410.736 202.258 410.862 202.762 411.03C203.224 411.24 203.476 411.492 203.476 411.828C203.476 412.122 203.434 412.416 203.35 412.752C203.266 413.004 203.224 413.256 203.182 413.508C203.098 413.844 203.098 414.138 203.098 414.474V439.422ZM186.928 419.43C187.474 419.346 187.894 419.178 188.23 418.926L188.776 418.674C188.944 418.59 189.154 418.506 189.406 418.464C189.784 418.422 190.204 418.38 190.624 418.338C191.044 418.338 191.422 418.38 191.8 418.422C192.136 418.506 192.43 418.59 192.682 418.716C192.892 418.884 193.018 419.136 193.018 419.43C193.018 419.682 192.934 419.892 192.808 420.144C192.64 420.396 192.472 420.648 192.304 420.858C192.22 421.026 192.136 421.11 192.052 421.194C191.968 421.32 191.884 421.446 191.842 421.572C189.994 426.108 187.684 430.182 184.828 433.794C181.93 437.406 178.486 440.682 174.538 443.622C173.866 444.042 173.404 444.084 173.068 443.706C172.9 443.538 172.858 443.328 172.9 443.076C172.9 442.866 173.026 442.614 173.32 442.32C176.428 439.38 179.2 436.188 181.636 432.744C184.072 429.384 186.004 425.646 187.474 421.572C186.046 421.824 184.786 422.034 183.652 422.202C182.476 422.412 181.51 422.58 180.754 422.748C180.46 422.832 180.208 422.916 179.998 423C179.746 423.168 179.578 423.294 179.41 423.42C179.074 423.672 178.738 423.84 178.36 423.966C177.94 424.134 177.52 424.176 177.058 424.05C176.302 423.882 175.546 423.672 174.874 423.336C174.16 423.084 173.698 422.874 173.488 422.706C173.152 422.538 173.026 422.286 173.026 421.992C173.026 421.656 173.152 421.404 173.446 421.236C173.698 421.11 174.076 421.026 174.538 420.984C175.21 421.026 175.882 421.026 176.596 420.942C177.268 420.9 177.898 420.858 178.486 420.774L182.308 420.228C183.862 420.018 185.416 419.766 186.928 419.43ZM240.244 425.898L241.168 425.772C241.462 425.73 241.756 425.646 242.008 425.478C242.26 425.352 242.47 425.184 242.68 425.016C242.89 424.848 243.1 424.68 243.31 424.554C243.478 424.47 243.73 424.386 244.066 424.302C244.528 424.26 244.99 424.218 245.494 424.218C245.956 424.218 246.418 424.26 246.922 424.302C247.342 424.428 247.72 424.596 247.972 424.848C248.224 425.142 248.35 425.436 248.35 425.73C248.35 426.696 247.678 427.242 246.418 427.41L240.244 428.166V439.716V442.362C240.202 443.454 240.118 444.462 239.992 445.47C239.824 446.436 239.614 447.276 239.362 448.032C239.026 448.746 238.606 449.166 238.06 449.25C237.094 449.376 236.632 447.612 236.632 443.958V435.264C235.12 436.02 233.524 436.734 231.844 437.406C230.122 438.162 228.442 438.792 226.846 439.338C225.166 439.926 223.612 440.43 222.184 440.808C220.714 441.228 219.454 441.522 218.446 441.606C216.976 441.816 215.968 441.564 215.38 440.892C214.75 440.262 214.456 439.212 214.456 437.784V424.68C214.456 424.176 214.246 423.756 213.826 423.42C213.364 423.168 212.65 422.916 211.684 422.706C211.348 422.664 211.096 422.58 210.928 422.412C210.718 422.286 210.634 422.076 210.634 421.74C210.634 421.488 210.76 421.194 211.096 420.942C211.348 420.732 211.768 420.606 212.356 420.522C212.44 420.522 212.65 420.522 212.986 420.48C213.238 420.48 213.574 420.438 213.994 420.396H215.17C215.548 420.396 215.926 420.438 216.346 420.438C216.472 420.522 216.598 420.522 216.724 420.522C216.808 420.522 216.892 420.564 217.018 420.564L224.494 419.472C224.788 419.43 225.04 419.346 225.292 419.178C225.502 419.052 225.712 418.884 225.964 418.674C226.174 418.506 226.384 418.38 226.636 418.254C226.804 418.17 227.056 418.086 227.392 418.002C227.854 417.96 228.4 417.918 229.03 417.876C229.618 417.876 230.164 417.876 230.668 417.96C231.088 418.044 231.466 418.212 231.718 418.464C231.97 418.758 232.096 419.052 232.096 419.346C232.096 420.312 231.424 420.858 230.164 421.026C228.148 421.32 226.174 421.572 224.242 421.824L218.362 422.706V429.258L223.948 428.418C224.242 428.376 224.494 428.292 224.746 428.124C224.956 427.998 225.166 427.83 225.418 427.662C225.628 427.494 225.838 427.368 226.09 427.242C226.258 427.158 226.51 427.074 226.846 426.99C227.308 426.948 227.854 426.906 228.484 426.864C229.072 426.864 229.618 426.864 230.122 426.906C230.542 427.032 230.92 427.2 231.172 427.452C231.424 427.746 231.55 428.04 231.55 428.334C231.55 429.3 230.878 429.846 229.618 430.014L223.99 430.77C222.1 431.064 220.21 431.316 218.362 431.568V437.574C218.362 437.91 218.404 438.078 218.53 438.12C218.614 438.204 218.74 438.246 218.992 438.204C221.806 437.868 224.704 437.196 227.728 436.23C230.668 435.306 233.65 434.214 236.632 432.954V415.104C236.632 414.558 236.38 414.138 235.876 413.844C235.372 413.592 234.616 413.34 233.65 413.13C233.314 413.088 233.062 413.004 232.894 412.836C232.684 412.71 232.6 412.5 232.6 412.164C232.6 411.912 232.726 411.618 233.062 411.366C233.314 411.156 233.734 411.03 234.322 410.946C234.574 410.904 235.12 410.862 235.918 410.82C236.674 410.82 237.472 410.862 238.228 410.946C238.858 411.03 239.404 411.156 239.908 411.324C240.37 411.534 240.622 411.786 240.622 412.122C240.622 412.416 240.58 412.71 240.496 413.046C240.412 413.298 240.37 413.55 240.328 413.802C240.244 414.138 240.244 414.432 240.244 414.768V425.898Z" fill="white"/>
<g filter="url(#filter0_f_137_693)">
<circle cx="299.5" cy="300.5" r="5.5" fill="white"/>
<circle cx="299.5" cy="300.5" r="4" stroke="white" stroke-width="3"/>
</g>
<g filter="url(#filter1_f_137_693)">
<circle cx="355.818" cy="163.487" r="5.5" fill="white"/>
<circle cx="355.818" cy="163.487" r="4" stroke="white" stroke-width="3"/>
</g>
<g filter="url(#filter2_f_137_693)">
<circle cx="267.5" cy="210.5" r="5.5" fill="white"/>
<circle cx="267.5" cy="210.5" r="4" stroke="white" stroke-width="3"/>
</g>
<g filter="url(#filter3_f_137_693)">
<path d="M123.776 199C123.776 201.209 121.986 203 119.776 203C117.567 203 115.776 201.209 115.776 199C115.776 196.791 117.567 195 119.776 195C121.986 195 123.776 196.791 123.776 199Z" fill="white"/>
<path d="M122.276 199C122.276 200.381 121.157 201.5 119.776 201.5C118.396 201.5 117.276 200.381 117.276 199C117.276 197.619 118.396 196.5 119.776 196.5C121.157 196.5 122.276 197.619 122.276 199Z" stroke="white" stroke-width="3"/>
</g>
<g filter="url(#filter4_f_137_693)">
<circle cx="376" cy="321" r="4" fill="white"/>
<circle cx="376" cy="321" r="2.5" stroke="white" stroke-width="3"/>
</g>
<g filter="url(#filter5_f_137_693)">
<circle cx="300" cy="246" r="4" fill="white"/>
<circle cx="300" cy="246" r="2.5" stroke="white" stroke-width="3"/>
</g>
<g filter="url(#filter6_f_137_693)">
<circle cx="272.517" cy="171.351" r="4" fill="white"/>
<circle cx="272.517" cy="171.351" r="2.5" stroke="white" stroke-width="3"/>
</g>
<g filter="url(#filter7_f_137_693)">
<circle cx="334" cy="138" r="4" fill="white"/>
<circle cx="334" cy="138" r="2.5" stroke="white" stroke-width="3"/>
</g>
<g filter="url(#filter8_f_137_693)">
<circle cx="21" cy="261" r="4" fill="white"/>
<circle cx="21" cy="261" r="2.5" stroke="white" stroke-width="3"/>
</g>
<g filter="url(#filter9_f_137_693)">
<path d="M403 304C403 306.209 401.209 308 399 308C396.791 308 395 306.209 395 304C395 301.791 396.791 300 399 300C401.209 300 403 301.791 403 304Z" fill="white"/>
<path d="M401.5 304C401.5 305.381 400.381 306.5 399 306.5C397.619 306.5 396.5 305.381 396.5 304C396.5 302.619 397.619 301.5 399 301.5C400.381 301.5 401.5 302.619 401.5 304Z" stroke="white" stroke-width="3"/>
</g>
<g filter="url(#filter10_f_137_693)">
<circle cx="118.287" cy="258.189" r="4" fill="white"/>
<circle cx="118.287" cy="258.189" r="2.5" stroke="white" stroke-width="3"/>
</g>
<path d="M117.695 257.594L119.4 199.703" stroke="white" stroke-opacity="0.4" stroke-width="1.2" stroke-linecap="round"/>
<path d="M117.695 257.594L300.044 301.013" stroke="white" stroke-opacity="0.4" stroke-width="1.2" stroke-linecap="round"/>
<path d="M300.044 245.676L300.044 301.014" stroke="white" stroke-opacity="0.4" stroke-width="1.2" stroke-linecap="round"/>
<path d="M375.881 320.594L300.044 301.013" stroke="white" stroke-opacity="0.4" stroke-width="1.2" stroke-linecap="round"/>
<path d="M300.044 245.676L267.664 210.77" stroke="white" stroke-opacity="0.4" stroke-width="1.2" stroke-linecap="round"/>
<path d="M271.925 170.757L267.665 210.77" stroke="white" stroke-opacity="0.4" stroke-width="1.2" stroke-linecap="round"/>
<path d="M271.925 170.757L334.128 138.405" stroke="white" stroke-opacity="0.4" stroke-width="1.2" stroke-linecap="round"/>
<path d="M355.43 163.094L334.128 138.405" stroke="white" stroke-opacity="0.4" stroke-width="1.2" stroke-linecap="round"/>
<path d="M118.547 199.703L21.4083 261" stroke="white" stroke-opacity="0.4" stroke-width="1.2" stroke-linecap="round"/>
<path d="M265.108 210.77L119 199" stroke="white" stroke-opacity="0.4" stroke-width="1.2" stroke-linecap="round"/>
<path d="M398.887 303.568L300 301" stroke="white" stroke-opacity="0.4" stroke-width="1.2" stroke-linecap="round"/>
<defs>
<filter id="filter0_f_137_693" x="290" y="291" width="19" height="19" filterUnits="userSpaceOnUse" color-interpolation-filters="sRGB">
<feFlood flood-opacity="0" result="BackgroundImageFix"/>
<feBlend mode="normal" in="SourceGraphic" in2="BackgroundImageFix" result="shape"/>
<feGaussianBlur stdDeviation="2" result="effect1_foregroundBlur_137_693"/>
</filter>
<filter id="filter1_f_137_693" x="346.318" y="153.987" width="19" height="19" filterUnits="userSpaceOnUse" color-interpolation-filters="sRGB">
<feFlood flood-opacity="0" result="BackgroundImageFix"/>
<feBlend mode="normal" in="SourceGraphic" in2="BackgroundImageFix" result="shape"/>
<feGaussianBlur stdDeviation="2" result="effect1_foregroundBlur_137_693"/>
</filter>
<filter id="filter2_f_137_693" x="258" y="201" width="19" height="19" filterUnits="userSpaceOnUse" color-interpolation-filters="sRGB">
<feFlood flood-opacity="0" result="BackgroundImageFix"/>
<feBlend mode="normal" in="SourceGraphic" in2="BackgroundImageFix" result="shape"/>
<feGaussianBlur stdDeviation="2" result="effect1_foregroundBlur_137_693"/>
</filter>
<filter id="filter3_f_137_693" x="111.776" y="191" width="16" height="16" filterUnits="userSpaceOnUse" color-interpolation-filters="sRGB">
<feFlood flood-opacity="0" result="BackgroundImageFix"/>
<feBlend mode="normal" in="SourceGraphic" in2="BackgroundImageFix" result="shape"/>
<feGaussianBlur stdDeviation="2" result="effect1_foregroundBlur_137_693"/>
</filter>
<filter id="filter4_f_137_693" x="368" y="313" width="16" height="16" filterUnits="userSpaceOnUse" color-interpolation-filters="sRGB">
<feFlood flood-opacity="0" result="BackgroundImageFix"/>
<feBlend mode="normal" in="SourceGraphic" in2="BackgroundImageFix" result="shape"/>
<feGaussianBlur stdDeviation="2" result="effect1_foregroundBlur_137_693"/>
</filter>
<filter id="filter5_f_137_693" x="292" y="238" width="16" height="16" filterUnits="userSpaceOnUse" color-interpolation-filters="sRGB">
<feFlood flood-opacity="0" result="BackgroundImageFix"/>
<feBlend mode="normal" in="SourceGraphic" in2="BackgroundImageFix" result="shape"/>
<feGaussianBlur stdDeviation="2" result="effect1_foregroundBlur_137_693"/>
</filter>
<filter id="filter6_f_137_693" x="264.517" y="163.351" width="16" height="16" filterUnits="userSpaceOnUse" color-interpolation-filters="sRGB">
<feFlood flood-opacity="0" result="BackgroundImageFix"/>
<feBlend mode="normal" in="SourceGraphic" in2="BackgroundImageFix" result="shape"/>
<feGaussianBlur stdDeviation="2" result="effect1_foregroundBlur_137_693"/>
</filter>
<filter id="filter7_f_137_693" x="326" y="130" width="16" height="16" filterUnits="userSpaceOnUse" color-interpolation-filters="sRGB">
<feFlood flood-opacity="0" result="BackgroundImageFix"/>
<feBlend mode="normal" in="SourceGraphic" in2="BackgroundImageFix" result="shape"/>
<feGaussianBlur stdDeviation="2" result="effect1_foregroundBlur_137_693"/>
</filter>
<filter id="filter8_f_137_693" x="13" y="253" width="16" height="16" filterUnits="userSpaceOnUse" color-interpolation-filters="sRGB">
<feFlood flood-opacity="0" result="BackgroundImageFix"/>
<feBlend mode="normal" in="SourceGraphic" in2="BackgroundImageFix" result="shape"/>
<feGaussianBlur stdDeviation="2" result="effect1_foregroundBlur_137_693"/>
</filter>
<filter id="filter9_f_137_693" x="391" y="296" width="16" height="16" filterUnits="userSpaceOnUse" color-interpolation-filters="sRGB">
<feFlood flood-opacity="0" result="BackgroundImageFix"/>
<feBlend mode="normal" in="SourceGraphic" in2="BackgroundImageFix" result="shape"/>
<feGaussianBlur stdDeviation="2" result="effect1_foregroundBlur_137_693"/>
</filter>
<filter id="filter10_f_137_693" x="110.287" y="250.189" width="16" height="16" filterUnits="userSpaceOnUse" color-interpolation-filters="sRGB">
<feFlood flood-opacity="0" result="BackgroundImageFix"/>
<feBlend mode="normal" in="SourceGraphic" in2="BackgroundImageFix" result="shape"/>
<feGaussianBlur stdDeviation="2" result="effect1_foregroundBlur_137_693"/>
</filter>
</defs>
</svg>
