<svg width="377" height="539" viewBox="0 0 377 539" fill="none" xmlns="http://www.w3.org/2000/svg">
<path d="M192.01 424.218C192.01 425.646 191.758 426.906 191.296 428.04C190.792 429.216 190.12 430.266 189.28 431.106C188.398 431.988 187.39 432.702 186.256 433.206C185.08 433.752 183.862 434.088 182.602 434.256C181.3 434.424 180.082 434.382 178.948 434.088C177.772 433.836 176.806 433.374 175.966 432.702C175.084 432.072 174.412 431.232 173.95 430.182C173.446 429.174 173.194 427.956 173.194 426.528C173.194 425.142 173.446 423.882 173.95 422.706C174.412 421.572 175.084 420.564 175.966 419.682C176.806 418.842 177.772 418.128 178.948 417.582C180.082 417.078 181.3 416.7 182.602 416.532C183.862 416.364 185.08 416.406 186.256 416.658C187.39 416.952 188.398 417.414 189.28 418.044C190.12 418.716 190.792 419.556 191.296 420.564C191.758 421.614 192.01 422.832 192.01 424.218ZM202.972 431.778C202.972 432.408 202.93 433.164 202.93 434.004C202.888 434.928 202.804 435.768 202.678 436.566C202.51 437.406 202.3 438.162 202.048 438.75C201.712 439.38 201.292 439.716 200.788 439.758C200.536 439.8 200.368 439.758 200.2 439.632C200.032 439.548 199.864 439.296 199.78 438.96C199.612 438.624 199.528 438.162 199.486 437.574C199.402 436.986 199.36 436.23 199.36 435.306V428.628C199.192 428.712 199.024 428.712 198.856 428.712L198.352 428.838C197.932 429.006 197.638 429.132 197.428 429.3C197.176 429.51 196.966 429.636 196.756 429.72C196.504 429.846 196.168 429.846 195.706 429.762C195.454 429.762 195.202 429.678 194.95 429.594C194.656 429.552 194.362 429.468 194.11 429.342C193.774 429.258 193.522 429.174 193.27 429.048C193.018 428.964 192.808 428.838 192.64 428.754C192.136 428.544 191.926 428.25 191.926 427.83C191.926 427.62 191.968 427.41 192.136 427.242C192.262 427.116 192.514 427.032 192.934 426.948L194.026 426.822C194.236 426.822 194.446 426.78 194.698 426.78C194.866 426.78 195.076 426.78 195.328 426.696C195.832 426.654 196.42 426.57 197.176 426.486C197.848 426.402 198.604 426.318 199.36 426.192V419.934C199.108 420.018 198.898 420.06 198.688 420.102C198.436 420.186 198.184 420.228 197.932 420.27C197.512 420.438 197.176 420.606 197.008 420.774C196.756 420.942 196.546 421.068 196.336 421.152C196.084 421.278 195.748 421.32 195.286 421.236C195.034 421.236 194.782 421.152 194.53 421.068C194.236 420.984 193.942 420.9 193.69 420.816C193.354 420.732 193.102 420.648 192.85 420.522C192.598 420.438 192.388 420.312 192.22 420.228C191.968 420.102 191.8 419.976 191.716 419.808C191.548 419.724 191.506 419.556 191.506 419.304C191.506 419.094 191.548 418.884 191.716 418.716C191.842 418.59 192.094 418.506 192.514 418.422L193.606 418.254C193.816 418.254 194.026 418.212 194.278 418.212C194.446 418.212 194.656 418.212 194.908 418.17C195.454 418.086 196.126 418.002 196.966 417.876C197.722 417.792 198.52 417.666 199.36 417.54V414.852C199.36 414.306 199.108 413.886 198.604 413.592C198.1 413.34 197.344 413.088 196.378 412.836C196.042 412.794 195.79 412.71 195.622 412.542C195.412 412.416 195.328 412.206 195.328 411.87C195.328 411.618 195.454 411.366 195.79 411.114C196.042 410.904 196.462 410.736 197.05 410.652C197.302 410.652 197.848 410.61 198.646 410.568C199.402 410.568 200.2 410.568 200.956 410.652C201.586 410.736 202.132 410.862 202.636 411.03C203.098 411.24 203.35 411.492 203.35 411.828C203.35 412.122 203.308 412.416 203.224 412.752C203.14 413.004 203.098 413.298 203.056 413.55C202.972 413.844 202.972 414.138 202.972 414.474V431.778ZM188.146 424.722C188.146 422.79 187.6 421.362 186.592 420.438C185.5 419.556 184.198 419.22 182.602 419.43C180.964 419.64 179.62 420.312 178.612 421.446C177.562 422.622 177.058 424.176 177.058 426.108C177.058 427.998 177.562 429.384 178.612 430.308C179.62 431.232 180.964 431.61 182.602 431.4C183.358 431.316 184.114 431.064 184.828 430.686C185.5 430.35 186.088 429.846 186.592 429.258C187.054 428.712 187.432 428.04 187.726 427.242C187.978 426.486 188.146 425.646 188.146 424.722ZM198.268 445.722C198.562 445.638 198.814 445.554 199.066 445.428C199.276 445.26 199.486 445.134 199.738 444.966C199.948 444.756 200.158 444.588 200.41 444.504C200.578 444.378 200.83 444.294 201.166 444.252C201.628 444.168 202.09 444.168 202.594 444.168C203.056 444.168 203.518 444.168 204.022 444.252C204.442 444.336 204.82 444.504 205.072 444.798C205.324 445.05 205.45 445.344 205.45 445.68C205.45 446.604 204.778 447.15 203.518 447.318C200.83 447.654 198.184 447.99 195.622 448.368C193.018 448.704 190.372 449.04 187.684 449.418C185.248 449.754 184.072 448.662 184.072 446.226V442.026C184.072 441.522 183.82 441.102 183.358 440.766C182.854 440.514 182.14 440.262 181.174 440.052C180.838 440.01 180.586 439.926 180.418 439.758C180.208 439.632 180.124 439.422 180.124 439.086C180.124 438.834 180.25 438.54 180.586 438.288C180.838 438.078 181.258 437.952 181.846 437.868C182.098 437.826 182.644 437.784 183.442 437.742C184.198 437.742 184.996 437.784 185.752 437.826C186.382 437.91 186.886 438.078 187.264 438.33C187.6 438.624 187.768 438.918 187.768 439.212V446.226C187.768 446.562 187.81 446.814 187.978 446.94C188.062 447.024 188.272 447.066 188.566 447.024L198.268 445.722ZM236.422 426.066L240.16 425.604V414.684C240.16 414.138 239.908 413.718 239.404 413.424C238.9 413.172 238.144 412.92 237.178 412.71C236.842 412.626 236.59 412.542 236.422 412.374C236.212 412.29 236.128 412.08 236.128 411.744C236.128 411.492 236.254 411.198 236.59 410.946C236.842 410.736 237.262 410.61 237.85 410.526C238.102 410.484 238.648 410.442 239.446 410.4C240.202 410.4 241 410.442 241.756 410.484C242.386 410.568 242.932 410.694 243.436 410.862C243.898 411.072 244.15 411.324 244.15 411.66C244.15 411.954 244.108 412.29 244.024 412.626C243.94 412.878 243.898 413.13 243.856 413.382C243.772 413.676 243.772 413.97 243.772 414.306V439.254V441.9C243.73 442.992 243.646 444 243.52 445.008C243.352 446.016 243.142 446.856 242.89 447.612C242.554 448.326 242.134 448.746 241.588 448.83C241.126 448.872 240.79 448.452 240.538 447.612C240.286 446.73 240.16 445.386 240.16 443.538V428.166L236.422 428.628V437.784V440.43C236.38 441.522 236.296 442.53 236.17 443.496C236.002 444.504 235.792 445.386 235.54 446.142C235.204 446.856 234.784 447.234 234.238 447.318C233.272 447.444 232.81 445.68 232.81 442.026V418.17C232.81 417.624 232.558 417.204 232.054 416.91C231.55 416.658 230.794 416.406 229.828 416.196C229.492 416.154 229.24 416.07 229.072 415.902C228.862 415.776 228.778 415.566 228.778 415.23C228.778 414.978 228.904 414.684 229.24 414.432C229.492 414.222 229.912 414.096 230.5 414.012C230.752 414.012 231.298 413.97 232.096 413.928C232.852 413.928 233.65 413.928 234.406 414.012C235.036 414.096 235.582 414.222 236.086 414.39C236.548 414.6 236.8 414.852 236.8 415.188C236.8 415.482 236.758 415.776 236.674 416.112C236.59 416.364 236.548 416.616 236.506 416.868C236.422 417.204 236.422 417.498 236.422 417.834V426.066ZM212.146 430.728C212.146 429.3 212.356 427.998 212.818 426.78C213.238 425.604 213.868 424.596 214.708 423.714C215.506 422.874 216.472 422.16 217.606 421.572C218.698 421.068 219.916 420.69 221.26 420.522C222.604 420.354 223.822 420.438 224.956 420.69C226.048 420.984 226.972 421.446 227.812 422.118C228.568 422.79 229.198 423.672 229.66 424.722C230.08 425.814 230.29 427.074 230.29 428.502C230.29 429.93 230.08 431.232 229.66 432.408C229.198 433.626 228.568 434.676 227.812 435.516C226.972 436.398 226.048 437.112 224.956 437.616C223.822 438.162 222.604 438.498 221.26 438.666C219.916 438.834 218.698 438.792 217.606 438.498C216.472 438.246 215.506 437.784 214.708 437.112C213.868 436.44 213.238 435.558 212.818 434.466C212.356 433.416 212.146 432.156 212.146 430.728ZM226.384 428.964C226.384 426.906 225.922 425.352 224.998 424.344C224.074 423.378 222.814 423 221.26 423.168C219.664 423.378 218.446 424.092 217.522 425.268C216.598 426.528 216.136 428.166 216.136 430.224C216.136 432.324 216.598 433.794 217.522 434.718C218.446 435.642 219.664 436.02 221.26 435.81C222.814 435.642 224.074 434.97 224.998 433.794C225.922 432.66 226.384 431.064 226.384 428.964Z" fill="white"/>
<g filter="url(#filter0_f_84_1092)">
<circle cx="283.5" cy="148.5" r="5.5" fill="white"/>
<circle cx="283.5" cy="148.5" r="4" stroke="white" stroke-width="3"/>
</g>
<g filter="url(#filter1_f_84_1092)">
<circle cx="215.5" cy="237.5" r="5.5" fill="white"/>
<circle cx="215.5" cy="237.5" r="4" stroke="white" stroke-width="3"/>
</g>
<g filter="url(#filter2_f_84_1092)">
<circle cx="62.5" cy="364.5" r="5.5" fill="white"/>
<circle cx="62.5" cy="364.5" r="4" stroke="white" stroke-width="3"/>
</g>
<g filter="url(#filter3_f_84_1092)">
<circle cx="22" cy="323" r="4" fill="white"/>
<circle cx="22" cy="323" r="2.5" stroke="white" stroke-width="3"/>
</g>
<g filter="url(#filter4_f_84_1092)">
<circle cx="264" cy="167" r="4" fill="white"/>
<circle cx="264" cy="167" r="2.5" stroke="white" stroke-width="3"/>
</g>
<g filter="url(#filter5_f_84_1092)">
<circle cx="128" cy="370" r="4" fill="white"/>
<circle cx="128" cy="370" r="2.5" stroke="white" stroke-width="3"/>
</g>
<g filter="url(#filter6_f_84_1092)">
<circle cx="201" cy="302" r="4" fill="white"/>
<circle cx="201" cy="302" r="2.5" stroke="white" stroke-width="3"/>
</g>
<g filter="url(#filter7_f_84_1092)">
<circle cx="46" cy="298" r="4" fill="white"/>
<circle cx="46" cy="298" r="2.5" stroke="white" stroke-width="3"/>
</g>
<g filter="url(#filter8_f_84_1092)">
<circle cx="188" cy="356" r="4" fill="white"/>
<circle cx="188" cy="356" r="2.5" stroke="white" stroke-width="3"/>
</g>
<g filter="url(#filter9_f_84_1092)">
<circle cx="317" cy="130" r="4" fill="white"/>
<circle cx="317" cy="130" r="2.5" stroke="white" stroke-width="3"/>
</g>
<g filter="url(#filter10_f_84_1092)">
<circle cx="76.5" cy="268.5" r="5.5" fill="white"/>
<circle cx="76.5" cy="268.5" r="4" stroke="white" stroke-width="3"/>
</g>
<g filter="url(#filter11_f_84_1092)">
<circle cx="380.5" cy="55.5" r="5.5" fill="white"/>
<circle cx="380.5" cy="55.5" r="4" stroke="white" stroke-width="3"/>
</g>
<path d="M77 269L46 298" stroke="white" stroke-opacity="0.4" stroke-width="1.2" stroke-linecap="round"/>
<path d="M22 323L46 298" stroke="white" stroke-opacity="0.4" stroke-width="1.2" stroke-linecap="round"/>
<path d="M216 238L264 167" stroke="white" stroke-opacity="0.4" stroke-width="1.2" stroke-linecap="round"/>
<path d="M22 323L63 365" stroke="white" stroke-opacity="0.4" stroke-width="1.2" stroke-linecap="round"/>
<path d="M128 370L63 365" stroke="white" stroke-opacity="0.4" stroke-width="1.2" stroke-linecap="round"/>
<path d="M188 356L128 370" stroke="white" stroke-opacity="0.4" stroke-width="1.2" stroke-linecap="round"/>
<path d="M284 149L264 167" stroke="white" stroke-opacity="0.4" stroke-width="1.2" stroke-linecap="round"/>
<path d="M397.5 102.5L351 117L316 130L284 146" stroke="white" stroke-opacity="0.4" stroke-width="1.2" stroke-linecap="round"/>
<path d="M201 302L188 356" stroke="white" stroke-opacity="0.4" stroke-width="1.2" stroke-linecap="round"/>
<path d="M201 302L215 238" stroke="white" stroke-opacity="0.4" stroke-width="1.2" stroke-linecap="round"/>
<defs>
<filter id="filter0_f_84_1092" x="274" y="139" width="19" height="19" filterUnits="userSpaceOnUse" color-interpolation-filters="sRGB">
<feFlood flood-opacity="0" result="BackgroundImageFix"/>
<feBlend mode="normal" in="SourceGraphic" in2="BackgroundImageFix" result="shape"/>
<feGaussianBlur stdDeviation="2" result="effect1_foregroundBlur_84_1092"/>
</filter>
<filter id="filter1_f_84_1092" x="206" y="228" width="19" height="19" filterUnits="userSpaceOnUse" color-interpolation-filters="sRGB">
<feFlood flood-opacity="0" result="BackgroundImageFix"/>
<feBlend mode="normal" in="SourceGraphic" in2="BackgroundImageFix" result="shape"/>
<feGaussianBlur stdDeviation="2" result="effect1_foregroundBlur_84_1092"/>
</filter>
<filter id="filter2_f_84_1092" x="53" y="355" width="19" height="19" filterUnits="userSpaceOnUse" color-interpolation-filters="sRGB">
<feFlood flood-opacity="0" result="BackgroundImageFix"/>
<feBlend mode="normal" in="SourceGraphic" in2="BackgroundImageFix" result="shape"/>
<feGaussianBlur stdDeviation="2" result="effect1_foregroundBlur_84_1092"/>
</filter>
<filter id="filter3_f_84_1092" x="14" y="315" width="16" height="16" filterUnits="userSpaceOnUse" color-interpolation-filters="sRGB">
<feFlood flood-opacity="0" result="BackgroundImageFix"/>
<feBlend mode="normal" in="SourceGraphic" in2="BackgroundImageFix" result="shape"/>
<feGaussianBlur stdDeviation="2" result="effect1_foregroundBlur_84_1092"/>
</filter>
<filter id="filter4_f_84_1092" x="256" y="159" width="16" height="16" filterUnits="userSpaceOnUse" color-interpolation-filters="sRGB">
<feFlood flood-opacity="0" result="BackgroundImageFix"/>
<feBlend mode="normal" in="SourceGraphic" in2="BackgroundImageFix" result="shape"/>
<feGaussianBlur stdDeviation="2" result="effect1_foregroundBlur_84_1092"/>
</filter>
<filter id="filter5_f_84_1092" x="120" y="362" width="16" height="16" filterUnits="userSpaceOnUse" color-interpolation-filters="sRGB">
<feFlood flood-opacity="0" result="BackgroundImageFix"/>
<feBlend mode="normal" in="SourceGraphic" in2="BackgroundImageFix" result="shape"/>
<feGaussianBlur stdDeviation="2" result="effect1_foregroundBlur_84_1092"/>
</filter>
<filter id="filter6_f_84_1092" x="193" y="294" width="16" height="16" filterUnits="userSpaceOnUse" color-interpolation-filters="sRGB">
<feFlood flood-opacity="0" result="BackgroundImageFix"/>
<feBlend mode="normal" in="SourceGraphic" in2="BackgroundImageFix" result="shape"/>
<feGaussianBlur stdDeviation="2" result="effect1_foregroundBlur_84_1092"/>
</filter>
<filter id="filter7_f_84_1092" x="38" y="290" width="16" height="16" filterUnits="userSpaceOnUse" color-interpolation-filters="sRGB">
<feFlood flood-opacity="0" result="BackgroundImageFix"/>
<feBlend mode="normal" in="SourceGraphic" in2="BackgroundImageFix" result="shape"/>
<feGaussianBlur stdDeviation="2" result="effect1_foregroundBlur_84_1092"/>
</filter>
<filter id="filter8_f_84_1092" x="180" y="348" width="16" height="16" filterUnits="userSpaceOnUse" color-interpolation-filters="sRGB">
<feFlood flood-opacity="0" result="BackgroundImageFix"/>
<feBlend mode="normal" in="SourceGraphic" in2="BackgroundImageFix" result="shape"/>
<feGaussianBlur stdDeviation="2" result="effect1_foregroundBlur_84_1092"/>
</filter>
<filter id="filter9_f_84_1092" x="309" y="122" width="16" height="16" filterUnits="userSpaceOnUse" color-interpolation-filters="sRGB">
<feFlood flood-opacity="0" result="BackgroundImageFix"/>
<feBlend mode="normal" in="SourceGraphic" in2="BackgroundImageFix" result="shape"/>
<feGaussianBlur stdDeviation="2" result="effect1_foregroundBlur_84_1092"/>
</filter>
<filter id="filter10_f_84_1092" x="67" y="259" width="19" height="19" filterUnits="userSpaceOnUse" color-interpolation-filters="sRGB">
<feFlood flood-opacity="0" result="BackgroundImageFix"/>
<feBlend mode="normal" in="SourceGraphic" in2="BackgroundImageFix" result="shape"/>
<feGaussianBlur stdDeviation="2" result="effect1_foregroundBlur_84_1092"/>
</filter>
<filter id="filter11_f_84_1092" x="371" y="46" width="19" height="19" filterUnits="userSpaceOnUse" color-interpolation-filters="sRGB">
<feFlood flood-opacity="0" result="BackgroundImageFix"/>
<feBlend mode="normal" in="SourceGraphic" in2="BackgroundImageFix" result="shape"/>
<feGaussianBlur stdDeviation="2" result="effect1_foregroundBlur_84_1092"/>
</filter>
</defs>
</svg>
