<svg width="420" height="539" viewBox="0 0 420 539" fill="none" xmlns="http://www.w3.org/2000/svg">
<path d="M180.997 425.898L181.921 425.772C182.215 425.73 182.509 425.646 182.761 425.478C183.013 425.352 183.223 425.184 183.433 425.016C183.643 424.848 183.853 424.68 184.063 424.554C184.231 424.47 184.483 424.386 184.819 424.302C185.281 424.26 185.743 424.218 186.247 424.218C186.709 424.218 187.171 424.26 187.675 424.302C188.095 424.428 188.473 424.596 188.725 424.848C188.977 425.142 189.103 425.436 189.103 425.73C189.103 426.696 188.431 427.242 187.171 427.41L180.997 428.166V439.716V442.362C180.955 443.454 180.871 444.462 180.745 445.47C180.577 446.436 180.367 447.276 180.115 448.032C179.779 448.746 179.359 449.166 178.813 449.25C177.847 449.376 177.385 447.612 177.385 443.958V415.104C177.385 414.558 177.133 414.138 176.629 413.844C176.125 413.592 175.369 413.34 174.403 413.13C174.067 413.088 173.815 413.004 173.647 412.836C173.437 412.71 173.353 412.5 173.353 412.164C173.353 411.912 173.479 411.618 173.815 411.366C174.067 411.156 174.487 411.03 175.075 410.946C175.327 410.904 175.873 410.862 176.671 410.82C177.427 410.82 178.225 410.862 178.981 410.946C179.611 411.03 180.157 411.156 180.661 411.324C181.123 411.534 181.375 411.786 181.375 412.122C181.375 412.416 181.333 412.71 181.249 413.046C181.165 413.298 181.123 413.55 181.081 413.802C180.997 414.138 180.997 414.432 180.997 414.768V425.898ZM165.919 419.598C166.465 419.514 166.885 419.346 167.221 419.094L167.767 418.842C167.935 418.758 168.145 418.674 168.397 418.59C168.775 418.59 169.195 418.548 169.615 418.506C170.035 418.506 170.413 418.506 170.791 418.548C171.127 418.632 171.421 418.758 171.673 418.884C171.883 419.052 172.009 419.304 172.009 419.598C172.009 419.85 171.925 420.06 171.799 420.312C171.631 420.564 171.463 420.816 171.295 421.026C171.211 421.152 171.127 421.236 171.043 421.32C170.959 421.446 170.875 421.572 170.833 421.698C168.985 426.276 166.675 430.35 163.819 433.962C160.921 437.574 157.477 440.85 153.529 443.79C153.193 444 152.941 444.126 152.689 444.126C152.395 444.084 152.185 444 152.059 443.832C151.891 443.706 151.849 443.496 151.891 443.244C151.891 443.034 152.017 442.782 152.311 442.446C155.419 439.506 158.191 436.314 160.627 432.912C163.063 429.552 164.995 425.814 166.465 421.74L162.643 422.328C161.467 422.538 160.501 422.748 159.745 422.916C159.451 423 159.199 423.084 158.989 423.168C158.737 423.336 158.569 423.462 158.401 423.588C158.065 423.84 157.729 424.008 157.351 424.134C156.931 424.302 156.511 424.344 156.049 424.218C155.293 424.05 154.537 423.84 153.865 423.504C153.151 423.252 152.689 423.042 152.479 422.874C152.143 422.706 152.017 422.454 152.017 422.118C152.017 421.782 152.143 421.53 152.437 421.362C152.689 421.278 153.067 421.194 153.529 421.152C154.201 421.194 154.873 421.194 155.587 421.11C156.259 421.068 156.889 420.984 157.477 420.9C158.443 420.816 159.703 420.606 161.299 420.354C162.853 420.144 164.407 419.892 165.919 419.598ZM205.585 421.782C205.921 421.74 206.173 421.656 206.425 421.572C206.593 421.488 206.761 421.404 206.929 421.278L207.475 421.026C207.643 420.942 207.853 420.858 208.105 420.816C208.483 420.774 208.903 420.732 209.323 420.69C209.743 420.69 210.121 420.732 210.499 420.774C210.835 420.858 211.129 420.942 211.381 421.068C211.591 421.236 211.717 421.488 211.717 421.782C211.717 422.034 211.633 422.244 211.507 422.496C211.339 422.79 211.171 423.042 211.003 423.252C210.919 423.378 210.877 423.504 210.793 423.588C210.667 423.756 210.583 423.882 210.541 423.966C209.953 425.1 209.365 426.192 208.693 427.242C208.021 428.334 207.307 429.384 206.551 430.434C207.013 430.938 207.475 431.316 207.895 431.652C208.315 431.988 208.609 432.24 208.819 432.324C208.945 432.492 209.155 432.576 209.407 432.576C209.617 432.66 209.827 432.702 210.079 432.744C210.373 432.828 210.709 432.912 211.087 432.996C211.423 433.164 211.675 433.332 211.927 433.584C212.389 434.088 212.809 434.676 213.187 435.264C213.523 435.936 213.901 436.566 214.237 437.196C214.363 437.448 214.447 437.784 214.489 438.204C214.489 438.624 214.363 439.002 214.069 439.254C213.901 439.38 213.775 439.464 213.649 439.548C213.481 439.632 213.271 439.716 213.019 439.716C212.809 439.8 212.515 439.716 212.179 439.506C211.801 439.338 211.381 439.002 210.919 438.498C209.911 437.574 208.945 436.566 207.937 435.558L204.871 432.576C203.191 434.676 201.343 436.608 199.327 438.414C197.269 440.262 195.085 441.9 192.817 443.328C192.481 443.496 192.187 443.58 191.935 443.58C191.599 443.622 191.389 443.538 191.221 443.328C191.053 443.16 191.053 442.95 191.137 442.656C191.221 442.404 191.389 442.152 191.725 441.9C194.833 439.38 197.647 436.608 200.083 433.584C202.519 430.644 204.493 427.41 206.047 423.966C204.787 424.134 203.653 424.302 202.729 424.47C201.721 424.68 200.881 424.848 200.125 425.016C199.831 425.1 199.579 425.184 199.369 425.268C199.117 425.436 198.949 425.562 198.781 425.688C198.445 425.94 198.109 426.108 197.731 426.234C197.311 426.402 196.891 426.444 196.429 426.318C195.673 426.15 194.917 425.94 194.245 425.604C193.531 425.352 193.069 425.142 192.859 424.974C192.523 424.806 192.397 424.554 192.397 424.26C192.397 423.924 192.523 423.672 192.817 423.504C193.069 423.378 193.447 423.294 193.909 423.252C194.581 423.294 195.253 423.294 195.967 423.21C196.639 423.168 197.269 423.126 197.857 423.042C198.823 422.916 199.999 422.748 201.343 422.538C202.687 422.37 204.073 422.118 205.585 421.782ZM222.847 439.422V442.068C222.805 443.16 222.721 444.168 222.595 445.176C222.427 446.142 222.217 447.024 221.965 447.78C221.629 448.494 221.209 448.872 220.663 448.956C219.697 449.082 219.235 447.318 219.235 443.664V414.81C219.235 414.264 218.983 413.844 218.479 413.55C217.975 413.298 217.219 413.046 216.253 412.836C215.917 412.794 215.665 412.71 215.497 412.542C215.287 412.416 215.203 412.206 215.203 411.87C215.203 411.618 215.329 411.324 215.665 411.072C215.917 410.862 216.337 410.736 216.925 410.652C217.177 410.61 217.723 410.568 218.521 410.526C219.277 410.526 220.075 410.568 220.831 410.652C221.461 410.736 222.007 410.862 222.511 411.03C222.973 411.24 223.225 411.492 223.225 411.828C223.225 412.122 223.183 412.416 223.099 412.752C223.015 413.004 222.973 413.256 222.931 413.508C222.847 413.844 222.847 414.138 222.847 414.474V439.422ZM208.315 416.952C208.315 417.414 208.105 417.792 207.685 418.086C207.223 418.422 206.719 418.632 206.173 418.758C205.165 419.01 204.283 419.22 203.443 419.346C202.561 419.514 201.553 419.682 200.377 419.766C200.041 419.85 199.705 419.808 199.369 419.682C199.033 419.598 198.697 419.43 198.403 419.22C198.067 419.052 197.731 418.842 197.479 418.59C197.185 418.338 196.975 418.128 196.807 417.876C196.639 417.708 196.597 417.498 196.597 417.246C196.597 416.994 196.723 416.742 197.059 416.574C197.311 416.448 197.731 416.406 198.277 416.49C198.571 416.574 198.907 416.574 199.327 416.574C199.705 416.616 200.083 416.616 200.503 416.616C200.797 416.616 201.175 416.616 201.595 416.574C202.015 416.574 202.477 416.532 202.981 416.448C203.485 416.406 204.031 416.322 204.535 416.238C204.997 416.154 205.501 416.07 206.047 415.986C206.761 415.902 207.307 415.902 207.727 415.986C208.105 416.112 208.315 416.448 208.315 416.952ZM259.993 424.89L260.917 424.764C261.211 424.722 261.505 424.638 261.757 424.47C262.009 424.344 262.219 424.176 262.429 424.008C262.639 423.84 262.849 423.672 263.059 423.546C263.227 423.462 263.479 423.378 263.815 423.294C264.277 423.252 264.739 423.21 265.243 423.21C265.705 423.21 266.167 423.252 266.671 423.294C267.091 423.42 267.469 423.588 267.721 423.84C267.973 424.134 268.099 424.428 268.099 424.722C268.099 425.688 267.427 426.234 266.167 426.402L259.993 427.158V432.744C259.993 433.374 259.951 434.13 259.951 434.97C259.909 435.894 259.825 436.734 259.699 437.532C259.531 438.372 259.321 439.128 259.069 439.716C258.733 440.346 258.313 440.682 257.809 440.724C257.557 440.766 257.389 440.724 257.221 440.556C257.053 440.472 256.885 440.22 256.801 439.884C256.633 439.548 256.549 439.086 256.507 438.498C256.423 437.91 256.381 437.154 256.381 436.23V431.064C250.501 433.08 244.453 434.802 238.195 436.23C237.859 436.314 237.565 436.44 237.355 436.566C237.103 436.734 236.851 436.86 236.641 436.986C236.263 437.238 235.885 437.406 235.465 437.574C235.045 437.742 234.541 437.784 233.995 437.658C233.113 437.49 232.273 437.196 231.475 436.776C230.635 436.44 230.047 436.104 229.795 435.852C229.711 435.768 229.627 435.642 229.543 435.558C229.459 435.474 229.417 435.348 229.417 435.18C229.417 434.802 229.585 434.508 229.921 434.34C230.215 434.172 230.635 434.088 231.139 434.046C231.937 434.046 232.735 434.046 233.575 433.962C234.331 433.92 235.087 433.836 235.801 433.752C236.263 433.71 236.851 433.626 237.565 433.458C238.237 433.374 238.993 433.206 239.875 433.038V429.216C239.875 428.712 239.665 428.292 239.245 427.998C238.783 427.746 238.069 427.494 237.103 427.284C236.767 427.2 236.515 427.116 236.347 426.948C236.137 426.864 236.053 426.654 236.053 426.318C236.053 426.066 236.179 425.772 236.515 425.52C236.767 425.31 237.187 425.184 237.775 425.1C238.027 425.058 238.531 425.016 239.287 424.974C239.959 424.974 240.715 424.974 241.471 425.058C242.311 425.142 242.899 425.31 243.235 425.478C243.487 425.688 243.655 425.982 243.655 426.36C243.655 426.612 243.613 426.906 243.571 427.158C243.529 427.326 243.529 427.536 243.529 427.746C243.487 427.998 243.487 428.25 243.487 428.46L243.403 432.24C245.503 431.778 247.687 431.232 249.997 430.602C252.265 430.014 254.407 429.426 256.381 428.754V415.104C256.381 414.558 256.129 414.138 255.625 413.844C255.121 413.592 254.365 413.34 253.399 413.13C253.063 413.088 252.811 413.004 252.643 412.836C252.433 412.71 252.349 412.5 252.349 412.164C252.349 411.912 252.475 411.618 252.811 411.366C253.063 411.156 253.483 411.03 254.071 410.946C254.323 410.904 254.869 410.862 255.667 410.82C256.423 410.82 257.221 410.862 257.977 410.946C258.607 411.03 259.153 411.156 259.657 411.324C260.119 411.534 260.371 411.786 260.371 412.122C260.371 412.416 260.329 412.71 260.245 413.046C260.161 413.298 260.119 413.55 260.077 413.802C259.993 414.138 259.993 414.432 259.993 414.768V424.89ZM255.373 446.226C255.667 446.142 255.919 446.058 256.171 445.932C256.381 445.764 256.591 445.638 256.843 445.47C257.053 445.302 257.263 445.134 257.515 445.05C257.683 444.882 257.935 444.798 258.271 444.798C258.733 444.714 259.195 444.714 259.699 444.714C260.161 444.672 260.623 444.672 261.127 444.756C261.547 444.84 261.925 445.05 262.177 445.344C262.429 445.596 262.555 445.848 262.555 446.184C262.555 446.604 262.387 446.94 262.093 447.276C261.757 447.528 261.253 447.738 260.623 447.822C257.893 448.158 255.163 448.536 252.391 448.914C249.577 449.25 246.805 449.628 244.117 450.006C241.681 450.342 240.505 449.292 240.505 446.856V442.992C240.505 442.488 240.253 442.068 239.791 441.732C239.287 441.438 238.573 441.186 237.607 440.976C237.271 440.934 237.019 440.85 236.851 440.682C236.641 440.556 236.557 440.346 236.557 440.01C236.557 439.758 236.683 439.464 237.019 439.212C237.271 439.002 237.691 438.876 238.279 438.792C238.531 438.792 239.077 438.75 239.875 438.708C240.631 438.708 241.429 438.708 242.185 438.792C242.815 438.876 243.319 439.002 243.697 439.254C244.033 439.548 244.201 439.842 244.201 440.136V446.814C244.201 447.402 244.453 447.696 244.999 447.612L255.373 446.226ZM251.803 418.8L250.627 423.966C250.291 425.478 249.871 426.906 249.367 428.292C249.115 428.88 248.863 429.216 248.611 429.384C248.317 429.552 248.065 429.636 247.813 429.594C247.183 429.552 246.931 429.048 247.057 428.124C247.099 427.536 247.183 426.864 247.267 426.066C247.309 425.31 247.393 424.512 247.477 423.672C247.519 422.832 247.561 421.992 247.645 421.152C247.687 420.312 247.729 419.514 247.813 418.758C247.477 418.8 247.183 418.842 246.889 418.842C246.553 418.884 246.259 418.926 246.049 418.926C244.789 419.094 243.697 419.262 242.689 419.43C241.639 419.64 240.715 419.808 239.917 419.976C239.581 420.06 239.329 420.186 239.119 420.27C238.867 420.438 238.615 420.564 238.447 420.648C238.027 420.9 237.607 421.068 237.187 421.236C236.725 421.404 236.263 421.446 235.759 421.278C235.003 421.152 234.289 420.942 233.617 420.606C232.945 420.312 232.483 420.102 232.315 419.934C232.147 419.85 232.063 419.724 231.979 419.598C231.895 419.514 231.853 419.346 231.853 419.178C231.853 418.842 231.979 418.59 232.273 418.422C232.525 418.296 232.903 418.212 233.365 418.17C234.037 418.254 234.709 418.212 235.423 418.128C236.095 418.086 236.725 418.044 237.313 417.96C237.775 417.918 238.363 417.834 239.077 417.708C239.749 417.624 240.463 417.54 241.261 417.372C242.017 417.288 242.815 417.162 243.655 416.994C244.453 416.91 245.209 416.784 245.965 416.616C246.301 416.574 246.553 416.49 246.805 416.406C246.973 416.322 247.141 416.238 247.309 416.112L247.855 415.86C248.023 415.776 248.233 415.692 248.485 415.608C248.863 415.608 249.283 415.566 249.787 415.524C250.249 415.524 250.711 415.524 251.131 415.566C251.509 415.65 251.845 415.734 252.139 415.86C252.391 416.028 252.559 416.28 252.559 416.532C252.559 416.91 252.433 417.246 252.265 417.54C252.097 417.792 251.929 418.212 251.803 418.8Z" fill="white"/>
<g filter="url(#filter0_f_137_693)">
<circle cx="299.5" cy="300.5" r="5.5" fill="white"/>
<circle cx="299.5" cy="300.5" r="4" stroke="white" stroke-width="3"/>
</g>
<g filter="url(#filter1_f_137_693)">
<circle cx="355.818" cy="163.487" r="5.5" fill="white"/>
<circle cx="355.818" cy="163.487" r="4" stroke="white" stroke-width="3"/>
</g>
<g filter="url(#filter2_f_137_693)">
<circle cx="267.5" cy="210.5" r="5.5" fill="white"/>
<circle cx="267.5" cy="210.5" r="4" stroke="white" stroke-width="3"/>
</g>
<g filter="url(#filter3_f_137_693)">
<path d="M123.776 199C123.776 201.209 121.986 203 119.776 203C117.567 203 115.776 201.209 115.776 199C115.776 196.791 117.567 195 119.776 195C121.986 195 123.776 196.791 123.776 199Z" fill="white"/>
<path d="M122.276 199C122.276 200.381 121.157 201.5 119.776 201.5C118.396 201.5 117.276 200.381 117.276 199C117.276 197.619 118.396 196.5 119.776 196.5C121.157 196.5 122.276 197.619 122.276 199Z" stroke="white" stroke-width="3"/>
</g>
<g filter="url(#filter4_f_137_693)">
<circle cx="376" cy="321" r="4" fill="white"/>
<circle cx="376" cy="321" r="2.5" stroke="white" stroke-width="3"/>
</g>
<g filter="url(#filter5_f_137_693)">
<circle cx="300" cy="246" r="4" fill="white"/>
<circle cx="300" cy="246" r="2.5" stroke="white" stroke-width="3"/>
</g>
<g filter="url(#filter6_f_137_693)">
<circle cx="272.517" cy="171.351" r="4" fill="white"/>
<circle cx="272.517" cy="171.351" r="2.5" stroke="white" stroke-width="3"/>
</g>
<g filter="url(#filter7_f_137_693)">
<circle cx="334" cy="138" r="4" fill="white"/>
<circle cx="334" cy="138" r="2.5" stroke="white" stroke-width="3"/>
</g>
<g filter="url(#filter8_f_137_693)">
<circle cx="21" cy="261" r="4" fill="white"/>
<circle cx="21" cy="261" r="2.5" stroke="white" stroke-width="3"/>
</g>
<g filter="url(#filter9_f_137_693)">
<path d="M403 304C403 306.209 401.209 308 399 308C396.791 308 395 306.209 395 304C395 301.791 396.791 300 399 300C401.209 300 403 301.791 403 304Z" fill="white"/>
<path d="M401.5 304C401.5 305.381 400.381 306.5 399 306.5C397.619 306.5 396.5 305.381 396.5 304C396.5 302.619 397.619 301.5 399 301.5C400.381 301.5 401.5 302.619 401.5 304Z" stroke="white" stroke-width="3"/>
</g>
<g filter="url(#filter10_f_137_693)">
<circle cx="118.287" cy="258.189" r="4" fill="white"/>
<circle cx="118.287" cy="258.189" r="2.5" stroke="white" stroke-width="3"/>
</g>
<path d="M117.695 257.594L119.4 199.703" stroke="white" stroke-opacity="0.4" stroke-width="1.2" stroke-linecap="round"/>
<path d="M117.695 257.594L300.044 301.013" stroke="white" stroke-opacity="0.4" stroke-width="1.2" stroke-linecap="round"/>
<path d="M300.044 245.676L300.044 301.014" stroke="white" stroke-opacity="0.4" stroke-width="1.2" stroke-linecap="round"/>
<path d="M375.881 320.594L300.044 301.013" stroke="white" stroke-opacity="0.4" stroke-width="1.2" stroke-linecap="round"/>
<path d="M300.044 245.676L267.664 210.77" stroke="white" stroke-opacity="0.4" stroke-width="1.2" stroke-linecap="round"/>
<path d="M271.925 170.757L267.665 210.77" stroke="white" stroke-opacity="0.4" stroke-width="1.2" stroke-linecap="round"/>
<path d="M271.925 170.757L334.128 138.405" stroke="white" stroke-opacity="0.4" stroke-width="1.2" stroke-linecap="round"/>
<path d="M355.43 163.094L334.128 138.405" stroke="white" stroke-opacity="0.4" stroke-width="1.2" stroke-linecap="round"/>
<path d="M118.547 199.703L21.4083 261" stroke="white" stroke-opacity="0.4" stroke-width="1.2" stroke-linecap="round"/>
<path d="M265.108 210.77L119 199" stroke="white" stroke-opacity="0.4" stroke-width="1.2" stroke-linecap="round"/>
<path d="M398.887 303.568L300 301" stroke="white" stroke-opacity="0.4" stroke-width="1.2" stroke-linecap="round"/>
<defs>
<filter id="filter0_f_137_693" x="290" y="291" width="19" height="19" filterUnits="userSpaceOnUse" color-interpolation-filters="sRGB">
<feFlood flood-opacity="0" result="BackgroundImageFix"/>
<feBlend mode="normal" in="SourceGraphic" in2="BackgroundImageFix" result="shape"/>
<feGaussianBlur stdDeviation="2" result="effect1_foregroundBlur_137_693"/>
</filter>
<filter id="filter1_f_137_693" x="346.318" y="153.987" width="19" height="19" filterUnits="userSpaceOnUse" color-interpolation-filters="sRGB">
<feFlood flood-opacity="0" result="BackgroundImageFix"/>
<feBlend mode="normal" in="SourceGraphic" in2="BackgroundImageFix" result="shape"/>
<feGaussianBlur stdDeviation="2" result="effect1_foregroundBlur_137_693"/>
</filter>
<filter id="filter2_f_137_693" x="258" y="201" width="19" height="19" filterUnits="userSpaceOnUse" color-interpolation-filters="sRGB">
<feFlood flood-opacity="0" result="BackgroundImageFix"/>
<feBlend mode="normal" in="SourceGraphic" in2="BackgroundImageFix" result="shape"/>
<feGaussianBlur stdDeviation="2" result="effect1_foregroundBlur_137_693"/>
</filter>
<filter id="filter3_f_137_693" x="111.776" y="191" width="16" height="16" filterUnits="userSpaceOnUse" color-interpolation-filters="sRGB">
<feFlood flood-opacity="0" result="BackgroundImageFix"/>
<feBlend mode="normal" in="SourceGraphic" in2="BackgroundImageFix" result="shape"/>
<feGaussianBlur stdDeviation="2" result="effect1_foregroundBlur_137_693"/>
</filter>
<filter id="filter4_f_137_693" x="368" y="313" width="16" height="16" filterUnits="userSpaceOnUse" color-interpolation-filters="sRGB">
<feFlood flood-opacity="0" result="BackgroundImageFix"/>
<feBlend mode="normal" in="SourceGraphic" in2="BackgroundImageFix" result="shape"/>
<feGaussianBlur stdDeviation="2" result="effect1_foregroundBlur_137_693"/>
</filter>
<filter id="filter5_f_137_693" x="292" y="238" width="16" height="16" filterUnits="userSpaceOnUse" color-interpolation-filters="sRGB">
<feFlood flood-opacity="0" result="BackgroundImageFix"/>
<feBlend mode="normal" in="SourceGraphic" in2="BackgroundImageFix" result="shape"/>
<feGaussianBlur stdDeviation="2" result="effect1_foregroundBlur_137_693"/>
</filter>
<filter id="filter6_f_137_693" x="264.517" y="163.351" width="16" height="16" filterUnits="userSpaceOnUse" color-interpolation-filters="sRGB">
<feFlood flood-opacity="0" result="BackgroundImageFix"/>
<feBlend mode="normal" in="SourceGraphic" in2="BackgroundImageFix" result="shape"/>
<feGaussianBlur stdDeviation="2" result="effect1_foregroundBlur_137_693"/>
</filter>
<filter id="filter7_f_137_693" x="326" y="130" width="16" height="16" filterUnits="userSpaceOnUse" color-interpolation-filters="sRGB">
<feFlood flood-opacity="0" result="BackgroundImageFix"/>
<feBlend mode="normal" in="SourceGraphic" in2="BackgroundImageFix" result="shape"/>
<feGaussianBlur stdDeviation="2" result="effect1_foregroundBlur_137_693"/>
</filter>
<filter id="filter8_f_137_693" x="13" y="253" width="16" height="16" filterUnits="userSpaceOnUse" color-interpolation-filters="sRGB">
<feFlood flood-opacity="0" result="BackgroundImageFix"/>
<feBlend mode="normal" in="SourceGraphic" in2="BackgroundImageFix" result="shape"/>
<feGaussianBlur stdDeviation="2" result="effect1_foregroundBlur_137_693"/>
</filter>
<filter id="filter9_f_137_693" x="391" y="296" width="16" height="16" filterUnits="userSpaceOnUse" color-interpolation-filters="sRGB">
<feFlood flood-opacity="0" result="BackgroundImageFix"/>
<feBlend mode="normal" in="SourceGraphic" in2="BackgroundImageFix" result="shape"/>
<feGaussianBlur stdDeviation="2" result="effect1_foregroundBlur_137_693"/>
</filter>
<filter id="filter10_f_137_693" x="110.287" y="250.189" width="16" height="16" filterUnits="userSpaceOnUse" color-interpolation-filters="sRGB">
<feFlood flood-opacity="0" result="BackgroundImageFix"/>
<feBlend mode="normal" in="SourceGraphic" in2="BackgroundImageFix" result="shape"/>
<feGaussianBlur stdDeviation="2" result="effect1_foregroundBlur_137_693"/>
</filter>
</defs>
</svg>
