<svg width="420" height="539" viewBox="0 0 420 539" fill="none" xmlns="http://www.w3.org/2000/svg">
<path d="M130.143 132.575L149.647 122.906" stroke="white" stroke-opacity="0.4" stroke-width="1.2" stroke-linecap="round"/>
<path d="M133.286 149.08L149.786 123.144" stroke="white" stroke-opacity="0.4" stroke-width="1.2" stroke-linecap="round"/>
<path d="M105.786 244.965L133.286 149.08" stroke="white" stroke-opacity="0.4" stroke-width="1.2" stroke-linecap="round"/>
<path d="M105.786 244.965L72.0001 298.409" stroke="white" stroke-opacity="0.4" stroke-width="1.2" stroke-linecap="round"/>
<path d="M31.9286 348.709L72 298.409" stroke="white" stroke-opacity="0.4" stroke-width="1.2" stroke-linecap="round"/>
<path d="M31.9286 348.709L160 308.626" stroke="white" stroke-opacity="0.4" stroke-width="1.2" stroke-linecap="round"/>
<path d="M189.857 310.198L160.786 308.626" stroke="white" stroke-opacity="0.4" stroke-width="1.2" stroke-linecap="round"/>
<path d="M190.643 310.198L291.214 314.914" stroke="white" stroke-opacity="0.4" stroke-width="1.2" stroke-linecap="round"/>
<path d="M332.857 325.131L291.214 314.914" stroke="white" stroke-opacity="0.4" stroke-width="1.2" stroke-linecap="round"/>
<path d="M332.857 325.131L359.571 317.272" stroke="white" stroke-opacity="0.4" stroke-width="1.2" stroke-linecap="round"/>
<path d="M333.643 358.927L365.857 362.07" stroke="white" stroke-opacity="0.4" stroke-width="1.2" stroke-linecap="round"/>
<path d="M331.286 358.141L332.857 325.131" stroke="white" stroke-opacity="0.4" stroke-width="1.2" stroke-linecap="round"/>
<path d="M359.179 317.271L387.857 343.208L366.643 362.07" stroke="white" stroke-opacity="0.4" stroke-width="1.2" stroke-linecap="round"/>
<path d="M133.286 149.08L130.143 132.575" stroke="white" stroke-opacity="0.4" stroke-width="1.2" stroke-linecap="round"/>
<g filter="url(#filter0_f_84_639)">
<ellipse cx="149" cy="123.144" rx="3.14286" ry="3.14377" fill="white"/>
<path d="M150.643 123.144C150.643 124.052 149.907 124.788 149 124.788C148.093 124.788 147.357 124.052 147.357 123.144C147.357 122.236 148.093 121.5 149 121.5C149.907 121.5 150.643 122.236 150.643 123.144Z" stroke="white" stroke-width="3"/>
</g>
<g filter="url(#filter1_f_84_639)">
<ellipse cx="132.893" cy="148.687" rx="3.53572" ry="3.53674" fill="white"/>
<path d="M134.929 148.687C134.929 149.812 134.017 150.724 132.893 150.724C131.769 150.724 130.857 149.812 130.857 148.687C130.857 147.562 131.769 146.65 132.893 146.65C134.017 146.65 134.929 147.562 134.929 148.687Z" stroke="white" stroke-width="3"/>
</g>
<g filter="url(#filter2_f_84_639)">
<ellipse cx="133.679" cy="148.687" rx="4.32143" ry="4.32268" fill="white"/>
<path d="M136.5 148.687C136.5 150.246 135.236 151.51 133.679 151.51C132.121 151.51 130.857 150.246 130.857 148.687C130.857 147.128 132.121 145.864 133.679 145.864C135.236 145.864 136.5 147.128 136.5 148.687Z" stroke="white" stroke-width="3"/>
</g>
<g filter="url(#filter3_f_84_639)">
<ellipse cx="105.786" cy="244.179" rx="3.14286" ry="3.14377" fill="white"/>
<path d="M107.429 244.179C107.429 245.087 106.693 245.823 105.786 245.823C104.879 245.823 104.143 245.087 104.143 244.179C104.143 243.271 104.879 242.535 105.786 242.535C106.693 242.535 107.429 243.271 107.429 244.179Z" stroke="white" stroke-width="3"/>
</g>
<g filter="url(#filter4_f_84_639)">
<ellipse cx="72" cy="297.623" rx="3.14286" ry="3.14377" fill="white"/>
<path d="M73.6429 297.623C73.6429 298.531 72.9069 299.267 72 299.267C71.0931 299.267 70.3572 298.531 70.3572 297.623C70.3572 296.715 71.0931 295.979 72 295.979C72.9069 295.979 73.6429 296.715 73.6429 297.623Z" stroke="white" stroke-width="3"/>
</g>
<g filter="url(#filter5_f_84_639)">
<ellipse cx="32.3214" cy="348.316" rx="4.32143" ry="4.32269" fill="white"/>
<path d="M35.1429 348.316C35.1429 349.876 33.8792 351.139 32.3214 351.139C30.7636 351.139 29.5 349.876 29.5 348.316C29.5 346.757 30.7636 345.494 32.3214 345.494C33.8792 345.494 35.1429 346.757 35.1429 348.316Z" stroke="white" stroke-width="3"/>
</g>
<g filter="url(#filter6_f_84_639)">
<ellipse cx="160" cy="307.84" rx="3.14285" ry="3.14377" fill="white"/>
<path d="M161.643 307.84C161.643 308.749 160.907 309.484 160 309.484C159.093 309.484 158.357 308.749 158.357 307.84C158.357 306.932 159.093 306.197 160 306.197C160.907 306.197 161.643 306.932 161.643 307.84Z" stroke="white" stroke-width="3"/>
</g>
<g filter="url(#filter7_f_84_639)">
<ellipse cx="189.857" cy="310.198" rx="3.14286" ry="3.14378" fill="white"/>
<path d="M191.5 310.198C191.5 311.106 190.764 311.842 189.857 311.842C188.95 311.842 188.214 311.106 188.214 310.198C188.214 309.29 188.95 308.554 189.857 308.554C190.764 308.554 191.5 309.29 191.5 310.198Z" stroke="white" stroke-width="3"/>
</g>
<g filter="url(#filter8_f_84_639)">
<ellipse cx="331.286" cy="358.141" rx="3.14285" ry="3.14377" fill="white"/>
<path d="M332.929 358.141C332.929 359.049 332.193 359.784 331.286 359.784C330.379 359.784 329.643 359.049 329.643 358.141C329.643 357.232 330.379 356.497 331.286 356.497C332.193 356.497 332.929 357.232 332.929 358.141Z" stroke="white" stroke-width="3"/>
</g>
<g filter="url(#filter9_f_84_639)">
<ellipse cx="365.857" cy="362.856" rx="3.14285" ry="3.14377" fill="white"/>
<path d="M367.5 362.856C367.5 363.764 366.764 364.5 365.857 364.5C364.95 364.5 364.214 363.764 364.214 362.856C364.214 361.948 364.95 361.212 365.857 361.212C366.764 361.212 367.5 361.948 367.5 362.856Z" stroke="white" stroke-width="3"/>
</g>
<g filter="url(#filter10_f_84_639)">
<ellipse cx="387.857" cy="343.208" rx="3.14285" ry="3.14377" fill="white"/>
<path d="M389.5 343.208C389.5 344.116 388.764 344.852 387.857 344.852C386.95 344.852 386.214 344.116 386.214 343.208C386.214 342.299 386.95 341.564 387.857 341.564C388.764 341.564 389.5 342.299 389.5 343.208Z" stroke="white" stroke-width="3"/>
</g>
<g filter="url(#filter11_f_84_639)">
<ellipse cx="291.214" cy="314.914" rx="3.14285" ry="3.14377" fill="white"/>
<path d="M292.857 314.914C292.857 315.822 292.121 316.558 291.214 316.558C290.307 316.558 289.571 315.822 289.571 314.914C289.571 314.006 290.307 313.27 291.214 313.27C292.121 313.27 292.857 314.006 292.857 314.914Z" stroke="white" stroke-width="3"/>
</g>
<g filter="url(#filter12_f_84_639)">
<ellipse cx="333.643" cy="324.345" rx="3.14285" ry="3.14377" fill="white"/>
<path d="M335.286 324.345C335.286 325.253 334.55 325.989 333.643 325.989C332.736 325.989 332 325.253 332 324.345C332 323.437 332.736 322.701 333.643 322.701C334.55 322.701 335.286 323.437 335.286 324.345Z" stroke="white" stroke-width="3"/>
</g>
<g filter="url(#filter13_f_84_639)">
<ellipse cx="358.786" cy="317.271" rx="3.14285" ry="3.14377" fill="white"/>
<path d="M360.429 317.271C360.429 318.18 359.693 318.915 358.786 318.915C357.879 318.915 357.143 318.18 357.143 317.271C357.143 316.363 357.879 315.628 358.786 315.628C359.693 315.628 360.429 316.363 360.429 317.271Z" stroke="white" stroke-width="3"/>
</g>
<g filter="url(#filter14_f_84_639)">
<ellipse cx="130.143" cy="132.575" rx="3.14286" ry="3.14377" fill="white"/>
<path d="M131.786 132.575C131.786 133.483 131.05 134.219 130.143 134.219C129.236 134.219 128.5 133.483 128.5 132.575C128.5 131.667 129.236 130.931 130.143 130.931C131.05 130.931 131.786 131.667 131.786 132.575Z" stroke="white" stroke-width="3"/>
</g>
<path d="M206.164 440.808C205.24 440.892 204.232 441.018 203.056 441.102C201.838 441.27 200.578 441.396 199.234 441.564C197.428 441.816 195.58 442.026 193.732 442.278C191.8 442.53 189.994 442.782 188.314 443.034L183.652 443.748C182.224 444 181.132 444.21 180.376 444.42C180.04 444.504 179.746 444.588 179.452 444.756C179.116 444.84 178.822 444.966 178.57 445.134C178.066 445.386 177.562 445.596 177.058 445.764C176.512 445.932 175.966 445.932 175.378 445.806C174.538 445.596 173.782 445.344 173.11 445.008C172.354 444.672 171.892 444.42 171.64 444.252C171.262 444.042 171.094 443.79 171.094 443.412C171.094 442.992 171.262 442.698 171.598 442.53C171.892 442.404 172.312 442.32 172.816 442.278C173.614 442.32 174.496 442.32 175.504 442.236C176.428 442.194 177.268 442.11 178.024 442.026C178.276 442.026 178.654 441.942 179.242 441.858C179.788 441.816 180.46 441.732 181.216 441.606C181.93 441.522 182.728 441.438 183.652 441.312C184.534 441.228 185.458 441.102 186.424 440.934V433.038C186.424 432.492 186.172 432.072 185.668 431.778C185.164 431.526 184.408 431.316 183.442 431.064C183.106 431.022 182.854 430.938 182.686 430.77C182.476 430.644 182.392 430.434 182.392 430.098C182.392 429.846 182.518 429.594 182.854 429.342C183.106 429.132 183.526 428.964 184.114 428.88C184.366 428.88 184.912 428.838 185.71 428.796C186.466 428.796 187.264 428.796 188.02 428.88C188.86 428.964 189.448 429.132 189.784 429.3C190.036 429.51 190.204 429.804 190.204 430.182C190.204 430.434 190.162 430.728 190.12 430.98C190.078 431.148 190.078 431.358 190.078 431.568C190.036 431.82 190.036 432.072 190.036 432.282L189.952 440.472L194.782 439.8C196.252 439.59 197.344 439.38 198.1 439.212C198.982 439.044 199.654 438.834 200.116 438.624C200.536 438.456 200.914 438.288 201.25 438.12C201.46 438.036 201.67 437.91 201.88 437.826C202.048 437.784 202.258 437.742 202.594 437.658C202.846 437.658 203.14 437.616 203.56 437.574C203.896 437.574 204.274 437.532 204.694 437.532C205.072 437.532 205.45 437.574 205.87 437.574C206.206 437.616 206.542 437.658 206.836 437.658C207.886 437.868 208.432 438.288 208.432 438.96C208.432 439.464 208.222 439.842 207.844 440.178C207.424 440.514 206.878 440.724 206.164 440.808ZM202.342 418.338C202.258 418.884 202.174 419.598 202.09 420.438C201.922 421.362 201.796 422.328 201.628 423.336C201.46 424.386 201.25 425.478 201.082 426.57C200.83 427.746 200.62 428.838 200.452 429.846C200.2 430.896 199.99 431.862 199.822 432.702C199.57 433.626 199.36 434.34 199.192 434.844C198.94 435.432 198.688 435.768 198.436 435.936C198.142 436.104 197.89 436.188 197.638 436.188C196.966 436.188 196.714 435.684 196.882 434.718C196.966 433.962 197.092 432.87 197.218 431.484C197.302 430.14 197.428 428.712 197.554 427.116L197.806 422.454C197.848 420.942 197.89 419.556 197.932 418.338L196.63 418.506C195.538 418.674 194.362 418.8 193.102 418.968C191.758 419.178 190.498 419.346 189.28 419.514L185.878 420.06C184.87 420.27 184.114 420.438 183.61 420.522C183.274 420.606 183.022 420.69 182.812 420.774C182.56 420.942 182.308 421.068 182.14 421.152C181.72 421.404 181.3 421.572 180.88 421.74C180.46 421.95 179.998 421.992 179.494 421.866C178.738 421.698 177.982 421.446 177.31 421.068C176.596 420.732 176.134 420.522 175.924 420.354C175.588 420.186 175.462 419.934 175.462 419.64C175.462 419.304 175.588 419.052 175.882 418.884C176.134 418.758 176.512 418.674 176.974 418.632C177.646 418.674 178.318 418.674 179.032 418.59C179.704 418.548 180.334 418.506 180.922 418.422C181.216 418.422 181.762 418.338 182.56 418.212C183.316 418.128 184.156 418.002 185.164 417.834C186.13 417.75 187.18 417.582 188.314 417.414C189.406 417.288 190.498 417.12 191.548 416.952C192.556 416.826 193.522 416.7 194.404 416.532C195.244 416.448 195.958 416.322 196.462 416.196C196.798 416.154 197.05 416.07 197.302 415.986C197.47 415.902 197.638 415.818 197.806 415.692L198.352 415.44C198.52 415.356 198.73 415.272 198.982 415.23C199.36 415.188 199.78 415.146 200.284 415.104C200.746 415.104 201.208 415.104 201.628 415.146C202.006 415.23 202.342 415.314 202.636 415.44C202.888 415.608 203.056 415.86 203.056 416.154C203.056 416.322 203.014 416.448 202.972 416.574C202.888 416.742 202.804 416.91 202.762 417.036C202.678 417.204 202.594 417.372 202.552 417.54C202.468 417.75 202.384 418.002 202.342 418.338ZM229.072 427.956C229.072 428.586 229.03 429.258 229.03 430.014C228.988 430.77 228.904 431.484 228.778 432.156C228.61 432.828 228.4 433.416 228.148 433.878C227.812 434.382 227.392 434.634 226.888 434.718C226.594 434.76 226.342 434.676 226.174 434.466C225.964 434.298 225.796 433.962 225.67 433.374L217.438 434.382C217.27 435.054 217.06 435.642 216.808 436.104C216.472 436.608 216.052 436.86 215.548 436.902C215.086 436.986 214.75 436.692 214.498 436.062C214.246 435.474 214.12 434.256 214.12 432.408V423.798C214.12 423.252 213.91 422.832 213.574 422.496C213.154 422.244 212.482 421.992 211.558 421.74C211.222 421.698 210.97 421.614 210.802 421.446C210.592 421.362 210.508 421.152 210.508 420.816C210.508 420.564 210.634 420.27 210.97 420.018C211.222 419.808 211.642 419.682 212.23 419.598C212.482 419.556 212.986 419.514 213.658 419.514C214.288 419.514 214.96 419.556 215.716 419.598C216.346 419.682 216.85 419.85 217.228 420.102C217.564 420.354 217.732 420.648 217.732 420.942V424.554L225.46 423.63V420.732C225.46 420.228 225.25 419.808 224.83 419.472C224.368 419.178 223.654 418.926 222.688 418.716C222.352 418.674 222.1 418.59 221.932 418.422C221.722 418.296 221.638 418.086 221.638 417.75C221.638 417.498 221.764 417.204 222.1 416.952C222.352 416.742 222.772 416.616 223.36 416.532C223.612 416.49 224.116 416.448 224.872 416.448C225.544 416.448 226.3 416.49 227.056 416.532C227.686 416.616 228.19 416.742 228.568 416.994C228.904 417.288 229.072 417.582 229.072 417.876V427.956ZM236.464 421.824L240.16 421.362V414.684C240.16 414.138 239.908 413.718 239.404 413.424C238.9 413.172 238.144 412.92 237.178 412.71C236.842 412.626 236.59 412.542 236.422 412.374C236.212 412.29 236.128 412.08 236.128 411.744C236.128 411.492 236.254 411.198 236.59 410.946C236.842 410.736 237.262 410.61 237.85 410.526C238.102 410.484 238.648 410.442 239.446 410.4C240.202 410.4 241 410.442 241.756 410.484C242.386 410.568 242.932 410.694 243.436 410.862C243.898 411.072 244.15 411.324 244.15 411.66C244.15 411.954 244.108 412.29 244.024 412.626C243.94 412.878 243.898 413.13 243.856 413.382C243.772 413.676 243.772 413.97 243.772 414.306V425.268C243.772 425.898 243.73 426.654 243.73 427.494C243.688 428.418 243.604 429.258 243.478 430.098C243.31 430.938 243.1 431.652 242.848 432.24C242.512 432.87 242.092 433.206 241.588 433.29C241.126 433.374 240.79 433.08 240.538 432.45C240.286 431.862 240.16 430.644 240.16 428.796V423.924L236.464 424.386V426.108C236.464 426.738 236.422 427.494 236.422 428.334C236.38 429.258 236.296 430.098 236.17 430.896C236.002 431.736 235.792 432.492 235.54 433.08C235.204 433.71 234.784 434.046 234.28 434.088C234.028 434.13 233.86 434.088 233.692 433.92C233.524 433.836 233.356 433.584 233.272 433.248C233.104 432.912 233.02 432.45 232.978 431.862C232.894 431.274 232.852 430.518 232.852 429.594V417.96C232.852 417.414 232.6 416.994 232.096 416.7C231.592 416.448 230.836 416.196 229.87 415.986C229.534 415.944 229.282 415.86 229.114 415.692C228.904 415.566 228.82 415.356 228.82 415.02C228.82 414.768 228.946 414.474 229.282 414.222C229.534 414.012 229.954 413.886 230.542 413.802C230.794 413.76 231.34 413.718 232.138 413.676C232.894 413.676 233.692 413.718 234.448 413.802C235.078 413.886 235.624 414.012 236.128 414.18C236.59 414.39 236.842 414.642 236.842 414.978C236.842 415.272 236.8 415.566 236.716 415.902C236.632 416.154 236.59 416.406 236.548 416.658C236.464 416.994 236.464 417.288 236.464 417.624V421.824ZM243.184 443.37C243.184 443.79 243.142 444.336 243.058 445.008C242.932 445.638 242.806 446.268 242.638 446.94C242.428 447.528 242.176 448.074 241.924 448.578C241.63 449.04 241.294 449.292 240.958 449.376C240.412 449.418 240.034 449.082 239.866 448.368C239.614 447.612 239.53 446.268 239.53 444.42V437.364C238.9 437.448 238.06 437.574 237.052 437.7L233.818 438.204C232.684 438.372 231.634 438.54 230.626 438.708C229.576 438.918 228.778 439.086 228.274 439.212C228.022 439.296 227.77 439.38 227.56 439.464C227.308 439.632 227.098 439.758 226.93 439.842C226.594 440.052 226.258 440.22 225.88 440.388C225.46 440.556 224.998 440.598 224.536 440.472C223.78 440.304 223.024 440.094 222.352 439.758C221.596 439.464 221.134 439.254 220.924 439.086C220.588 438.918 220.462 438.666 220.462 438.33C220.462 437.994 220.588 437.742 220.882 437.574C221.134 437.49 221.512 437.406 221.974 437.364C222.646 437.406 223.318 437.406 224.032 437.322C224.704 437.28 225.334 437.196 225.922 437.112C226.426 437.07 227.224 436.986 228.274 436.818C229.282 436.692 230.332 436.524 231.508 436.356L234.826 435.852C235.918 435.684 236.8 435.558 237.514 435.39C237.934 435.306 238.312 435.18 238.564 435.096C238.774 435.012 238.984 434.928 239.152 434.802C239.32 434.718 239.53 434.634 239.74 434.55C239.908 434.466 240.118 434.424 240.412 434.34C240.748 434.34 241.168 434.298 241.588 434.256C241.966 434.256 242.344 434.298 242.722 434.34C243.058 434.424 243.394 434.55 243.646 434.676C243.856 434.844 243.982 435.096 243.982 435.348C243.982 435.642 243.898 435.978 243.73 436.398C243.646 436.65 243.604 436.944 243.52 437.238C243.436 437.574 243.352 437.994 243.352 438.456L243.184 443.37ZM217.732 427.116V430.938C217.732 431.232 217.69 431.526 217.69 431.82L225.46 430.854V426.192L217.732 427.116Z" fill="white"/>
<defs>
<filter id="filter0_f_84_639" x="141.857" y="116" width="14.2858" height="14.2876" filterUnits="userSpaceOnUse" color-interpolation-filters="sRGB">
<feFlood flood-opacity="0" result="BackgroundImageFix"/>
<feBlend mode="normal" in="SourceGraphic" in2="BackgroundImageFix" result="shape"/>
<feGaussianBlur stdDeviation="2" result="effect1_foregroundBlur_84_639"/>
</filter>
<filter id="filter1_f_84_639" x="125.357" y="141.15" width="15.0714" height="15.0735" filterUnits="userSpaceOnUse" color-interpolation-filters="sRGB">
<feFlood flood-opacity="0" result="BackgroundImageFix"/>
<feBlend mode="normal" in="SourceGraphic" in2="BackgroundImageFix" result="shape"/>
<feGaussianBlur stdDeviation="2" result="effect1_foregroundBlur_84_639"/>
</filter>
<filter id="filter2_f_84_639" x="125.357" y="140.364" width="16.6428" height="16.6453" filterUnits="userSpaceOnUse" color-interpolation-filters="sRGB">
<feFlood flood-opacity="0" result="BackgroundImageFix"/>
<feBlend mode="normal" in="SourceGraphic" in2="BackgroundImageFix" result="shape"/>
<feGaussianBlur stdDeviation="2" result="effect1_foregroundBlur_84_639"/>
</filter>
<filter id="filter3_f_84_639" x="98.6428" y="237.035" width="14.2858" height="14.2876" filterUnits="userSpaceOnUse" color-interpolation-filters="sRGB">
<feFlood flood-opacity="0" result="BackgroundImageFix"/>
<feBlend mode="normal" in="SourceGraphic" in2="BackgroundImageFix" result="shape"/>
<feGaussianBlur stdDeviation="2" result="effect1_foregroundBlur_84_639"/>
</filter>
<filter id="filter4_f_84_639" x="64.8572" y="290.479" width="14.2858" height="14.2876" filterUnits="userSpaceOnUse" color-interpolation-filters="sRGB">
<feFlood flood-opacity="0" result="BackgroundImageFix"/>
<feBlend mode="normal" in="SourceGraphic" in2="BackgroundImageFix" result="shape"/>
<feGaussianBlur stdDeviation="2" result="effect1_foregroundBlur_84_639"/>
</filter>
<filter id="filter5_f_84_639" x="24" y="339.994" width="16.6428" height="16.6453" filterUnits="userSpaceOnUse" color-interpolation-filters="sRGB">
<feFlood flood-opacity="0" result="BackgroundImageFix"/>
<feBlend mode="normal" in="SourceGraphic" in2="BackgroundImageFix" result="shape"/>
<feGaussianBlur stdDeviation="2" result="effect1_foregroundBlur_84_639"/>
</filter>
<filter id="filter6_f_84_639" x="152.857" y="300.697" width="14.2856" height="14.2876" filterUnits="userSpaceOnUse" color-interpolation-filters="sRGB">
<feFlood flood-opacity="0" result="BackgroundImageFix"/>
<feBlend mode="normal" in="SourceGraphic" in2="BackgroundImageFix" result="shape"/>
<feGaussianBlur stdDeviation="2" result="effect1_foregroundBlur_84_639"/>
</filter>
<filter id="filter7_f_84_639" x="182.714" y="303.054" width="14.2858" height="14.2876" filterUnits="userSpaceOnUse" color-interpolation-filters="sRGB">
<feFlood flood-opacity="0" result="BackgroundImageFix"/>
<feBlend mode="normal" in="SourceGraphic" in2="BackgroundImageFix" result="shape"/>
<feGaussianBlur stdDeviation="2" result="effect1_foregroundBlur_84_639"/>
</filter>
<filter id="filter8_f_84_639" x="324.143" y="350.997" width="14.2856" height="14.2876" filterUnits="userSpaceOnUse" color-interpolation-filters="sRGB">
<feFlood flood-opacity="0" result="BackgroundImageFix"/>
<feBlend mode="normal" in="SourceGraphic" in2="BackgroundImageFix" result="shape"/>
<feGaussianBlur stdDeviation="2" result="effect1_foregroundBlur_84_639"/>
</filter>
<filter id="filter9_f_84_639" x="358.714" y="355.712" width="14.2856" height="14.2876" filterUnits="userSpaceOnUse" color-interpolation-filters="sRGB">
<feFlood flood-opacity="0" result="BackgroundImageFix"/>
<feBlend mode="normal" in="SourceGraphic" in2="BackgroundImageFix" result="shape"/>
<feGaussianBlur stdDeviation="2" result="effect1_foregroundBlur_84_639"/>
</filter>
<filter id="filter10_f_84_639" x="380.714" y="336.064" width="14.2856" height="14.2876" filterUnits="userSpaceOnUse" color-interpolation-filters="sRGB">
<feFlood flood-opacity="0" result="BackgroundImageFix"/>
<feBlend mode="normal" in="SourceGraphic" in2="BackgroundImageFix" result="shape"/>
<feGaussianBlur stdDeviation="2" result="effect1_foregroundBlur_84_639"/>
</filter>
<filter id="filter11_f_84_639" x="284.071" y="307.77" width="14.2858" height="14.2876" filterUnits="userSpaceOnUse" color-interpolation-filters="sRGB">
<feFlood flood-opacity="0" result="BackgroundImageFix"/>
<feBlend mode="normal" in="SourceGraphic" in2="BackgroundImageFix" result="shape"/>
<feGaussianBlur stdDeviation="2" result="effect1_foregroundBlur_84_639"/>
</filter>
<filter id="filter12_f_84_639" x="326.5" y="317.201" width="14.2856" height="14.2876" filterUnits="userSpaceOnUse" color-interpolation-filters="sRGB">
<feFlood flood-opacity="0" result="BackgroundImageFix"/>
<feBlend mode="normal" in="SourceGraphic" in2="BackgroundImageFix" result="shape"/>
<feGaussianBlur stdDeviation="2" result="effect1_foregroundBlur_84_639"/>
</filter>
<filter id="filter13_f_84_639" x="351.643" y="310.128" width="14.2856" height="14.2876" filterUnits="userSpaceOnUse" color-interpolation-filters="sRGB">
<feFlood flood-opacity="0" result="BackgroundImageFix"/>
<feBlend mode="normal" in="SourceGraphic" in2="BackgroundImageFix" result="shape"/>
<feGaussianBlur stdDeviation="2" result="effect1_foregroundBlur_84_639"/>
</filter>
<filter id="filter14_f_84_639" x="123" y="125.431" width="14.2858" height="14.2876" filterUnits="userSpaceOnUse" color-interpolation-filters="sRGB">
<feFlood flood-opacity="0" result="BackgroundImageFix"/>
<feBlend mode="normal" in="SourceGraphic" in2="BackgroundImageFix" result="shape"/>
<feGaussianBlur stdDeviation="2" result="effect1_foregroundBlur_84_639"/>
</filter>
</defs>
</svg>
