<svg width="369" height="525" viewBox="0 0 369 525" fill="none" xmlns="http://www.w3.org/2000/svg">
<path d="M200.746 425.898L201.67 425.772C201.964 425.73 202.258 425.646 202.51 425.478C202.762 425.352 202.972 425.184 203.182 425.016C203.392 424.848 203.602 424.68 203.812 424.554C203.98 424.47 204.232 424.386 204.568 424.302C205.03 424.26 205.492 424.218 205.996 424.218C206.458 424.218 206.92 424.26 207.424 424.302C207.844 424.428 208.222 424.596 208.474 424.848C208.726 425.142 208.852 425.436 208.852 425.73C208.852 426.696 208.18 427.242 206.92 427.41L200.746 428.166V439.716V442.362C200.704 443.454 200.62 444.462 200.494 445.47C200.326 446.436 200.116 447.276 199.864 448.032C199.528 448.746 199.108 449.166 198.562 449.25C197.596 449.376 197.134 447.612 197.134 443.958V415.104C197.134 414.558 196.882 414.138 196.378 413.844C195.874 413.592 195.118 413.34 194.152 413.13C193.816 413.088 193.564 413.004 193.396 412.836C193.186 412.71 193.102 412.5 193.102 412.164C193.102 411.912 193.228 411.618 193.564 411.366C193.816 411.156 194.236 411.03 194.824 410.946C195.076 410.904 195.622 410.862 196.42 410.82C197.176 410.82 197.974 410.862 198.73 410.946C199.36 411.03 199.906 411.156 200.41 411.324C200.872 411.534 201.124 411.786 201.124 412.122C201.124 412.416 201.082 412.71 200.998 413.046C200.914 413.298 200.872 413.55 200.83 413.802C200.746 414.138 200.746 414.432 200.746 414.768V425.898ZM186.256 421.446C185.626 423.756 184.702 426.066 183.442 428.376C183.778 428.712 184.198 429.09 184.618 429.426C184.996 429.846 185.374 430.182 185.752 430.518C186.088 430.854 186.424 431.148 186.76 431.4C187.012 431.652 187.222 431.82 187.39 431.904C187.558 432.03 187.726 432.114 187.978 432.156C188.146 432.24 188.356 432.282 188.608 432.324C188.902 432.408 189.238 432.534 189.574 432.618C189.91 432.744 190.204 432.954 190.456 433.206C190.876 433.71 191.296 434.256 191.674 434.844C192.01 435.474 192.346 436.146 192.766 436.86C192.976 437.28 193.06 437.7 192.976 438.078C192.892 438.414 192.724 438.708 192.472 438.918C192.22 439.17 191.884 439.296 191.506 439.338C191.254 439.338 191.002 439.254 190.666 439.086C190.288 438.918 189.868 438.624 189.406 438.12L182.056 430.77C180.67 432.996 179.158 435.138 177.478 437.154C175.756 439.212 174.034 441.018 172.27 442.53C171.934 442.782 171.64 442.95 171.346 442.992C171.01 443.076 170.716 443.034 170.506 442.824C170.338 442.698 170.296 442.488 170.296 442.194C170.254 441.942 170.422 441.648 170.8 441.27C171.892 440.094 172.984 438.75 174.118 437.154C175.21 435.642 176.26 434.046 177.268 432.366C178.234 430.728 179.116 429.048 179.914 427.368C180.67 425.73 181.216 424.176 181.636 422.748C181.72 422.454 181.72 422.202 181.72 421.992C181.678 421.824 181.636 421.74 181.594 421.656C181.426 421.488 181.132 421.32 180.712 421.152C180.25 420.984 179.746 420.858 179.2 420.69C178.738 420.564 178.486 420.396 178.402 420.144C178.276 419.976 178.234 419.766 178.318 419.514C178.402 418.926 178.948 418.59 179.998 418.548C180.292 418.548 180.67 418.59 181.132 418.59C181.552 418.632 182.056 418.674 182.56 418.716C183.022 418.8 183.526 418.884 184.03 418.968C184.534 419.094 184.996 419.22 185.416 419.304C185.92 419.472 186.256 419.682 186.34 420.018C186.424 420.396 186.382 420.858 186.256 421.446ZM214.54 429.426C214.54 428.922 214.33 428.502 213.91 428.166C213.448 427.914 212.734 427.662 211.768 427.452C211.432 427.41 211.18 427.326 211.012 427.158C210.802 427.032 210.718 426.822 210.718 426.486C210.718 426.234 210.844 425.94 211.18 425.688C211.432 425.478 211.852 425.352 212.44 425.268C212.524 425.268 212.734 425.268 213.028 425.226C213.28 425.226 213.574 425.184 213.91 425.142H215.002C215.338 425.142 215.716 425.184 216.094 425.184L226.468 423.714V418.212C225.964 418.296 225.418 418.38 224.83 418.464C224.242 418.548 223.612 418.674 223.024 418.758C222.352 418.884 221.764 419.01 221.176 419.094C220.588 419.262 220.042 419.388 219.538 419.472C219.286 419.556 219.034 419.682 218.824 419.766C218.572 419.934 218.32 420.06 218.11 420.186C217.732 420.438 217.396 420.606 217.06 420.774C216.724 420.942 216.262 420.984 215.758 420.9C215.338 420.858 214.96 420.774 214.624 420.648C214.204 420.564 213.868 420.438 213.532 420.27C213.196 420.144 212.902 420.018 212.65 419.85C212.356 419.724 212.146 419.598 212.062 419.514C211.936 419.43 211.81 419.304 211.726 419.136C211.6 419.01 211.558 418.842 211.558 418.59C211.558 418.254 211.684 418.002 211.978 417.834C212.23 417.75 212.608 417.666 213.07 417.624C213.742 417.666 214.414 417.666 215.128 417.582C215.8 417.54 216.43 417.498 217.018 417.414C218.11 417.288 219.328 417.12 220.672 416.868C222.016 416.7 223.402 416.448 224.83 416.196C225.25 416.112 225.628 415.986 225.88 415.86C226.09 415.776 226.3 415.692 226.468 415.608C226.636 415.524 226.846 415.398 227.056 415.314C227.224 415.272 227.434 415.23 227.728 415.146C228.064 415.146 228.484 415.104 228.904 415.062C229.282 415.062 229.66 415.104 229.996 415.146C230.332 415.23 230.584 415.356 230.836 415.482C231.046 415.65 231.172 415.902 231.172 416.154C231.172 416.364 231.13 416.532 231.13 416.616C231.046 416.784 231.004 416.952 230.92 417.12C230.836 417.288 230.752 417.456 230.668 417.708C230.584 418.002 230.5 418.38 230.458 418.8C230.332 419.556 230.206 420.27 230.122 421.026C229.996 421.782 229.87 422.538 229.786 423.252C230.542 423.294 230.962 423.672 230.962 424.344C230.962 424.848 230.752 425.184 230.416 425.394C230.038 425.646 229.576 425.814 229.03 425.856L223.738 426.612C221.974 426.864 220.21 427.116 218.446 427.326V432.03C218.446 432.366 218.488 432.534 218.614 432.618C218.698 432.702 218.824 432.744 219.076 432.702C221.848 432.366 224.746 431.694 227.77 430.77C230.71 429.846 233.692 428.754 236.632 427.494V415.104C236.632 414.558 236.38 414.138 235.876 413.844C235.372 413.592 234.616 413.34 233.65 413.13C233.314 413.088 233.062 413.004 232.894 412.836C232.684 412.71 232.6 412.5 232.6 412.164C232.6 411.912 232.726 411.618 233.062 411.366C233.314 411.156 233.734 411.03 234.322 410.946C234.574 410.904 235.12 410.862 235.918 410.82C236.674 410.82 237.472 410.862 238.228 410.946C238.858 411.03 239.404 411.156 239.908 411.324C240.37 411.534 240.622 411.786 240.622 412.122C240.622 412.416 240.58 412.71 240.496 413.046C240.412 413.298 240.37 413.55 240.328 413.802C240.244 414.138 240.244 414.432 240.244 414.768V421.278L241.168 421.152C241.462 421.11 241.756 421.026 242.008 420.858C242.26 420.732 242.47 420.564 242.68 420.396C242.89 420.228 243.1 420.06 243.31 419.934C243.478 419.85 243.73 419.766 244.066 419.682C244.528 419.64 244.99 419.598 245.494 419.598C245.956 419.598 246.418 419.64 246.922 419.682C247.342 419.808 247.72 419.976 247.972 420.228C248.224 420.522 248.35 420.816 248.35 421.11C248.35 422.076 247.678 422.622 246.418 422.79L240.244 423.546V426.36C240.244 426.99 240.202 427.746 240.202 428.586C240.16 429.51 240.076 430.35 239.95 431.148C239.782 431.988 239.572 432.744 239.32 433.332C238.984 433.962 238.564 434.298 238.06 434.34C237.808 434.382 237.64 434.34 237.472 434.172C237.304 434.088 237.136 433.836 237.052 433.5C236.884 433.164 236.8 432.702 236.758 432.114C236.674 431.526 236.632 430.77 236.632 429.846V429.804C235.12 430.56 233.524 431.274 231.844 431.946C230.122 432.66 228.442 433.29 226.846 433.836C225.208 434.424 223.654 434.928 222.226 435.306C220.756 435.726 219.538 436.02 218.53 436.104C217.06 436.314 216.052 436.062 215.464 435.39C214.834 434.76 214.54 433.71 214.54 432.282V429.426ZM221.176 442.278C221.092 441.774 220.966 441.354 220.798 441.018C220.546 440.682 220 440.43 219.076 440.22C218.74 440.136 218.488 440.052 218.32 439.884C218.11 439.8 218.026 439.59 218.026 439.254C218.026 439.002 218.152 438.708 218.488 438.456C218.74 438.246 219.16 438.12 219.748 438.036C220 437.994 220.462 437.952 221.134 437.952C221.722 437.952 222.394 437.994 223.15 438.078C223.234 438.12 223.36 438.12 223.486 438.12C223.57 438.12 223.696 438.162 223.78 438.204L234.07 436.524C234.49 436.44 234.868 436.356 235.12 436.23C235.33 436.146 235.54 436.062 235.75 435.894C235.918 435.81 236.128 435.684 236.338 435.558C236.506 435.474 236.758 435.432 237.094 435.348C237.43 435.348 237.85 435.306 238.27 435.264C238.648 435.264 239.026 435.264 239.404 435.306C239.74 435.39 240.076 435.474 240.328 435.6C240.538 435.768 240.664 436.02 240.664 436.314C240.664 436.65 240.58 437.028 240.412 437.448C240.328 437.616 240.286 437.868 240.202 438.162C240.076 438.498 239.992 438.918 239.95 439.38L239.152 445.176C240.034 445.26 240.496 445.638 240.496 446.394C240.496 446.898 240.286 447.234 239.866 447.486C239.446 447.696 238.942 447.822 238.396 447.906L224.998 449.544C224.83 450.174 224.578 450.636 224.326 450.93C223.99 451.182 223.696 451.308 223.402 451.392C222.814 451.434 222.436 451.224 222.268 450.762C222.016 450.258 221.848 449.418 221.764 448.158L221.176 442.278ZM236.212 438.666C234.364 438.96 232.516 439.212 230.668 439.464C228.82 439.758 226.972 440.01 225.124 440.262C225.124 440.85 225.124 441.396 225.166 441.9C225.166 442.404 225.166 442.908 225.208 443.412C225.208 443.916 225.25 444.42 225.292 444.966V446.772V447.066L236.212 445.596V438.666Z" fill="white"/>
<g filter="url(#filter0_f_84_962)">
<circle cx="181.051" cy="72" r="4" fill="white"/>
<circle cx="181.051" cy="72" r="2.5" stroke="white" stroke-width="3"/>
</g>
<g filter="url(#filter1_f_84_962)">
<circle cx="190.051" cy="183" r="4" fill="white"/>
<circle cx="190.051" cy="183" r="2.5" stroke="white" stroke-width="3"/>
</g>
<g filter="url(#filter2_f_84_962)">
<circle cx="184.051" cy="234" r="4" fill="white"/>
<circle cx="184.051" cy="234" r="2.5" stroke="white" stroke-width="3"/>
</g>
<g filter="url(#filter3_f_84_962)">
<circle cx="130.051" cy="328" r="4" fill="white"/>
<circle cx="130.051" cy="328" r="2.5" stroke="white" stroke-width="3"/>
</g>
<g filter="url(#filter4_f_84_962)">
<circle cx="249.051" cy="318" r="4" fill="white"/>
<circle cx="249.051" cy="318" r="2.5" stroke="white" stroke-width="3"/>
</g>
<g filter="url(#filter5_f_84_962)">
<circle cx="288.551" cy="369.5" r="5.5" fill="white"/>
<circle cx="288.551" cy="369.5" r="4" stroke="white" stroke-width="3"/>
</g>
<path d="M190.475 183.473L181.079 72.1361" stroke="white" stroke-opacity="0.4" stroke-width="1.2" stroke-linecap="round"/>
<path d="M190.475 183.473L184.211 233.653" stroke="white" stroke-opacity="0.4" stroke-width="1.2" stroke-linecap="round"/>
<path d="M130.183 327.74L184.211 233.653" stroke="white" stroke-opacity="0.4" stroke-width="1.2" stroke-linecap="round"/>
<path d="M249.202 317.548L184.211 233.653" stroke="white" stroke-opacity="0.4" stroke-width="1.2" stroke-linecap="round"/>
<path d="M249.202 317.548L289.136 370.08" stroke="white" stroke-opacity="0.4" stroke-width="1.2" stroke-linecap="round"/>
<defs>
<filter id="filter0_f_84_962" x="173.051" y="64" width="16" height="16" filterUnits="userSpaceOnUse" color-interpolation-filters="sRGB">
<feFlood flood-opacity="0" result="BackgroundImageFix"/>
<feBlend mode="normal" in="SourceGraphic" in2="BackgroundImageFix" result="shape"/>
<feGaussianBlur stdDeviation="2" result="effect1_foregroundBlur_84_962"/>
</filter>
<filter id="filter1_f_84_962" x="182.051" y="175" width="16" height="16" filterUnits="userSpaceOnUse" color-interpolation-filters="sRGB">
<feFlood flood-opacity="0" result="BackgroundImageFix"/>
<feBlend mode="normal" in="SourceGraphic" in2="BackgroundImageFix" result="shape"/>
<feGaussianBlur stdDeviation="2" result="effect1_foregroundBlur_84_962"/>
</filter>
<filter id="filter2_f_84_962" x="176.051" y="226" width="16" height="16" filterUnits="userSpaceOnUse" color-interpolation-filters="sRGB">
<feFlood flood-opacity="0" result="BackgroundImageFix"/>
<feBlend mode="normal" in="SourceGraphic" in2="BackgroundImageFix" result="shape"/>
<feGaussianBlur stdDeviation="2" result="effect1_foregroundBlur_84_962"/>
</filter>
<filter id="filter3_f_84_962" x="122.051" y="320" width="16" height="16" filterUnits="userSpaceOnUse" color-interpolation-filters="sRGB">
<feFlood flood-opacity="0" result="BackgroundImageFix"/>
<feBlend mode="normal" in="SourceGraphic" in2="BackgroundImageFix" result="shape"/>
<feGaussianBlur stdDeviation="2" result="effect1_foregroundBlur_84_962"/>
</filter>
<filter id="filter4_f_84_962" x="241.051" y="310" width="16" height="16" filterUnits="userSpaceOnUse" color-interpolation-filters="sRGB">
<feFlood flood-opacity="0" result="BackgroundImageFix"/>
<feBlend mode="normal" in="SourceGraphic" in2="BackgroundImageFix" result="shape"/>
<feGaussianBlur stdDeviation="2" result="effect1_foregroundBlur_84_962"/>
</filter>
<filter id="filter5_f_84_962" x="279.051" y="360" width="19" height="19" filterUnits="userSpaceOnUse" color-interpolation-filters="sRGB">
<feFlood flood-opacity="0" result="BackgroundImageFix"/>
<feBlend mode="normal" in="SourceGraphic" in2="BackgroundImageFix" result="shape"/>
<feGaussianBlur stdDeviation="2" result="effect1_foregroundBlur_84_962"/>
</filter>
</defs>
</svg>
