<svg width="420" height="539" viewBox="0 0 420 539" fill="none" xmlns="http://www.w3.org/2000/svg">
<path d="M196.924 430.066L200.662 429.604V418.684C200.662 418.138 200.41 417.718 199.906 417.424C199.402 417.172 198.646 416.92 197.68 416.71C197.344 416.626 197.092 416.542 196.924 416.374C196.714 416.29 196.63 416.08 196.63 415.744C196.63 415.492 196.756 415.198 197.092 414.946C197.344 414.736 197.764 414.61 198.352 414.526C198.604 414.484 199.15 414.442 199.948 414.4C200.704 414.4 201.502 414.442 202.258 414.484C202.888 414.568 203.434 414.694 203.938 414.862C204.4 415.072 204.652 415.324 204.652 415.66C204.652 415.954 204.61 416.29 204.526 416.626C204.442 416.878 204.4 417.13 204.358 417.382C204.274 417.676 204.274 417.97 204.274 418.306V443.254V445.9C204.232 446.992 204.148 448 204.022 449.008C203.854 450.016 203.644 450.856 203.392 451.612C203.056 452.326 202.636 452.746 202.09 452.83C201.628 452.872 201.292 452.452 201.04 451.612C200.788 450.73 200.662 449.386 200.662 447.538V432.166L196.924 432.628V441.784V444.43C196.882 445.522 196.798 446.53 196.672 447.496C196.504 448.504 196.294 449.386 196.042 450.142C195.706 450.856 195.286 451.234 194.74 451.318C193.774 451.444 193.312 449.68 193.312 446.026V422.17C193.312 421.624 193.06 421.204 192.556 420.91C192.052 420.658 191.296 420.406 190.33 420.196C189.994 420.154 189.742 420.07 189.574 419.902C189.364 419.776 189.28 419.566 189.28 419.23C189.28 418.978 189.406 418.684 189.742 418.432C189.994 418.222 190.414 418.096 191.002 418.012C191.254 418.012 191.8 417.97 192.598 417.928C193.354 417.928 194.152 417.928 194.908 418.012C195.538 418.096 196.084 418.222 196.588 418.39C197.05 418.6 197.302 418.852 197.302 419.188C197.302 419.482 197.26 419.776 197.176 420.112C197.092 420.364 197.05 420.616 197.008 420.868C196.924 421.204 196.924 421.498 196.924 421.834V430.066ZM184.114 424.186C184.45 424.144 184.702 424.06 184.954 423.976C185.122 423.892 185.29 423.808 185.458 423.682L186.004 423.43C186.172 423.346 186.382 423.262 186.634 423.22C187.012 423.178 187.432 423.136 187.852 423.094C188.272 423.094 188.65 423.136 189.028 423.178C189.364 423.262 189.658 423.346 189.91 423.472C190.12 423.64 190.246 423.892 190.246 424.186C190.246 424.438 190.162 424.648 190.036 424.858C189.868 425.11 189.742 425.362 189.574 425.572C189.448 425.74 189.364 425.866 189.28 425.95C189.196 426.118 189.112 426.244 189.07 426.328C187.432 430.696 185.332 434.686 182.728 438.214C180.082 441.784 176.848 444.976 173.068 447.832C172.396 448.252 171.934 448.252 171.598 447.874C171.43 447.748 171.388 447.538 171.43 447.286C171.43 447.076 171.556 446.824 171.85 446.488C174.748 443.632 177.31 440.524 179.536 437.206C181.72 433.93 183.484 430.276 184.912 426.328C184.282 426.412 183.736 426.496 183.316 426.538C182.854 426.622 182.434 426.706 182.098 426.79C181.72 426.874 181.384 426.958 181.048 427.042L179.914 427.294C179.62 427.378 179.368 427.462 179.158 427.546C178.906 427.672 178.738 427.798 178.57 427.924C178.234 428.176 177.898 428.344 177.52 428.512C177.1 428.68 176.68 428.722 176.218 428.554C175.462 428.428 174.706 428.218 174.034 427.882C173.32 427.63 172.858 427.42 172.648 427.252C172.312 427.084 172.186 426.832 172.186 426.496C172.186 426.16 172.312 425.908 172.606 425.74C172.858 425.614 173.236 425.53 173.698 425.53C174.37 425.572 175.042 425.572 175.756 425.488C176.428 425.446 177.058 425.362 177.646 425.278C178.108 425.236 178.57 425.152 179.074 425.068C179.494 425.026 179.998 424.942 180.502 424.858C181.006 424.774 181.552 424.69 182.14 424.564C182.728 424.48 183.358 424.354 184.114 424.186ZM230.332 429.352C230.332 429.982 230.29 430.654 230.29 431.41C230.248 432.166 230.164 432.88 230.038 433.552C229.87 434.224 229.66 434.812 229.408 435.274C229.072 435.778 228.652 436.03 228.148 436.072C227.896 436.114 227.644 436.03 227.476 435.862C227.266 435.694 227.098 435.358 226.972 434.854L217.354 436.072C217.186 436.702 216.976 437.206 216.724 437.626C216.388 438.088 216.01 438.34 215.506 438.382C215.254 438.424 215.086 438.382 214.918 438.214C214.75 438.13 214.582 437.878 214.498 437.542C214.33 437.206 214.246 436.744 214.204 436.156C214.12 435.568 214.078 434.812 214.078 433.888V425.866C214.078 425.362 213.868 424.942 213.448 424.606C212.986 424.354 212.272 424.102 211.306 423.85C210.97 423.808 210.718 423.724 210.55 423.556C210.34 423.43 210.256 423.22 210.256 422.884C210.256 422.632 210.382 422.38 210.718 422.128C210.97 421.918 211.39 421.75 211.978 421.666C212.23 421.666 212.734 421.624 213.49 421.582C214.162 421.582 214.918 421.624 215.674 421.666C216.304 421.75 216.808 421.918 217.186 422.17C217.522 422.464 217.69 422.758 217.69 423.052V426.244L226.72 425.11V422.632C226.72 422.128 226.51 421.708 226.09 421.372C225.628 421.12 224.914 420.868 223.948 420.616C223.612 420.574 223.36 420.49 223.192 420.322C222.982 420.196 222.898 419.986 222.898 419.65C222.898 419.398 223.024 419.146 223.36 418.894C223.612 418.684 224.032 418.516 224.62 418.432C224.872 418.432 225.376 418.39 226.132 418.348C226.804 418.348 227.56 418.39 228.316 418.432C228.946 418.516 229.45 418.684 229.828 418.936C230.164 419.23 230.332 419.524 230.332 419.818V429.352ZM236.128 450.688C236.422 450.604 236.674 450.52 236.926 450.394C237.136 450.226 237.346 450.058 237.598 449.89C237.808 449.722 238.018 449.554 238.27 449.47C238.438 449.344 238.69 449.26 239.026 449.218C239.95 449.05 240.874 449.05 241.882 449.218C242.302 449.302 242.68 449.47 242.932 449.764C243.184 450.016 243.31 450.31 243.31 450.646C243.31 451.066 243.142 451.402 242.848 451.738C242.512 451.99 242.008 452.158 241.378 452.242C238.69 452.578 236.044 452.956 233.44 453.334C230.794 453.67 228.148 454.006 225.46 454.384C223.024 454.72 221.848 453.628 221.848 451.15V448.924C221.848 448.588 221.68 448.294 221.386 448.084C221.05 447.832 220.378 447.622 219.454 447.37C219.118 447.328 218.866 447.244 218.698 447.076C218.488 446.95 218.404 446.74 218.404 446.404C218.404 446.152 218.53 445.9 218.866 445.648C219.118 445.438 219.538 445.27 220.126 445.186C220.378 445.186 220.84 445.144 221.512 445.102C222.1 445.102 222.772 445.144 223.528 445.186C224.032 445.27 224.41 445.396 224.662 445.522L236.128 443.884V439.6C235.624 439.684 234.952 439.768 234.154 439.852L231.634 440.23C230.71 440.398 229.87 440.524 229.03 440.65C228.19 440.818 227.476 440.986 226.972 441.07C226.72 441.154 226.468 441.28 226.258 441.364C226.006 441.49 225.796 441.616 225.628 441.7C225.292 441.952 224.956 442.12 224.578 442.288C224.158 442.456 223.696 442.498 223.234 442.33C222.814 442.246 222.436 442.162 222.1 442.036C221.68 441.952 221.344 441.826 221.008 441.658C220.672 441.532 220.378 441.406 220.168 441.28C219.916 441.196 219.706 441.07 219.622 440.986C219.286 440.818 219.16 440.566 219.16 440.23C219.16 439.894 219.286 439.642 219.58 439.474C219.832 439.348 220.21 439.264 220.672 439.264C221.344 439.306 222.016 439.306 222.73 439.222C223.402 439.18 224.032 439.096 224.62 439.012C225.124 438.97 225.796 438.886 226.636 438.76C227.392 438.676 228.232 438.55 229.156 438.382C229.996 438.298 230.878 438.172 231.802 438.004C232.642 437.878 233.44 437.752 234.154 437.584C234.574 437.5 234.952 437.416 235.204 437.332C235.414 437.248 235.624 437.164 235.792 437.038C235.96 436.954 236.17 436.87 236.38 436.786C236.548 436.702 236.758 436.66 237.052 436.576C237.388 436.576 237.808 436.534 238.228 436.492C238.606 436.492 238.984 436.534 239.32 436.576C239.656 436.66 239.908 436.786 240.16 436.912C240.37 437.08 240.496 437.332 240.496 437.584C240.496 437.752 240.454 437.92 240.412 438.088C240.328 438.298 240.286 438.466 240.244 438.592C240.16 438.76 240.118 438.928 240.076 439.138C239.992 439.39 239.866 439.768 239.782 440.23L239.53 441.742C239.446 442.33 239.32 442.876 239.236 443.422C240.202 443.422 240.706 443.758 240.706 444.43C240.706 444.934 240.496 445.27 240.16 445.438C239.782 445.69 239.32 445.816 238.774 445.858C236.59 446.194 234.364 446.488 232.18 446.74C229.912 447.076 227.728 447.37 225.544 447.664V451.15C225.544 451.78 225.796 452.074 226.342 451.99L236.128 450.688ZM240.244 424.438L241.168 424.312C241.462 424.27 241.756 424.186 242.008 424.018C242.26 423.892 242.47 423.724 242.68 423.556C242.89 423.388 243.1 423.22 243.31 423.094C243.478 423.01 243.73 422.926 244.066 422.842C244.528 422.8 244.99 422.758 245.494 422.758C245.956 422.758 246.418 422.8 246.922 422.842C247.342 422.968 247.72 423.136 247.972 423.388C248.224 423.682 248.35 423.976 248.35 424.27C248.35 425.236 247.678 425.782 246.418 425.95L240.244 426.706V427.21C240.244 427.84 240.202 428.596 240.202 429.436C240.16 430.36 240.076 431.2 239.95 431.998C239.782 432.838 239.572 433.594 239.32 434.182C238.984 434.812 238.564 435.148 238.06 435.19C237.808 435.232 237.64 435.19 237.472 435.022C237.304 434.938 237.136 434.686 237.052 434.35C236.884 434.014 236.8 433.552 236.758 432.964C236.674 432.376 236.632 431.62 236.632 430.696V419.104C236.632 418.558 236.38 418.138 235.876 417.844C235.372 417.592 234.616 417.34 233.65 417.13C233.314 417.088 233.062 417.004 232.894 416.836C232.684 416.71 232.6 416.5 232.6 416.164C232.6 415.912 232.726 415.618 233.062 415.366C233.314 415.156 233.734 415.03 234.322 414.946C234.574 414.904 235.12 414.862 235.918 414.82C236.674 414.82 237.472 414.862 238.228 414.946C238.858 415.03 239.404 415.156 239.908 415.324C240.37 415.534 240.622 415.786 240.622 416.122C240.622 416.416 240.58 416.71 240.496 417.046C240.412 417.298 240.37 417.55 240.328 417.802C240.244 418.138 240.244 418.432 240.244 418.768V424.438ZM217.69 428.806V432.544C217.69 432.88 217.648 433.174 217.648 433.468L226.72 432.334V427.672L217.69 428.806Z" fill="white"/>
<path d="M330.531 130.905L335.519 95.9881" stroke="white" stroke-opacity="0.4" stroke-width="1.2" stroke-linecap="round"/>
<path d="M330.531 130.905L244.913 261.429" stroke="white" stroke-opacity="0.4" stroke-width="1.2" stroke-linecap="round"/>
<path d="M330.531 130.905L338.844 307.985" stroke="white" stroke-opacity="0.4" stroke-width="1.2" stroke-linecap="round"/>
<path d="M338.844 344.565L338.844 307.985" stroke="white" stroke-opacity="0.4" stroke-width="1.2" stroke-linecap="round"/>
<path d="M338.844 344.565L291.462 359.53" stroke="white" stroke-opacity="0.4" stroke-width="1.2" stroke-linecap="round"/>
<path d="M229.119 368.675L291.463 359.53" stroke="white" stroke-opacity="0.4" stroke-width="1.2" stroke-linecap="round"/>
<path d="M229.119 368.675L170.931 354.541" stroke="white" stroke-opacity="0.4" stroke-width="1.2" stroke-linecap="round"/>
<path d="M81.9875 355.373L170.931 354.541" stroke="white" stroke-opacity="0.4" stroke-width="1.2" stroke-linecap="round"/>
<path d="M81.9875 355.373L117.731 322.95" stroke="white" stroke-opacity="0.4" stroke-width="1.2" stroke-linecap="round"/>
<path d="M172.594 306.323L117.731 322.95" stroke="white" stroke-opacity="0.4" stroke-width="1.2" stroke-linecap="round"/>
<path d="M172.594 306.323L244.913 261.429" stroke="white" stroke-opacity="0.4" stroke-width="1.2" stroke-linecap="round"/>
<g filter="url(#filter0_f_84_417)">
<ellipse cx="335.103" cy="95.5725" rx="4.57187" ry="4.57248" fill="white"/>
<path d="M338.175 95.5725C338.175 97.2696 336.799 98.645 335.103 98.645C333.407 98.645 332.031 97.2696 332.031 95.5725C332.031 93.8754 333.407 92.5 335.103 92.5C336.799 92.5 338.175 93.8754 338.175 95.5725Z" stroke="white" stroke-width="3"/>
</g>
<g filter="url(#filter1_f_84_417)">
<ellipse cx="338.428" cy="344.149" rx="4.57187" ry="4.57249" fill="white"/>
<path d="M341.5 344.149C341.5 345.846 340.124 347.222 338.428 347.222C336.732 347.222 335.356 345.846 335.356 344.149C335.356 342.452 336.732 341.077 338.428 341.077C340.124 341.077 341.5 342.452 341.5 344.149Z" stroke="white" stroke-width="3"/>
</g>
<g filter="url(#filter2_f_84_417)">
<ellipse cx="81.5719" cy="354.957" rx="4.57188" ry="4.57248" fill="white"/>
<path d="M84.6438 354.957C84.6438 356.654 83.2682 358.029 81.5719 358.029C79.8755 358.029 78.5 356.654 78.5 354.957C78.5 353.26 79.8755 351.885 81.5719 351.885C83.2682 351.885 84.6438 353.26 84.6438 354.957Z" stroke="white" stroke-width="3"/>
</g>
<g filter="url(#filter3_f_84_417)">
<ellipse cx="330.531" cy="130.905" rx="3.325" ry="3.32545" fill="white"/>
<path d="M332.356 130.905C332.356 131.914 331.539 132.731 330.531 132.731C329.524 132.731 328.706 131.914 328.706 130.905C328.706 129.897 329.524 129.08 330.531 129.08C331.539 129.08 332.356 129.897 332.356 130.905Z" stroke="white" stroke-width="3"/>
</g>
<g filter="url(#filter4_f_84_417)">
<ellipse cx="244.913" cy="261.429" rx="3.325" ry="3.32545" fill="white"/>
<path d="M246.738 261.429C246.738 262.437 245.92 263.254 244.913 263.254C243.905 263.254 243.088 262.437 243.088 261.429C243.088 260.421 243.905 259.604 244.913 259.604C245.92 259.604 246.738 260.421 246.738 261.429Z" stroke="white" stroke-width="3"/>
</g>
<g filter="url(#filter5_f_84_417)">
<ellipse cx="338.844" cy="307.985" rx="3.32501" ry="3.32545" fill="white"/>
<path d="M340.669 307.985C340.669 308.993 339.852 309.811 338.844 309.811C337.836 309.811 337.019 308.993 337.019 307.985C337.019 306.977 337.836 306.16 338.844 306.16C339.852 306.16 340.669 306.977 340.669 307.985Z" stroke="white" stroke-width="3"/>
</g>
<g filter="url(#filter6_f_84_417)">
<ellipse cx="291.462" cy="359.53" rx="3.325" ry="3.32545" fill="white"/>
<path d="M293.287 359.53C293.287 360.538 292.47 361.355 291.462 361.355C290.455 361.355 289.637 360.538 289.637 359.53C289.637 358.521 290.455 357.704 291.462 357.704C292.47 357.704 293.287 358.521 293.287 359.53Z" stroke="white" stroke-width="3"/>
</g>
<g filter="url(#filter7_f_84_417)">
<ellipse cx="170.931" cy="354.542" rx="3.325" ry="3.32544" fill="white"/>
<path d="M172.756 354.542C172.756 355.55 171.939 356.367 170.931 356.367C169.924 356.367 169.106 355.55 169.106 354.542C169.106 353.533 169.924 352.716 170.931 352.716C171.939 352.716 172.756 353.533 172.756 354.542Z" stroke="white" stroke-width="3"/>
</g>
<g filter="url(#filter8_f_84_417)">
<ellipse cx="172.594" cy="306.323" rx="3.325" ry="3.32545" fill="white"/>
<path d="M174.419 306.323C174.419 307.331 173.601 308.148 172.594 308.148C171.586 308.148 170.769 307.331 170.769 306.323C170.769 305.314 171.586 304.497 172.594 304.497C173.601 304.497 174.419 305.314 174.419 306.323Z" stroke="white" stroke-width="3"/>
</g>
<g filter="url(#filter9_f_84_417)">
<ellipse cx="117.731" cy="322.95" rx="3.325" ry="3.32544" fill="white"/>
<path d="M119.556 322.95C119.556 323.958 118.739 324.775 117.731 324.775C116.724 324.775 115.906 323.958 115.906 322.95C115.906 321.941 116.724 321.124 117.731 321.124C118.739 321.124 119.556 321.941 119.556 322.95Z" stroke="white" stroke-width="3"/>
</g>
<g filter="url(#filter10_f_84_417)">
<ellipse cx="229.119" cy="368.675" rx="3.325" ry="3.32544" fill="white"/>
<path d="M230.944 368.675C230.944 369.683 230.126 370.5 229.119 370.5C228.111 370.5 227.294 369.683 227.294 368.675C227.294 367.666 228.111 366.849 229.119 366.849C230.126 366.849 230.944 367.666 230.944 368.675Z" stroke="white" stroke-width="3"/>
</g>
<defs>
<filter id="filter0_f_84_417" x="326.531" y="87" width="17.1438" height="17.145" filterUnits="userSpaceOnUse" color-interpolation-filters="sRGB">
<feFlood flood-opacity="0" result="BackgroundImageFix"/>
<feBlend mode="normal" in="SourceGraphic" in2="BackgroundImageFix" result="shape"/>
<feGaussianBlur stdDeviation="2" result="effect1_foregroundBlur_84_417"/>
</filter>
<filter id="filter1_f_84_417" x="329.856" y="335.577" width="17.1438" height="17.145" filterUnits="userSpaceOnUse" color-interpolation-filters="sRGB">
<feFlood flood-opacity="0" result="BackgroundImageFix"/>
<feBlend mode="normal" in="SourceGraphic" in2="BackgroundImageFix" result="shape"/>
<feGaussianBlur stdDeviation="2" result="effect1_foregroundBlur_84_417"/>
</filter>
<filter id="filter2_f_84_417" x="73" y="346.385" width="17.1437" height="17.145" filterUnits="userSpaceOnUse" color-interpolation-filters="sRGB">
<feFlood flood-opacity="0" result="BackgroundImageFix"/>
<feBlend mode="normal" in="SourceGraphic" in2="BackgroundImageFix" result="shape"/>
<feGaussianBlur stdDeviation="2" result="effect1_foregroundBlur_84_417"/>
</filter>
<filter id="filter3_f_84_417" x="323.206" y="123.58" width="14.65" height="14.6509" filterUnits="userSpaceOnUse" color-interpolation-filters="sRGB">
<feFlood flood-opacity="0" result="BackgroundImageFix"/>
<feBlend mode="normal" in="SourceGraphic" in2="BackgroundImageFix" result="shape"/>
<feGaussianBlur stdDeviation="2" result="effect1_foregroundBlur_84_417"/>
</filter>
<filter id="filter4_f_84_417" x="237.588" y="254.104" width="14.65" height="14.6509" filterUnits="userSpaceOnUse" color-interpolation-filters="sRGB">
<feFlood flood-opacity="0" result="BackgroundImageFix"/>
<feBlend mode="normal" in="SourceGraphic" in2="BackgroundImageFix" result="shape"/>
<feGaussianBlur stdDeviation="2" result="effect1_foregroundBlur_84_417"/>
</filter>
<filter id="filter5_f_84_417" x="331.519" y="300.66" width="14.65" height="14.6509" filterUnits="userSpaceOnUse" color-interpolation-filters="sRGB">
<feFlood flood-opacity="0" result="BackgroundImageFix"/>
<feBlend mode="normal" in="SourceGraphic" in2="BackgroundImageFix" result="shape"/>
<feGaussianBlur stdDeviation="2" result="effect1_foregroundBlur_84_417"/>
</filter>
<filter id="filter6_f_84_417" x="284.137" y="352.204" width="14.65" height="14.6509" filterUnits="userSpaceOnUse" color-interpolation-filters="sRGB">
<feFlood flood-opacity="0" result="BackgroundImageFix"/>
<feBlend mode="normal" in="SourceGraphic" in2="BackgroundImageFix" result="shape"/>
<feGaussianBlur stdDeviation="2" result="effect1_foregroundBlur_84_417"/>
</filter>
<filter id="filter7_f_84_417" x="163.606" y="347.216" width="14.65" height="14.6509" filterUnits="userSpaceOnUse" color-interpolation-filters="sRGB">
<feFlood flood-opacity="0" result="BackgroundImageFix"/>
<feBlend mode="normal" in="SourceGraphic" in2="BackgroundImageFix" result="shape"/>
<feGaussianBlur stdDeviation="2" result="effect1_foregroundBlur_84_417"/>
</filter>
<filter id="filter8_f_84_417" x="165.269" y="298.997" width="14.65" height="14.6509" filterUnits="userSpaceOnUse" color-interpolation-filters="sRGB">
<feFlood flood-opacity="0" result="BackgroundImageFix"/>
<feBlend mode="normal" in="SourceGraphic" in2="BackgroundImageFix" result="shape"/>
<feGaussianBlur stdDeviation="2" result="effect1_foregroundBlur_84_417"/>
</filter>
<filter id="filter9_f_84_417" x="110.406" y="315.624" width="14.65" height="14.6509" filterUnits="userSpaceOnUse" color-interpolation-filters="sRGB">
<feFlood flood-opacity="0" result="BackgroundImageFix"/>
<feBlend mode="normal" in="SourceGraphic" in2="BackgroundImageFix" result="shape"/>
<feGaussianBlur stdDeviation="2" result="effect1_foregroundBlur_84_417"/>
</filter>
<filter id="filter10_f_84_417" x="221.794" y="361.349" width="14.65" height="14.6509" filterUnits="userSpaceOnUse" color-interpolation-filters="sRGB">
<feFlood flood-opacity="0" result="BackgroundImageFix"/>
<feBlend mode="normal" in="SourceGraphic" in2="BackgroundImageFix" result="shape"/>
<feGaussianBlur stdDeviation="2" result="effect1_foregroundBlur_84_417"/>
</filter>
</defs>
</svg>
