<svg width="246" height="419" viewBox="0 0 246 419" fill="none" xmlns="http://www.w3.org/2000/svg">
<path d="M120.122 397.516C119.198 397.6 118.19 397.726 117.014 397.81C115.796 397.978 114.536 398.104 113.192 398.272L111.596 398.482V404.152C111.596 404.782 111.554 405.538 111.554 406.42C111.47 407.26 111.386 408.142 111.26 408.982C111.092 409.78 110.84 410.494 110.588 411.124C110.252 411.712 109.832 412.006 109.328 412.09C109.076 412.09 108.908 412.048 108.74 411.964C108.53 411.838 108.362 411.628 108.236 411.292C108.068 410.956 107.984 410.494 107.942 409.906C107.858 409.318 107.816 408.562 107.816 407.68V398.986C106.304 399.196 104.876 399.406 103.532 399.574C102.104 399.784 100.802 399.994 99.584 400.162V405.076C99.584 405.706 99.542 406.42 99.542 407.344C99.458 408.184 99.374 409.066 99.248 409.906C99.08 410.704 98.828 411.418 98.576 412.048C98.24 412.636 97.82 412.972 97.316 413.056C97.064 413.056 96.896 413.014 96.728 412.93C96.518 412.762 96.35 412.552 96.224 412.216C96.056 411.88 95.972 411.418 95.93 410.83C95.846 410.242 95.804 409.486 95.804 408.604V400.834C95.51 400.918 95.258 400.96 95.048 400.96C94.796 401.044 94.544 401.086 94.376 401.128C94.04 401.212 93.746 401.338 93.452 401.422L92.57 401.842C92.066 402.094 91.562 402.304 91.058 402.472C90.512 402.64 89.966 402.682 89.378 402.514C88.538 402.346 87.782 402.052 87.11 401.716C86.354 401.38 85.892 401.128 85.64 400.96C85.262 400.792 85.094 400.498 85.094 400.12C85.094 399.7 85.262 399.406 85.598 399.238C85.892 399.112 86.312 399.028 86.816 398.986C87.614 399.028 88.496 399.028 89.504 398.944C90.428 398.902 91.268 398.818 92.024 398.734C92.402 398.692 93.074 398.608 94.082 398.44C95.048 398.356 96.182 398.188 97.526 398.02C98.786 397.852 100.172 397.684 101.642 397.474C103.07 397.306 104.498 397.096 105.842 396.886C107.186 396.718 108.404 396.55 109.538 396.34C110.63 396.172 111.47 396.046 112.058 395.92C112.94 395.752 113.612 395.542 114.074 395.332C114.494 395.164 114.872 394.996 115.208 394.828C115.418 394.744 115.628 394.618 115.838 394.534C116.006 394.492 116.216 394.45 116.552 394.366C116.804 394.366 117.098 394.324 117.518 394.282C117.854 394.282 118.232 394.24 118.652 394.24C119.03 394.24 119.408 394.282 119.828 394.282C120.164 394.324 120.5 394.366 120.794 394.366C121.844 394.576 122.39 394.996 122.39 395.668C122.39 396.172 122.18 396.55 121.802 396.886C121.382 397.264 120.836 397.474 120.122 397.516ZM94.586 390.376C94.586 389.2 94.88 388.15 95.51 387.268C96.098 386.428 96.854 385.672 97.778 385.084C98.66 384.496 99.668 384.034 100.76 383.698C101.81 383.404 102.818 383.194 103.784 383.068C104.624 382.984 105.59 382.942 106.682 382.942C107.732 383.026 108.74 383.194 109.706 383.53C110.63 383.908 111.386 384.454 112.058 385.168C112.646 385.924 112.982 386.89 112.982 388.108C112.982 389.368 112.688 390.418 112.1 391.258C111.47 392.14 110.714 392.854 109.832 393.442C108.908 394.072 107.942 394.534 106.85 394.87C105.758 395.206 104.708 395.458 103.784 395.542C102.944 395.626 101.978 395.668 100.928 395.584C99.836 395.542 98.87 395.332 97.946 394.954C96.98 394.618 96.182 394.072 95.552 393.316C94.88 392.602 94.586 391.636 94.586 390.376ZM110.126 378.322C110.504 378.238 110.84 378.154 111.092 377.986C111.344 377.86 111.554 377.734 111.764 377.566C111.974 377.44 112.184 377.314 112.436 377.188C112.604 377.104 112.856 377.062 113.192 376.978C113.654 376.936 114.158 376.894 114.662 376.852C115.166 376.852 115.67 376.894 116.174 376.936C116.678 377.02 117.098 377.188 117.35 377.44C117.56 377.734 117.686 378.07 117.686 378.448C117.686 379.414 117.014 379.96 115.67 380.128L113.906 380.338C112.478 380.506 110.966 380.716 109.286 380.926C107.564 381.178 105.926 381.43 104.33 381.64L99.878 382.312L96.728 382.858C96.392 382.942 96.14 383.026 95.972 383.11C95.72 383.236 95.51 383.362 95.342 383.488C95.006 383.74 94.628 383.908 94.25 384.034C93.83 384.202 93.326 384.244 92.822 384.118C92.402 384.034 92.024 383.95 91.646 383.782C91.226 383.698 90.89 383.572 90.554 383.404C90.176 383.278 89.882 383.152 89.63 382.984C89.336 382.9 89.126 382.774 89.042 382.69C88.706 382.522 88.58 382.27 88.58 381.934C88.58 381.556 88.706 381.262 89.042 381.094C89.294 380.968 89.672 380.926 90.134 380.926C90.848 380.926 91.562 380.926 92.276 380.842C92.948 380.842 93.62 380.758 94.292 380.674L97.568 380.296C99.332 380.086 101.222 379.834 103.322 379.498C105.338 379.246 107.606 378.826 110.126 378.322ZM98.324 389.914C98.324 390.67 98.492 391.216 98.828 391.636C99.164 392.056 99.584 392.392 100.13 392.56C100.634 392.77 101.222 392.896 101.894 392.896C102.524 392.938 103.154 392.896 103.784 392.812C104.288 392.728 104.876 392.602 105.548 392.434C106.178 392.266 106.766 392.014 107.354 391.678C107.858 391.384 108.32 390.964 108.698 390.46C109.034 389.956 109.244 389.326 109.244 388.57C109.244 387.898 109.076 387.31 108.74 386.89C108.362 386.512 107.9 386.218 107.396 386.008C106.85 385.84 106.262 385.756 105.632 385.714C104.96 385.714 104.372 385.714 103.784 385.798C103.28 385.882 102.692 385.966 102.062 386.134C101.39 386.302 100.802 386.554 100.298 386.848C99.71 387.184 99.248 387.562 98.912 388.066C98.492 388.57 98.324 389.2 98.324 389.914ZM109.748 375.424C109.748 375.886 109.538 376.264 109.118 376.558C108.656 376.894 108.152 377.104 107.606 377.23C107.186 377.356 106.682 377.44 106.136 377.524C105.548 377.65 104.96 377.776 104.372 377.86C103.742 377.986 103.112 378.07 102.524 378.154C101.852 378.238 101.264 378.322 100.676 378.406L99.416 378.532C99.08 378.616 98.744 378.574 98.408 378.448C98.072 378.364 97.736 378.196 97.442 377.986C97.106 377.818 96.77 377.608 96.518 377.356C96.224 377.104 96.014 376.894 95.846 376.642C95.678 376.474 95.636 376.264 95.636 376.012C95.636 375.76 95.762 375.508 96.098 375.34C96.35 375.214 96.77 375.172 97.316 375.256C97.61 375.34 97.946 375.34 98.366 375.34C98.744 375.382 99.122 375.382 99.542 375.382C99.836 375.382 100.34 375.382 101.096 375.298C101.768 375.256 102.524 375.172 103.364 375.046C104.162 374.962 104.918 374.836 105.632 374.71C106.304 374.626 106.934 374.542 107.48 374.458C108.194 374.374 108.74 374.374 109.16 374.458C109.538 374.584 109.748 374.92 109.748 375.424ZM140.888 380.59C140.636 381.556 140.342 382.522 139.964 383.446C139.544 384.412 139.04 385.378 138.536 386.302C139.25 386.848 139.964 387.352 140.636 387.814C141.266 388.318 141.686 388.654 141.938 388.78C142.106 388.864 142.316 388.906 142.568 388.906L143.24 388.99C143.618 388.99 143.996 389.032 144.374 389.032C144.71 389.116 145.046 389.284 145.34 389.536L146.012 390.334C146.18 390.67 146.39 391.006 146.6 391.342C146.768 391.72 146.894 392.056 147.062 392.35C147.146 392.686 147.23 392.98 147.272 393.232C147.314 393.568 147.23 393.82 147.062 394.072C146.852 394.324 146.6 394.492 146.264 394.576C146.012 394.66 145.718 394.618 145.34 394.45C144.92 394.366 144.416 394.072 143.87 393.61L137.234 388.444C135.974 390.334 134.504 392.14 132.824 393.82C131.144 395.542 129.338 397.138 127.406 398.608C126.482 399.28 125.852 399.448 125.516 399.028C125.348 398.818 125.264 398.566 125.306 398.272C125.306 398.02 125.516 397.726 125.936 397.348C127.112 396.298 128.288 395.08 129.464 393.652C130.598 392.308 131.648 390.88 132.656 389.368C133.622 387.898 134.462 386.428 135.176 384.958C135.848 383.53 136.31 382.228 136.562 381.052C136.562 380.926 136.52 380.8 136.352 380.632C136.184 380.506 135.974 380.38 135.764 380.254C135.512 380.17 135.26 380.086 135.05 380.002C134.798 379.918 134.588 379.876 134.504 379.834C134.084 379.75 133.79 379.582 133.706 379.33C133.538 379.12 133.538 378.868 133.622 378.616C133.664 378.448 133.832 378.238 134.126 378.028C134.378 377.86 134.756 377.734 135.302 377.734C135.974 377.734 136.73 377.818 137.57 377.902C138.368 378.07 139.166 378.28 139.964 378.532C140.51 378.784 140.846 379.036 140.972 379.33C141.056 379.666 141.014 380.086 140.888 380.59ZM156.05 405.496C156.05 405.916 156.008 406.462 155.924 407.134C155.798 407.764 155.672 408.394 155.504 409.066C155.294 409.654 155.042 410.2 154.79 410.704C154.496 411.166 154.16 411.418 153.824 411.502C153.278 411.544 152.9 411.208 152.732 410.494C152.48 409.738 152.396 408.394 152.396 406.546V399.07C151.766 399.154 150.926 399.28 149.918 399.406L146.642 399.91C145.508 400.12 144.458 400.288 143.45 400.456C142.4 400.666 141.602 400.834 141.098 400.918C140.846 401.002 140.594 401.128 140.384 401.212C140.132 401.338 139.922 401.464 139.754 401.548C139.418 401.8 139.082 401.968 138.704 402.094C138.284 402.262 137.822 402.304 137.36 402.178C136.94 402.094 136.562 402.01 136.226 401.842C135.806 401.758 135.47 401.632 135.134 401.464C134.798 401.38 134.504 401.254 134.294 401.086C134.042 401.002 133.832 400.918 133.748 400.834C133.58 400.75 133.496 400.624 133.412 400.498C133.328 400.414 133.286 400.246 133.286 400.078C133.286 399.742 133.412 399.49 133.706 399.322C133.958 399.196 134.336 399.112 134.798 399.07C135.47 399.154 136.142 399.112 136.856 399.028C137.528 398.986 138.158 398.944 138.746 398.86C139.25 398.818 140.048 398.692 141.098 398.524C142.106 398.398 143.156 398.23 144.332 398.062L147.692 397.558C148.784 397.39 149.666 397.264 150.38 397.096C150.8 397.012 151.178 396.886 151.43 396.802C151.64 396.718 151.85 396.634 152.018 396.508C152.186 396.424 152.396 396.34 152.606 396.256C152.774 396.172 152.984 396.13 153.278 396.046C153.614 396.046 154.034 396.004 154.454 395.962C154.832 395.962 155.21 396.004 155.588 396.046C155.924 396.13 156.26 396.256 156.512 396.382C156.722 396.55 156.848 396.802 156.848 397.054C156.848 397.348 156.764 397.726 156.596 398.146C156.512 398.398 156.47 398.65 156.386 398.944C156.302 399.28 156.218 399.7 156.218 400.162L156.05 405.496ZM156.47 386.89C156.47 387.52 156.428 388.276 156.428 389.116C156.386 390.04 156.302 390.88 156.176 391.678C156.008 392.518 155.798 393.274 155.546 393.862C155.21 394.492 154.79 394.828 154.286 394.87C154.034 394.912 153.866 394.87 153.698 394.744C153.53 394.66 153.362 394.408 153.278 394.072C153.11 393.736 153.026 393.274 152.984 392.686C152.9 392.098 152.858 391.342 152.858 390.418V376.852C152.858 376.306 152.606 375.886 152.102 375.592C151.598 375.34 150.842 375.088 149.876 374.836C149.54 374.794 149.288 374.71 149.12 374.542C148.91 374.416 148.826 374.206 148.826 373.87C148.826 373.618 148.952 373.366 149.288 373.114C149.54 372.904 149.96 372.736 150.548 372.652C150.8 372.652 151.346 372.61 152.144 372.568C152.9 372.568 153.698 372.568 154.454 372.652C155.084 372.736 155.63 372.862 156.134 373.03C156.596 373.24 156.848 373.492 156.848 373.828C156.848 374.122 156.806 374.416 156.722 374.752C156.638 375.004 156.596 375.298 156.554 375.55C156.47 375.844 156.47 376.138 156.47 376.474V386.89Z" fill="white"/>
<g filter="url(#filter0_f_152_839)">
<circle cx="236.5" cy="9.5" r="5.5" fill="white"/>
<circle cx="236.5" cy="9.5" r="4" stroke="white" stroke-width="3"/>
</g>
<g filter="url(#filter1_f_152_839)">
<circle cx="132" cy="87" r="4" fill="white"/>
<circle cx="132" cy="87" r="2.5" stroke="white" stroke-width="3"/>
</g>
<g filter="url(#filter2_f_152_839)">
<circle cx="46" cy="151" r="4" fill="white"/>
<circle cx="46" cy="151" r="2.5" stroke="white" stroke-width="3"/>
</g>
<g filter="url(#filter3_f_152_839)">
<circle cx="124.5" cy="192.5" r="5.5" fill="white"/>
<circle cx="124.5" cy="192.5" r="4" stroke="white" stroke-width="3"/>
</g>
<g filter="url(#filter4_f_152_839)">
<circle cx="193" cy="178" r="4" fill="white"/>
<circle cx="193" cy="178" r="2.5" stroke="white" stroke-width="3"/>
</g>
<g filter="url(#filter5_f_152_839)">
<circle cx="45" cy="199" r="4" fill="white"/>
<circle cx="45" cy="199" r="2.5" stroke="white" stroke-width="3"/>
</g>
<g filter="url(#filter6_f_152_839)">
<circle cx="19" cy="208" r="4" fill="white"/>
<circle cx="19" cy="208" r="2.5" stroke="white" stroke-width="3"/>
</g>
<g filter="url(#filter7_f_152_839)">
<circle cx="9.5" cy="231.5" r="5.5" fill="white"/>
<circle cx="9.5" cy="231.5" r="4" stroke="white" stroke-width="3"/>
</g>
<g filter="url(#filter8_f_152_839)">
<circle cx="87.5" cy="336.5" r="5.5" fill="white"/>
<circle cx="87.5" cy="336.5" r="4" stroke="white" stroke-width="3"/>
</g>
<g filter="url(#filter9_f_152_839)">
<circle cx="98.5" cy="290.5" r="5.5" fill="white"/>
<circle cx="98.5" cy="290.5" r="4" stroke="white" stroke-width="3"/>
</g>
<g filter="url(#filter10_f_152_839)">
<circle cx="157" cy="281" r="4" fill="white"/>
<circle cx="157" cy="281" r="2.5" stroke="white" stroke-width="3"/>
</g>
<g filter="url(#filter11_f_152_839)">
<circle cx="175" cy="297" r="4" fill="white"/>
<circle cx="175" cy="297" r="2.5" stroke="white" stroke-width="3"/>
</g>
<g filter="url(#filter12_f_152_839)">
<circle cx="221.5" cy="324.5" r="5.5" fill="white"/>
<circle cx="221.5" cy="324.5" r="4" stroke="white" stroke-width="3"/>
</g>
<path d="M237.13 9.88135L132.428 87.1695" stroke="white" stroke-opacity="0.4" stroke-width="1.2" stroke-linecap="round"/>
<path d="M46.3938 151.44L132.428 87.1692" stroke="white" stroke-opacity="0.4" stroke-width="1.2" stroke-linecap="round"/>
<path d="M46.3938 151.44L44.7705 198.627" stroke="white" stroke-opacity="0.4" stroke-width="1.2" stroke-linecap="round"/>
<path d="M18.7979 208.39L44.7705 198.627" stroke="white" stroke-opacity="0.4" stroke-width="1.2" stroke-linecap="round"/>
<path d="M18.7979 208.39L9.05822 231.983" stroke="white" stroke-opacity="0.4" stroke-width="1.2" stroke-linecap="round"/>
<path d="M87.7877 336.932L9.05821 231.983" stroke="white" stroke-opacity="0.4" stroke-width="1.2" stroke-linecap="round"/>
<path d="M87.7877 336.932L98.339 290.559" stroke="white" stroke-opacity="0.4" stroke-width="1.2" stroke-linecap="round"/>
<path d="M156.777 280.797L98.339 290.56" stroke="white" stroke-opacity="0.4" stroke-width="1.2" stroke-linecap="round"/>
<path d="M156.777 280.797L174.634 297.068" stroke="white" stroke-opacity="0.4" stroke-width="1.2" stroke-linecap="round"/>
<path d="M221.709 324.729L174.634 297.068" stroke="white" stroke-opacity="0.4" stroke-width="1.2" stroke-linecap="round"/>
<path d="M46.3938 151.44L124.312 192.932" stroke="white" stroke-opacity="0.4" stroke-width="1.2" stroke-linecap="round"/>
<path d="M193.301 178.288L124.312 192.932" stroke="white" stroke-opacity="0.4" stroke-width="1.2" stroke-linecap="round"/>
<defs>
<filter id="filter0_f_152_839" x="227" y="0" width="19" height="19" filterUnits="userSpaceOnUse" color-interpolation-filters="sRGB">
<feFlood flood-opacity="0" result="BackgroundImageFix"/>
<feBlend mode="normal" in="SourceGraphic" in2="BackgroundImageFix" result="shape"/>
<feGaussianBlur stdDeviation="2" result="effect1_foregroundBlur_152_839"/>
</filter>
<filter id="filter1_f_152_839" x="124" y="79" width="16" height="16" filterUnits="userSpaceOnUse" color-interpolation-filters="sRGB">
<feFlood flood-opacity="0" result="BackgroundImageFix"/>
<feBlend mode="normal" in="SourceGraphic" in2="BackgroundImageFix" result="shape"/>
<feGaussianBlur stdDeviation="2" result="effect1_foregroundBlur_152_839"/>
</filter>
<filter id="filter2_f_152_839" x="38" y="143" width="16" height="16" filterUnits="userSpaceOnUse" color-interpolation-filters="sRGB">
<feFlood flood-opacity="0" result="BackgroundImageFix"/>
<feBlend mode="normal" in="SourceGraphic" in2="BackgroundImageFix" result="shape"/>
<feGaussianBlur stdDeviation="2" result="effect1_foregroundBlur_152_839"/>
</filter>
<filter id="filter3_f_152_839" x="115" y="183" width="19" height="19" filterUnits="userSpaceOnUse" color-interpolation-filters="sRGB">
<feFlood flood-opacity="0" result="BackgroundImageFix"/>
<feBlend mode="normal" in="SourceGraphic" in2="BackgroundImageFix" result="shape"/>
<feGaussianBlur stdDeviation="2" result="effect1_foregroundBlur_152_839"/>
</filter>
<filter id="filter4_f_152_839" x="185" y="170" width="16" height="16" filterUnits="userSpaceOnUse" color-interpolation-filters="sRGB">
<feFlood flood-opacity="0" result="BackgroundImageFix"/>
<feBlend mode="normal" in="SourceGraphic" in2="BackgroundImageFix" result="shape"/>
<feGaussianBlur stdDeviation="2" result="effect1_foregroundBlur_152_839"/>
</filter>
<filter id="filter5_f_152_839" x="37" y="191" width="16" height="16" filterUnits="userSpaceOnUse" color-interpolation-filters="sRGB">
<feFlood flood-opacity="0" result="BackgroundImageFix"/>
<feBlend mode="normal" in="SourceGraphic" in2="BackgroundImageFix" result="shape"/>
<feGaussianBlur stdDeviation="2" result="effect1_foregroundBlur_152_839"/>
</filter>
<filter id="filter6_f_152_839" x="11" y="200" width="16" height="16" filterUnits="userSpaceOnUse" color-interpolation-filters="sRGB">
<feFlood flood-opacity="0" result="BackgroundImageFix"/>
<feBlend mode="normal" in="SourceGraphic" in2="BackgroundImageFix" result="shape"/>
<feGaussianBlur stdDeviation="2" result="effect1_foregroundBlur_152_839"/>
</filter>
<filter id="filter7_f_152_839" x="0" y="222" width="19" height="19" filterUnits="userSpaceOnUse" color-interpolation-filters="sRGB">
<feFlood flood-opacity="0" result="BackgroundImageFix"/>
<feBlend mode="normal" in="SourceGraphic" in2="BackgroundImageFix" result="shape"/>
<feGaussianBlur stdDeviation="2" result="effect1_foregroundBlur_152_839"/>
</filter>
<filter id="filter8_f_152_839" x="78" y="327" width="19" height="19" filterUnits="userSpaceOnUse" color-interpolation-filters="sRGB">
<feFlood flood-opacity="0" result="BackgroundImageFix"/>
<feBlend mode="normal" in="SourceGraphic" in2="BackgroundImageFix" result="shape"/>
<feGaussianBlur stdDeviation="2" result="effect1_foregroundBlur_152_839"/>
</filter>
<filter id="filter9_f_152_839" x="89" y="281" width="19" height="19" filterUnits="userSpaceOnUse" color-interpolation-filters="sRGB">
<feFlood flood-opacity="0" result="BackgroundImageFix"/>
<feBlend mode="normal" in="SourceGraphic" in2="BackgroundImageFix" result="shape"/>
<feGaussianBlur stdDeviation="2" result="effect1_foregroundBlur_152_839"/>
</filter>
<filter id="filter10_f_152_839" x="149" y="273" width="16" height="16" filterUnits="userSpaceOnUse" color-interpolation-filters="sRGB">
<feFlood flood-opacity="0" result="BackgroundImageFix"/>
<feBlend mode="normal" in="SourceGraphic" in2="BackgroundImageFix" result="shape"/>
<feGaussianBlur stdDeviation="2" result="effect1_foregroundBlur_152_839"/>
</filter>
<filter id="filter11_f_152_839" x="167" y="289" width="16" height="16" filterUnits="userSpaceOnUse" color-interpolation-filters="sRGB">
<feFlood flood-opacity="0" result="BackgroundImageFix"/>
<feBlend mode="normal" in="SourceGraphic" in2="BackgroundImageFix" result="shape"/>
<feGaussianBlur stdDeviation="2" result="effect1_foregroundBlur_152_839"/>
</filter>
<filter id="filter12_f_152_839" x="212" y="315" width="19" height="19" filterUnits="userSpaceOnUse" color-interpolation-filters="sRGB">
<feFlood flood-opacity="0" result="BackgroundImageFix"/>
<feBlend mode="normal" in="SourceGraphic" in2="BackgroundImageFix" result="shape"/>
<feGaussianBlur stdDeviation="2" result="effect1_foregroundBlur_152_839"/>
</filter>
</defs>
</svg>
