<svg width="439" height="378" viewBox="0 0 439 378" fill="none" xmlns="http://www.w3.org/2000/svg">
<path d="M206.084 344.512C205.664 344.68 205.328 344.848 205.16 345.016C204.908 345.184 204.698 345.31 204.488 345.394C204.236 345.52 203.9 345.562 203.438 345.478C203.186 345.478 202.934 345.394 202.682 345.31C202.388 345.268 202.094 345.184 201.842 345.058C201.506 344.974 201.254 344.89 201.002 344.764C200.75 344.68 200.54 344.554 200.372 344.47C200.12 344.344 199.952 344.218 199.868 344.05C199.7 343.966 199.658 343.798 199.658 343.546C199.658 343.336 199.7 343.126 199.868 342.958C199.994 342.832 200.246 342.748 200.666 342.664C201.422 342.58 201.926 342.538 202.262 342.496C202.556 342.496 202.808 342.454 203.06 342.412C203.816 342.328 204.824 342.202 206 342.034C207.176 341.866 208.268 341.74 209.36 341.572V334.852C209.36 334.306 209.108 333.886 208.604 333.592C208.1 333.34 207.344 333.088 206.378 332.836C206.042 332.794 205.79 332.71 205.622 332.542C205.412 332.416 205.328 332.206 205.328 331.87C205.328 331.618 205.454 331.366 205.79 331.114C206.042 330.904 206.462 330.736 207.05 330.652C207.302 330.652 207.848 330.61 208.646 330.568C209.402 330.568 210.2 330.568 210.956 330.652C211.586 330.736 212.132 330.862 212.636 331.03C213.098 331.24 213.35 331.492 213.35 331.828C213.35 332.122 213.308 332.416 213.224 332.752C213.14 333.004 213.098 333.298 213.056 333.55C212.972 333.844 212.972 334.138 212.972 334.474V351.778C212.972 352.408 212.93 353.164 212.93 354.004C212.888 354.928 212.804 355.768 212.678 356.566C212.51 357.406 212.3 358.162 212.048 358.75C211.712 359.38 211.292 359.716 210.788 359.758C210.536 359.8 210.368 359.758 210.2 359.632C210.032 359.548 209.864 359.296 209.78 358.96C209.612 358.624 209.528 358.162 209.486 357.574C209.402 356.986 209.36 356.23 209.36 355.306V343.882C208.772 343.966 208.268 344.05 207.764 344.134L206.084 344.512ZM196.97 339.052C196.508 340.942 195.752 342.874 194.744 344.806C195.5 345.562 196.172 346.192 196.844 346.738C197.474 347.326 197.852 347.662 198.02 347.704C198.188 347.83 198.398 347.872 198.65 347.872C198.86 347.872 199.07 347.914 199.322 347.956C199.658 348.04 200.036 348.082 200.414 348.124C200.75 348.208 201.044 348.418 201.296 348.67C201.464 348.922 201.674 349.216 201.926 349.552C202.094 349.93 202.262 350.308 202.43 350.644C202.556 351.022 202.682 351.358 202.808 351.694C202.892 352.03 202.934 352.324 202.934 352.576C202.934 352.912 202.85 353.206 202.682 353.416C202.43 353.668 202.136 353.836 201.8 353.878C201.59 353.962 201.296 353.878 200.876 353.626C200.456 353.416 199.994 353.122 199.532 352.702C198.524 351.862 197.516 350.98 196.508 349.972L193.4 347.116C192.182 349.048 190.796 350.854 189.2 352.576C187.604 354.34 185.84 355.978 183.908 357.448C182.984 358.12 182.354 358.288 182.018 357.868C181.85 357.658 181.766 357.406 181.808 357.112C181.808 356.86 182.018 356.566 182.438 356.188C183.614 355.138 184.748 353.878 185.882 352.45C186.974 351.022 188.024 349.552 188.948 347.998C189.872 346.486 190.628 345.016 191.3 343.504C191.93 342.034 192.392 340.732 192.644 339.556C192.644 339.388 192.602 339.262 192.434 339.094C192.266 338.968 192.056 338.842 191.846 338.716C191.594 338.632 191.342 338.548 191.132 338.464C190.88 338.422 190.67 338.38 190.586 338.338C189.788 338.128 189.494 337.708 189.704 337.078C189.746 336.91 189.914 336.7 190.208 336.49C190.46 336.322 190.838 336.196 191.384 336.196C192.056 336.196 192.812 336.28 193.652 336.364C194.45 336.532 195.248 336.742 196.046 337.036C196.592 337.246 196.928 337.498 197.054 337.792C197.138 338.128 197.096 338.548 196.97 339.052ZM208.268 365.722C208.562 365.638 208.814 365.554 209.066 365.428C209.276 365.26 209.486 365.134 209.738 364.966C209.948 364.756 210.158 364.588 210.41 364.504C210.578 364.378 210.83 364.294 211.166 364.252C211.628 364.168 212.09 364.168 212.594 364.168C213.056 364.168 213.518 364.168 214.022 364.252C214.442 364.336 214.82 364.504 215.072 364.798C215.324 365.05 215.45 365.344 215.45 365.68C215.45 366.604 214.778 367.15 213.518 367.318C210.83 367.654 208.184 367.99 205.622 368.368C203.018 368.704 200.372 369.04 197.684 369.418C195.248 369.754 194.072 368.662 194.072 366.226V362.026C194.072 361.522 193.82 361.102 193.358 360.766C192.854 360.514 192.14 360.262 191.174 360.052C190.838 360.01 190.586 359.926 190.418 359.758C190.208 359.632 190.124 359.422 190.124 359.086C190.124 358.834 190.25 358.54 190.586 358.288C190.838 358.078 191.258 357.952 191.846 357.868C192.098 357.826 192.644 357.784 193.442 357.742C194.198 357.742 194.996 357.784 195.752 357.826C196.382 357.91 196.886 358.078 197.264 358.33C197.6 358.624 197.768 358.918 197.768 359.212V366.226C197.768 366.562 197.81 366.814 197.978 366.94C198.062 367.024 198.272 367.066 198.566 367.024L208.268 365.722ZM246.464 341.824L250.16 341.362V334.684C250.16 334.138 249.908 333.718 249.404 333.424C248.9 333.172 248.144 332.92 247.178 332.71C246.842 332.626 246.59 332.542 246.422 332.374C246.212 332.29 246.128 332.08 246.128 331.744C246.128 331.492 246.254 331.198 246.59 330.946C246.842 330.736 247.262 330.61 247.85 330.526C248.102 330.484 248.648 330.442 249.446 330.4C250.202 330.4 251 330.442 251.756 330.484C252.386 330.568 252.932 330.694 253.436 330.862C253.898 331.072 254.15 331.324 254.15 331.66C254.15 331.954 254.108 332.29 254.024 332.626C253.94 332.878 253.898 333.13 253.856 333.382C253.772 333.676 253.772 333.97 253.772 334.306V345.688C253.772 346.318 253.73 347.074 253.73 347.914C253.688 348.838 253.604 349.678 253.478 350.518C253.31 351.358 253.1 352.072 252.848 352.66C252.512 353.29 252.092 353.626 251.588 353.71C251.126 353.794 250.79 353.5 250.538 352.87C250.286 352.282 250.16 351.064 250.16 349.216V343.924L246.464 344.386V346.528C246.464 347.158 246.422 347.914 246.422 348.754C246.38 349.678 246.296 350.518 246.17 351.316C246.002 352.156 245.792 352.912 245.54 353.5C245.204 354.13 244.784 354.466 244.28 354.508C243.86 354.592 243.524 354.34 243.272 353.752C243.02 353.206 242.852 352.114 242.852 350.434C241.55 351.022 240.248 351.568 238.946 352.072C237.602 352.576 236.342 353.038 235.166 353.416C233.906 353.836 232.772 354.214 231.722 354.466C230.63 354.76 229.664 354.97 228.824 355.054C227.354 355.264 226.346 355.012 225.758 354.34C225.128 353.71 224.834 352.66 224.834 351.232V343.294C224.834 342.79 224.624 342.37 224.204 342.034C223.742 341.782 223.028 341.53 222.062 341.32C221.726 341.278 221.474 341.194 221.306 341.026C221.096 340.9 221.012 340.69 221.012 340.354C221.012 340.102 221.138 339.808 221.474 339.556C221.726 339.346 222.146 339.22 222.734 339.136C222.818 339.136 223.028 339.136 223.364 339.094C223.616 339.094 223.952 339.052 224.372 339.01H225.548C225.926 339.01 226.304 339.052 226.724 339.052C226.85 339.136 226.976 339.136 227.144 339.136C227.228 339.136 227.354 339.178 227.48 339.178L231.974 338.506C232.268 338.464 232.52 338.38 232.772 338.212C232.982 338.086 233.192 337.918 233.444 337.75C233.654 337.582 233.864 337.456 234.116 337.288C234.284 337.204 234.536 337.12 234.872 337.078C235.334 337.036 235.88 336.994 236.51 336.952C237.098 336.952 237.644 336.952 238.148 336.994C238.568 337.078 238.946 337.288 239.198 337.54C239.45 337.834 239.576 338.128 239.576 338.422C239.576 339.388 238.904 339.934 237.644 340.06C236.216 340.312 234.746 340.522 233.276 340.69C231.764 340.9 230.252 341.11 228.74 341.278V345.478L231.764 345.058C232.058 345.016 232.31 344.932 232.562 344.764C232.772 344.638 232.982 344.47 233.234 344.26C233.444 344.092 233.654 343.966 233.906 343.84C234.074 343.756 234.326 343.672 234.662 343.588C235.124 343.546 235.67 343.504 236.3 343.462C236.888 343.462 237.434 343.462 237.938 343.546C238.358 343.63 238.736 343.798 238.988 344.05C239.24 344.344 239.366 344.638 239.366 344.932C239.366 345.352 239.156 345.73 238.82 346.024C238.442 346.36 237.98 346.528 237.434 346.612C236.132 346.822 234.704 347.032 233.192 347.2C231.638 347.41 230.168 347.578 228.74 347.746V350.98C228.74 351.652 228.95 351.946 229.37 351.862C231.596 351.61 233.822 351.148 236.09 350.476C238.274 349.846 240.542 349.048 242.852 348.082V337.96C242.852 337.414 242.6 336.994 242.096 336.7C241.592 336.448 240.836 336.196 239.87 335.986C239.534 335.944 239.282 335.86 239.114 335.692C238.904 335.566 238.82 335.356 238.82 335.02C238.82 334.768 238.946 334.474 239.282 334.222C239.534 334.012 239.954 333.886 240.542 333.802C240.794 333.76 241.34 333.718 242.138 333.676C242.894 333.676 243.692 333.718 244.448 333.802C245.078 333.886 245.624 334.012 246.128 334.18C246.59 334.39 246.842 334.642 246.842 334.978C246.842 335.272 246.8 335.566 246.716 335.902C246.632 336.154 246.59 336.406 246.548 336.658C246.464 336.994 246.464 337.288 246.464 337.624V341.824ZM253.184 363.37C253.184 363.79 253.142 364.336 253.058 365.008C252.932 365.638 252.806 366.268 252.638 366.94C252.428 367.528 252.176 368.074 251.924 368.578C251.63 369.04 251.294 369.292 250.958 369.376C250.412 369.418 250.034 369.082 249.866 368.368C249.614 367.612 249.53 366.268 249.53 364.42V357.784C248.9 357.868 248.06 357.994 247.052 358.12L243.818 358.624C242.684 358.792 241.634 358.96 240.626 359.128C239.576 359.338 238.778 359.506 238.274 359.632C238.022 359.716 237.77 359.8 237.56 359.884C237.308 360.052 237.098 360.178 236.93 360.262C236.594 360.472 236.258 360.64 235.88 360.808C235.46 360.976 234.998 361.018 234.536 360.892C233.78 360.724 233.024 360.514 232.352 360.178C231.596 359.884 231.134 359.674 230.924 359.506C230.588 359.338 230.462 359.086 230.462 358.75C230.462 358.414 230.588 358.162 230.882 357.994C231.134 357.91 231.512 357.826 231.974 357.784C232.646 357.826 233.318 357.826 234.032 357.742C234.704 357.7 235.334 357.616 235.922 357.532C236.426 357.49 237.224 357.406 238.274 357.238C239.282 357.112 240.332 356.944 241.508 356.776L244.826 356.272C245.918 356.104 246.8 355.978 247.514 355.81C247.934 355.726 248.312 355.6 248.564 355.516C248.774 355.432 248.984 355.348 249.152 355.222C249.32 355.138 249.53 355.054 249.74 354.97C249.908 354.886 250.118 354.844 250.412 354.76C250.748 354.76 251.168 354.718 251.588 354.676C251.966 354.676 252.344 354.718 252.722 354.76C253.058 354.844 253.394 354.97 253.646 355.096C253.856 355.264 253.982 355.516 253.982 355.768C253.982 356.062 253.898 356.398 253.73 356.818C253.646 357.07 253.604 357.364 253.52 357.658C253.436 357.994 253.352 358.414 253.352 358.876L253.184 363.37Z" fill="white"/>
<g filter="url(#filter0_f_153_685)">
<path d="M297.148 144.536C298.187 147.391 296.716 150.547 293.861 151.586C291.007 152.625 287.851 151.153 286.812 148.299C285.773 145.444 287.245 142.288 290.099 141.249C292.953 140.21 296.109 141.682 297.148 144.536Z" fill="white"/>
<path d="M295.739 145.049C296.494 147.125 295.424 149.421 293.348 150.176C291.272 150.932 288.977 149.862 288.221 147.786C287.466 145.71 288.536 143.414 290.612 142.659C292.688 141.903 294.983 142.974 295.739 145.049Z" stroke="white" stroke-width="3"/>
</g>
<g filter="url(#filter1_f_153_685)">
<path d="M389.914 83.6361C390.669 85.712 389.599 88.0074 387.523 88.763C385.447 89.5186 383.152 88.4482 382.396 86.3723C381.641 84.2964 382.711 82.001 384.787 81.2454C386.863 80.4899 389.158 81.5602 389.914 83.6361Z" fill="white"/>
<path d="M388.504 84.1492C388.976 85.4466 388.307 86.8812 387.01 87.3534C385.713 87.8257 384.278 87.1567 383.806 85.8593C383.333 84.5618 384.002 83.1272 385.3 82.655C386.597 82.1828 388.032 82.8517 388.504 84.1492Z" stroke="white" stroke-width="3"/>
</g>
<g filter="url(#filter2_f_153_685)">
<path d="M387.167 41.0043C387.923 43.0802 386.852 45.3756 384.776 46.1312C382.701 46.8867 380.405 45.8164 379.65 43.7405C378.894 41.6645 379.964 39.3692 382.04 38.6136C384.116 37.858 386.412 38.9284 387.167 41.0043Z" fill="white"/>
<path d="M385.758 41.5173C386.23 42.8148 385.561 44.2494 384.263 44.7216C382.966 45.1938 381.531 44.5249 381.059 43.2274C380.587 41.93 381.256 40.4954 382.553 40.0231C383.851 39.5509 385.285 40.2199 385.758 41.5173Z" stroke="white" stroke-width="3"/>
</g>
<g filter="url(#filter3_f_153_685)">
<path d="M340.86 36.5753C341.615 38.6513 340.545 40.9466 338.469 41.7022C336.393 42.4578 334.098 41.3874 333.342 39.3115C332.587 37.2356 333.657 34.9402 335.733 34.1847C337.809 33.4291 340.104 34.4994 340.86 36.5753Z" fill="white"/>
<path d="M339.45 37.0884C339.922 38.3858 339.253 39.8204 337.956 40.2927C336.659 40.7649 335.224 40.0959 334.752 38.7985C334.279 37.501 334.948 36.0664 336.246 35.5942C337.543 35.122 338.978 35.7909 339.45 37.0884Z" stroke="white" stroke-width="3"/>
</g>
<g filter="url(#filter4_f_153_685)">
<path d="M337.211 123.038C337.967 125.113 336.897 127.409 334.821 128.164C332.745 128.92 330.449 127.85 329.694 125.774C328.938 123.698 330.009 121.402 332.085 120.647C334.16 119.891 336.456 120.962 337.211 123.038Z" fill="white"/>
<path d="M335.802 123.551C336.274 124.848 335.605 126.283 334.308 126.755C333.01 127.227 331.576 126.558 331.103 125.261C330.631 123.963 331.3 122.529 332.598 122.056C333.895 121.584 335.33 122.253 335.802 123.551Z" stroke="white" stroke-width="3"/>
</g>
<g filter="url(#filter5_f_153_685)">
<path d="M125.86 179.744C126.616 181.82 125.545 184.115 123.469 184.871C121.393 185.626 119.098 184.556 118.343 182.48C117.587 180.404 118.657 178.109 120.733 177.353C122.809 176.598 125.104 177.668 125.86 179.744Z" fill="white"/>
<path d="M124.451 180.257C124.923 181.554 124.254 182.989 122.956 183.461C121.659 183.933 120.224 183.264 119.752 181.967C119.28 180.669 119.949 179.235 121.246 178.763C122.544 178.29 123.978 178.959 124.451 180.257Z" stroke="white" stroke-width="3"/>
</g>
<g filter="url(#filter6_f_153_685)">
<path d="M219.206 59.0382C220.245 61.8925 218.773 65.0487 215.919 66.0876C213.064 67.1265 209.908 65.6548 208.869 62.8004C207.83 59.946 209.302 56.7899 212.156 55.751C215.011 54.7121 218.167 56.1838 219.206 59.0382Z" fill="white"/>
<path d="M217.796 59.5512C218.552 61.6271 217.481 63.9225 215.406 64.678C213.33 65.4336 211.034 64.3633 210.279 62.2874C209.523 60.2114 210.593 57.9161 212.669 57.1605C214.745 56.4049 217.041 57.4753 217.796 59.5512Z" stroke="white" stroke-width="3"/>
</g>
<g filter="url(#filter7_f_153_685)">
<circle cx="232.976" cy="256.22" r="5.5" transform="rotate(-20 232.976 256.22)" fill="white"/>
<circle cx="232.976" cy="256.22" r="4" transform="rotate(-20 232.976 256.22)" stroke="white" stroke-width="3"/>
</g>
<g filter="url(#filter8_f_153_685)">
<circle cx="251.005" cy="117.168" r="4" transform="rotate(-20 251.005 117.168)" fill="white"/>
<circle cx="251.005" cy="117.168" r="2.5" transform="rotate(-20 251.005 117.168)" stroke="white" stroke-width="3"/>
</g>
<g filter="url(#filter9_f_153_685)">
<circle cx="246.928" cy="199.529" r="4" transform="rotate(-20 246.928 199.529)" fill="white"/>
<circle cx="246.928" cy="199.529" r="2.5" transform="rotate(-20 246.928 199.529)" stroke="white" stroke-width="3"/>
</g>
<g filter="url(#filter10_f_153_685)">
<circle cx="183.102" cy="179.129" r="4" transform="rotate(-20 183.102 179.129)" fill="white"/>
<circle cx="183.102" cy="179.129" r="2.5" transform="rotate(-20 183.102 179.129)" stroke="white" stroke-width="3"/>
</g>
<g filter="url(#filter11_f_153_685)">
<circle cx="115.202" cy="252.794" r="4" transform="rotate(-20 115.202 252.794)" fill="white"/>
<circle cx="115.202" cy="252.794" r="2.5" transform="rotate(-20 115.202 252.794)" stroke="white" stroke-width="3"/>
</g>
<g filter="url(#filter12_f_153_685)">
<circle cx="60.9556" cy="270.41" r="4" transform="rotate(-20 60.9556 270.41)" fill="white"/>
<circle cx="60.9556" cy="270.41" r="2.5" transform="rotate(-20 60.9556 270.41)" stroke="white" stroke-width="3"/>
</g>
<g filter="url(#filter13_f_153_685)">
<circle cx="31.2067" cy="212.066" r="4" transform="rotate(-20 31.2067 212.066)" fill="white"/>
<circle cx="31.2067" cy="212.066" r="2.5" transform="rotate(-20 31.2067 212.066)" stroke="white" stroke-width="3"/>
</g>
<path d="M31.1977 212.129L122.414 180.532" stroke="white" stroke-opacity="0.4" stroke-width="1.2" stroke-linecap="round"/>
<path d="M183.422 178.821L122.414 180.532" stroke="white" stroke-opacity="0.4" stroke-width="1.2" stroke-linecap="round"/>
<path d="M183.422 178.821L292.707 146.936" stroke="white" stroke-opacity="0.4" stroke-width="1.2" stroke-linecap="round"/>
<path d="M250.342 117.373L292.707 146.936" stroke="white" stroke-opacity="0.4" stroke-width="1.2" stroke-linecap="round"/>
<path d="M247.162 199.815L292.707 146.936" stroke="white" stroke-opacity="0.4" stroke-width="1.2" stroke-linecap="round"/>
<path d="M334.126 123.969L292.707 146.936" stroke="white" stroke-opacity="0.4" stroke-width="1.2" stroke-linecap="round"/>
<path d="M334.126 123.969L337.686 38.2327" stroke="white" stroke-opacity="0.4" stroke-width="1.2" stroke-linecap="round"/>
<path d="M383.352 42.1299L337.686 38.2326" stroke="white" stroke-opacity="0.4" stroke-width="1.2" stroke-linecap="round"/>
<path d="M383.352 42.1299L386.139 84.5198" stroke="white" stroke-opacity="0.4" stroke-width="1.2" stroke-linecap="round"/>
<path d="M334.126 123.969L386.139 84.5199" stroke="white" stroke-opacity="0.4" stroke-width="1.2" stroke-linecap="round"/>
<path d="M247.162 199.815L233.901 256.726" stroke="white" stroke-opacity="0.4" stroke-width="1.2" stroke-linecap="round"/>
<path d="M250.342 117.373L215.019 61.5722" stroke="white" stroke-opacity="0.4" stroke-width="1.2" stroke-linecap="round"/>
<path d="M183.422 178.821L115.423 252.499" stroke="white" stroke-opacity="0.4" stroke-width="1.2" stroke-linecap="round"/>
<path d="M61.1921 270.659L115.423 252.499" stroke="white" stroke-opacity="0.4" stroke-width="1.2" stroke-linecap="round"/>
<defs>
<filter id="filter0_f_153_685" x="282.479" y="136.916" width="19.003" height="19.0029" filterUnits="userSpaceOnUse" color-interpolation-filters="sRGB">
<feFlood flood-opacity="0" result="BackgroundImageFix"/>
<feBlend mode="normal" in="SourceGraphic" in2="BackgroundImageFix" result="shape"/>
<feGaussianBlur stdDeviation="2" result="effect1_foregroundBlur_153_685"/>
</filter>
<filter id="filter1_f_153_685" x="378.154" y="77.0032" width="16.0022" height="16.0022" filterUnits="userSpaceOnUse" color-interpolation-filters="sRGB">
<feFlood flood-opacity="0" result="BackgroundImageFix"/>
<feBlend mode="normal" in="SourceGraphic" in2="BackgroundImageFix" result="shape"/>
<feGaussianBlur stdDeviation="2" result="effect1_foregroundBlur_153_685"/>
</filter>
<filter id="filter2_f_153_685" x="375.407" y="34.3713" width="16.0022" height="16.0022" filterUnits="userSpaceOnUse" color-interpolation-filters="sRGB">
<feFlood flood-opacity="0" result="BackgroundImageFix"/>
<feBlend mode="normal" in="SourceGraphic" in2="BackgroundImageFix" result="shape"/>
<feGaussianBlur stdDeviation="2" result="effect1_foregroundBlur_153_685"/>
</filter>
<filter id="filter3_f_153_685" x="329.1" y="29.9424" width="16.0022" height="16.0022" filterUnits="userSpaceOnUse" color-interpolation-filters="sRGB">
<feFlood flood-opacity="0" result="BackgroundImageFix"/>
<feBlend mode="normal" in="SourceGraphic" in2="BackgroundImageFix" result="shape"/>
<feGaussianBlur stdDeviation="2" result="effect1_foregroundBlur_153_685"/>
</filter>
<filter id="filter4_f_153_685" x="325.452" y="116.405" width="16.0022" height="16.0022" filterUnits="userSpaceOnUse" color-interpolation-filters="sRGB">
<feFlood flood-opacity="0" result="BackgroundImageFix"/>
<feBlend mode="normal" in="SourceGraphic" in2="BackgroundImageFix" result="shape"/>
<feGaussianBlur stdDeviation="2" result="effect1_foregroundBlur_153_685"/>
</filter>
<filter id="filter5_f_153_685" x="114.1" y="173.111" width="16.0022" height="16.0022" filterUnits="userSpaceOnUse" color-interpolation-filters="sRGB">
<feFlood flood-opacity="0" result="BackgroundImageFix"/>
<feBlend mode="normal" in="SourceGraphic" in2="BackgroundImageFix" result="shape"/>
<feGaussianBlur stdDeviation="2" result="effect1_foregroundBlur_153_685"/>
</filter>
<filter id="filter6_f_153_685" x="204.536" y="51.4177" width="19.003" height="19.0029" filterUnits="userSpaceOnUse" color-interpolation-filters="sRGB">
<feFlood flood-opacity="0" result="BackgroundImageFix"/>
<feBlend mode="normal" in="SourceGraphic" in2="BackgroundImageFix" result="shape"/>
<feGaussianBlur stdDeviation="2" result="effect1_foregroundBlur_153_685"/>
</filter>
<filter id="filter7_f_153_685" x="223.475" y="246.718" width="19.003" height="19.0029" filterUnits="userSpaceOnUse" color-interpolation-filters="sRGB">
<feFlood flood-opacity="0" result="BackgroundImageFix"/>
<feBlend mode="normal" in="SourceGraphic" in2="BackgroundImageFix" result="shape"/>
<feGaussianBlur stdDeviation="2" result="effect1_foregroundBlur_153_685"/>
</filter>
<filter id="filter8_f_153_685" x="243.004" y="109.167" width="16.0022" height="16.0022" filterUnits="userSpaceOnUse" color-interpolation-filters="sRGB">
<feFlood flood-opacity="0" result="BackgroundImageFix"/>
<feBlend mode="normal" in="SourceGraphic" in2="BackgroundImageFix" result="shape"/>
<feGaussianBlur stdDeviation="2" result="effect1_foregroundBlur_153_685"/>
</filter>
<filter id="filter9_f_153_685" x="238.927" y="191.528" width="16.0022" height="16.0022" filterUnits="userSpaceOnUse" color-interpolation-filters="sRGB">
<feFlood flood-opacity="0" result="BackgroundImageFix"/>
<feBlend mode="normal" in="SourceGraphic" in2="BackgroundImageFix" result="shape"/>
<feGaussianBlur stdDeviation="2" result="effect1_foregroundBlur_153_685"/>
</filter>
<filter id="filter10_f_153_685" x="175.101" y="171.128" width="16.0022" height="16.0022" filterUnits="userSpaceOnUse" color-interpolation-filters="sRGB">
<feFlood flood-opacity="0" result="BackgroundImageFix"/>
<feBlend mode="normal" in="SourceGraphic" in2="BackgroundImageFix" result="shape"/>
<feGaussianBlur stdDeviation="2" result="effect1_foregroundBlur_153_685"/>
</filter>
<filter id="filter11_f_153_685" x="107.201" y="244.793" width="16.0022" height="16.0022" filterUnits="userSpaceOnUse" color-interpolation-filters="sRGB">
<feFlood flood-opacity="0" result="BackgroundImageFix"/>
<feBlend mode="normal" in="SourceGraphic" in2="BackgroundImageFix" result="shape"/>
<feGaussianBlur stdDeviation="2" result="effect1_foregroundBlur_153_685"/>
</filter>
<filter id="filter12_f_153_685" x="52.9545" y="262.409" width="16.0022" height="16.0022" filterUnits="userSpaceOnUse" color-interpolation-filters="sRGB">
<feFlood flood-opacity="0" result="BackgroundImageFix"/>
<feBlend mode="normal" in="SourceGraphic" in2="BackgroundImageFix" result="shape"/>
<feGaussianBlur stdDeviation="2" result="effect1_foregroundBlur_153_685"/>
</filter>
<filter id="filter13_f_153_685" x="23.2056" y="204.065" width="16.0022" height="16.0022" filterUnits="userSpaceOnUse" color-interpolation-filters="sRGB">
<feFlood flood-opacity="0" result="BackgroundImageFix"/>
<feBlend mode="normal" in="SourceGraphic" in2="BackgroundImageFix" result="shape"/>
<feGaussianBlur stdDeviation="2" result="effect1_foregroundBlur_153_685"/>
</filter>
</defs>
</svg>
