<svg width="274" height="374" viewBox="0 0 274 374" fill="none" xmlns="http://www.w3.org/2000/svg">
<path d="M123.924 343.066L127.662 342.604V331.684C127.662 331.138 127.41 330.718 126.906 330.424C126.402 330.172 125.646 329.92 124.68 329.71C124.344 329.626 124.092 329.542 123.924 329.374C123.714 329.29 123.63 329.08 123.63 328.744C123.63 328.492 123.756 328.198 124.092 327.946C124.344 327.736 124.764 327.61 125.352 327.526C125.604 327.484 126.15 327.442 126.948 327.4C127.704 327.4 128.502 327.442 129.258 327.484C129.888 327.568 130.434 327.694 130.938 327.862C131.4 328.072 131.652 328.324 131.652 328.66C131.652 328.954 131.61 329.29 131.526 329.626C131.442 329.878 131.4 330.13 131.358 330.382C131.274 330.676 131.274 330.97 131.274 331.306V356.254V358.9C131.232 359.992 131.148 361 131.022 362.008C130.854 363.016 130.644 363.856 130.392 364.612C130.056 365.326 129.636 365.746 129.09 365.83C128.628 365.872 128.292 365.452 128.04 364.612C127.788 363.73 127.662 362.386 127.662 360.538V345.166L123.924 345.628V354.784V357.43C123.882 358.522 123.798 359.53 123.672 360.496C123.504 361.504 123.294 362.386 123.042 363.142C122.706 363.856 122.286 364.234 121.74 364.318C120.774 364.444 120.312 362.68 120.312 359.026V335.17C120.312 334.624 120.06 334.204 119.556 333.91C119.052 333.658 118.296 333.406 117.33 333.196C116.994 333.154 116.742 333.07 116.574 332.902C116.364 332.776 116.28 332.566 116.28 332.23C116.28 331.978 116.406 331.684 116.742 331.432C116.994 331.222 117.414 331.096 118.002 331.012C118.254 331.012 118.8 330.97 119.598 330.928C120.354 330.928 121.152 330.928 121.908 331.012C122.538 331.096 123.084 331.222 123.588 331.39C124.05 331.6 124.302 331.852 124.302 332.188C124.302 332.482 124.26 332.776 124.176 333.112C124.092 333.364 124.05 333.616 124.008 333.868C123.924 334.204 123.924 334.498 123.924 334.834V343.066ZM111.114 337.186C111.45 337.144 111.702 337.06 111.954 336.976C112.122 336.892 112.29 336.808 112.458 336.682L113.004 336.43C113.172 336.346 113.382 336.262 113.634 336.22C114.012 336.178 114.432 336.136 114.852 336.094C115.272 336.094 115.65 336.136 116.028 336.178C116.364 336.262 116.658 336.346 116.91 336.472C117.12 336.64 117.246 336.892 117.246 337.186C117.246 337.438 117.162 337.648 117.036 337.858C116.868 338.11 116.742 338.362 116.574 338.572C116.448 338.74 116.364 338.866 116.28 338.95C116.196 339.118 116.112 339.244 116.07 339.328C114.432 343.696 112.332 347.686 109.728 351.214C107.082 354.784 103.848 357.976 100.068 360.832C99.396 361.252 98.934 361.252 98.598 360.874C98.43 360.748 98.388 360.538 98.43 360.286C98.43 360.076 98.556 359.824 98.85 359.488C101.748 356.632 104.31 353.524 106.536 350.206C108.72 346.93 110.484 343.276 111.912 339.328C111.282 339.412 110.736 339.496 110.316 339.538C109.854 339.622 109.434 339.706 109.098 339.79C108.72 339.874 108.384 339.958 108.048 340.042L106.914 340.294C106.62 340.378 106.368 340.462 106.158 340.546C105.906 340.672 105.738 340.798 105.57 340.924C105.234 341.176 104.898 341.344 104.52 341.512C104.1 341.68 103.68 341.722 103.218 341.554C102.462 341.428 101.706 341.218 101.034 340.882C100.32 340.63 99.858 340.42 99.648 340.252C99.312 340.084 99.186 339.832 99.186 339.496C99.186 339.16 99.312 338.908 99.606 338.74C99.858 338.614 100.236 338.53 100.698 338.53C101.37 338.572 102.042 338.572 102.756 338.488C103.428 338.446 104.058 338.362 104.646 338.278C105.108 338.236 105.57 338.152 106.074 338.068C106.494 338.026 106.998 337.942 107.502 337.858C108.006 337.774 108.552 337.69 109.14 337.564C109.728 337.48 110.358 337.354 111.114 337.186ZM157.332 342.352C157.332 342.982 157.29 343.654 157.29 344.41C157.248 345.166 157.164 345.88 157.038 346.552C156.87 347.224 156.66 347.812 156.408 348.274C156.072 348.778 155.652 349.03 155.148 349.072C154.896 349.114 154.644 349.03 154.476 348.862C154.266 348.694 154.098 348.358 153.972 347.854L144.354 349.072C144.186 349.702 143.976 350.206 143.724 350.626C143.388 351.088 143.01 351.34 142.506 351.382C142.254 351.424 142.086 351.382 141.918 351.214C141.75 351.13 141.582 350.878 141.498 350.542C141.33 350.206 141.246 349.744 141.204 349.156C141.12 348.568 141.078 347.812 141.078 346.888V338.866C141.078 338.362 140.868 337.942 140.448 337.606C139.986 337.354 139.272 337.102 138.306 336.85C137.97 336.808 137.718 336.724 137.55 336.556C137.34 336.43 137.256 336.22 137.256 335.884C137.256 335.632 137.382 335.38 137.718 335.128C137.97 334.918 138.39 334.75 138.978 334.666C139.23 334.666 139.734 334.624 140.49 334.582C141.162 334.582 141.918 334.624 142.674 334.666C143.304 334.75 143.808 334.918 144.186 335.17C144.522 335.464 144.69 335.758 144.69 336.052V339.244L153.72 338.11V335.632C153.72 335.128 153.51 334.708 153.09 334.372C152.628 334.12 151.914 333.868 150.948 333.616C150.612 333.574 150.36 333.49 150.192 333.322C149.982 333.196 149.898 332.986 149.898 332.65C149.898 332.398 150.024 332.146 150.36 331.894C150.612 331.684 151.032 331.516 151.62 331.432C151.872 331.432 152.376 331.39 153.132 331.348C153.804 331.348 154.56 331.39 155.316 331.432C155.946 331.516 156.45 331.684 156.828 331.936C157.164 332.23 157.332 332.524 157.332 332.818V342.352ZM163.128 363.688C163.422 363.604 163.674 363.52 163.926 363.394C164.136 363.226 164.346 363.058 164.598 362.89C164.808 362.722 165.018 362.554 165.27 362.47C165.438 362.344 165.69 362.26 166.026 362.218C166.95 362.05 167.874 362.05 168.882 362.218C169.302 362.302 169.68 362.47 169.932 362.764C170.184 363.016 170.31 363.31 170.31 363.646C170.31 364.066 170.142 364.402 169.848 364.738C169.512 364.99 169.008 365.158 168.378 365.242C165.69 365.578 163.044 365.956 160.44 366.334C157.794 366.67 155.148 367.006 152.46 367.384C150.024 367.72 148.848 366.628 148.848 364.15V361.924C148.848 361.588 148.68 361.294 148.386 361.084C148.05 360.832 147.378 360.622 146.454 360.37C146.118 360.328 145.866 360.244 145.698 360.076C145.488 359.95 145.404 359.74 145.404 359.404C145.404 359.152 145.53 358.9 145.866 358.648C146.118 358.438 146.538 358.27 147.126 358.186C147.378 358.186 147.84 358.144 148.512 358.102C149.1 358.102 149.772 358.144 150.528 358.186C151.032 358.27 151.41 358.396 151.662 358.522L163.128 356.884V352.6C162.624 352.684 161.952 352.768 161.154 352.852L158.634 353.23C157.71 353.398 156.87 353.524 156.03 353.65C155.19 353.818 154.476 353.986 153.972 354.07C153.72 354.154 153.468 354.28 153.258 354.364C153.006 354.49 152.796 354.616 152.628 354.7C152.292 354.952 151.956 355.12 151.578 355.288C151.158 355.456 150.696 355.498 150.234 355.33C149.814 355.246 149.436 355.162 149.1 355.036C148.68 354.952 148.344 354.826 148.008 354.658C147.672 354.532 147.378 354.406 147.168 354.28C146.916 354.196 146.706 354.07 146.622 353.986C146.286 353.818 146.16 353.566 146.16 353.23C146.16 352.894 146.286 352.642 146.58 352.474C146.832 352.348 147.21 352.264 147.672 352.264C148.344 352.306 149.016 352.306 149.73 352.222C150.402 352.18 151.032 352.096 151.62 352.012C152.124 351.97 152.796 351.886 153.636 351.76C154.392 351.676 155.232 351.55 156.156 351.382C156.996 351.298 157.878 351.172 158.802 351.004C159.642 350.878 160.44 350.752 161.154 350.584C161.574 350.5 161.952 350.416 162.204 350.332C162.414 350.248 162.624 350.164 162.792 350.038C162.96 349.954 163.17 349.87 163.38 349.786C163.548 349.702 163.758 349.66 164.052 349.576C164.388 349.576 164.808 349.534 165.228 349.492C165.606 349.492 165.984 349.534 166.32 349.576C166.656 349.66 166.908 349.786 167.16 349.912C167.37 350.08 167.496 350.332 167.496 350.584C167.496 350.752 167.454 350.92 167.412 351.088C167.328 351.298 167.286 351.466 167.244 351.592C167.16 351.76 167.118 351.928 167.076 352.138C166.992 352.39 166.866 352.768 166.782 353.23L166.53 354.742C166.446 355.33 166.32 355.876 166.236 356.422C167.202 356.422 167.706 356.758 167.706 357.43C167.706 357.934 167.496 358.27 167.16 358.438C166.782 358.69 166.32 358.816 165.774 358.858C163.59 359.194 161.364 359.488 159.18 359.74C156.912 360.076 154.728 360.37 152.544 360.664V364.15C152.544 364.78 152.796 365.074 153.342 364.99L163.128 363.688ZM167.244 337.438L168.168 337.312C168.462 337.27 168.756 337.186 169.008 337.018C169.26 336.892 169.47 336.724 169.68 336.556C169.89 336.388 170.1 336.22 170.31 336.094C170.478 336.01 170.73 335.926 171.066 335.842C171.528 335.8 171.99 335.758 172.494 335.758C172.956 335.758 173.418 335.8 173.922 335.842C174.342 335.968 174.72 336.136 174.972 336.388C175.224 336.682 175.35 336.976 175.35 337.27C175.35 338.236 174.678 338.782 173.418 338.95L167.244 339.706V340.21C167.244 340.84 167.202 341.596 167.202 342.436C167.16 343.36 167.076 344.2 166.95 344.998C166.782 345.838 166.572 346.594 166.32 347.182C165.984 347.812 165.564 348.148 165.06 348.19C164.808 348.232 164.64 348.19 164.472 348.022C164.304 347.938 164.136 347.686 164.052 347.35C163.884 347.014 163.8 346.552 163.758 345.964C163.674 345.376 163.632 344.62 163.632 343.696V332.104C163.632 331.558 163.38 331.138 162.876 330.844C162.372 330.592 161.616 330.34 160.65 330.13C160.314 330.088 160.062 330.004 159.894 329.836C159.684 329.71 159.6 329.5 159.6 329.164C159.6 328.912 159.726 328.618 160.062 328.366C160.314 328.156 160.734 328.03 161.322 327.946C161.574 327.904 162.12 327.862 162.918 327.82C163.674 327.82 164.472 327.862 165.228 327.946C165.858 328.03 166.404 328.156 166.908 328.324C167.37 328.534 167.622 328.786 167.622 329.122C167.622 329.416 167.58 329.71 167.496 330.046C167.412 330.298 167.37 330.55 167.328 330.802C167.244 331.138 167.244 331.432 167.244 331.768V337.438ZM144.69 341.806V345.544C144.69 345.88 144.648 346.174 144.648 346.468L153.72 345.334V340.672L144.69 341.806Z" fill="white"/>
<path d="M257.531 43.9053L262.519 8.98811" stroke="white" stroke-opacity="0.4" stroke-width="1.2" stroke-linecap="round"/>
<path d="M257.531 43.9053L171.913 174.429" stroke="white" stroke-opacity="0.4" stroke-width="1.2" stroke-linecap="round"/>
<path d="M257.531 43.9053L265.844 220.985" stroke="white" stroke-opacity="0.4" stroke-width="1.2" stroke-linecap="round"/>
<path d="M265.844 257.565L265.844 220.985" stroke="white" stroke-opacity="0.4" stroke-width="1.2" stroke-linecap="round"/>
<path d="M265.844 257.565L218.462 272.529" stroke="white" stroke-opacity="0.4" stroke-width="1.2" stroke-linecap="round"/>
<path d="M156.119 281.675L218.462 272.53" stroke="white" stroke-opacity="0.4" stroke-width="1.2" stroke-linecap="round"/>
<path d="M156.119 281.675L97.9312 267.542" stroke="white" stroke-opacity="0.4" stroke-width="1.2" stroke-linecap="round"/>
<path d="M8.98749 268.373L97.9312 267.541" stroke="white" stroke-opacity="0.4" stroke-width="1.2" stroke-linecap="round"/>
<path d="M8.98749 268.373L44.7312 235.949" stroke="white" stroke-opacity="0.4" stroke-width="1.2" stroke-linecap="round"/>
<path d="M99.5938 219.323L44.7312 235.95" stroke="white" stroke-opacity="0.4" stroke-width="1.2" stroke-linecap="round"/>
<path d="M99.5938 219.323L171.913 174.429" stroke="white" stroke-opacity="0.4" stroke-width="1.2" stroke-linecap="round"/>
<g filter="url(#filter0_f_153_625)">
<ellipse cx="262.103" cy="8.57248" rx="4.57187" ry="4.57248" fill="white"/>
<path d="M265.175 8.57248C265.175 10.2696 263.799 11.645 262.103 11.645C260.407 11.645 259.031 10.2696 259.031 8.57248C259.031 6.87541 260.407 5.5 262.103 5.5C263.799 5.5 265.175 6.87541 265.175 8.57248Z" stroke="white" stroke-width="3"/>
</g>
<g filter="url(#filter1_f_153_625)">
<ellipse cx="265.428" cy="257.15" rx="4.57187" ry="4.57249" fill="white"/>
<path d="M268.5 257.15C268.5 258.847 267.124 260.222 265.428 260.222C263.732 260.222 262.356 258.847 262.356 257.15C262.356 255.453 263.732 254.077 265.428 254.077C267.124 254.077 268.5 255.453 268.5 257.15Z" stroke="white" stroke-width="3"/>
</g>
<g filter="url(#filter2_f_153_625)">
<ellipse cx="8.57187" cy="267.957" rx="4.57188" ry="4.57248" fill="white"/>
<path d="M11.6438 267.957C11.6438 269.654 10.2682 271.03 8.57188 271.03C6.87551 271.03 5.5 269.654 5.5 267.957C5.5 266.26 6.87551 264.885 8.57188 264.885C10.2682 264.885 11.6438 266.26 11.6438 267.957Z" stroke="white" stroke-width="3"/>
</g>
<g filter="url(#filter3_f_153_625)">
<ellipse cx="257.531" cy="43.9053" rx="3.325" ry="3.32545" fill="white"/>
<path d="M259.356 43.9053C259.356 44.9136 258.539 45.7307 257.531 45.7307C256.524 45.7307 255.706 44.9136 255.706 43.9053C255.706 42.8969 256.524 42.0798 257.531 42.0798C258.539 42.0798 259.356 42.8969 259.356 43.9053Z" stroke="white" stroke-width="3"/>
</g>
<g filter="url(#filter4_f_153_625)">
<ellipse cx="171.913" cy="174.429" rx="3.325" ry="3.32545" fill="white"/>
<path d="M173.738 174.429C173.738 175.437 172.92 176.254 171.912 176.254C170.905 176.254 170.087 175.437 170.087 174.429C170.087 173.421 170.905 172.604 171.912 172.604C172.92 172.604 173.738 173.421 173.738 174.429Z" stroke="white" stroke-width="3"/>
</g>
<g filter="url(#filter5_f_153_625)">
<ellipse cx="265.844" cy="220.985" rx="3.32501" ry="3.32545" fill="white"/>
<path d="M267.669 220.985C267.669 221.993 266.851 222.811 265.844 222.811C264.836 222.811 264.019 221.993 264.019 220.985C264.019 219.977 264.836 219.16 265.844 219.16C266.851 219.16 267.669 219.977 267.669 220.985Z" stroke="white" stroke-width="3"/>
</g>
<g filter="url(#filter6_f_153_625)">
<ellipse cx="218.462" cy="272.53" rx="3.325" ry="3.32545" fill="white"/>
<path d="M220.288 272.53C220.288 273.538 219.47 274.355 218.463 274.355C217.455 274.355 216.637 273.538 216.637 272.53C216.637 271.521 217.455 270.704 218.463 270.704C219.47 270.704 220.288 271.521 220.288 272.53Z" stroke="white" stroke-width="3"/>
</g>
<g filter="url(#filter7_f_153_625)">
<ellipse cx="97.9313" cy="267.541" rx="3.325" ry="3.32544" fill="white"/>
<path d="M99.7563 267.541C99.7563 268.55 98.939 269.367 97.9313 269.367C96.9235 269.367 96.1063 268.55 96.1063 267.541C96.1063 266.533 96.9235 265.716 97.9313 265.716C98.939 265.716 99.7563 266.533 99.7563 267.541Z" stroke="white" stroke-width="3"/>
</g>
<g filter="url(#filter8_f_153_625)">
<ellipse cx="99.5937" cy="219.323" rx="3.325" ry="3.32545" fill="white"/>
<path d="M101.419 219.323C101.419 220.331 100.601 221.148 99.5937 221.148C98.586 221.148 97.7687 220.331 97.7687 219.323C97.7687 218.314 98.586 217.497 99.5937 217.497C100.601 217.497 101.419 218.314 101.419 219.323Z" stroke="white" stroke-width="3"/>
</g>
<g filter="url(#filter9_f_153_625)">
<ellipse cx="44.7313" cy="235.95" rx="3.325" ry="3.32544" fill="white"/>
<path d="M46.5563 235.95C46.5563 236.958 45.739 237.775 44.7313 237.775C43.7235 237.775 42.9062 236.958 42.9062 235.95C42.9062 234.941 43.7235 234.124 44.7313 234.124C45.739 234.124 46.5563 234.941 46.5563 235.95Z" stroke="white" stroke-width="3"/>
</g>
<g filter="url(#filter10_f_153_625)">
<ellipse cx="156.119" cy="281.675" rx="3.325" ry="3.32544" fill="white"/>
<path d="M157.944 281.675C157.944 282.683 157.126 283.5 156.119 283.5C155.111 283.5 154.294 282.683 154.294 281.675C154.294 280.666 155.111 279.849 156.119 279.849C157.126 279.849 157.944 280.666 157.944 281.675Z" stroke="white" stroke-width="3"/>
</g>
<defs>
<filter id="filter0_f_153_625" x="253.531" y="0" width="17.1437" height="17.145" filterUnits="userSpaceOnUse" color-interpolation-filters="sRGB">
<feFlood flood-opacity="0" result="BackgroundImageFix"/>
<feBlend mode="normal" in="SourceGraphic" in2="BackgroundImageFix" result="shape"/>
<feGaussianBlur stdDeviation="2" result="effect1_foregroundBlur_153_625"/>
</filter>
<filter id="filter1_f_153_625" x="256.856" y="248.577" width="17.1437" height="17.145" filterUnits="userSpaceOnUse" color-interpolation-filters="sRGB">
<feFlood flood-opacity="0" result="BackgroundImageFix"/>
<feBlend mode="normal" in="SourceGraphic" in2="BackgroundImageFix" result="shape"/>
<feGaussianBlur stdDeviation="2" result="effect1_foregroundBlur_153_625"/>
</filter>
<filter id="filter2_f_153_625" x="0" y="259.385" width="17.1437" height="17.145" filterUnits="userSpaceOnUse" color-interpolation-filters="sRGB">
<feFlood flood-opacity="0" result="BackgroundImageFix"/>
<feBlend mode="normal" in="SourceGraphic" in2="BackgroundImageFix" result="shape"/>
<feGaussianBlur stdDeviation="2" result="effect1_foregroundBlur_153_625"/>
</filter>
<filter id="filter3_f_153_625" x="250.206" y="36.5798" width="14.65" height="14.6509" filterUnits="userSpaceOnUse" color-interpolation-filters="sRGB">
<feFlood flood-opacity="0" result="BackgroundImageFix"/>
<feBlend mode="normal" in="SourceGraphic" in2="BackgroundImageFix" result="shape"/>
<feGaussianBlur stdDeviation="2" result="effect1_foregroundBlur_153_625"/>
</filter>
<filter id="filter4_f_153_625" x="164.587" y="167.104" width="14.65" height="14.6509" filterUnits="userSpaceOnUse" color-interpolation-filters="sRGB">
<feFlood flood-opacity="0" result="BackgroundImageFix"/>
<feBlend mode="normal" in="SourceGraphic" in2="BackgroundImageFix" result="shape"/>
<feGaussianBlur stdDeviation="2" result="effect1_foregroundBlur_153_625"/>
</filter>
<filter id="filter5_f_153_625" x="258.519" y="213.66" width="14.65" height="14.6509" filterUnits="userSpaceOnUse" color-interpolation-filters="sRGB">
<feFlood flood-opacity="0" result="BackgroundImageFix"/>
<feBlend mode="normal" in="SourceGraphic" in2="BackgroundImageFix" result="shape"/>
<feGaussianBlur stdDeviation="2" result="effect1_foregroundBlur_153_625"/>
</filter>
<filter id="filter6_f_153_625" x="211.137" y="265.204" width="14.65" height="14.6509" filterUnits="userSpaceOnUse" color-interpolation-filters="sRGB">
<feFlood flood-opacity="0" result="BackgroundImageFix"/>
<feBlend mode="normal" in="SourceGraphic" in2="BackgroundImageFix" result="shape"/>
<feGaussianBlur stdDeviation="2" result="effect1_foregroundBlur_153_625"/>
</filter>
<filter id="filter7_f_153_625" x="90.6063" y="260.216" width="14.65" height="14.6509" filterUnits="userSpaceOnUse" color-interpolation-filters="sRGB">
<feFlood flood-opacity="0" result="BackgroundImageFix"/>
<feBlend mode="normal" in="SourceGraphic" in2="BackgroundImageFix" result="shape"/>
<feGaussianBlur stdDeviation="2" result="effect1_foregroundBlur_153_625"/>
</filter>
<filter id="filter8_f_153_625" x="92.2687" y="211.997" width="14.65" height="14.6509" filterUnits="userSpaceOnUse" color-interpolation-filters="sRGB">
<feFlood flood-opacity="0" result="BackgroundImageFix"/>
<feBlend mode="normal" in="SourceGraphic" in2="BackgroundImageFix" result="shape"/>
<feGaussianBlur stdDeviation="2" result="effect1_foregroundBlur_153_625"/>
</filter>
<filter id="filter9_f_153_625" x="37.4062" y="228.624" width="14.65" height="14.6511" filterUnits="userSpaceOnUse" color-interpolation-filters="sRGB">
<feFlood flood-opacity="0" result="BackgroundImageFix"/>
<feBlend mode="normal" in="SourceGraphic" in2="BackgroundImageFix" result="shape"/>
<feGaussianBlur stdDeviation="2" result="effect1_foregroundBlur_153_625"/>
</filter>
<filter id="filter10_f_153_625" x="148.794" y="274.349" width="14.65" height="14.6509" filterUnits="userSpaceOnUse" color-interpolation-filters="sRGB">
<feFlood flood-opacity="0" result="BackgroundImageFix"/>
<feBlend mode="normal" in="SourceGraphic" in2="BackgroundImageFix" result="shape"/>
<feGaussianBlur stdDeviation="2" result="effect1_foregroundBlur_153_625"/>
</filter>
</defs>
</svg>
