<svg width="394" height="327" viewBox="0 0 394 327" fill="none" xmlns="http://www.w3.org/2000/svg">
<path d="M190.098 309.422V312.068C190.056 313.16 189.972 314.168 189.846 315.176C189.678 316.142 189.468 317.024 189.216 317.78C188.88 318.494 188.46 318.872 187.914 318.956C186.948 319.082 186.486 317.318 186.486 313.664V284.81C186.486 284.264 186.234 283.844 185.73 283.55C185.226 283.298 184.47 283.046 183.504 282.836C183.168 282.794 182.916 282.71 182.748 282.542C182.538 282.416 182.454 282.206 182.454 281.87C182.454 281.618 182.58 281.324 182.916 281.072C183.168 280.862 183.588 280.736 184.176 280.652C184.428 280.61 184.974 280.568 185.772 280.526C186.528 280.526 187.326 280.568 188.082 280.652C188.712 280.736 189.258 280.862 189.762 281.03C190.224 281.24 190.476 281.492 190.476 281.828C190.476 282.122 190.434 282.416 190.35 282.752C190.266 283.004 190.224 283.256 190.182 283.508C190.098 283.844 190.098 284.138 190.098 284.474V309.422ZM173.928 289.43C174.474 289.346 174.894 289.178 175.23 288.926L175.776 288.674C175.944 288.59 176.154 288.506 176.406 288.464C176.784 288.422 177.204 288.38 177.624 288.338C178.044 288.338 178.422 288.38 178.8 288.422C179.136 288.506 179.43 288.59 179.682 288.716C179.892 288.884 180.018 289.136 180.018 289.43C180.018 289.682 179.934 289.892 179.808 290.144C179.64 290.396 179.472 290.648 179.304 290.858C179.22 291.026 179.136 291.11 179.052 291.194C178.968 291.32 178.884 291.446 178.842 291.572C176.994 296.108 174.684 300.182 171.828 303.794C168.93 307.406 165.486 310.682 161.538 313.622C160.866 314.042 160.404 314.084 160.068 313.706C159.9 313.538 159.858 313.328 159.9 313.076C159.9 312.866 160.026 312.614 160.32 312.32C163.428 309.38 166.2 306.188 168.636 302.744C171.072 299.384 173.004 295.646 174.474 291.572C173.046 291.824 171.786 292.034 170.652 292.202C169.476 292.412 168.51 292.58 167.754 292.748C167.46 292.832 167.208 292.916 166.998 293C166.746 293.168 166.578 293.294 166.41 293.42C166.074 293.672 165.738 293.84 165.36 293.966C164.94 294.134 164.52 294.176 164.058 294.05C163.302 293.882 162.546 293.672 161.874 293.336C161.16 293.084 160.698 292.874 160.488 292.706C160.152 292.538 160.026 292.286 160.026 291.992C160.026 291.656 160.152 291.404 160.446 291.236C160.698 291.11 161.076 291.026 161.538 290.984C162.21 291.026 162.882 291.026 163.596 290.942C164.268 290.9 164.898 290.858 165.486 290.774L169.308 290.228C170.862 290.018 172.416 289.766 173.928 289.43ZM227.244 295.898L228.168 295.772C228.462 295.73 228.756 295.646 229.008 295.478C229.26 295.352 229.47 295.184 229.68 295.016C229.89 294.848 230.1 294.68 230.31 294.554C230.478 294.47 230.73 294.386 231.066 294.302C231.528 294.26 231.99 294.218 232.494 294.218C232.956 294.218 233.418 294.26 233.922 294.302C234.342 294.428 234.72 294.596 234.972 294.848C235.224 295.142 235.35 295.436 235.35 295.73C235.35 296.696 234.678 297.242 233.418 297.41L227.244 298.166V309.716V312.362C227.202 313.454 227.118 314.462 226.992 315.47C226.824 316.436 226.614 317.276 226.362 318.032C226.026 318.746 225.606 319.166 225.06 319.25C224.094 319.376 223.632 317.612 223.632 313.958V305.264C222.12 306.02 220.524 306.734 218.844 307.406C217.122 308.162 215.442 308.792 213.846 309.338C212.166 309.926 210.612 310.43 209.184 310.808C207.714 311.228 206.454 311.522 205.446 311.606C203.976 311.816 202.968 311.564 202.38 310.892C201.75 310.262 201.456 309.212 201.456 307.784V294.68C201.456 294.176 201.246 293.756 200.826 293.42C200.364 293.168 199.65 292.916 198.684 292.706C198.348 292.664 198.096 292.58 197.928 292.412C197.718 292.286 197.634 292.076 197.634 291.74C197.634 291.488 197.76 291.194 198.096 290.942C198.348 290.732 198.768 290.606 199.356 290.522C199.44 290.522 199.65 290.522 199.986 290.48C200.238 290.48 200.574 290.438 200.994 290.396H202.17C202.548 290.396 202.926 290.438 203.346 290.438C203.472 290.522 203.598 290.522 203.724 290.522C203.808 290.522 203.892 290.564 204.018 290.564L211.494 289.472C211.788 289.43 212.04 289.346 212.292 289.178C212.502 289.052 212.712 288.884 212.964 288.674C213.174 288.506 213.384 288.38 213.636 288.254C213.804 288.17 214.056 288.086 214.392 288.002C214.854 287.96 215.4 287.918 216.03 287.876C216.618 287.876 217.164 287.876 217.668 287.96C218.088 288.044 218.466 288.212 218.718 288.464C218.97 288.758 219.096 289.052 219.096 289.346C219.096 290.312 218.424 290.858 217.164 291.026C215.148 291.32 213.174 291.572 211.242 291.824L205.362 292.706V299.258L210.948 298.418C211.242 298.376 211.494 298.292 211.746 298.124C211.956 297.998 212.166 297.83 212.418 297.662C212.628 297.494 212.838 297.368 213.09 297.242C213.258 297.158 213.51 297.074 213.846 296.99C214.308 296.948 214.854 296.906 215.484 296.864C216.072 296.864 216.618 296.864 217.122 296.906C217.542 297.032 217.92 297.2 218.172 297.452C218.424 297.746 218.55 298.04 218.55 298.334C218.55 299.3 217.878 299.846 216.618 300.014L210.99 300.77C209.1 301.064 207.21 301.316 205.362 301.568V307.574C205.362 307.91 205.404 308.078 205.53 308.12C205.614 308.204 205.74 308.246 205.992 308.204C208.806 307.868 211.704 307.196 214.728 306.23C217.668 305.306 220.65 304.214 223.632 302.954V285.104C223.632 284.558 223.38 284.138 222.876 283.844C222.372 283.592 221.616 283.34 220.65 283.13C220.314 283.088 220.062 283.004 219.894 282.836C219.684 282.71 219.6 282.5 219.6 282.164C219.6 281.912 219.726 281.618 220.062 281.366C220.314 281.156 220.734 281.03 221.322 280.946C221.574 280.904 222.12 280.862 222.918 280.82C223.674 280.82 224.472 280.862 225.228 280.946C225.858 281.03 226.404 281.156 226.908 281.324C227.37 281.534 227.622 281.786 227.622 282.122C227.622 282.416 227.58 282.71 227.496 283.046C227.412 283.298 227.37 283.55 227.328 283.802C227.244 284.138 227.244 284.432 227.244 284.768V295.898Z" fill="white"/>
<g filter="url(#filter0_f_153_746)">
<circle cx="286.5" cy="170.5" r="5.5" fill="white"/>
<circle cx="286.5" cy="170.5" r="4" stroke="white" stroke-width="3"/>
</g>
<g filter="url(#filter1_f_153_746)">
<circle cx="342.818" cy="33.4863" r="5.5" fill="white"/>
<circle cx="342.818" cy="33.4863" r="4" stroke="white" stroke-width="3"/>
</g>
<g filter="url(#filter2_f_153_746)">
<circle cx="254.5" cy="80.5" r="5.5" fill="white"/>
<circle cx="254.5" cy="80.5" r="4" stroke="white" stroke-width="3"/>
</g>
<g filter="url(#filter3_f_153_746)">
<path d="M110.776 69C110.776 71.2091 108.986 73 106.776 73C104.567 73 102.776 71.2091 102.776 69C102.776 66.7909 104.567 65 106.776 65C108.986 65 110.776 66.7909 110.776 69Z" fill="white"/>
<path d="M109.276 69C109.276 70.3807 108.157 71.5 106.776 71.5C105.396 71.5 104.276 70.3807 104.276 69C104.276 67.6193 105.396 66.5 106.776 66.5C108.157 66.5 109.276 67.6193 109.276 69Z" stroke="white" stroke-width="3"/>
</g>
<g filter="url(#filter4_f_153_746)">
<circle cx="363" cy="191" r="4" fill="white"/>
<circle cx="363" cy="191" r="2.5" stroke="white" stroke-width="3"/>
</g>
<g filter="url(#filter5_f_153_746)">
<circle cx="287" cy="116" r="4" fill="white"/>
<circle cx="287" cy="116" r="2.5" stroke="white" stroke-width="3"/>
</g>
<g filter="url(#filter6_f_153_746)">
<circle cx="259.517" cy="41.3516" r="4" fill="white"/>
<circle cx="259.517" cy="41.3516" r="2.5" stroke="white" stroke-width="3"/>
</g>
<g filter="url(#filter7_f_153_746)">
<circle cx="321" cy="8" r="4" fill="white"/>
<circle cx="321" cy="8" r="2.5" stroke="white" stroke-width="3"/>
</g>
<g filter="url(#filter8_f_153_746)">
<circle cx="8" cy="131" r="4" fill="white"/>
<circle cx="8" cy="131" r="2.5" stroke="white" stroke-width="3"/>
</g>
<g filter="url(#filter9_f_153_746)">
<path d="M390 174C390 176.209 388.209 178 386 178C383.791 178 382 176.209 382 174C382 171.791 383.791 170 386 170C388.209 170 390 171.791 390 174Z" fill="white"/>
<path d="M388.5 174C388.5 175.381 387.381 176.5 386 176.5C384.619 176.5 383.5 175.381 383.5 174C383.5 172.619 384.619 171.5 386 171.5C387.381 171.5 388.5 172.619 388.5 174Z" stroke="white" stroke-width="3"/>
</g>
<g filter="url(#filter10_f_153_746)">
<circle cx="105.287" cy="128.189" r="4" fill="white"/>
<circle cx="105.287" cy="128.189" r="2.5" stroke="white" stroke-width="3"/>
</g>
<path d="M104.695 127.595L106.4 69.7028" stroke="white" stroke-opacity="0.4" stroke-width="1.2" stroke-linecap="round"/>
<path d="M104.695 127.595L287.044 171.014" stroke="white" stroke-opacity="0.4" stroke-width="1.2" stroke-linecap="round"/>
<path d="M287.044 115.676L287.044 171.014" stroke="white" stroke-opacity="0.4" stroke-width="1.2" stroke-linecap="round"/>
<path d="M362.881 190.595L287.044 171.014" stroke="white" stroke-opacity="0.4" stroke-width="1.2" stroke-linecap="round"/>
<path d="M287.044 115.676L254.664 80.7704" stroke="white" stroke-opacity="0.4" stroke-width="1.2" stroke-linecap="round"/>
<path d="M258.925 40.7568L254.664 80.7703" stroke="white" stroke-opacity="0.4" stroke-width="1.2" stroke-linecap="round"/>
<path d="M258.925 40.7568L321.128 8.40549" stroke="white" stroke-opacity="0.4" stroke-width="1.2" stroke-linecap="round"/>
<path d="M342.43 33.0947L321.128 8.40554" stroke="white" stroke-opacity="0.4" stroke-width="1.2" stroke-linecap="round"/>
<path d="M105.547 69.7026L8.40841 131" stroke="white" stroke-opacity="0.4" stroke-width="1.2" stroke-linecap="round"/>
<path d="M252.108 80.7705L106 69.0002" stroke="white" stroke-opacity="0.4" stroke-width="1.2" stroke-linecap="round"/>
<path d="M385.887 173.567L287 171" stroke="white" stroke-opacity="0.4" stroke-width="1.2" stroke-linecap="round"/>
<defs>
<filter id="filter0_f_153_746" x="277" y="161" width="19" height="19" filterUnits="userSpaceOnUse" color-interpolation-filters="sRGB">
<feFlood flood-opacity="0" result="BackgroundImageFix"/>
<feBlend mode="normal" in="SourceGraphic" in2="BackgroundImageFix" result="shape"/>
<feGaussianBlur stdDeviation="2" result="effect1_foregroundBlur_153_746"/>
</filter>
<filter id="filter1_f_153_746" x="333.318" y="23.9863" width="19" height="19" filterUnits="userSpaceOnUse" color-interpolation-filters="sRGB">
<feFlood flood-opacity="0" result="BackgroundImageFix"/>
<feBlend mode="normal" in="SourceGraphic" in2="BackgroundImageFix" result="shape"/>
<feGaussianBlur stdDeviation="2" result="effect1_foregroundBlur_153_746"/>
</filter>
<filter id="filter2_f_153_746" x="245" y="71" width="19" height="19" filterUnits="userSpaceOnUse" color-interpolation-filters="sRGB">
<feFlood flood-opacity="0" result="BackgroundImageFix"/>
<feBlend mode="normal" in="SourceGraphic" in2="BackgroundImageFix" result="shape"/>
<feGaussianBlur stdDeviation="2" result="effect1_foregroundBlur_153_746"/>
</filter>
<filter id="filter3_f_153_746" x="98.7764" y="61" width="16" height="16" filterUnits="userSpaceOnUse" color-interpolation-filters="sRGB">
<feFlood flood-opacity="0" result="BackgroundImageFix"/>
<feBlend mode="normal" in="SourceGraphic" in2="BackgroundImageFix" result="shape"/>
<feGaussianBlur stdDeviation="2" result="effect1_foregroundBlur_153_746"/>
</filter>
<filter id="filter4_f_153_746" x="355" y="183" width="16" height="16" filterUnits="userSpaceOnUse" color-interpolation-filters="sRGB">
<feFlood flood-opacity="0" result="BackgroundImageFix"/>
<feBlend mode="normal" in="SourceGraphic" in2="BackgroundImageFix" result="shape"/>
<feGaussianBlur stdDeviation="2" result="effect1_foregroundBlur_153_746"/>
</filter>
<filter id="filter5_f_153_746" x="279" y="108" width="16" height="16" filterUnits="userSpaceOnUse" color-interpolation-filters="sRGB">
<feFlood flood-opacity="0" result="BackgroundImageFix"/>
<feBlend mode="normal" in="SourceGraphic" in2="BackgroundImageFix" result="shape"/>
<feGaussianBlur stdDeviation="2" result="effect1_foregroundBlur_153_746"/>
</filter>
<filter id="filter6_f_153_746" x="251.517" y="33.3516" width="16" height="16" filterUnits="userSpaceOnUse" color-interpolation-filters="sRGB">
<feFlood flood-opacity="0" result="BackgroundImageFix"/>
<feBlend mode="normal" in="SourceGraphic" in2="BackgroundImageFix" result="shape"/>
<feGaussianBlur stdDeviation="2" result="effect1_foregroundBlur_153_746"/>
</filter>
<filter id="filter7_f_153_746" x="313" y="0" width="16" height="16" filterUnits="userSpaceOnUse" color-interpolation-filters="sRGB">
<feFlood flood-opacity="0" result="BackgroundImageFix"/>
<feBlend mode="normal" in="SourceGraphic" in2="BackgroundImageFix" result="shape"/>
<feGaussianBlur stdDeviation="2" result="effect1_foregroundBlur_153_746"/>
</filter>
<filter id="filter8_f_153_746" x="0" y="123" width="16" height="16" filterUnits="userSpaceOnUse" color-interpolation-filters="sRGB">
<feFlood flood-opacity="0" result="BackgroundImageFix"/>
<feBlend mode="normal" in="SourceGraphic" in2="BackgroundImageFix" result="shape"/>
<feGaussianBlur stdDeviation="2" result="effect1_foregroundBlur_153_746"/>
</filter>
<filter id="filter9_f_153_746" x="378" y="166" width="16" height="16" filterUnits="userSpaceOnUse" color-interpolation-filters="sRGB">
<feFlood flood-opacity="0" result="BackgroundImageFix"/>
<feBlend mode="normal" in="SourceGraphic" in2="BackgroundImageFix" result="shape"/>
<feGaussianBlur stdDeviation="2" result="effect1_foregroundBlur_153_746"/>
</filter>
<filter id="filter10_f_153_746" x="97.287" y="120.189" width="16" height="16" filterUnits="userSpaceOnUse" color-interpolation-filters="sRGB">
<feFlood flood-opacity="0" result="BackgroundImageFix"/>
<feBlend mode="normal" in="SourceGraphic" in2="BackgroundImageFix" result="shape"/>
<feGaussianBlur stdDeviation="2" result="effect1_foregroundBlur_153_746"/>
</filter>
</defs>
</svg>
