<svg width="371" height="341" viewBox="0 0 371 341" fill="none" xmlns="http://www.w3.org/2000/svg">
<path d="M106.143 16.5752L125.647 6.90629" stroke="white" stroke-opacity="0.4" stroke-width="1.2" stroke-linecap="round"/>
<path d="M109.286 33.0798L125.786 7.14373" stroke="white" stroke-opacity="0.4" stroke-width="1.2" stroke-linecap="round"/>
<path d="M81.7857 128.965L109.286 33.0799" stroke="white" stroke-opacity="0.4" stroke-width="1.2" stroke-linecap="round"/>
<path d="M81.7857 128.965L48 182.409" stroke="white" stroke-opacity="0.4" stroke-width="1.2" stroke-linecap="round"/>
<path d="M7.92859 232.709L48 182.409" stroke="white" stroke-opacity="0.4" stroke-width="1.2" stroke-linecap="round"/>
<path d="M7.92859 232.709L136 192.626" stroke="white" stroke-opacity="0.4" stroke-width="1.2" stroke-linecap="round"/>
<path d="M165.857 194.198L136.786 192.626" stroke="white" stroke-opacity="0.4" stroke-width="1.2" stroke-linecap="round"/>
<path d="M166.643 194.198L267.214 198.914" stroke="white" stroke-opacity="0.4" stroke-width="1.2" stroke-linecap="round"/>
<path d="M308.857 209.131L267.214 198.914" stroke="white" stroke-opacity="0.4" stroke-width="1.2" stroke-linecap="round"/>
<path d="M308.857 209.131L335.571 201.271" stroke="white" stroke-opacity="0.4" stroke-width="1.2" stroke-linecap="round"/>
<path d="M309.643 242.927L341.857 246.071" stroke="white" stroke-opacity="0.4" stroke-width="1.2" stroke-linecap="round"/>
<path d="M307.286 242.141L308.857 209.131" stroke="white" stroke-opacity="0.4" stroke-width="1.2" stroke-linecap="round"/>
<path d="M335.179 201.271L363.857 227.208L342.643 246.07" stroke="white" stroke-opacity="0.4" stroke-width="1.2" stroke-linecap="round"/>
<path d="M109.286 33.0798L106.143 16.575" stroke="white" stroke-opacity="0.4" stroke-width="1.2" stroke-linecap="round"/>
<g filter="url(#filter0_f_152_797)">
<ellipse cx="125" cy="7.14377" rx="3.14286" ry="3.14377" fill="white"/>
<path d="M126.643 7.14377C126.643 8.05201 125.907 8.78754 125 8.78754C124.093 8.78754 123.357 8.05201 123.357 7.14377C123.357 6.23553 124.093 5.5 125 5.5C125.907 5.5 126.643 6.23553 126.643 7.14377Z" stroke="white" stroke-width="3"/>
</g>
<g filter="url(#filter1_f_152_797)">
<ellipse cx="108.893" cy="32.6869" rx="3.53572" ry="3.53674" fill="white"/>
<path d="M110.929 32.6869C110.929 33.8122 110.017 34.7236 108.893 34.7236C107.769 34.7236 106.857 33.8122 106.857 32.6869C106.857 31.5616 107.769 30.6501 108.893 30.6501C110.017 30.6501 110.929 31.5616 110.929 32.6869Z" stroke="white" stroke-width="3"/>
</g>
<g filter="url(#filter2_f_152_797)">
<ellipse cx="109.679" cy="32.6869" rx="4.32143" ry="4.32268" fill="white"/>
<path d="M112.5 32.6869C112.5 34.2463 111.236 35.5096 109.679 35.5096C108.121 35.5096 106.857 34.2463 106.857 32.6869C106.857 31.1276 108.121 29.8643 109.679 29.8643C111.236 29.8643 112.5 31.1276 112.5 32.6869Z" stroke="white" stroke-width="3"/>
</g>
<g filter="url(#filter3_f_152_797)">
<ellipse cx="81.7857" cy="128.179" rx="3.14286" ry="3.14377" fill="white"/>
<path d="M83.4286 128.179C83.4286 129.087 82.6927 129.823 81.7857 129.823C80.8788 129.823 80.1429 129.087 80.1429 128.179C80.1429 127.271 80.8788 126.535 81.7857 126.535C82.6927 126.535 83.4286 127.271 83.4286 128.179Z" stroke="white" stroke-width="3"/>
</g>
<g filter="url(#filter4_f_152_797)">
<ellipse cx="48" cy="181.623" rx="3.14286" ry="3.14377" fill="white"/>
<path d="M49.6428 181.623C49.6428 182.531 48.9069 183.267 48 183.267C47.0931 183.267 46.3571 182.531 46.3571 181.623C46.3571 180.715 47.0931 179.979 48 179.979C48.9069 179.979 49.6428 180.715 49.6428 181.623Z" stroke="white" stroke-width="3"/>
</g>
<g filter="url(#filter5_f_152_797)">
<ellipse cx="8.32143" cy="232.316" rx="4.32143" ry="4.32269" fill="white"/>
<path d="M11.1429 232.316C11.1429 233.876 9.87925 235.139 8.32143 235.139C6.76361 235.139 5.5 233.876 5.5 232.316C5.5 230.757 6.76361 229.494 8.32143 229.494C9.87925 229.494 11.1429 230.757 11.1429 232.316Z" stroke="white" stroke-width="3"/>
</g>
<g filter="url(#filter6_f_152_797)">
<ellipse cx="136" cy="191.84" rx="3.14285" ry="3.14377" fill="white"/>
<path d="M137.643 191.84C137.643 192.748 136.907 193.484 136 193.484C135.093 193.484 134.357 192.748 134.357 191.84C134.357 190.932 135.093 190.196 136 190.196C136.907 190.196 137.643 190.932 137.643 191.84Z" stroke="white" stroke-width="3"/>
</g>
<g filter="url(#filter7_f_152_797)">
<ellipse cx="165.857" cy="194.198" rx="3.14286" ry="3.14378" fill="white"/>
<path d="M167.5 194.198C167.5 195.106 166.764 195.842 165.857 195.842C164.95 195.842 164.214 195.106 164.214 194.198C164.214 193.29 164.95 192.554 165.857 192.554C166.764 192.554 167.5 193.29 167.5 194.198Z" stroke="white" stroke-width="3"/>
</g>
<g filter="url(#filter8_f_152_797)">
<ellipse cx="307.286" cy="242.14" rx="3.14285" ry="3.14377" fill="white"/>
<path d="M308.929 242.14C308.929 243.049 308.193 243.784 307.286 243.784C306.379 243.784 305.643 243.049 305.643 242.14C305.643 241.232 306.379 240.497 307.286 240.497C308.193 240.497 308.929 241.232 308.929 242.14Z" stroke="white" stroke-width="3"/>
</g>
<g filter="url(#filter9_f_152_797)">
<ellipse cx="341.857" cy="246.856" rx="3.14285" ry="3.14377" fill="white"/>
<path d="M343.5 246.856C343.5 247.764 342.764 248.5 341.857 248.5C340.95 248.5 340.214 247.764 340.214 246.856C340.214 245.948 340.95 245.212 341.857 245.212C342.764 245.212 343.5 245.948 343.5 246.856Z" stroke="white" stroke-width="3"/>
</g>
<g filter="url(#filter10_f_152_797)">
<ellipse cx="363.857" cy="227.208" rx="3.14285" ry="3.14377" fill="white"/>
<path d="M365.5 227.208C365.5 228.116 364.764 228.852 363.857 228.852C362.95 228.852 362.214 228.116 362.214 227.208C362.214 226.299 362.95 225.564 363.857 225.564C364.764 225.564 365.5 226.299 365.5 227.208Z" stroke="white" stroke-width="3"/>
</g>
<g filter="url(#filter11_f_152_797)">
<ellipse cx="267.214" cy="198.914" rx="3.14285" ry="3.14377" fill="white"/>
<path d="M268.857 198.914C268.857 199.822 268.121 200.558 267.214 200.558C266.307 200.558 265.571 199.822 265.571 198.914C265.571 198.006 266.307 197.27 267.214 197.27C268.121 197.27 268.857 198.006 268.857 198.914Z" stroke="white" stroke-width="3"/>
</g>
<g filter="url(#filter12_f_152_797)">
<ellipse cx="309.643" cy="208.345" rx="3.14285" ry="3.14377" fill="white"/>
<path d="M311.286 208.345C311.286 209.253 310.55 209.989 309.643 209.989C308.736 209.989 308 209.253 308 208.345C308 207.437 308.736 206.701 309.643 206.701C310.55 206.701 311.286 207.437 311.286 208.345Z" stroke="white" stroke-width="3"/>
</g>
<g filter="url(#filter13_f_152_797)">
<ellipse cx="334.786" cy="201.272" rx="3.14285" ry="3.14377" fill="white"/>
<path d="M336.429 201.272C336.429 202.18 335.693 202.915 334.786 202.915C333.879 202.915 333.143 202.18 333.143 201.272C333.143 200.363 333.879 199.628 334.786 199.628C335.693 199.628 336.429 200.363 336.429 201.272Z" stroke="white" stroke-width="3"/>
</g>
<g filter="url(#filter14_f_152_797)">
<ellipse cx="106.143" cy="16.5752" rx="3.14286" ry="3.14377" fill="white"/>
<path d="M107.786 16.5752C107.786 17.4834 107.05 18.2189 106.143 18.2189C105.236 18.2189 104.5 17.4834 104.5 16.5752C104.5 15.6669 105.236 14.9314 106.143 14.9314C107.05 14.9314 107.786 15.6669 107.786 16.5752Z" stroke="white" stroke-width="3"/>
</g>
<path d="M182.164 324.808C181.24 324.892 180.232 325.018 179.056 325.102C177.838 325.27 176.578 325.396 175.234 325.564C173.428 325.816 171.58 326.026 169.732 326.278C167.8 326.53 165.994 326.782 164.314 327.034L159.652 327.748C158.224 328 157.132 328.21 156.376 328.42C156.04 328.504 155.746 328.588 155.452 328.756C155.116 328.84 154.822 328.966 154.57 329.134C154.066 329.386 153.562 329.596 153.058 329.764C152.512 329.932 151.966 329.932 151.378 329.806C150.538 329.596 149.782 329.344 149.11 329.008C148.354 328.672 147.892 328.42 147.64 328.252C147.262 328.042 147.094 327.79 147.094 327.412C147.094 326.992 147.262 326.698 147.598 326.53C147.892 326.404 148.312 326.32 148.816 326.278C149.614 326.32 150.496 326.32 151.504 326.236C152.428 326.194 153.268 326.11 154.024 326.026C154.276 326.026 154.654 325.942 155.242 325.858C155.788 325.816 156.46 325.732 157.216 325.606C157.93 325.522 158.728 325.438 159.652 325.312C160.534 325.228 161.458 325.102 162.424 324.934V317.038C162.424 316.492 162.172 316.072 161.668 315.778C161.164 315.526 160.408 315.316 159.442 315.064C159.106 315.022 158.854 314.938 158.686 314.77C158.476 314.644 158.392 314.434 158.392 314.098C158.392 313.846 158.518 313.594 158.854 313.342C159.106 313.132 159.526 312.964 160.114 312.88C160.366 312.88 160.912 312.838 161.71 312.796C162.466 312.796 163.264 312.796 164.02 312.88C164.86 312.964 165.448 313.132 165.784 313.3C166.036 313.51 166.204 313.804 166.204 314.182C166.204 314.434 166.162 314.728 166.12 314.98C166.078 315.148 166.078 315.358 166.078 315.568C166.036 315.82 166.036 316.072 166.036 316.282L165.952 324.472L170.782 323.8C172.252 323.59 173.344 323.38 174.1 323.212C174.982 323.044 175.654 322.834 176.116 322.624C176.536 322.456 176.914 322.288 177.25 322.12C177.46 322.036 177.67 321.91 177.88 321.826C178.048 321.784 178.258 321.742 178.594 321.658C178.846 321.658 179.14 321.616 179.56 321.574C179.896 321.574 180.274 321.532 180.694 321.532C181.072 321.532 181.45 321.574 181.87 321.574C182.206 321.616 182.542 321.658 182.836 321.658C183.886 321.868 184.432 322.288 184.432 322.96C184.432 323.464 184.222 323.842 183.844 324.178C183.424 324.514 182.878 324.724 182.164 324.808ZM178.342 302.338C178.258 302.884 178.174 303.598 178.09 304.438C177.922 305.362 177.796 306.328 177.628 307.336C177.46 308.386 177.25 309.478 177.082 310.57C176.83 311.746 176.62 312.838 176.452 313.846C176.2 314.896 175.99 315.862 175.822 316.702C175.57 317.626 175.36 318.34 175.192 318.844C174.94 319.432 174.688 319.768 174.436 319.936C174.142 320.104 173.89 320.188 173.638 320.188C172.966 320.188 172.714 319.684 172.882 318.718C172.966 317.962 173.092 316.87 173.218 315.484C173.302 314.14 173.428 312.712 173.554 311.116L173.806 306.454C173.848 304.942 173.89 303.556 173.932 302.338L172.63 302.506C171.538 302.674 170.362 302.8 169.102 302.968C167.758 303.178 166.498 303.346 165.28 303.514L161.878 304.06C160.87 304.27 160.114 304.438 159.61 304.522C159.274 304.606 159.022 304.69 158.812 304.774C158.56 304.942 158.308 305.068 158.14 305.152C157.72 305.404 157.3 305.572 156.88 305.74C156.46 305.95 155.998 305.992 155.494 305.866C154.738 305.698 153.982 305.446 153.31 305.068C152.596 304.732 152.134 304.522 151.924 304.354C151.588 304.186 151.462 303.934 151.462 303.64C151.462 303.304 151.588 303.052 151.882 302.884C152.134 302.758 152.512 302.674 152.974 302.632C153.646 302.674 154.318 302.674 155.032 302.59C155.704 302.548 156.334 302.506 156.922 302.422C157.216 302.422 157.762 302.338 158.56 302.212C159.316 302.128 160.156 302.002 161.164 301.834C162.13 301.75 163.18 301.582 164.314 301.414C165.406 301.288 166.498 301.12 167.548 300.952C168.556 300.826 169.522 300.7 170.404 300.532C171.244 300.448 171.958 300.322 172.462 300.196C172.798 300.154 173.05 300.07 173.302 299.986C173.47 299.902 173.638 299.818 173.806 299.692L174.352 299.44C174.52 299.356 174.73 299.272 174.982 299.23C175.36 299.188 175.78 299.146 176.284 299.104C176.746 299.104 177.208 299.104 177.628 299.146C178.006 299.23 178.342 299.314 178.636 299.44C178.888 299.608 179.056 299.86 179.056 300.154C179.056 300.322 179.014 300.448 178.972 300.574C178.888 300.742 178.804 300.91 178.762 301.036C178.678 301.204 178.594 301.372 178.552 301.54C178.468 301.75 178.384 302.002 178.342 302.338ZM205.072 311.956C205.072 312.586 205.03 313.258 205.03 314.014C204.988 314.77 204.904 315.484 204.778 316.156C204.61 316.828 204.4 317.416 204.148 317.878C203.812 318.382 203.392 318.634 202.888 318.718C202.594 318.76 202.342 318.676 202.174 318.466C201.964 318.298 201.796 317.962 201.67 317.374L193.438 318.382C193.27 319.054 193.06 319.642 192.808 320.104C192.472 320.608 192.052 320.86 191.548 320.902C191.086 320.986 190.75 320.692 190.498 320.062C190.246 319.474 190.12 318.256 190.12 316.408V307.798C190.12 307.252 189.91 306.832 189.574 306.496C189.154 306.244 188.482 305.992 187.558 305.74C187.222 305.698 186.97 305.614 186.802 305.446C186.592 305.362 186.508 305.152 186.508 304.816C186.508 304.564 186.634 304.27 186.97 304.018C187.222 303.808 187.642 303.682 188.23 303.598C188.482 303.556 188.986 303.514 189.658 303.514C190.288 303.514 190.96 303.556 191.716 303.598C192.346 303.682 192.85 303.85 193.228 304.102C193.564 304.354 193.732 304.648 193.732 304.942V308.554L201.46 307.63V304.732C201.46 304.228 201.25 303.808 200.83 303.472C200.368 303.178 199.654 302.926 198.688 302.716C198.352 302.674 198.1 302.59 197.932 302.422C197.722 302.296 197.638 302.086 197.638 301.75C197.638 301.498 197.764 301.204 198.1 300.952C198.352 300.742 198.772 300.616 199.36 300.532C199.612 300.49 200.116 300.448 200.872 300.448C201.544 300.448 202.3 300.49 203.056 300.532C203.686 300.616 204.19 300.742 204.568 300.994C204.904 301.288 205.072 301.582 205.072 301.876V311.956ZM212.464 305.824L216.16 305.362V298.684C216.16 298.138 215.908 297.718 215.404 297.424C214.9 297.172 214.144 296.92 213.178 296.71C212.842 296.626 212.59 296.542 212.422 296.374C212.212 296.29 212.128 296.08 212.128 295.744C212.128 295.492 212.254 295.198 212.59 294.946C212.842 294.736 213.262 294.61 213.85 294.526C214.102 294.484 214.648 294.442 215.446 294.4C216.202 294.4 217 294.442 217.756 294.484C218.386 294.568 218.932 294.694 219.436 294.862C219.898 295.072 220.15 295.324 220.15 295.66C220.15 295.954 220.108 296.29 220.024 296.626C219.94 296.878 219.898 297.13 219.856 297.382C219.772 297.676 219.772 297.97 219.772 298.306V309.268C219.772 309.898 219.73 310.654 219.73 311.494C219.688 312.418 219.604 313.258 219.478 314.098C219.31 314.938 219.1 315.652 218.848 316.24C218.512 316.87 218.092 317.206 217.588 317.29C217.126 317.374 216.79 317.08 216.538 316.45C216.286 315.862 216.16 314.644 216.16 312.796V307.924L212.464 308.386V310.108C212.464 310.738 212.422 311.494 212.422 312.334C212.38 313.258 212.296 314.098 212.17 314.896C212.002 315.736 211.792 316.492 211.54 317.08C211.204 317.71 210.784 318.046 210.28 318.088C210.028 318.13 209.86 318.088 209.692 317.92C209.524 317.836 209.356 317.584 209.272 317.248C209.104 316.912 209.02 316.45 208.978 315.862C208.894 315.274 208.852 314.518 208.852 313.594V301.96C208.852 301.414 208.6 300.994 208.096 300.7C207.592 300.448 206.836 300.196 205.87 299.986C205.534 299.944 205.282 299.86 205.114 299.692C204.904 299.566 204.82 299.356 204.82 299.02C204.82 298.768 204.946 298.474 205.282 298.222C205.534 298.012 205.954 297.886 206.542 297.802C206.794 297.76 207.34 297.718 208.138 297.676C208.894 297.676 209.692 297.718 210.448 297.802C211.078 297.886 211.624 298.012 212.128 298.18C212.59 298.39 212.842 298.642 212.842 298.978C212.842 299.272 212.8 299.566 212.716 299.902C212.632 300.154 212.59 300.406 212.548 300.658C212.464 300.994 212.464 301.288 212.464 301.624V305.824ZM219.184 327.37C219.184 327.79 219.142 328.336 219.058 329.008C218.932 329.638 218.806 330.268 218.638 330.94C218.428 331.528 218.176 332.074 217.924 332.578C217.63 333.04 217.294 333.292 216.958 333.376C216.412 333.418 216.034 333.082 215.866 332.368C215.614 331.612 215.53 330.268 215.53 328.42V321.364C214.9 321.448 214.06 321.574 213.052 321.7L209.818 322.204C208.684 322.372 207.634 322.54 206.626 322.708C205.576 322.918 204.778 323.086 204.274 323.212C204.022 323.296 203.77 323.38 203.56 323.464C203.308 323.632 203.098 323.758 202.93 323.842C202.594 324.052 202.258 324.22 201.88 324.388C201.46 324.556 200.998 324.598 200.536 324.472C199.78 324.304 199.024 324.094 198.352 323.758C197.596 323.464 197.134 323.254 196.924 323.086C196.588 322.918 196.462 322.666 196.462 322.33C196.462 321.994 196.588 321.742 196.882 321.574C197.134 321.49 197.512 321.406 197.974 321.364C198.646 321.406 199.318 321.406 200.032 321.322C200.704 321.28 201.334 321.196 201.922 321.112C202.426 321.07 203.224 320.986 204.274 320.818C205.282 320.692 206.332 320.524 207.508 320.356L210.826 319.852C211.918 319.684 212.8 319.558 213.514 319.39C213.934 319.306 214.312 319.18 214.564 319.096C214.774 319.012 214.984 318.928 215.152 318.802C215.32 318.718 215.53 318.634 215.74 318.55C215.908 318.466 216.118 318.424 216.412 318.34C216.748 318.34 217.168 318.298 217.588 318.256C217.966 318.256 218.344 318.298 218.722 318.34C219.058 318.424 219.394 318.55 219.646 318.676C219.856 318.844 219.982 319.096 219.982 319.348C219.982 319.642 219.898 319.978 219.73 320.398C219.646 320.65 219.604 320.944 219.52 321.238C219.436 321.574 219.352 321.994 219.352 322.456L219.184 327.37ZM193.732 311.116V314.938C193.732 315.232 193.69 315.526 193.69 315.82L201.46 314.854V310.192L193.732 311.116Z" fill="white"/>
<defs>
<filter id="filter0_f_152_797" x="117.857" y="0" width="14.2857" height="14.2876" filterUnits="userSpaceOnUse" color-interpolation-filters="sRGB">
<feFlood flood-opacity="0" result="BackgroundImageFix"/>
<feBlend mode="normal" in="SourceGraphic" in2="BackgroundImageFix" result="shape"/>
<feGaussianBlur stdDeviation="2" result="effect1_foregroundBlur_152_797"/>
</filter>
<filter id="filter1_f_152_797" x="101.357" y="25.1501" width="15.0714" height="15.0735" filterUnits="userSpaceOnUse" color-interpolation-filters="sRGB">
<feFlood flood-opacity="0" result="BackgroundImageFix"/>
<feBlend mode="normal" in="SourceGraphic" in2="BackgroundImageFix" result="shape"/>
<feGaussianBlur stdDeviation="2" result="effect1_foregroundBlur_152_797"/>
</filter>
<filter id="filter2_f_152_797" x="101.357" y="24.3643" width="16.6429" height="16.6453" filterUnits="userSpaceOnUse" color-interpolation-filters="sRGB">
<feFlood flood-opacity="0" result="BackgroundImageFix"/>
<feBlend mode="normal" in="SourceGraphic" in2="BackgroundImageFix" result="shape"/>
<feGaussianBlur stdDeviation="2" result="effect1_foregroundBlur_152_797"/>
</filter>
<filter id="filter3_f_152_797" x="74.6429" y="121.035" width="14.2857" height="14.2876" filterUnits="userSpaceOnUse" color-interpolation-filters="sRGB">
<feFlood flood-opacity="0" result="BackgroundImageFix"/>
<feBlend mode="normal" in="SourceGraphic" in2="BackgroundImageFix" result="shape"/>
<feGaussianBlur stdDeviation="2" result="effect1_foregroundBlur_152_797"/>
</filter>
<filter id="filter4_f_152_797" x="40.8571" y="174.479" width="14.2857" height="14.2874" filterUnits="userSpaceOnUse" color-interpolation-filters="sRGB">
<feFlood flood-opacity="0" result="BackgroundImageFix"/>
<feBlend mode="normal" in="SourceGraphic" in2="BackgroundImageFix" result="shape"/>
<feGaussianBlur stdDeviation="2" result="effect1_foregroundBlur_152_797"/>
</filter>
<filter id="filter5_f_152_797" x="0" y="223.994" width="16.6429" height="16.6455" filterUnits="userSpaceOnUse" color-interpolation-filters="sRGB">
<feFlood flood-opacity="0" result="BackgroundImageFix"/>
<feBlend mode="normal" in="SourceGraphic" in2="BackgroundImageFix" result="shape"/>
<feGaussianBlur stdDeviation="2" result="effect1_foregroundBlur_152_797"/>
</filter>
<filter id="filter6_f_152_797" x="128.857" y="184.696" width="14.2857" height="14.2876" filterUnits="userSpaceOnUse" color-interpolation-filters="sRGB">
<feFlood flood-opacity="0" result="BackgroundImageFix"/>
<feBlend mode="normal" in="SourceGraphic" in2="BackgroundImageFix" result="shape"/>
<feGaussianBlur stdDeviation="2" result="effect1_foregroundBlur_152_797"/>
</filter>
<filter id="filter7_f_152_797" x="158.714" y="187.054" width="14.2857" height="14.2876" filterUnits="userSpaceOnUse" color-interpolation-filters="sRGB">
<feFlood flood-opacity="0" result="BackgroundImageFix"/>
<feBlend mode="normal" in="SourceGraphic" in2="BackgroundImageFix" result="shape"/>
<feGaussianBlur stdDeviation="2" result="effect1_foregroundBlur_152_797"/>
</filter>
<filter id="filter8_f_152_797" x="300.143" y="234.997" width="14.2857" height="14.2876" filterUnits="userSpaceOnUse" color-interpolation-filters="sRGB">
<feFlood flood-opacity="0" result="BackgroundImageFix"/>
<feBlend mode="normal" in="SourceGraphic" in2="BackgroundImageFix" result="shape"/>
<feGaussianBlur stdDeviation="2" result="effect1_foregroundBlur_152_797"/>
</filter>
<filter id="filter9_f_152_797" x="334.714" y="239.712" width="14.2857" height="14.2876" filterUnits="userSpaceOnUse" color-interpolation-filters="sRGB">
<feFlood flood-opacity="0" result="BackgroundImageFix"/>
<feBlend mode="normal" in="SourceGraphic" in2="BackgroundImageFix" result="shape"/>
<feGaussianBlur stdDeviation="2" result="effect1_foregroundBlur_152_797"/>
</filter>
<filter id="filter10_f_152_797" x="356.714" y="220.064" width="14.2857" height="14.2876" filterUnits="userSpaceOnUse" color-interpolation-filters="sRGB">
<feFlood flood-opacity="0" result="BackgroundImageFix"/>
<feBlend mode="normal" in="SourceGraphic" in2="BackgroundImageFix" result="shape"/>
<feGaussianBlur stdDeviation="2" result="effect1_foregroundBlur_152_797"/>
</filter>
<filter id="filter11_f_152_797" x="260.071" y="191.77" width="14.2857" height="14.2876" filterUnits="userSpaceOnUse" color-interpolation-filters="sRGB">
<feFlood flood-opacity="0" result="BackgroundImageFix"/>
<feBlend mode="normal" in="SourceGraphic" in2="BackgroundImageFix" result="shape"/>
<feGaussianBlur stdDeviation="2" result="effect1_foregroundBlur_152_797"/>
</filter>
<filter id="filter12_f_152_797" x="302.5" y="201.201" width="14.2857" height="14.2876" filterUnits="userSpaceOnUse" color-interpolation-filters="sRGB">
<feFlood flood-opacity="0" result="BackgroundImageFix"/>
<feBlend mode="normal" in="SourceGraphic" in2="BackgroundImageFix" result="shape"/>
<feGaussianBlur stdDeviation="2" result="effect1_foregroundBlur_152_797"/>
</filter>
<filter id="filter13_f_152_797" x="327.643" y="194.128" width="14.2857" height="14.2876" filterUnits="userSpaceOnUse" color-interpolation-filters="sRGB">
<feFlood flood-opacity="0" result="BackgroundImageFix"/>
<feBlend mode="normal" in="SourceGraphic" in2="BackgroundImageFix" result="shape"/>
<feGaussianBlur stdDeviation="2" result="effect1_foregroundBlur_152_797"/>
</filter>
<filter id="filter14_f_152_797" x="99" y="9.4314" width="14.2857" height="14.2876" filterUnits="userSpaceOnUse" color-interpolation-filters="sRGB">
<feFlood flood-opacity="0" result="BackgroundImageFix"/>
<feBlend mode="normal" in="SourceGraphic" in2="BackgroundImageFix" result="shape"/>
<feGaussianBlur stdDeviation="2" result="effect1_foregroundBlur_152_797"/>
</filter>
</defs>
</svg>
