<svg width="318" height="412" viewBox="0 0 318 412" fill="none" xmlns="http://www.w3.org/2000/svg">
<path d="M124.194 380.814C124.11 380.31 123.984 379.89 123.816 379.512C123.606 379.176 123.06 378.924 122.178 378.714C121.842 378.672 121.59 378.588 121.422 378.42C121.212 378.294 121.128 378.084 121.128 377.748C121.128 377.496 121.254 377.202 121.59 376.95C121.842 376.74 122.262 376.614 122.85 376.53C123.102 376.53 123.606 376.488 124.278 376.446C124.908 376.446 125.58 376.488 126.336 376.572C126.42 376.572 126.546 376.614 126.672 376.614C126.756 376.656 126.84 376.656 126.924 376.656L136.08 375.144C136.5 375.102 136.878 375.018 137.13 374.892C137.34 374.808 137.55 374.724 137.76 374.556C137.928 374.43 138.138 374.304 138.348 374.178C138.516 374.094 138.768 374.052 139.104 374.01C139.44 373.968 139.86 373.926 140.28 373.884C140.7 373.884 141.078 373.926 141.456 373.968C141.792 374.052 142.128 374.136 142.38 374.262C142.59 374.43 142.716 374.682 142.716 374.976C142.716 375.27 142.632 375.648 142.464 376.068C142.38 376.32 142.338 376.572 142.254 376.866C142.17 377.202 142.086 377.58 142.044 378C141.876 380.1 141.75 382.116 141.624 384.048C141.456 386.022 141.33 388.038 141.204 390.096C142.086 390.222 142.548 390.642 142.548 391.356C142.548 391.902 142.338 392.28 141.918 392.448C141.498 392.7 140.994 392.826 140.448 392.91L128.184 394.422C128.016 395.094 127.764 395.514 127.512 395.766C127.176 396.018 126.882 396.186 126.588 396.228C126 396.312 125.622 396.06 125.412 395.556C125.16 395.052 124.992 394.212 124.95 392.952L124.194 380.814ZM151.746 380.898L152.67 380.772C152.964 380.73 153.258 380.646 153.51 380.478C153.762 380.352 153.972 380.184 154.182 380.016C154.392 379.848 154.602 379.68 154.812 379.554C154.98 379.47 155.232 379.386 155.568 379.302C156.03 379.26 156.492 379.218 156.996 379.218C157.458 379.218 157.92 379.26 158.424 379.302C158.844 379.428 159.222 379.596 159.474 379.848C159.726 380.142 159.852 380.436 159.852 380.73C159.852 381.696 159.18 382.242 157.92 382.41L151.746 383.166V394.716V397.362C151.704 398.454 151.62 399.462 151.494 400.47C151.326 401.436 151.116 402.276 150.864 403.032C150.528 403.746 150.108 404.166 149.562 404.25C148.596 404.376 148.134 402.612 148.134 398.958V370.104C148.134 369.558 147.882 369.138 147.378 368.844C146.874 368.592 146.118 368.34 145.152 368.13C144.816 368.088 144.564 368.004 144.396 367.836C144.186 367.71 144.102 367.5 144.102 367.164C144.102 366.912 144.228 366.618 144.564 366.366C144.816 366.156 145.236 366.03 145.824 365.946C146.076 365.904 146.622 365.862 147.42 365.82C148.176 365.82 148.974 365.862 149.73 365.946C150.36 366.03 150.906 366.156 151.41 366.324C151.872 366.534 152.124 366.786 152.124 367.122C152.124 367.416 152.082 367.71 151.998 368.046C151.914 368.298 151.872 368.55 151.83 368.802C151.746 369.138 151.746 369.432 151.746 369.768V380.898ZM138.012 377.37C136.416 377.622 134.778 377.832 133.182 378.042C131.502 378.294 129.906 378.546 128.31 378.756C128.31 380.94 128.352 383.082 128.394 385.182C128.394 387.282 128.436 389.424 128.478 391.608V391.986L138.012 390.6V377.37ZM170.622 397.572C170.58 397.32 170.538 397.068 170.538 396.816C170.454 396.648 170.37 396.438 170.244 396.27C170.076 396.102 169.866 395.976 169.614 395.808C169.32 395.682 168.942 395.556 168.522 395.472C168.186 395.43 167.934 395.346 167.766 395.178C167.556 395.052 167.472 394.842 167.472 394.506C167.472 394.254 167.598 393.96 167.934 393.708C168.186 393.498 168.606 393.372 169.194 393.288C169.446 393.246 169.908 393.204 170.58 393.204C171.168 393.204 171.84 393.246 172.596 393.33L173.1 393.414L185.28 391.566C185.658 391.524 185.994 391.44 186.288 391.314C186.54 391.23 186.75 391.104 186.96 390.936C187.128 390.852 187.338 390.726 187.548 390.6C187.716 390.516 187.968 390.474 188.304 390.39C188.64 390.39 189.06 390.348 189.48 390.306C189.858 390.306 190.236 390.348 190.614 390.39C190.95 390.474 191.286 390.6 191.538 390.726C191.748 390.894 191.874 391.146 191.874 391.398C191.874 391.65 191.832 391.86 191.79 392.07L191.538 392.826C191.454 393.078 191.412 393.288 191.37 393.54C191.286 393.834 191.202 394.128 191.202 394.422C191.034 395.514 190.908 396.522 190.782 397.488C190.614 398.496 190.488 399.546 190.362 400.638C191.244 400.722 191.706 401.1 191.706 401.856C191.706 402.318 191.454 402.654 191.034 402.906C190.572 403.116 190.11 403.284 189.606 403.368C188.472 403.536 187.296 403.704 186.036 403.872C184.734 403.998 183.432 404.166 182.172 404.334L178.266 404.838C176.964 405.006 175.746 405.132 174.57 405.3C174.36 405.972 174.108 406.434 173.814 406.728C173.478 406.98 173.184 407.148 172.932 407.19C172.344 407.232 171.966 407.022 171.756 406.56C171.504 406.056 171.294 405.216 171.21 403.956L170.622 397.572ZM170.412 376.95C170.412 375.816 170.622 374.724 171.126 373.716C171.588 372.75 172.26 371.868 173.142 371.07C173.982 370.314 174.99 369.684 176.208 369.138C177.384 368.634 178.728 368.298 180.156 368.13C181.584 367.962 182.886 368.004 184.104 368.172C185.28 368.424 186.33 368.802 187.212 369.306C188.052 369.894 188.766 370.608 189.27 371.448C189.732 372.372 189.984 373.38 189.984 374.514C189.984 375.69 189.732 376.74 189.27 377.706C188.766 378.714 188.052 379.596 187.212 380.352C186.33 381.15 185.28 381.78 184.104 382.284C182.886 382.83 181.584 383.166 180.156 383.334C178.728 383.502 177.384 383.502 176.208 383.25C174.99 383.082 173.982 382.704 173.142 382.116C172.26 381.612 171.588 380.898 171.126 379.974C170.622 379.134 170.412 378.126 170.412 376.95ZM196.62 386.484C195.696 386.568 194.688 386.694 193.512 386.778C192.294 386.946 190.992 387.072 189.648 387.24C187.842 387.492 185.994 387.702 184.104 387.954C182.172 388.206 180.366 388.458 178.644 388.71C176.88 389.004 175.326 389.256 173.94 389.466C172.512 389.718 171.42 389.97 170.664 390.138C170.076 390.306 169.488 390.558 168.9 390.852C168.438 391.104 167.976 391.314 167.514 391.44C167.01 391.608 166.464 391.65 165.876 391.482C165.036 391.314 164.28 391.02 163.608 390.684C162.852 390.348 162.39 390.096 162.138 389.928C161.76 389.76 161.592 389.466 161.592 389.088C161.592 388.668 161.76 388.374 162.096 388.206C162.39 388.08 162.81 387.996 163.314 387.954C164.112 387.996 164.994 387.996 166.002 387.912C166.926 387.87 167.766 387.786 168.522 387.702C168.9 387.66 169.614 387.576 170.622 387.408C171.588 387.324 172.722 387.156 174.066 386.988C175.326 386.82 176.712 386.652 178.224 386.442C179.694 386.274 181.122 386.064 182.508 385.854C183.852 385.686 185.112 385.476 186.246 385.308C187.338 385.14 188.178 385.014 188.766 384.888C189.648 384.72 190.32 384.51 190.782 384.3C191.202 384.132 191.496 384.006 191.748 383.838C191.916 383.712 192.126 383.586 192.336 383.502C192.504 383.46 192.714 383.418 193.05 383.334C193.302 383.334 193.596 383.292 194.016 383.25C194.352 383.25 194.73 383.208 195.15 383.208C195.528 383.208 195.906 383.25 196.326 383.25C196.662 383.292 196.998 383.334 197.292 383.334C198.342 383.544 198.888 383.964 198.888 384.636C198.888 385.14 198.678 385.518 198.3 385.854C197.88 386.232 197.334 386.442 196.62 386.484ZM174.276 376.446C174.276 378.042 174.822 379.218 175.956 379.932C177.048 380.688 178.476 380.94 180.24 380.688C182.004 380.478 183.432 379.848 184.566 378.84C185.658 377.874 186.246 376.572 186.246 374.976C186.246 373.38 185.658 372.246 184.566 371.49C183.432 370.818 182.004 370.566 180.24 370.776C178.476 371.028 177.048 371.616 175.956 372.582C174.822 373.59 174.276 374.85 174.276 376.446ZM187.254 393.834C185.154 394.17 183.096 394.464 180.996 394.716L174.696 395.598C174.696 396.774 174.738 397.95 174.78 399.084C174.78 400.218 174.822 401.394 174.864 402.57V402.822L187.212 401.016C187.212 399.756 187.212 398.58 187.254 397.404V393.834Z" fill="white"/>
<path d="M69.4654 64.5427L62.6876 36.8119" stroke="white" stroke-opacity="0.4" stroke-width="1.2" stroke-linecap="round"/>
<path d="M69.4654 64.5427L27.5659 69.4726" stroke="white" stroke-opacity="0.4" stroke-width="1.2" stroke-linecap="round"/>
<path d="M69.4654 64.5427L58.9905 155.746" stroke="white" stroke-opacity="0.4" stroke-width="1.2" stroke-linecap="round"/>
<path d="M58.9907 155.746L8.46477 220.452" stroke="white" stroke-opacity="0.4" stroke-width="1.2" stroke-linecap="round"/>
<path d="M8.46463 220.451L71.9301 346.781" stroke="white" stroke-opacity="0.4" stroke-width="1.2" stroke-linecap="round"/>
<path d="M98.4255 217.987L58.9906 155.746" stroke="white" stroke-opacity="0.4" stroke-width="1.2" stroke-linecap="round"/>
<path d="M98.4255 217.987L132.931 329.526" stroke="white" stroke-opacity="0.4" stroke-width="1.2" stroke-linecap="round"/>
<path d="M69.4654 64.5427L115.062 79.9487" stroke="white" stroke-opacity="0.4" stroke-width="1.2" stroke-linecap="round"/>
<path d="M174.214 87.3438L115.062 79.9489" stroke="white" stroke-opacity="0.4" stroke-width="1.2" stroke-linecap="round"/>
<path d="M174.214 87.3438L262.943 82.4138" stroke="white" stroke-opacity="0.4" stroke-width="1.2" stroke-linecap="round"/>
<path d="M174.214 87.3438L137.86 9.69752" stroke="white" stroke-opacity="0.4" stroke-width="1.2" stroke-linecap="round"/>
<path d="M174.214 87.3438L198.245 195.802" stroke="white" stroke-opacity="0.4" stroke-width="1.2" stroke-linecap="round"/>
<path d="M241.377 287.622L198.245 195.802" stroke="white" stroke-opacity="0.4" stroke-width="1.2" stroke-linecap="round"/>
<path d="M241.377 287.622L267.872 296.865" stroke="white" stroke-opacity="0.4" stroke-width="1.2" stroke-linecap="round"/>
<path d="M309.772 301.795L267.872 296.865" stroke="white" stroke-opacity="0.4" stroke-width="1.2" stroke-linecap="round"/>
<path d="M193.316 304.876L198.245 195.802" stroke="white" stroke-opacity="0.4" stroke-width="1.2" stroke-linecap="round"/>
<g filter="url(#filter0_f_153_600)">
<circle cx="28" cy="69" r="4" fill="white"/>
<circle cx="28" cy="69" r="2.5" stroke="white" stroke-width="3"/>
</g>
<g filter="url(#filter1_f_153_600)">
<circle cx="72" cy="347" r="4" fill="white"/>
<circle cx="72" cy="347" r="2.5" stroke="white" stroke-width="3"/>
</g>
<g filter="url(#filter2_f_153_600)">
<circle cx="132.5" cy="329.5" r="5.5" fill="white"/>
<circle cx="132.5" cy="329.5" r="4" stroke="white" stroke-width="3"/>
</g>
<g filter="url(#filter3_f_153_600)">
<circle cx="69" cy="65" r="4" fill="white"/>
<circle cx="69" cy="65" r="2.5" stroke="white" stroke-width="3"/>
</g>
<g filter="url(#filter4_f_153_600)">
<circle cx="62.5" cy="36.5" r="5.5" fill="white"/>
<circle cx="62.5" cy="36.5" r="4" stroke="white" stroke-width="3"/>
</g>
<g filter="url(#filter5_f_153_600)">
<circle cx="59" cy="156" r="4" fill="white"/>
<circle cx="59" cy="156" r="2.5" stroke="white" stroke-width="3"/>
</g>
<g filter="url(#filter6_f_153_600)">
<circle cx="116" cy="80" r="4" fill="white"/>
<circle cx="116" cy="80" r="2.5" stroke="white" stroke-width="3"/>
</g>
<g filter="url(#filter7_f_153_600)">
<circle cx="174" cy="87" r="4" fill="white"/>
<circle cx="174" cy="87" r="2.5" stroke="white" stroke-width="3"/>
</g>
<g filter="url(#filter8_f_153_600)">
<circle cx="310" cy="302" r="4" fill="white"/>
<circle cx="310" cy="302" r="2.5" stroke="white" stroke-width="3"/>
</g>
<g filter="url(#filter9_f_153_600)">
<circle cx="268" cy="297" r="4" fill="white"/>
<circle cx="268" cy="297" r="2.5" stroke="white" stroke-width="3"/>
</g>
<g filter="url(#filter10_f_153_600)">
<circle cx="198" cy="196" r="4" fill="white"/>
<circle cx="198" cy="196" r="2.5" stroke="white" stroke-width="3"/>
</g>
<g filter="url(#filter11_f_153_600)">
<circle cx="193" cy="305" r="4" fill="white"/>
<circle cx="193" cy="305" r="2.5" stroke="white" stroke-width="3"/>
</g>
<g filter="url(#filter12_f_153_600)">
<circle cx="240.5" cy="287.5" r="5.5" fill="white"/>
<circle cx="240.5" cy="287.5" r="4" stroke="white" stroke-width="3"/>
</g>
<g filter="url(#filter13_f_153_600)">
<circle cx="264" cy="82" r="4" fill="white"/>
<circle cx="264" cy="82" r="2.5" stroke="white" stroke-width="3"/>
</g>
<g filter="url(#filter14_f_153_600)">
<circle cx="99.7617" cy="219.719" r="4" fill="white"/>
<circle cx="99.7617" cy="219.719" r="2.5" stroke="white" stroke-width="3"/>
</g>
<g filter="url(#filter15_f_153_600)">
<circle cx="8" cy="220" r="4" fill="white"/>
<circle cx="8" cy="220" r="2.5" stroke="white" stroke-width="3"/>
</g>
<g filter="url(#filter16_f_153_600)">
<circle cx="137.5" cy="9.5" r="5.5" fill="white"/>
<circle cx="137.5" cy="9.5" r="4" stroke="white" stroke-width="3"/>
</g>
<defs>
<filter id="filter0_f_153_600" x="20" y="61" width="16" height="16" filterUnits="userSpaceOnUse" color-interpolation-filters="sRGB">
<feFlood flood-opacity="0" result="BackgroundImageFix"/>
<feBlend mode="normal" in="SourceGraphic" in2="BackgroundImageFix" result="shape"/>
<feGaussianBlur stdDeviation="2" result="effect1_foregroundBlur_153_600"/>
</filter>
<filter id="filter1_f_153_600" x="64" y="339" width="16" height="16" filterUnits="userSpaceOnUse" color-interpolation-filters="sRGB">
<feFlood flood-opacity="0" result="BackgroundImageFix"/>
<feBlend mode="normal" in="SourceGraphic" in2="BackgroundImageFix" result="shape"/>
<feGaussianBlur stdDeviation="2" result="effect1_foregroundBlur_153_600"/>
</filter>
<filter id="filter2_f_153_600" x="123" y="320" width="19" height="19" filterUnits="userSpaceOnUse" color-interpolation-filters="sRGB">
<feFlood flood-opacity="0" result="BackgroundImageFix"/>
<feBlend mode="normal" in="SourceGraphic" in2="BackgroundImageFix" result="shape"/>
<feGaussianBlur stdDeviation="2" result="effect1_foregroundBlur_153_600"/>
</filter>
<filter id="filter3_f_153_600" x="61" y="57" width="16" height="16" filterUnits="userSpaceOnUse" color-interpolation-filters="sRGB">
<feFlood flood-opacity="0" result="BackgroundImageFix"/>
<feBlend mode="normal" in="SourceGraphic" in2="BackgroundImageFix" result="shape"/>
<feGaussianBlur stdDeviation="2" result="effect1_foregroundBlur_153_600"/>
</filter>
<filter id="filter4_f_153_600" x="53" y="27" width="19" height="19" filterUnits="userSpaceOnUse" color-interpolation-filters="sRGB">
<feFlood flood-opacity="0" result="BackgroundImageFix"/>
<feBlend mode="normal" in="SourceGraphic" in2="BackgroundImageFix" result="shape"/>
<feGaussianBlur stdDeviation="2" result="effect1_foregroundBlur_153_600"/>
</filter>
<filter id="filter5_f_153_600" x="51" y="148" width="16" height="16" filterUnits="userSpaceOnUse" color-interpolation-filters="sRGB">
<feFlood flood-opacity="0" result="BackgroundImageFix"/>
<feBlend mode="normal" in="SourceGraphic" in2="BackgroundImageFix" result="shape"/>
<feGaussianBlur stdDeviation="2" result="effect1_foregroundBlur_153_600"/>
</filter>
<filter id="filter6_f_153_600" x="108" y="72" width="16" height="16" filterUnits="userSpaceOnUse" color-interpolation-filters="sRGB">
<feFlood flood-opacity="0" result="BackgroundImageFix"/>
<feBlend mode="normal" in="SourceGraphic" in2="BackgroundImageFix" result="shape"/>
<feGaussianBlur stdDeviation="2" result="effect1_foregroundBlur_153_600"/>
</filter>
<filter id="filter7_f_153_600" x="166" y="79" width="16" height="16" filterUnits="userSpaceOnUse" color-interpolation-filters="sRGB">
<feFlood flood-opacity="0" result="BackgroundImageFix"/>
<feBlend mode="normal" in="SourceGraphic" in2="BackgroundImageFix" result="shape"/>
<feGaussianBlur stdDeviation="2" result="effect1_foregroundBlur_153_600"/>
</filter>
<filter id="filter8_f_153_600" x="302" y="294" width="16" height="16" filterUnits="userSpaceOnUse" color-interpolation-filters="sRGB">
<feFlood flood-opacity="0" result="BackgroundImageFix"/>
<feBlend mode="normal" in="SourceGraphic" in2="BackgroundImageFix" result="shape"/>
<feGaussianBlur stdDeviation="2" result="effect1_foregroundBlur_153_600"/>
</filter>
<filter id="filter9_f_153_600" x="260" y="289" width="16" height="16" filterUnits="userSpaceOnUse" color-interpolation-filters="sRGB">
<feFlood flood-opacity="0" result="BackgroundImageFix"/>
<feBlend mode="normal" in="SourceGraphic" in2="BackgroundImageFix" result="shape"/>
<feGaussianBlur stdDeviation="2" result="effect1_foregroundBlur_153_600"/>
</filter>
<filter id="filter10_f_153_600" x="190" y="188" width="16" height="16" filterUnits="userSpaceOnUse" color-interpolation-filters="sRGB">
<feFlood flood-opacity="0" result="BackgroundImageFix"/>
<feBlend mode="normal" in="SourceGraphic" in2="BackgroundImageFix" result="shape"/>
<feGaussianBlur stdDeviation="2" result="effect1_foregroundBlur_153_600"/>
</filter>
<filter id="filter11_f_153_600" x="185" y="297" width="16" height="16" filterUnits="userSpaceOnUse" color-interpolation-filters="sRGB">
<feFlood flood-opacity="0" result="BackgroundImageFix"/>
<feBlend mode="normal" in="SourceGraphic" in2="BackgroundImageFix" result="shape"/>
<feGaussianBlur stdDeviation="2" result="effect1_foregroundBlur_153_600"/>
</filter>
<filter id="filter12_f_153_600" x="231" y="278" width="19" height="19" filterUnits="userSpaceOnUse" color-interpolation-filters="sRGB">
<feFlood flood-opacity="0" result="BackgroundImageFix"/>
<feBlend mode="normal" in="SourceGraphic" in2="BackgroundImageFix" result="shape"/>
<feGaussianBlur stdDeviation="2" result="effect1_foregroundBlur_153_600"/>
</filter>
<filter id="filter13_f_153_600" x="256" y="74" width="16" height="16" filterUnits="userSpaceOnUse" color-interpolation-filters="sRGB">
<feFlood flood-opacity="0" result="BackgroundImageFix"/>
<feBlend mode="normal" in="SourceGraphic" in2="BackgroundImageFix" result="shape"/>
<feGaussianBlur stdDeviation="2" result="effect1_foregroundBlur_153_600"/>
</filter>
<filter id="filter14_f_153_600" x="91.7617" y="211.719" width="16" height="16" filterUnits="userSpaceOnUse" color-interpolation-filters="sRGB">
<feFlood flood-opacity="0" result="BackgroundImageFix"/>
<feBlend mode="normal" in="SourceGraphic" in2="BackgroundImageFix" result="shape"/>
<feGaussianBlur stdDeviation="2" result="effect1_foregroundBlur_153_600"/>
</filter>
<filter id="filter15_f_153_600" x="0" y="212" width="16" height="16" filterUnits="userSpaceOnUse" color-interpolation-filters="sRGB">
<feFlood flood-opacity="0" result="BackgroundImageFix"/>
<feBlend mode="normal" in="SourceGraphic" in2="BackgroundImageFix" result="shape"/>
<feGaussianBlur stdDeviation="2" result="effect1_foregroundBlur_153_600"/>
</filter>
<filter id="filter16_f_153_600" x="128" y="0" width="19" height="19" filterUnits="userSpaceOnUse" color-interpolation-filters="sRGB">
<feFlood flood-opacity="0" result="BackgroundImageFix"/>
<feBlend mode="normal" in="SourceGraphic" in2="BackgroundImageFix" result="shape"/>
<feGaussianBlur stdDeviation="2" result="effect1_foregroundBlur_153_600"/>
</filter>
</defs>
</svg>
