<svg width="176" height="393" viewBox="0 0 176 393" fill="none" xmlns="http://www.w3.org/2000/svg">
<path d="M78.6952 361.898L79.6192 361.772C79.9132 361.73 80.2072 361.646 80.4592 361.478C80.7112 361.352 80.9212 361.184 81.1312 361.016C81.3412 360.848 81.5512 360.68 81.7612 360.554C81.9292 360.47 82.1812 360.386 82.5172 360.302C82.9792 360.26 83.4412 360.218 83.9452 360.218C84.4072 360.218 84.8692 360.26 85.3732 360.302C85.7932 360.428 86.1712 360.596 86.4232 360.848C86.6752 361.142 86.8012 361.436 86.8012 361.73C86.8012 362.696 86.1292 363.242 84.8692 363.41L78.6952 364.166V375.716V378.362C78.6532 379.454 78.5692 380.462 78.4432 381.47C78.2752 382.436 78.0652 383.276 77.8132 384.032C77.4772 384.746 77.0572 385.166 76.5112 385.25C75.5452 385.376 75.0832 383.612 75.0832 379.958V351.104C75.0832 350.558 74.8312 350.138 74.3272 349.844C73.8232 349.592 73.0672 349.34 72.1012 349.13C71.7652 349.088 71.5132 349.004 71.3452 348.836C71.1352 348.71 71.0512 348.5 71.0512 348.164C71.0512 347.912 71.1772 347.618 71.5132 347.366C71.7652 347.156 72.1852 347.03 72.7732 346.946C73.0252 346.904 73.5712 346.862 74.3692 346.82C75.1252 346.82 75.9232 346.862 76.6792 346.946C77.3092 347.03 77.8552 347.156 78.3592 347.324C78.8212 347.534 79.0732 347.786 79.0732 348.122C79.0732 348.416 79.0312 348.71 78.9472 349.046C78.8632 349.298 78.8212 349.55 78.7792 349.802C78.6952 350.138 78.6952 350.432 78.6952 350.768V361.898ZM64.2052 357.446C63.5752 359.756 62.6512 362.066 61.3912 364.376C61.7272 364.712 62.1472 365.09 62.5672 365.426C62.9452 365.846 63.3232 366.182 63.7012 366.518C64.0372 366.854 64.3732 367.148 64.7092 367.4C64.9612 367.652 65.1712 367.82 65.3392 367.904C65.5072 368.03 65.6752 368.114 65.9272 368.156C66.0952 368.24 66.3052 368.282 66.5572 368.324C66.8512 368.408 67.1872 368.534 67.5232 368.618C67.8592 368.744 68.1532 368.954 68.4052 369.206C68.8252 369.71 69.2452 370.256 69.6232 370.844C69.9592 371.474 70.2952 372.146 70.7152 372.86C70.9252 373.28 71.0092 373.7 70.9252 374.078C70.8412 374.414 70.6732 374.708 70.4212 374.918C70.1692 375.17 69.8332 375.296 69.4552 375.338C69.2032 375.338 68.9512 375.254 68.6152 375.086C68.2372 374.918 67.8172 374.624 67.3552 374.12L60.0052 366.77C58.6192 368.996 57.1072 371.138 55.4272 373.154C53.7052 375.212 51.9832 377.018 50.2192 378.53C49.8832 378.782 49.5892 378.95 49.2952 378.992C48.9592 379.076 48.6652 379.034 48.4552 378.824C48.2872 378.698 48.2452 378.488 48.2452 378.194C48.2032 377.942 48.3712 377.648 48.7492 377.27C49.8412 376.094 50.9332 374.75 52.0672 373.154C53.1592 371.642 54.2092 370.046 55.2172 368.366C56.1832 366.728 57.0652 365.048 57.8632 363.368C58.6192 361.73 59.1652 360.176 59.5852 358.748C59.6692 358.454 59.6692 358.202 59.6692 357.992C59.6272 357.824 59.5852 357.74 59.5432 357.656C59.3752 357.488 59.0812 357.32 58.6612 357.152C58.1992 356.984 57.6952 356.858 57.1492 356.69C56.6872 356.564 56.4352 356.396 56.3512 356.144C56.2252 355.976 56.1832 355.766 56.2672 355.514C56.3512 354.926 56.8972 354.59 57.9472 354.548C58.2412 354.548 58.6192 354.59 59.0812 354.59C59.5012 354.632 60.0052 354.674 60.5092 354.716C60.9712 354.8 61.4752 354.884 61.9792 354.968C62.4832 355.094 62.9452 355.22 63.3652 355.304C63.8692 355.472 64.2052 355.682 64.2892 356.018C64.3732 356.396 64.3312 356.858 64.2052 357.446ZM92.4892 365.426C92.4892 364.922 92.2792 364.502 91.8592 364.166C91.3972 363.914 90.6832 363.662 89.7172 363.452C89.3812 363.41 89.1292 363.326 88.9612 363.158C88.7512 363.032 88.6672 362.822 88.6672 362.486C88.6672 362.234 88.7932 361.94 89.1292 361.688C89.3812 361.478 89.8012 361.352 90.3892 361.268C90.4732 361.268 90.6832 361.268 90.9772 361.226C91.2292 361.226 91.5232 361.184 91.8592 361.142H92.9512C93.2872 361.142 93.6652 361.184 94.0432 361.184L104.417 359.714V354.212C103.913 354.296 103.367 354.38 102.779 354.464C102.191 354.548 101.561 354.674 100.973 354.758C100.301 354.884 99.7132 355.01 99.1252 355.094C98.5372 355.262 97.9912 355.388 97.4872 355.472C97.2352 355.556 96.9832 355.682 96.7732 355.766C96.5212 355.934 96.2692 356.06 96.0592 356.186C95.6812 356.438 95.3452 356.606 95.0092 356.774C94.6732 356.942 94.2112 356.984 93.7072 356.9C93.2872 356.858 92.9092 356.774 92.5732 356.648C92.1532 356.564 91.8172 356.438 91.4812 356.27C91.1452 356.144 90.8512 356.018 90.5992 355.85C90.3052 355.724 90.0952 355.598 90.0112 355.514C89.8852 355.43 89.7592 355.304 89.6752 355.136C89.5492 355.01 89.5072 354.842 89.5072 354.59C89.5072 354.254 89.6332 354.002 89.9272 353.834C90.1792 353.75 90.5572 353.666 91.0192 353.624C91.6912 353.666 92.3632 353.666 93.0772 353.582C93.7492 353.54 94.3792 353.498 94.9672 353.414C96.0592 353.288 97.2772 353.12 98.6212 352.868C99.9652 352.7 101.351 352.448 102.779 352.196C103.199 352.112 103.577 351.986 103.829 351.86C104.039 351.776 104.249 351.692 104.417 351.608C104.585 351.524 104.795 351.398 105.005 351.314C105.173 351.272 105.383 351.23 105.677 351.146C106.013 351.146 106.433 351.104 106.853 351.062C107.231 351.062 107.609 351.104 107.945 351.146C108.281 351.23 108.533 351.356 108.785 351.482C108.995 351.65 109.121 351.902 109.121 352.154C109.121 352.364 109.079 352.532 109.079 352.616C108.995 352.784 108.953 352.952 108.869 353.12C108.785 353.288 108.701 353.456 108.617 353.708C108.533 354.002 108.449 354.38 108.407 354.8C108.281 355.556 108.155 356.27 108.071 357.026C107.945 357.782 107.819 358.538 107.735 359.252C108.491 359.294 108.911 359.672 108.911 360.344C108.911 360.848 108.701 361.184 108.365 361.394C107.987 361.646 107.525 361.814 106.979 361.856L101.687 362.612C99.9232 362.864 98.1592 363.116 96.3952 363.326V368.03C96.3952 368.366 96.4372 368.534 96.5632 368.618C96.6472 368.702 96.7732 368.744 97.0252 368.702C99.7972 368.366 102.695 367.694 105.719 366.77C108.659 365.846 111.641 364.754 114.581 363.494V351.104C114.581 350.558 114.329 350.138 113.825 349.844C113.321 349.592 112.565 349.34 111.599 349.13C111.263 349.088 111.011 349.004 110.843 348.836C110.633 348.71 110.549 348.5 110.549 348.164C110.549 347.912 110.675 347.618 111.011 347.366C111.263 347.156 111.683 347.03 112.271 346.946C112.523 346.904 113.069 346.862 113.867 346.82C114.623 346.82 115.421 346.862 116.177 346.946C116.807 347.03 117.353 347.156 117.857 347.324C118.319 347.534 118.571 347.786 118.571 348.122C118.571 348.416 118.529 348.71 118.445 349.046C118.361 349.298 118.319 349.55 118.277 349.802C118.193 350.138 118.193 350.432 118.193 350.768V357.278L119.117 357.152C119.411 357.11 119.705 357.026 119.957 356.858C120.209 356.732 120.419 356.564 120.629 356.396C120.839 356.228 121.049 356.06 121.259 355.934C121.427 355.85 121.679 355.766 122.015 355.682C122.477 355.64 122.939 355.598 123.443 355.598C123.905 355.598 124.367 355.64 124.871 355.682C125.291 355.808 125.669 355.976 125.921 356.228C126.173 356.522 126.299 356.816 126.299 357.11C126.299 358.076 125.627 358.622 124.367 358.79L118.193 359.546V362.36C118.193 362.99 118.151 363.746 118.151 364.586C118.109 365.51 118.025 366.35 117.899 367.148C117.731 367.988 117.521 368.744 117.269 369.332C116.933 369.962 116.513 370.298 116.009 370.34C115.757 370.382 115.589 370.34 115.421 370.172C115.253 370.088 115.085 369.836 115.001 369.5C114.833 369.164 114.749 368.702 114.707 368.114C114.623 367.526 114.581 366.77 114.581 365.846V365.804C113.069 366.56 111.473 367.274 109.793 367.946C108.071 368.66 106.391 369.29 104.795 369.836C103.157 370.424 101.603 370.928 100.175 371.306C98.7052 371.726 97.4872 372.02 96.4792 372.104C95.0092 372.314 94.0012 372.062 93.4132 371.39C92.7832 370.76 92.4892 369.71 92.4892 368.282V365.426ZM99.1252 378.278C99.0412 377.774 98.9152 377.354 98.7472 377.018C98.4952 376.682 97.9492 376.43 97.0252 376.22C96.6892 376.136 96.4372 376.052 96.2692 375.884C96.0592 375.8 95.9752 375.59 95.9752 375.254C95.9752 375.002 96.1012 374.708 96.4372 374.456C96.6892 374.246 97.1092 374.12 97.6972 374.036C97.9492 373.994 98.4112 373.952 99.0832 373.952C99.6712 373.952 100.343 373.994 101.099 374.078C101.183 374.12 101.309 374.12 101.435 374.12C101.519 374.12 101.645 374.162 101.729 374.204L112.019 372.524C112.439 372.44 112.817 372.356 113.069 372.23C113.279 372.146 113.489 372.062 113.699 371.894C113.867 371.81 114.077 371.684 114.287 371.558C114.455 371.474 114.707 371.432 115.043 371.348C115.379 371.348 115.799 371.306 116.219 371.264C116.597 371.264 116.975 371.264 117.353 371.306C117.689 371.39 118.025 371.474 118.277 371.6C118.487 371.768 118.613 372.02 118.613 372.314C118.613 372.65 118.529 373.028 118.361 373.448C118.277 373.616 118.235 373.868 118.151 374.162C118.025 374.498 117.941 374.918 117.899 375.38L117.101 381.176C117.983 381.26 118.445 381.638 118.445 382.394C118.445 382.898 118.235 383.234 117.815 383.486C117.395 383.696 116.891 383.822 116.345 383.906L102.947 385.544C102.779 386.174 102.527 386.636 102.275 386.93C101.939 387.182 101.645 387.308 101.351 387.392C100.763 387.434 100.385 387.224 100.217 386.762C99.9652 386.258 99.7972 385.418 99.7132 384.158L99.1252 378.278ZM114.161 374.666C112.313 374.96 110.465 375.212 108.617 375.464C106.769 375.758 104.921 376.01 103.073 376.262C103.073 376.85 103.073 377.396 103.115 377.9C103.115 378.404 103.115 378.908 103.157 379.412C103.157 379.916 103.199 380.42 103.241 380.966V382.772V383.066L114.161 381.596V374.666Z" fill="white"/>
<g filter="url(#filter0_f_152_811)">
<circle cx="59" cy="8" r="4" fill="white"/>
<circle cx="59" cy="8" r="2.5" stroke="white" stroke-width="3"/>
</g>
<g filter="url(#filter1_f_152_811)">
<circle cx="68" cy="119" r="4" fill="white"/>
<circle cx="68" cy="119" r="2.5" stroke="white" stroke-width="3"/>
</g>
<g filter="url(#filter2_f_152_811)">
<circle cx="62" cy="170" r="4" fill="white"/>
<circle cx="62" cy="170" r="2.5" stroke="white" stroke-width="3"/>
</g>
<g filter="url(#filter3_f_152_811)">
<circle cx="8" cy="264" r="4" fill="white"/>
<circle cx="8" cy="264" r="2.5" stroke="white" stroke-width="3"/>
</g>
<g filter="url(#filter4_f_152_811)">
<circle cx="127" cy="254" r="4" fill="white"/>
<circle cx="127" cy="254" r="2.5" stroke="white" stroke-width="3"/>
</g>
<g filter="url(#filter5_f_152_811)">
<circle cx="166.5" cy="305.5" r="5.5" fill="white"/>
<circle cx="166.5" cy="305.5" r="4" stroke="white" stroke-width="3"/>
</g>
<path d="M68.4245 119.473L59.0283 8.13614" stroke="white" stroke-opacity="0.4" stroke-width="1.2" stroke-linecap="round"/>
<path d="M68.4245 119.473L62.1603 169.653" stroke="white" stroke-opacity="0.4" stroke-width="1.2" stroke-linecap="round"/>
<path d="M8.13208 263.74L62.1604 169.653" stroke="white" stroke-opacity="0.4" stroke-width="1.2" stroke-linecap="round"/>
<path d="M127.151 253.548L62.1604 169.653" stroke="white" stroke-opacity="0.4" stroke-width="1.2" stroke-linecap="round"/>
<path d="M127.151 253.548L167.085 306.08" stroke="white" stroke-opacity="0.4" stroke-width="1.2" stroke-linecap="round"/>
<defs>
<filter id="filter0_f_152_811" x="51" y="0" width="16" height="16" filterUnits="userSpaceOnUse" color-interpolation-filters="sRGB">
<feFlood flood-opacity="0" result="BackgroundImageFix"/>
<feBlend mode="normal" in="SourceGraphic" in2="BackgroundImageFix" result="shape"/>
<feGaussianBlur stdDeviation="2" result="effect1_foregroundBlur_152_811"/>
</filter>
<filter id="filter1_f_152_811" x="60" y="111" width="16" height="16" filterUnits="userSpaceOnUse" color-interpolation-filters="sRGB">
<feFlood flood-opacity="0" result="BackgroundImageFix"/>
<feBlend mode="normal" in="SourceGraphic" in2="BackgroundImageFix" result="shape"/>
<feGaussianBlur stdDeviation="2" result="effect1_foregroundBlur_152_811"/>
</filter>
<filter id="filter2_f_152_811" x="54" y="162" width="16" height="16" filterUnits="userSpaceOnUse" color-interpolation-filters="sRGB">
<feFlood flood-opacity="0" result="BackgroundImageFix"/>
<feBlend mode="normal" in="SourceGraphic" in2="BackgroundImageFix" result="shape"/>
<feGaussianBlur stdDeviation="2" result="effect1_foregroundBlur_152_811"/>
</filter>
<filter id="filter3_f_152_811" x="0" y="256" width="16" height="16" filterUnits="userSpaceOnUse" color-interpolation-filters="sRGB">
<feFlood flood-opacity="0" result="BackgroundImageFix"/>
<feBlend mode="normal" in="SourceGraphic" in2="BackgroundImageFix" result="shape"/>
<feGaussianBlur stdDeviation="2" result="effect1_foregroundBlur_152_811"/>
</filter>
<filter id="filter4_f_152_811" x="119" y="246" width="16" height="16" filterUnits="userSpaceOnUse" color-interpolation-filters="sRGB">
<feFlood flood-opacity="0" result="BackgroundImageFix"/>
<feBlend mode="normal" in="SourceGraphic" in2="BackgroundImageFix" result="shape"/>
<feGaussianBlur stdDeviation="2" result="effect1_foregroundBlur_152_811"/>
</filter>
<filter id="filter5_f_152_811" x="157" y="296" width="19" height="19" filterUnits="userSpaceOnUse" color-interpolation-filters="sRGB">
<feFlood flood-opacity="0" result="BackgroundImageFix"/>
<feBlend mode="normal" in="SourceGraphic" in2="BackgroundImageFix" result="shape"/>
<feGaussianBlur stdDeviation="2" result="effect1_foregroundBlur_152_811"/>
</filter>
</defs>
</svg>
