<svg width="392" height="411" viewBox="0 0 392 411" fill="none" xmlns="http://www.w3.org/2000/svg">
<path d="M178.01 378.218C178.01 379.646 177.758 380.906 177.296 382.04C176.792 383.216 176.12 384.266 175.28 385.106C174.398 385.988 173.39 386.702 172.256 387.206C171.08 387.752 169.862 388.088 168.602 388.256C167.3 388.424 166.082 388.382 164.948 388.088C163.772 387.836 162.806 387.374 161.966 386.702C161.084 386.072 160.412 385.232 159.95 384.182C159.446 383.174 159.194 381.956 159.194 380.528C159.194 379.142 159.446 377.882 159.95 376.706C160.412 375.572 161.084 374.564 161.966 373.682C162.806 372.842 163.772 372.128 164.948 371.582C166.082 371.078 167.3 370.7 168.602 370.532C169.862 370.364 171.08 370.406 172.256 370.658C173.39 370.952 174.398 371.414 175.28 372.044C176.12 372.716 176.792 373.556 177.296 374.564C177.758 375.614 178.01 376.832 178.01 378.218ZM188.972 385.778C188.972 386.408 188.93 387.164 188.93 388.004C188.888 388.928 188.804 389.768 188.678 390.566C188.51 391.406 188.3 392.162 188.048 392.75C187.712 393.38 187.292 393.716 186.788 393.758C186.536 393.8 186.368 393.758 186.2 393.632C186.032 393.548 185.864 393.296 185.78 392.96C185.612 392.624 185.528 392.162 185.486 391.574C185.402 390.986 185.36 390.23 185.36 389.306V382.628C185.192 382.712 185.024 382.712 184.856 382.712L184.352 382.838C183.932 383.006 183.638 383.132 183.428 383.3C183.176 383.51 182.966 383.636 182.756 383.72C182.504 383.846 182.168 383.846 181.706 383.762C181.454 383.762 181.202 383.678 180.95 383.594C180.656 383.552 180.362 383.468 180.11 383.342C179.774 383.258 179.522 383.174 179.27 383.048C179.018 382.964 178.808 382.838 178.64 382.754C178.136 382.544 177.926 382.25 177.926 381.83C177.926 381.62 177.968 381.41 178.136 381.242C178.262 381.116 178.514 381.032 178.934 380.948L180.026 380.822C180.236 380.822 180.446 380.78 180.698 380.78C180.866 380.78 181.076 380.78 181.328 380.696C181.832 380.654 182.42 380.57 183.176 380.486C183.848 380.402 184.604 380.318 185.36 380.192V373.934C185.108 374.018 184.898 374.06 184.688 374.102C184.436 374.186 184.184 374.228 183.932 374.27C183.512 374.438 183.176 374.606 183.008 374.774C182.756 374.942 182.546 375.068 182.336 375.152C182.084 375.278 181.748 375.32 181.286 375.236C181.034 375.236 180.782 375.152 180.53 375.068C180.236 374.984 179.942 374.9 179.69 374.816C179.354 374.732 179.102 374.648 178.85 374.522C178.598 374.438 178.388 374.312 178.22 374.228C177.968 374.102 177.8 373.976 177.716 373.808C177.548 373.724 177.506 373.556 177.506 373.304C177.506 373.094 177.548 372.884 177.716 372.716C177.842 372.59 178.094 372.506 178.514 372.422L179.606 372.254C179.816 372.254 180.026 372.212 180.278 372.212C180.446 372.212 180.656 372.212 180.908 372.17C181.454 372.086 182.126 372.002 182.966 371.876C183.722 371.792 184.52 371.666 185.36 371.54V368.852C185.36 368.306 185.108 367.886 184.604 367.592C184.1 367.34 183.344 367.088 182.378 366.836C182.042 366.794 181.79 366.71 181.622 366.542C181.412 366.416 181.328 366.206 181.328 365.87C181.328 365.618 181.454 365.366 181.79 365.114C182.042 364.904 182.462 364.736 183.05 364.652C183.302 364.652 183.848 364.61 184.646 364.568C185.402 364.568 186.2 364.568 186.956 364.652C187.586 364.736 188.132 364.862 188.636 365.03C189.098 365.24 189.35 365.492 189.35 365.828C189.35 366.122 189.308 366.416 189.224 366.752C189.14 367.004 189.098 367.298 189.056 367.55C188.972 367.844 188.972 368.138 188.972 368.474V385.778ZM174.146 378.722C174.146 376.79 173.6 375.362 172.592 374.438C171.5 373.556 170.198 373.22 168.602 373.43C166.964 373.64 165.62 374.312 164.612 375.446C163.562 376.622 163.058 378.176 163.058 380.108C163.058 381.998 163.562 383.384 164.612 384.308C165.62 385.232 166.964 385.61 168.602 385.4C169.358 385.316 170.114 385.064 170.828 384.686C171.5 384.35 172.088 383.846 172.592 383.258C173.054 382.712 173.432 382.04 173.726 381.242C173.978 380.486 174.146 379.646 174.146 378.722ZM184.268 399.722C184.562 399.638 184.814 399.554 185.066 399.428C185.276 399.26 185.486 399.134 185.738 398.966C185.948 398.756 186.158 398.588 186.41 398.504C186.578 398.378 186.83 398.294 187.166 398.252C187.628 398.168 188.09 398.168 188.594 398.168C189.056 398.168 189.518 398.168 190.022 398.252C190.442 398.336 190.82 398.504 191.072 398.798C191.324 399.05 191.45 399.344 191.45 399.68C191.45 400.604 190.778 401.15 189.518 401.318C186.83 401.654 184.184 401.99 181.622 402.368C179.018 402.704 176.372 403.04 173.684 403.418C171.248 403.754 170.072 402.662 170.072 400.226V396.026C170.072 395.522 169.82 395.102 169.358 394.766C168.854 394.514 168.14 394.262 167.174 394.052C166.838 394.01 166.586 393.926 166.418 393.758C166.208 393.632 166.124 393.422 166.124 393.086C166.124 392.834 166.25 392.54 166.586 392.288C166.838 392.078 167.258 391.952 167.846 391.868C168.098 391.826 168.644 391.784 169.442 391.742C170.198 391.742 170.996 391.784 171.752 391.826C172.382 391.91 172.886 392.078 173.264 392.33C173.6 392.624 173.768 392.918 173.768 393.212V400.226C173.768 400.562 173.81 400.814 173.978 400.94C174.062 401.024 174.272 401.066 174.566 401.024L184.268 399.722ZM222.422 380.066L226.16 379.604V368.684C226.16 368.138 225.908 367.718 225.404 367.424C224.9 367.172 224.144 366.92 223.178 366.71C222.842 366.626 222.59 366.542 222.422 366.374C222.212 366.29 222.128 366.08 222.128 365.744C222.128 365.492 222.254 365.198 222.59 364.946C222.842 364.736 223.262 364.61 223.85 364.526C224.102 364.484 224.648 364.442 225.446 364.4C226.202 364.4 227 364.442 227.756 364.484C228.386 364.568 228.932 364.694 229.436 364.862C229.898 365.072 230.15 365.324 230.15 365.66C230.15 365.954 230.108 366.29 230.024 366.626C229.94 366.878 229.898 367.13 229.856 367.382C229.772 367.676 229.772 367.97 229.772 368.306V393.254V395.9C229.73 396.992 229.646 398 229.52 399.008C229.352 400.016 229.142 400.856 228.89 401.612C228.554 402.326 228.134 402.746 227.588 402.83C227.126 402.872 226.79 402.452 226.538 401.612C226.286 400.73 226.16 399.386 226.16 397.538V382.166L222.422 382.628V391.784V394.43C222.38 395.522 222.296 396.53 222.17 397.496C222.002 398.504 221.792 399.386 221.54 400.142C221.204 400.856 220.784 401.234 220.238 401.318C219.272 401.444 218.81 399.68 218.81 396.026V372.17C218.81 371.624 218.558 371.204 218.054 370.91C217.55 370.658 216.794 370.406 215.828 370.196C215.492 370.154 215.24 370.07 215.072 369.902C214.862 369.776 214.778 369.566 214.778 369.23C214.778 368.978 214.904 368.684 215.24 368.432C215.492 368.222 215.912 368.096 216.5 368.012C216.752 368.012 217.298 367.97 218.096 367.928C218.852 367.928 219.65 367.928 220.406 368.012C221.036 368.096 221.582 368.222 222.086 368.39C222.548 368.6 222.8 368.852 222.8 369.188C222.8 369.482 222.758 369.776 222.674 370.112C222.59 370.364 222.548 370.616 222.506 370.868C222.422 371.204 222.422 371.498 222.422 371.834V380.066ZM198.146 384.728C198.146 383.3 198.356 381.998 198.818 380.78C199.238 379.604 199.868 378.596 200.708 377.714C201.506 376.874 202.472 376.16 203.606 375.572C204.698 375.068 205.916 374.69 207.26 374.522C208.604 374.354 209.822 374.438 210.956 374.69C212.048 374.984 212.972 375.446 213.812 376.118C214.568 376.79 215.198 377.672 215.66 378.722C216.08 379.814 216.29 381.074 216.29 382.502C216.29 383.93 216.08 385.232 215.66 386.408C215.198 387.626 214.568 388.676 213.812 389.516C212.972 390.398 212.048 391.112 210.956 391.616C209.822 392.162 208.604 392.498 207.26 392.666C205.916 392.834 204.698 392.792 203.606 392.498C202.472 392.246 201.506 391.784 200.708 391.112C199.868 390.44 199.238 389.558 198.818 388.466C198.356 387.416 198.146 386.156 198.146 384.728ZM212.384 382.964C212.384 380.906 211.922 379.352 210.998 378.344C210.074 377.378 208.814 377 207.26 377.168C205.664 377.378 204.446 378.092 203.522 379.268C202.598 380.528 202.136 382.166 202.136 384.224C202.136 386.324 202.598 387.794 203.522 388.718C204.446 389.642 205.664 390.02 207.26 389.81C208.814 389.642 210.074 388.97 210.998 387.794C211.922 386.66 212.384 385.064 212.384 382.964Z" fill="white"/>
<g filter="url(#filter0_f_153_777)">
<circle cx="269.5" cy="102.5" r="5.5" fill="white"/>
<circle cx="269.5" cy="102.5" r="4" stroke="white" stroke-width="3"/>
</g>
<g filter="url(#filter1_f_153_777)">
<circle cx="201.5" cy="191.5" r="5.5" fill="white"/>
<circle cx="201.5" cy="191.5" r="4" stroke="white" stroke-width="3"/>
</g>
<g filter="url(#filter2_f_153_777)">
<circle cx="48.5" cy="318.5" r="5.5" fill="white"/>
<circle cx="48.5" cy="318.5" r="4" stroke="white" stroke-width="3"/>
</g>
<g filter="url(#filter3_f_153_777)">
<circle cx="8" cy="277" r="4" fill="white"/>
<circle cx="8" cy="277" r="2.5" stroke="white" stroke-width="3"/>
</g>
<g filter="url(#filter4_f_153_777)">
<circle cx="250" cy="121" r="4" fill="white"/>
<circle cx="250" cy="121" r="2.5" stroke="white" stroke-width="3"/>
</g>
<g filter="url(#filter5_f_153_777)">
<circle cx="381" cy="97" r="4" fill="white"/>
<circle cx="381" cy="97" r="2.5" stroke="white" stroke-width="3"/>
</g>
<g filter="url(#filter6_f_153_777)">
<circle cx="376" cy="147" r="4" fill="white"/>
<circle cx="376" cy="147" r="2.5" stroke="white" stroke-width="3"/>
</g>
<g filter="url(#filter7_f_153_777)">
<circle cx="114" cy="324" r="4" fill="white"/>
<circle cx="114" cy="324" r="2.5" stroke="white" stroke-width="3"/>
</g>
<g filter="url(#filter8_f_153_777)">
<circle cx="187" cy="256" r="4" fill="white"/>
<circle cx="187" cy="256" r="2.5" stroke="white" stroke-width="3"/>
</g>
<g filter="url(#filter9_f_153_777)">
<circle cx="32" cy="252" r="4" fill="white"/>
<circle cx="32" cy="252" r="2.5" stroke="white" stroke-width="3"/>
</g>
<g filter="url(#filter10_f_153_777)">
<circle cx="174" cy="310" r="4" fill="white"/>
<circle cx="174" cy="310" r="2.5" stroke="white" stroke-width="3"/>
</g>
<g filter="url(#filter11_f_153_777)">
<circle cx="303" cy="84" r="4" fill="white"/>
<circle cx="303" cy="84" r="2.5" stroke="white" stroke-width="3"/>
</g>
<g filter="url(#filter12_f_153_777)">
<circle cx="62.5" cy="222.5" r="5.5" fill="white"/>
<circle cx="62.5" cy="222.5" r="4" stroke="white" stroke-width="3"/>
</g>
<g filter="url(#filter13_f_153_777)">
<circle cx="382.5" cy="56.5" r="5.5" fill="white"/>
<circle cx="382.5" cy="56.5" r="4" stroke="white" stroke-width="3"/>
</g>
<g filter="url(#filter14_f_153_777)">
<circle cx="366.5" cy="9.5" r="5.5" fill="white"/>
<circle cx="366.5" cy="9.5" r="4" stroke="white" stroke-width="3"/>
</g>
<path d="M63 223L32 252" stroke="white" stroke-opacity="0.4" stroke-width="1.2" stroke-linecap="round"/>
<path d="M8 277L32 252" stroke="white" stroke-opacity="0.4" stroke-width="1.2" stroke-linecap="round"/>
<path d="M202 192L250 121" stroke="white" stroke-opacity="0.4" stroke-width="1.2" stroke-linecap="round"/>
<path d="M376 147L381 97" stroke="white" stroke-opacity="0.4" stroke-width="1.2" stroke-linecap="round"/>
<path d="M383 57L381 97" stroke="white" stroke-opacity="0.4" stroke-width="1.2" stroke-linecap="round"/>
<path d="M383 57L367 10" stroke="white" stroke-opacity="0.4" stroke-width="1.2" stroke-linecap="round"/>
<path d="M8 277L49 319" stroke="white" stroke-opacity="0.4" stroke-width="1.2" stroke-linecap="round"/>
<path d="M114 324L49 319" stroke="white" stroke-opacity="0.4" stroke-width="1.2" stroke-linecap="round"/>
<path d="M174 310L114 324" stroke="white" stroke-opacity="0.4" stroke-width="1.2" stroke-linecap="round"/>
<path d="M270 103L250 121" stroke="white" stroke-opacity="0.4" stroke-width="1.2" stroke-linecap="round"/>
<path d="M383.5 56.5L337 70.9999L302 83.9999L270 100" stroke="white" stroke-opacity="0.4" stroke-width="1.2" stroke-linecap="round"/>
<path d="M187 256L174 310" stroke="white" stroke-opacity="0.4" stroke-width="1.2" stroke-linecap="round"/>
<path d="M187 256L201 192" stroke="white" stroke-opacity="0.4" stroke-width="1.2" stroke-linecap="round"/>
<defs>
<filter id="filter0_f_153_777" x="260" y="93" width="19" height="19" filterUnits="userSpaceOnUse" color-interpolation-filters="sRGB">
<feFlood flood-opacity="0" result="BackgroundImageFix"/>
<feBlend mode="normal" in="SourceGraphic" in2="BackgroundImageFix" result="shape"/>
<feGaussianBlur stdDeviation="2" result="effect1_foregroundBlur_153_777"/>
</filter>
<filter id="filter1_f_153_777" x="192" y="182" width="19" height="19" filterUnits="userSpaceOnUse" color-interpolation-filters="sRGB">
<feFlood flood-opacity="0" result="BackgroundImageFix"/>
<feBlend mode="normal" in="SourceGraphic" in2="BackgroundImageFix" result="shape"/>
<feGaussianBlur stdDeviation="2" result="effect1_foregroundBlur_153_777"/>
</filter>
<filter id="filter2_f_153_777" x="39" y="309" width="19" height="19" filterUnits="userSpaceOnUse" color-interpolation-filters="sRGB">
<feFlood flood-opacity="0" result="BackgroundImageFix"/>
<feBlend mode="normal" in="SourceGraphic" in2="BackgroundImageFix" result="shape"/>
<feGaussianBlur stdDeviation="2" result="effect1_foregroundBlur_153_777"/>
</filter>
<filter id="filter3_f_153_777" x="0" y="269" width="16" height="16" filterUnits="userSpaceOnUse" color-interpolation-filters="sRGB">
<feFlood flood-opacity="0" result="BackgroundImageFix"/>
<feBlend mode="normal" in="SourceGraphic" in2="BackgroundImageFix" result="shape"/>
<feGaussianBlur stdDeviation="2" result="effect1_foregroundBlur_153_777"/>
</filter>
<filter id="filter4_f_153_777" x="242" y="113" width="16" height="16" filterUnits="userSpaceOnUse" color-interpolation-filters="sRGB">
<feFlood flood-opacity="0" result="BackgroundImageFix"/>
<feBlend mode="normal" in="SourceGraphic" in2="BackgroundImageFix" result="shape"/>
<feGaussianBlur stdDeviation="2" result="effect1_foregroundBlur_153_777"/>
</filter>
<filter id="filter5_f_153_777" x="373" y="89" width="16" height="16" filterUnits="userSpaceOnUse" color-interpolation-filters="sRGB">
<feFlood flood-opacity="0" result="BackgroundImageFix"/>
<feBlend mode="normal" in="SourceGraphic" in2="BackgroundImageFix" result="shape"/>
<feGaussianBlur stdDeviation="2" result="effect1_foregroundBlur_153_777"/>
</filter>
<filter id="filter6_f_153_777" x="368" y="139" width="16" height="16" filterUnits="userSpaceOnUse" color-interpolation-filters="sRGB">
<feFlood flood-opacity="0" result="BackgroundImageFix"/>
<feBlend mode="normal" in="SourceGraphic" in2="BackgroundImageFix" result="shape"/>
<feGaussianBlur stdDeviation="2" result="effect1_foregroundBlur_153_777"/>
</filter>
<filter id="filter7_f_153_777" x="106" y="316" width="16" height="16" filterUnits="userSpaceOnUse" color-interpolation-filters="sRGB">
<feFlood flood-opacity="0" result="BackgroundImageFix"/>
<feBlend mode="normal" in="SourceGraphic" in2="BackgroundImageFix" result="shape"/>
<feGaussianBlur stdDeviation="2" result="effect1_foregroundBlur_153_777"/>
</filter>
<filter id="filter8_f_153_777" x="179" y="248" width="16" height="16" filterUnits="userSpaceOnUse" color-interpolation-filters="sRGB">
<feFlood flood-opacity="0" result="BackgroundImageFix"/>
<feBlend mode="normal" in="SourceGraphic" in2="BackgroundImageFix" result="shape"/>
<feGaussianBlur stdDeviation="2" result="effect1_foregroundBlur_153_777"/>
</filter>
<filter id="filter9_f_153_777" x="24" y="244" width="16" height="16" filterUnits="userSpaceOnUse" color-interpolation-filters="sRGB">
<feFlood flood-opacity="0" result="BackgroundImageFix"/>
<feBlend mode="normal" in="SourceGraphic" in2="BackgroundImageFix" result="shape"/>
<feGaussianBlur stdDeviation="2" result="effect1_foregroundBlur_153_777"/>
</filter>
<filter id="filter10_f_153_777" x="166" y="302" width="16" height="16" filterUnits="userSpaceOnUse" color-interpolation-filters="sRGB">
<feFlood flood-opacity="0" result="BackgroundImageFix"/>
<feBlend mode="normal" in="SourceGraphic" in2="BackgroundImageFix" result="shape"/>
<feGaussianBlur stdDeviation="2" result="effect1_foregroundBlur_153_777"/>
</filter>
<filter id="filter11_f_153_777" x="295" y="76" width="16" height="16" filterUnits="userSpaceOnUse" color-interpolation-filters="sRGB">
<feFlood flood-opacity="0" result="BackgroundImageFix"/>
<feBlend mode="normal" in="SourceGraphic" in2="BackgroundImageFix" result="shape"/>
<feGaussianBlur stdDeviation="2" result="effect1_foregroundBlur_153_777"/>
</filter>
<filter id="filter12_f_153_777" x="53" y="213" width="19" height="19" filterUnits="userSpaceOnUse" color-interpolation-filters="sRGB">
<feFlood flood-opacity="0" result="BackgroundImageFix"/>
<feBlend mode="normal" in="SourceGraphic" in2="BackgroundImageFix" result="shape"/>
<feGaussianBlur stdDeviation="2" result="effect1_foregroundBlur_153_777"/>
</filter>
<filter id="filter13_f_153_777" x="373" y="47" width="19" height="19" filterUnits="userSpaceOnUse" color-interpolation-filters="sRGB">
<feFlood flood-opacity="0" result="BackgroundImageFix"/>
<feBlend mode="normal" in="SourceGraphic" in2="BackgroundImageFix" result="shape"/>
<feGaussianBlur stdDeviation="2" result="effect1_foregroundBlur_153_777"/>
</filter>
<filter id="filter14_f_153_777" x="357" y="0" width="19" height="19" filterUnits="userSpaceOnUse" color-interpolation-filters="sRGB">
<feFlood flood-opacity="0" result="BackgroundImageFix"/>
<feBlend mode="normal" in="SourceGraphic" in2="BackgroundImageFix" result="shape"/>
<feGaussianBlur stdDeviation="2" result="effect1_foregroundBlur_153_777"/>
</filter>
</defs>
</svg>
