<svg width="106" height="220" viewBox="0 0 106 220" fill="none" xmlns="http://www.w3.org/2000/svg">
<path d="M35.9275 193.643L36.8515 193.517C37.1455 193.475 37.4395 193.391 37.6915 193.223C37.9435 193.097 38.1535 192.929 38.3635 192.761C38.5735 192.593 38.7835 192.425 38.9935 192.299C39.1615 192.215 39.4135 192.131 39.7495 192.047C40.2115 192.005 40.6735 191.963 41.1775 191.963C41.6395 191.963 42.1015 192.005 42.6055 192.047C43.0255 192.173 43.4035 192.341 43.6555 192.593C43.9075 192.887 44.0335 193.181 44.0335 193.475C44.0335 194.441 43.3615 194.987 42.1015 195.155L35.9275 195.911V207.461V210.107C35.8855 211.199 35.8015 212.207 35.6755 213.215C35.5075 214.181 35.2975 215.021 35.0455 215.777C34.7095 216.491 34.2895 216.911 33.7435 216.995C32.7775 217.121 32.3155 215.357 32.3155 211.703V182.849C32.3155 182.303 32.0635 181.883 31.5595 181.589C31.0555 181.337 30.2995 181.085 29.3335 180.875C28.9975 180.833 28.7455 180.749 28.5775 180.581C28.3675 180.455 28.2835 180.245 28.2835 179.909C28.2835 179.657 28.4095 179.363 28.7455 179.111C28.9975 178.901 29.4175 178.775 30.0055 178.691C30.2575 178.649 30.8035 178.607 31.6015 178.565C32.3575 178.565 33.1555 178.607 33.9115 178.691C34.5415 178.775 35.0875 178.901 35.5915 179.069C36.0535 179.279 36.3055 179.531 36.3055 179.867C36.3055 180.161 36.2635 180.455 36.1795 180.791C36.0955 181.043 36.0535 181.295 36.0115 181.547C35.9275 181.883 35.9275 182.177 35.9275 182.513V193.643ZM21.4375 189.191C20.8075 191.501 19.8835 193.811 18.6235 196.121C18.9595 196.457 19.3795 196.835 19.7995 197.171C20.1775 197.591 20.5555 197.927 20.9335 198.263C21.2695 198.599 21.6055 198.893 21.9415 199.145C22.1935 199.397 22.4035 199.565 22.5715 199.649C22.7395 199.775 22.9075 199.859 23.1595 199.901C23.3275 199.985 23.5375 200.027 23.7895 200.069C24.0835 200.153 24.4195 200.279 24.7555 200.363C25.0915 200.489 25.3855 200.699 25.6375 200.951C26.0575 201.455 26.4775 202.001 26.8555 202.589C27.1915 203.219 27.5275 203.891 27.9475 204.605C28.1575 205.025 28.2415 205.445 28.1575 205.823C28.0735 206.159 27.9055 206.453 27.6535 206.663C27.4015 206.915 27.0655 207.041 26.6875 207.083C26.4355 207.083 26.1835 206.999 25.8475 206.831C25.4695 206.663 25.0495 206.369 24.5875 205.865L17.2375 198.515C15.8515 200.741 14.3395 202.883 12.6595 204.899C10.9375 206.957 9.21546 208.763 7.45146 210.275C7.11546 210.527 6.82146 210.695 6.52746 210.737C6.19146 210.821 5.89746 210.779 5.68746 210.569C5.51946 210.443 5.47746 210.233 5.47746 209.939C5.43546 209.687 5.60346 209.393 5.98146 209.015C7.07346 207.839 8.16546 206.495 9.29946 204.899C10.3915 203.387 11.4415 201.791 12.4495 200.111C13.4155 198.473 14.2975 196.793 15.0955 195.113C15.8515 193.475 16.3975 191.921 16.8175 190.493C16.9015 190.199 16.9015 189.947 16.9015 189.737C16.8595 189.569 16.8175 189.485 16.7755 189.401C16.6075 189.233 16.3135 189.065 15.8935 188.897C15.4315 188.729 14.9275 188.603 14.3815 188.435C13.9195 188.309 13.6675 188.141 13.5835 187.889C13.4575 187.721 13.4155 187.511 13.4995 187.259C13.5835 186.671 14.1295 186.335 15.1795 186.293C15.4735 186.293 15.8515 186.335 16.3135 186.335C16.7335 186.377 17.2375 186.419 17.7415 186.461C18.2035 186.545 18.7075 186.629 19.2115 186.713C19.7155 186.839 20.1775 186.965 20.5975 187.049C21.1015 187.217 21.4375 187.427 21.5215 187.763C21.6055 188.141 21.5635 188.603 21.4375 189.191ZM49.7215 197.171C49.7215 196.667 49.5115 196.247 49.0915 195.911C48.6295 195.659 47.9155 195.407 46.9495 195.197C46.6135 195.155 46.3615 195.071 46.1935 194.903C45.9835 194.777 45.8995 194.567 45.8995 194.231C45.8995 193.979 46.0255 193.685 46.3615 193.433C46.6135 193.223 47.0335 193.097 47.6215 193.013C47.7055 193.013 47.9155 193.013 48.2095 192.971C48.4615 192.971 48.7555 192.929 49.0915 192.887H50.1835C50.5195 192.887 50.8975 192.929 51.2755 192.929L61.6495 191.459V185.957C61.1455 186.041 60.5995 186.125 60.0115 186.209C59.4235 186.293 58.7935 186.419 58.2055 186.503C57.5335 186.629 56.9455 186.755 56.3575 186.839C55.7695 187.007 55.2235 187.133 54.7195 187.217C54.4675 187.301 54.2155 187.427 54.0055 187.511C53.7535 187.679 53.5015 187.805 53.2915 187.931C52.9135 188.183 52.5775 188.351 52.2415 188.519C51.9055 188.687 51.4435 188.729 50.9395 188.645C50.5195 188.603 50.1415 188.519 49.8055 188.393C49.3855 188.309 49.0495 188.183 48.7135 188.015C48.3775 187.889 48.0835 187.763 47.8315 187.595C47.5375 187.469 47.3275 187.343 47.2435 187.259C47.1175 187.175 46.9915 187.049 46.9075 186.881C46.7815 186.755 46.7395 186.587 46.7395 186.335C46.7395 185.999 46.8655 185.747 47.1595 185.579C47.4115 185.495 47.7895 185.411 48.2515 185.369C48.9235 185.411 49.5955 185.411 50.3095 185.327C50.9815 185.285 51.6115 185.243 52.1995 185.159C53.2915 185.033 54.5095 184.865 55.8535 184.613C57.1975 184.445 58.5835 184.193 60.0115 183.941C60.4315 183.857 60.8095 183.731 61.0615 183.605C61.2715 183.521 61.4815 183.437 61.6495 183.353C61.8175 183.269 62.0275 183.143 62.2375 183.059C62.4055 183.017 62.6155 182.975 62.9095 182.891C63.2455 182.891 63.6655 182.849 64.0855 182.807C64.4635 182.807 64.8415 182.849 65.1775 182.891C65.5135 182.975 65.7655 183.101 66.0175 183.227C66.2275 183.395 66.3535 183.647 66.3535 183.899C66.3535 184.109 66.3115 184.277 66.3115 184.361C66.2275 184.529 66.1855 184.697 66.1015 184.865C66.0175 185.033 65.9335 185.201 65.8495 185.453C65.7655 185.747 65.6815 186.125 65.6395 186.545C65.5135 187.301 65.3875 188.015 65.3035 188.771C65.1775 189.527 65.0515 190.283 64.9675 190.997C65.7235 191.039 66.1435 191.417 66.1435 192.089C66.1435 192.593 65.9335 192.929 65.5975 193.139C65.2195 193.391 64.7575 193.559 64.2115 193.601L58.9195 194.357C57.1555 194.609 55.3915 194.861 53.6275 195.071V199.775C53.6275 200.111 53.6695 200.279 53.7955 200.363C53.8795 200.447 54.0055 200.489 54.2575 200.447C57.0295 200.111 59.9275 199.439 62.9515 198.515C65.8915 197.591 68.8735 196.499 71.8135 195.239V182.849C71.8135 182.303 71.5615 181.883 71.0575 181.589C70.5535 181.337 69.7975 181.085 68.8315 180.875C68.4955 180.833 68.2435 180.749 68.0755 180.581C67.8655 180.455 67.7815 180.245 67.7815 179.909C67.7815 179.657 67.9075 179.363 68.2435 179.111C68.4955 178.901 68.9155 178.775 69.5035 178.691C69.7555 178.649 70.3015 178.607 71.0995 178.565C71.8555 178.565 72.6535 178.607 73.4095 178.691C74.0395 178.775 74.5855 178.901 75.0895 179.069C75.5515 179.279 75.8035 179.531 75.8035 179.867C75.8035 180.161 75.7615 180.455 75.6775 180.791C75.5935 181.043 75.5515 181.295 75.5095 181.547C75.4255 181.883 75.4255 182.177 75.4255 182.513V189.023L76.3495 188.897C76.6435 188.855 76.9375 188.771 77.1895 188.603C77.4415 188.477 77.6515 188.309 77.8615 188.141C78.0715 187.973 78.2815 187.805 78.4915 187.679C78.6595 187.595 78.9115 187.511 79.2475 187.427C79.7095 187.385 80.1715 187.343 80.6755 187.343C81.1375 187.343 81.5995 187.385 82.1035 187.427C82.5235 187.553 82.9015 187.721 83.1535 187.973C83.4055 188.267 83.5315 188.561 83.5315 188.855C83.5315 189.821 82.8595 190.367 81.5995 190.535L75.4255 191.291V194.105C75.4255 194.735 75.3835 195.491 75.3835 196.331C75.3415 197.255 75.2575 198.095 75.1315 198.893C74.9635 199.733 74.7535 200.489 74.5015 201.077C74.1655 201.707 73.7455 202.043 73.2415 202.085C72.9895 202.127 72.8215 202.085 72.6535 201.917C72.4855 201.833 72.3175 201.581 72.2335 201.245C72.0655 200.909 71.9815 200.447 71.9395 199.859C71.8555 199.271 71.8135 198.515 71.8135 197.591V197.549C70.3015 198.305 68.7055 199.019 67.0255 199.691C65.3035 200.405 63.6235 201.035 62.0275 201.581C60.3895 202.169 58.8355 202.673 57.4075 203.051C55.9375 203.471 54.7195 203.765 53.7115 203.849C52.2415 204.059 51.2335 203.807 50.6455 203.135C50.0155 202.505 49.7215 201.455 49.7215 200.027V197.171ZM56.3575 210.023C56.2735 209.519 56.1475 209.099 55.9795 208.763C55.7275 208.427 55.1815 208.175 54.2575 207.965C53.9215 207.881 53.6695 207.797 53.5015 207.629C53.2915 207.545 53.2075 207.335 53.2075 206.999C53.2075 206.747 53.3335 206.453 53.6695 206.201C53.9215 205.991 54.3415 205.865 54.9295 205.781C55.1815 205.739 55.6435 205.697 56.3155 205.697C56.9035 205.697 57.5755 205.739 58.3315 205.823C58.4155 205.865 58.5415 205.865 58.6675 205.865C58.7515 205.865 58.8775 205.907 58.9615 205.949L69.2515 204.269C69.6715 204.185 70.0495 204.101 70.3015 203.975C70.5115 203.891 70.7215 203.807 70.9315 203.639C71.0995 203.555 71.3095 203.429 71.5195 203.303C71.6875 203.219 71.9395 203.177 72.2755 203.093C72.6115 203.093 73.0315 203.051 73.4515 203.009C73.8295 203.009 74.2075 203.009 74.5855 203.051C74.9215 203.135 75.2575 203.219 75.5095 203.345C75.7195 203.513 75.8455 203.765 75.8455 204.059C75.8455 204.395 75.7615 204.773 75.5935 205.193C75.5095 205.361 75.4675 205.613 75.3835 205.907C75.2575 206.243 75.1735 206.663 75.1315 207.125L74.3335 212.921C75.2155 213.005 75.6775 213.383 75.6775 214.139C75.6775 214.643 75.4675 214.979 75.0475 215.231C74.6275 215.441 74.1235 215.567 73.5775 215.651L60.1795 217.289C60.0115 217.919 59.7595 218.381 59.5075 218.675C59.1715 218.927 58.8775 219.053 58.5835 219.137C57.9955 219.179 57.6175 218.969 57.4495 218.507C57.1975 218.003 57.0295 217.163 56.9455 215.903L56.3575 210.023ZM71.3935 206.411C69.5455 206.705 67.6975 206.957 65.8495 207.209C64.0015 207.503 62.1535 207.755 60.3055 208.007C60.3055 208.595 60.3055 209.141 60.3475 209.645C60.3475 210.149 60.3475 210.653 60.3895 211.157C60.3895 211.661 60.4315 212.165 60.4735 212.711V214.517V214.811L71.3935 213.341V206.411Z" fill="white"/>
<g filter="url(#filter0_f_184_778)">
<mask id="path-2-inside-1_184_778" fill="white">
<ellipse cx="36.2289" cy="6.73975" rx="2.31325" ry="2.31959"/>
</mask>
<ellipse cx="36.2289" cy="6.73975" rx="2.31325" ry="2.31959" fill="white"/>
<path d="M35.5422 6.73975C35.5422 6.37171 35.8419 6.05934 36.2289 6.05934V12.0593C39.1711 12.0593 41.5422 9.66994 41.5422 6.73975H35.5422ZM36.2289 6.05934C36.6159 6.05934 36.9156 6.37171 36.9156 6.73975H30.9156C30.9156 9.66994 33.2867 12.0593 36.2289 12.0593V6.05934ZM36.9156 6.73975C36.9156 7.10779 36.6159 7.42017 36.2289 7.42017V1.42017C33.2867 1.42017 30.9156 3.80957 30.9156 6.73975H36.9156ZM36.2289 7.42017C35.8419 7.42017 35.5422 7.10779 35.5422 6.73975H41.5422C41.5422 3.80957 39.1711 1.42017 36.2289 1.42017V7.42017Z" fill="white" mask="url(#path-2-inside-1_184_778)"/>
</g>
<g filter="url(#filter1_f_184_778)">
<mask id="path-4-inside-2_184_778" fill="white">
<ellipse cx="41.4337" cy="71.1082" rx="2.31325" ry="2.31959"/>
</mask>
<ellipse cx="41.4337" cy="71.1082" rx="2.31325" ry="2.31959" fill="white"/>
<path d="M40.747 71.1082C40.747 70.7401 41.0467 70.4277 41.4337 70.4277V76.4277C44.3759 76.4277 46.747 74.0383 46.747 71.1082H40.747ZM41.4337 70.4277C41.8207 70.4277 42.1205 70.7401 42.1205 71.1082H36.1205C36.1205 74.0383 38.4916 76.4277 41.4337 76.4277V70.4277ZM42.1205 71.1082C42.1205 71.4762 41.8207 71.7886 41.4337 71.7886V65.7886C38.4916 65.7886 36.1205 68.178 36.1205 71.1082H42.1205ZM41.4337 71.7886C41.0467 71.7886 40.747 71.4762 40.747 71.1082H46.747C46.747 68.178 44.3759 65.7886 41.4337 65.7886V71.7886Z" fill="white" mask="url(#path-4-inside-2_184_778)"/>
</g>
<g filter="url(#filter2_f_184_778)">
<mask id="path-6-inside-3_184_778" fill="white">
<ellipse cx="37.9639" cy="100.683" rx="2.31325" ry="2.31959"/>
</mask>
<ellipse cx="37.9639" cy="100.683" rx="2.31325" ry="2.31959" fill="white"/>
<path d="M37.2771 100.683C37.2771 100.315 37.5769 100.002 37.9639 100.002V106.002C40.906 106.002 43.2771 103.613 43.2771 100.683H37.2771ZM37.9639 100.002C38.3509 100.002 38.6506 100.315 38.6506 100.683H32.6506C32.6506 103.613 35.0217 106.002 37.9639 106.002V100.002ZM38.6506 100.683C38.6506 101.051 38.3509 101.363 37.9639 101.363V95.3633C35.0217 95.3633 32.6506 97.7527 32.6506 100.683H38.6506ZM37.9639 101.363C37.5769 101.363 37.2771 101.051 37.2771 100.683H43.2771C43.2771 97.7527 40.906 95.3633 37.9639 95.3633V101.363Z" fill="white" mask="url(#path-6-inside-3_184_778)"/>
</g>
<g filter="url(#filter3_f_184_778)">
<mask id="path-8-inside-4_184_778" fill="white">
<ellipse cx="6.73488" cy="155.193" rx="2.31325" ry="2.31959"/>
</mask>
<ellipse cx="6.73488" cy="155.193" rx="2.31325" ry="2.31959" fill="white"/>
<path d="M6.04814 155.193C6.04814 154.825 6.34787 154.513 6.73488 154.513V160.513C9.67704 160.513 12.0481 158.124 12.0481 155.193H6.04814ZM6.73488 154.513C7.12189 154.513 7.42163 154.825 7.42163 155.193H1.42163C1.42163 158.124 3.79273 160.513 6.73488 160.513V154.513ZM7.42163 155.193C7.42163 155.561 7.12189 155.874 6.73488 155.874V149.874C3.79273 149.874 1.42163 152.263 1.42163 155.193H7.42163ZM6.73488 155.874C6.34787 155.874 6.04814 155.561 6.04814 155.193H12.0481C12.0481 152.263 9.67704 149.874 6.73488 149.874V155.874Z" fill="white" mask="url(#path-8-inside-4_184_778)"/>
</g>
<g filter="url(#filter4_f_184_778)">
<mask id="path-10-inside-5_184_778" fill="white">
<ellipse cx="75.5542" cy="149.394" rx="2.31325" ry="2.31959"/>
</mask>
<ellipse cx="75.5542" cy="149.394" rx="2.31325" ry="2.31959" fill="white"/>
<path d="M74.8675 149.394C74.8675 149.026 75.1672 148.714 75.5542 148.714V154.714C78.4964 154.714 80.8675 152.324 80.8675 149.394H74.8675ZM75.5542 148.714C75.9412 148.714 76.241 149.026 76.241 149.394H70.241C70.241 152.324 72.6121 154.714 75.5542 154.714V148.714ZM76.241 149.394C76.241 149.762 75.9412 150.075 75.5542 150.075V144.075C72.6121 144.075 70.241 146.464 70.241 149.394H76.241ZM75.5542 150.075C75.1672 150.075 74.8675 149.762 74.8675 149.394H80.8675C80.8675 146.464 78.4964 144.075 75.5542 144.075V150.075Z" fill="white" mask="url(#path-10-inside-5_184_778)"/>
</g>
<g filter="url(#filter5_f_184_778)">
<ellipse cx="98.3976" cy="179.259" rx="3.18073" ry="3.18943" fill="white"/>
<path d="M100.078 179.259C100.078 180.196 99.322 180.948 98.3976 180.948C97.4732 180.948 96.7169 180.196 96.7169 179.259C96.7169 178.322 97.4732 177.57 98.3976 177.57C99.322 177.57 100.078 178.322 100.078 179.259Z" stroke="white" stroke-width="3"/>
</g>
<path d="M41.6793 71.3826L36.2453 6.81872" stroke="white" stroke-opacity="0.4" stroke-width="1.2" stroke-linecap="round"/>
<path d="M41.6793 71.3826L38.0566 100.482" stroke="white" stroke-opacity="0.4" stroke-width="1.2" stroke-linecap="round"/>
<path d="M6.81128 155.043L38.0566 100.482" stroke="white" stroke-opacity="0.4" stroke-width="1.2" stroke-linecap="round"/>
<path d="M75.6415 149.132L38.0566 100.482" stroke="white" stroke-opacity="0.4" stroke-width="1.2" stroke-linecap="round"/>
<path d="M75.6415 149.132L98.7358 179.595" stroke="white" stroke-opacity="0.4" stroke-width="1.2" stroke-linecap="round"/>
<defs>
<filter id="filter0_f_184_778" x="29.9156" y="0.420166" width="12.6265" height="12.6392" filterUnits="userSpaceOnUse" color-interpolation-filters="sRGB">
<feFlood flood-opacity="0" result="BackgroundImageFix"/>
<feBlend mode="normal" in="SourceGraphic" in2="BackgroundImageFix" result="shape"/>
<feGaussianBlur stdDeviation="2" result="effect1_foregroundBlur_184_778"/>
</filter>
<filter id="filter1_f_184_778" x="35.1205" y="64.7886" width="12.6265" height="12.6392" filterUnits="userSpaceOnUse" color-interpolation-filters="sRGB">
<feFlood flood-opacity="0" result="BackgroundImageFix"/>
<feBlend mode="normal" in="SourceGraphic" in2="BackgroundImageFix" result="shape"/>
<feGaussianBlur stdDeviation="2" result="effect1_foregroundBlur_184_778"/>
</filter>
<filter id="filter2_f_184_778" x="31.6506" y="94.3633" width="12.6265" height="12.6392" filterUnits="userSpaceOnUse" color-interpolation-filters="sRGB">
<feFlood flood-opacity="0" result="BackgroundImageFix"/>
<feBlend mode="normal" in="SourceGraphic" in2="BackgroundImageFix" result="shape"/>
<feGaussianBlur stdDeviation="2" result="effect1_foregroundBlur_184_778"/>
</filter>
<filter id="filter3_f_184_778" x="0.421631" y="148.874" width="12.6265" height="12.6392" filterUnits="userSpaceOnUse" color-interpolation-filters="sRGB">
<feFlood flood-opacity="0" result="BackgroundImageFix"/>
<feBlend mode="normal" in="SourceGraphic" in2="BackgroundImageFix" result="shape"/>
<feGaussianBlur stdDeviation="2" result="effect1_foregroundBlur_184_778"/>
</filter>
<filter id="filter4_f_184_778" x="69.241" y="143.075" width="12.6265" height="12.6392" filterUnits="userSpaceOnUse" color-interpolation-filters="sRGB">
<feFlood flood-opacity="0" result="BackgroundImageFix"/>
<feBlend mode="normal" in="SourceGraphic" in2="BackgroundImageFix" result="shape"/>
<feGaussianBlur stdDeviation="2" result="effect1_foregroundBlur_184_778"/>
</filter>
<filter id="filter5_f_184_778" x="91.2169" y="172.07" width="14.3615" height="14.3789" filterUnits="userSpaceOnUse" color-interpolation-filters="sRGB">
<feFlood flood-opacity="0" result="BackgroundImageFix"/>
<feBlend mode="normal" in="SourceGraphic" in2="BackgroundImageFix" result="shape"/>
<feGaussianBlur stdDeviation="2" result="effect1_foregroundBlur_184_778"/>
</filter>
</defs>
</svg>
