<svg width="106" height="245" viewBox="0 0 106 245" fill="none" xmlns="http://www.w3.org/2000/svg">
<path d="M43.9275 218.643L44.8515 218.517C45.1455 218.475 45.4395 218.391 45.6915 218.223C45.9435 218.097 46.1535 217.929 46.3635 217.761C46.5735 217.593 46.7835 217.425 46.9935 217.299C47.1615 217.215 47.4135 217.131 47.7495 217.047C48.2115 217.005 48.6735 216.963 49.1775 216.963C49.6395 216.963 50.1015 217.005 50.6055 217.047C51.0255 217.173 51.4035 217.341 51.6555 217.593C51.9075 217.887 52.0335 218.181 52.0335 218.475C52.0335 219.441 51.3615 219.987 50.1015 220.155L43.9275 220.911V232.461V235.107C43.8855 236.199 43.8015 237.207 43.6755 238.215C43.5075 239.181 43.2975 240.021 43.0455 240.777C42.7095 241.491 42.2895 241.911 41.7435 241.995C40.7775 242.121 40.3155 240.357 40.3155 236.703V207.849C40.3155 207.303 40.0635 206.883 39.5595 206.589C39.0555 206.337 38.2995 206.085 37.3335 205.875C36.9975 205.833 36.7455 205.749 36.5775 205.581C36.3675 205.455 36.2835 205.245 36.2835 204.909C36.2835 204.657 36.4095 204.363 36.7455 204.111C36.9975 203.901 37.4175 203.775 38.0055 203.691C38.2575 203.649 38.8035 203.607 39.6015 203.565C40.3575 203.565 41.1555 203.607 41.9115 203.691C42.5415 203.775 43.0875 203.901 43.5915 204.069C44.0535 204.279 44.3055 204.531 44.3055 204.867C44.3055 205.161 44.2635 205.455 44.1795 205.791C44.0955 206.043 44.0535 206.295 44.0115 206.547C43.9275 206.883 43.9275 207.177 43.9275 207.513V218.643ZM29.4375 214.191C28.8075 216.501 27.8835 218.811 26.6235 221.121C26.9595 221.457 27.3795 221.835 27.7995 222.171C28.1775 222.591 28.5555 222.927 28.9335 223.263C29.2695 223.599 29.6055 223.893 29.9415 224.145C30.1935 224.397 30.4035 224.565 30.5715 224.649C30.7395 224.775 30.9075 224.859 31.1595 224.901C31.3275 224.985 31.5375 225.027 31.7895 225.069C32.0835 225.153 32.4195 225.279 32.7555 225.363C33.0915 225.489 33.3855 225.699 33.6375 225.951C34.0575 226.455 34.4775 227.001 34.8555 227.589C35.1915 228.219 35.5275 228.891 35.9475 229.605C36.1575 230.025 36.2415 230.445 36.1575 230.823C36.0735 231.159 35.9055 231.453 35.6535 231.663C35.4015 231.915 35.0655 232.041 34.6875 232.083C34.4355 232.083 34.1835 231.999 33.8475 231.831C33.4695 231.663 33.0495 231.369 32.5875 230.865L25.2375 223.515C23.8515 225.741 22.3395 227.883 20.6595 229.899C18.9375 231.957 17.2155 233.763 15.4515 235.275C15.1155 235.527 14.8215 235.695 14.5275 235.737C14.1915 235.821 13.8975 235.779 13.6875 235.569C13.5195 235.443 13.4775 235.233 13.4775 234.939C13.4355 234.687 13.6035 234.393 13.9815 234.015C15.0735 232.839 16.1655 231.495 17.2995 229.899C18.3915 228.387 19.4415 226.791 20.4495 225.111C21.4155 223.473 22.2975 221.793 23.0955 220.113C23.8515 218.475 24.3975 216.921 24.8175 215.493C24.9015 215.199 24.9015 214.947 24.9015 214.737C24.8595 214.569 24.8175 214.485 24.7755 214.401C24.6075 214.233 24.3135 214.065 23.8935 213.897C23.4315 213.729 22.9275 213.603 22.3815 213.435C21.9195 213.309 21.6675 213.141 21.5835 212.889C21.4575 212.721 21.4155 212.511 21.4995 212.259C21.5835 211.671 22.1295 211.335 23.1795 211.293C23.4735 211.293 23.8515 211.335 24.3135 211.335C24.7335 211.377 25.2375 211.419 25.7415 211.461C26.2035 211.545 26.7075 211.629 27.2115 211.713C27.7155 211.839 28.1775 211.965 28.5975 212.049C29.1015 212.217 29.4375 212.427 29.5215 212.763C29.6055 213.141 29.5635 213.603 29.4375 214.191ZM57.7215 222.171C57.7215 221.667 57.5115 221.247 57.0915 220.911C56.6295 220.659 55.9155 220.407 54.9495 220.197C54.6135 220.155 54.3615 220.071 54.1935 219.903C53.9835 219.777 53.8995 219.567 53.8995 219.231C53.8995 218.979 54.0255 218.685 54.3615 218.433C54.6135 218.223 55.0335 218.097 55.6215 218.013C55.7055 218.013 55.9155 218.013 56.2095 217.971C56.4615 217.971 56.7555 217.929 57.0915 217.887H58.1835C58.5195 217.887 58.8975 217.929 59.2755 217.929L69.6495 216.459V210.957C69.1455 211.041 68.5995 211.125 68.0115 211.209C67.4235 211.293 66.7935 211.419 66.2055 211.503C65.5335 211.629 64.9455 211.755 64.3575 211.839C63.7695 212.007 63.2235 212.133 62.7195 212.217C62.4675 212.301 62.2155 212.427 62.0055 212.511C61.7535 212.679 61.5015 212.805 61.2915 212.931C60.9135 213.183 60.5775 213.351 60.2415 213.519C59.9055 213.687 59.4435 213.729 58.9395 213.645C58.5195 213.603 58.1415 213.519 57.8055 213.393C57.3855 213.309 57.0495 213.183 56.7135 213.015C56.3775 212.889 56.0835 212.763 55.8315 212.595C55.5375 212.469 55.3275 212.343 55.2435 212.259C55.1175 212.175 54.9915 212.049 54.9075 211.881C54.7815 211.755 54.7395 211.587 54.7395 211.335C54.7395 210.999 54.8655 210.747 55.1595 210.579C55.4115 210.495 55.7895 210.411 56.2515 210.369C56.9235 210.411 57.5955 210.411 58.3095 210.327C58.9815 210.285 59.6115 210.243 60.1995 210.159C61.2915 210.033 62.5095 209.865 63.8535 209.613C65.1975 209.445 66.5835 209.193 68.0115 208.941C68.4315 208.857 68.8095 208.731 69.0615 208.605C69.2715 208.521 69.4815 208.437 69.6495 208.353C69.8175 208.269 70.0275 208.143 70.2375 208.059C70.4055 208.017 70.6155 207.975 70.9095 207.891C71.2455 207.891 71.6655 207.849 72.0855 207.807C72.4635 207.807 72.8415 207.849 73.1775 207.891C73.5135 207.975 73.7655 208.101 74.0175 208.227C74.2275 208.395 74.3535 208.647 74.3535 208.899C74.3535 209.109 74.3115 209.277 74.3115 209.361C74.2275 209.529 74.1855 209.697 74.1015 209.865C74.0175 210.033 73.9335 210.201 73.8495 210.453C73.7655 210.747 73.6815 211.125 73.6395 211.545C73.5135 212.301 73.3875 213.015 73.3035 213.771C73.1775 214.527 73.0515 215.283 72.9675 215.997C73.7235 216.039 74.1435 216.417 74.1435 217.089C74.1435 217.593 73.9335 217.929 73.5975 218.139C73.2195 218.391 72.7575 218.559 72.2115 218.601L66.9195 219.357C65.1555 219.609 63.3915 219.861 61.6275 220.071V224.775C61.6275 225.111 61.6695 225.279 61.7955 225.363C61.8795 225.447 62.0055 225.489 62.2575 225.447C65.0295 225.111 67.9275 224.439 70.9515 223.515C73.8915 222.591 76.8735 221.499 79.8135 220.239V207.849C79.8135 207.303 79.5615 206.883 79.0575 206.589C78.5535 206.337 77.7975 206.085 76.8315 205.875C76.4955 205.833 76.2435 205.749 76.0755 205.581C75.8655 205.455 75.7815 205.245 75.7815 204.909C75.7815 204.657 75.9075 204.363 76.2435 204.111C76.4955 203.901 76.9155 203.775 77.5035 203.691C77.7555 203.649 78.3015 203.607 79.0995 203.565C79.8555 203.565 80.6535 203.607 81.4095 203.691C82.0395 203.775 82.5855 203.901 83.0895 204.069C83.5515 204.279 83.8035 204.531 83.8035 204.867C83.8035 205.161 83.7615 205.455 83.6775 205.791C83.5935 206.043 83.5515 206.295 83.5095 206.547C83.4255 206.883 83.4255 207.177 83.4255 207.513V214.023L84.3495 213.897C84.6435 213.855 84.9375 213.771 85.1895 213.603C85.4415 213.477 85.6515 213.309 85.8615 213.141C86.0715 212.973 86.2815 212.805 86.4915 212.679C86.6595 212.595 86.9115 212.511 87.2475 212.427C87.7095 212.385 88.1715 212.343 88.6755 212.343C89.1375 212.343 89.5995 212.385 90.1035 212.427C90.5235 212.553 90.9015 212.721 91.1535 212.973C91.4055 213.267 91.5315 213.561 91.5315 213.855C91.5315 214.821 90.8595 215.367 89.5995 215.535L83.4255 216.291V219.105C83.4255 219.735 83.3835 220.491 83.3835 221.331C83.3415 222.255 83.2575 223.095 83.1315 223.893C82.9635 224.733 82.7535 225.489 82.5015 226.077C82.1655 226.707 81.7455 227.043 81.2415 227.085C80.9895 227.127 80.8215 227.085 80.6535 226.917C80.4855 226.833 80.3175 226.581 80.2335 226.245C80.0655 225.909 79.9815 225.447 79.9395 224.859C79.8555 224.271 79.8135 223.515 79.8135 222.591V222.549C78.3015 223.305 76.7055 224.019 75.0255 224.691C73.3035 225.405 71.6235 226.035 70.0275 226.581C68.3895 227.169 66.8355 227.673 65.4075 228.051C63.9375 228.471 62.7195 228.765 61.7115 228.849C60.2415 229.059 59.2335 228.807 58.6455 228.135C58.0155 227.505 57.7215 226.455 57.7215 225.027V222.171ZM64.3575 235.023C64.2735 234.519 64.1475 234.099 63.9795 233.763C63.7275 233.427 63.1815 233.175 62.2575 232.965C61.9215 232.881 61.6695 232.797 61.5015 232.629C61.2915 232.545 61.2075 232.335 61.2075 231.999C61.2075 231.747 61.3335 231.453 61.6695 231.201C61.9215 230.991 62.3415 230.865 62.9295 230.781C63.1815 230.739 63.6435 230.697 64.3155 230.697C64.9035 230.697 65.5755 230.739 66.3315 230.823C66.4155 230.865 66.5415 230.865 66.6675 230.865C66.7515 230.865 66.8775 230.907 66.9615 230.949L77.2515 229.269C77.6715 229.185 78.0495 229.101 78.3015 228.975C78.5115 228.891 78.7215 228.807 78.9315 228.639C79.0995 228.555 79.3095 228.429 79.5195 228.303C79.6875 228.219 79.9395 228.177 80.2755 228.093C80.6115 228.093 81.0315 228.051 81.4515 228.009C81.8295 228.009 82.2075 228.009 82.5855 228.051C82.9215 228.135 83.2575 228.219 83.5095 228.345C83.7195 228.513 83.8455 228.765 83.8455 229.059C83.8455 229.395 83.7615 229.773 83.5935 230.193C83.5095 230.361 83.4675 230.613 83.3835 230.907C83.2575 231.243 83.1735 231.663 83.1315 232.125L82.3335 237.921C83.2155 238.005 83.6775 238.383 83.6775 239.139C83.6775 239.643 83.4675 239.979 83.0475 240.231C82.6275 240.441 82.1235 240.567 81.5775 240.651L68.1795 242.289C68.0115 242.919 67.7595 243.381 67.5075 243.675C67.1715 243.927 66.8775 244.053 66.5835 244.137C65.9955 244.179 65.6175 243.969 65.4495 243.507C65.1975 243.003 65.0295 242.163 64.9455 240.903L64.3575 235.023ZM79.3935 231.411C77.5455 231.705 75.6975 231.957 73.8495 232.209C72.0015 232.503 70.1535 232.755 68.3055 233.007C68.3055 233.595 68.3055 234.141 68.3475 234.645C68.3475 235.149 68.3475 235.653 68.3895 236.157C68.3895 236.661 68.4315 237.165 68.4735 237.711V239.517V239.811L79.3935 238.341V231.411Z" fill="white"/>
<g filter="url(#filter0_f_152_811)">
<mask id="path-2-inside-1_152_811" fill="white">
<ellipse cx="36.2289" cy="6.73975" rx="2.31325" ry="2.31959"/>
</mask>
<ellipse cx="36.2289" cy="6.73975" rx="2.31325" ry="2.31959" fill="white"/>
<path d="M35.5422 6.73975C35.5422 6.37171 35.8419 6.05934 36.2289 6.05934V12.0593C39.1711 12.0593 41.5422 9.66994 41.5422 6.73975H35.5422ZM36.2289 6.05934C36.6159 6.05934 36.9156 6.37171 36.9156 6.73975H30.9156C30.9156 9.66994 33.2867 12.0593 36.2289 12.0593V6.05934ZM36.9156 6.73975C36.9156 7.10779 36.6159 7.42017 36.2289 7.42017V1.42017C33.2867 1.42017 30.9156 3.80957 30.9156 6.73975H36.9156ZM36.2289 7.42017C35.8419 7.42017 35.5422 7.10779 35.5422 6.73975H41.5422C41.5422 3.80957 39.1711 1.42017 36.2289 1.42017V7.42017Z" fill="white" mask="url(#path-2-inside-1_152_811)"/>
</g>
<g filter="url(#filter1_f_152_811)">
<mask id="path-4-inside-2_152_811" fill="white">
<ellipse cx="41.4337" cy="71.1082" rx="2.31325" ry="2.31959"/>
</mask>
<ellipse cx="41.4337" cy="71.1082" rx="2.31325" ry="2.31959" fill="white"/>
<path d="M40.747 71.1082C40.747 70.7401 41.0467 70.4277 41.4337 70.4277V76.4277C44.3759 76.4277 46.747 74.0383 46.747 71.1082H40.747ZM41.4337 70.4277C41.8207 70.4277 42.1205 70.7401 42.1205 71.1082H36.1205C36.1205 74.0383 38.4916 76.4277 41.4337 76.4277V70.4277ZM42.1205 71.1082C42.1205 71.4762 41.8207 71.7886 41.4337 71.7886V65.7886C38.4916 65.7886 36.1205 68.178 36.1205 71.1082H42.1205ZM41.4337 71.7886C41.0467 71.7886 40.747 71.4762 40.747 71.1082H46.747C46.747 68.178 44.3759 65.7886 41.4337 65.7886V71.7886Z" fill="white" mask="url(#path-4-inside-2_152_811)"/>
</g>
<g filter="url(#filter2_f_152_811)">
<mask id="path-6-inside-3_152_811" fill="white">
<ellipse cx="37.9639" cy="100.683" rx="2.31325" ry="2.31959"/>
</mask>
<ellipse cx="37.9639" cy="100.683" rx="2.31325" ry="2.31959" fill="white"/>
<path d="M37.2771 100.683C37.2771 100.315 37.5769 100.002 37.9639 100.002V106.002C40.906 106.002 43.2771 103.613 43.2771 100.683H37.2771ZM37.9639 100.002C38.3509 100.002 38.6506 100.315 38.6506 100.683H32.6506C32.6506 103.613 35.0217 106.002 37.9639 106.002V100.002ZM38.6506 100.683C38.6506 101.051 38.3509 101.363 37.9639 101.363V95.3633C35.0217 95.3633 32.6506 97.7527 32.6506 100.683H38.6506ZM37.9639 101.363C37.5769 101.363 37.2771 101.051 37.2771 100.683H43.2771C43.2771 97.7527 40.906 95.3633 37.9639 95.3633V101.363Z" fill="white" mask="url(#path-6-inside-3_152_811)"/>
</g>
<g filter="url(#filter3_f_152_811)">
<mask id="path-8-inside-4_152_811" fill="white">
<ellipse cx="6.73488" cy="155.193" rx="2.31325" ry="2.31959"/>
</mask>
<ellipse cx="6.73488" cy="155.193" rx="2.31325" ry="2.31959" fill="white"/>
<path d="M6.04814 155.193C6.04814 154.825 6.34787 154.513 6.73488 154.513V160.513C9.67704 160.513 12.0481 158.124 12.0481 155.193H6.04814ZM6.73488 154.513C7.12189 154.513 7.42163 154.825 7.42163 155.193H1.42163C1.42163 158.124 3.79273 160.513 6.73488 160.513V154.513ZM7.42163 155.193C7.42163 155.561 7.12189 155.874 6.73488 155.874V149.874C3.79273 149.874 1.42163 152.263 1.42163 155.193H7.42163ZM6.73488 155.874C6.34787 155.874 6.04814 155.561 6.04814 155.193H12.0481C12.0481 152.263 9.67704 149.874 6.73488 149.874V155.874Z" fill="white" mask="url(#path-8-inside-4_152_811)"/>
</g>
<g filter="url(#filter4_f_152_811)">
<mask id="path-10-inside-5_152_811" fill="white">
<ellipse cx="75.5542" cy="149.394" rx="2.31325" ry="2.31959"/>
</mask>
<ellipse cx="75.5542" cy="149.394" rx="2.31325" ry="2.31959" fill="white"/>
<path d="M74.8675 149.394C74.8675 149.026 75.1672 148.714 75.5542 148.714V154.714C78.4964 154.714 80.8675 152.324 80.8675 149.394H74.8675ZM75.5542 148.714C75.9412 148.714 76.241 149.026 76.241 149.394H70.241C70.241 152.324 72.6121 154.714 75.5542 154.714V148.714ZM76.241 149.394C76.241 149.762 75.9412 150.075 75.5542 150.075V144.075C72.6121 144.075 70.241 146.464 70.241 149.394H76.241ZM75.5542 150.075C75.1672 150.075 74.8675 149.762 74.8675 149.394H80.8675C80.8675 146.464 78.4964 144.075 75.5542 144.075V150.075Z" fill="white" mask="url(#path-10-inside-5_152_811)"/>
</g>
<g filter="url(#filter5_f_152_811)">
<ellipse cx="98.3976" cy="179.259" rx="3.18073" ry="3.18943" fill="white"/>
<path d="M100.078 179.259C100.078 180.196 99.322 180.948 98.3976 180.948C97.4732 180.948 96.7169 180.196 96.7169 179.259C96.7169 178.322 97.4732 177.57 98.3976 177.57C99.322 177.57 100.078 178.322 100.078 179.259Z" stroke="white" stroke-width="3"/>
</g>
<path d="M41.6792 71.3826L36.2452 6.81872" stroke="white" stroke-opacity="0.4" stroke-width="1.2" stroke-linecap="round"/>
<path d="M41.6792 71.3826L38.0566 100.482" stroke="white" stroke-opacity="0.4" stroke-width="1.2" stroke-linecap="round"/>
<path d="M6.81128 155.043L38.0566 100.482" stroke="white" stroke-opacity="0.4" stroke-width="1.2" stroke-linecap="round"/>
<path d="M75.6415 149.132L38.0566 100.482" stroke="white" stroke-opacity="0.4" stroke-width="1.2" stroke-linecap="round"/>
<path d="M75.6415 149.132L98.7358 179.595" stroke="white" stroke-opacity="0.4" stroke-width="1.2" stroke-linecap="round"/>
<defs>
<filter id="filter0_f_152_811" x="29.9156" y="0.420166" width="12.6265" height="12.6392" filterUnits="userSpaceOnUse" color-interpolation-filters="sRGB">
<feFlood flood-opacity="0" result="BackgroundImageFix"/>
<feBlend mode="normal" in="SourceGraphic" in2="BackgroundImageFix" result="shape"/>
<feGaussianBlur stdDeviation="2" result="effect1_foregroundBlur_152_811"/>
</filter>
<filter id="filter1_f_152_811" x="35.1205" y="64.7886" width="12.6265" height="12.6392" filterUnits="userSpaceOnUse" color-interpolation-filters="sRGB">
<feFlood flood-opacity="0" result="BackgroundImageFix"/>
<feBlend mode="normal" in="SourceGraphic" in2="BackgroundImageFix" result="shape"/>
<feGaussianBlur stdDeviation="2" result="effect1_foregroundBlur_152_811"/>
</filter>
<filter id="filter2_f_152_811" x="31.6506" y="94.3633" width="12.6265" height="12.6392" filterUnits="userSpaceOnUse" color-interpolation-filters="sRGB">
<feFlood flood-opacity="0" result="BackgroundImageFix"/>
<feBlend mode="normal" in="SourceGraphic" in2="BackgroundImageFix" result="shape"/>
<feGaussianBlur stdDeviation="2" result="effect1_foregroundBlur_152_811"/>
</filter>
<filter id="filter3_f_152_811" x="0.421631" y="148.874" width="12.6265" height="12.6392" filterUnits="userSpaceOnUse" color-interpolation-filters="sRGB">
<feFlood flood-opacity="0" result="BackgroundImageFix"/>
<feBlend mode="normal" in="SourceGraphic" in2="BackgroundImageFix" result="shape"/>
<feGaussianBlur stdDeviation="2" result="effect1_foregroundBlur_152_811"/>
</filter>
<filter id="filter4_f_152_811" x="69.241" y="143.075" width="12.6265" height="12.6392" filterUnits="userSpaceOnUse" color-interpolation-filters="sRGB">
<feFlood flood-opacity="0" result="BackgroundImageFix"/>
<feBlend mode="normal" in="SourceGraphic" in2="BackgroundImageFix" result="shape"/>
<feGaussianBlur stdDeviation="2" result="effect1_foregroundBlur_152_811"/>
</filter>
<filter id="filter5_f_152_811" x="91.2169" y="172.07" width="14.3615" height="14.3789" filterUnits="userSpaceOnUse" color-interpolation-filters="sRGB">
<feFlood flood-opacity="0" result="BackgroundImageFix"/>
<feBlend mode="normal" in="SourceGraphic" in2="BackgroundImageFix" result="shape"/>
<feGaussianBlur stdDeviation="2" result="effect1_foregroundBlur_152_811"/>
</filter>
</defs>
</svg>
