<svg width="155" height="62" viewBox="0 0 155 62" fill="none" xmlns="http://www.w3.org/2000/svg">
<g filter="url(#filter0_d_132_537)">
<path d="M58.7405 19.088C58.9325 19.064 59.1005 19.016 59.2445 18.92C59.3645 18.872 59.4845 18.8 59.6045 18.704L59.9645 18.488C60.0605 18.44 60.2045 18.392 60.3965 18.344C60.6605 18.32 60.9245 18.296 61.2125 18.272C61.4765 18.272 61.7405 18.296 62.0285 18.32C62.2685 18.392 62.4845 18.488 62.6285 18.632C62.7725 18.8 62.8445 18.968 62.8445 19.136C62.8445 19.688 62.4605 20 61.7405 20.096C60.7565 20.24 59.7965 20.36 58.8605 20.456C57.9005 20.6 56.9645 20.72 56.0045 20.84V23.84C56.8205 23.744 57.5405 23.624 58.2125 23.528C58.8365 23.432 59.3405 23.36 59.7005 23.264C60.2045 23.168 60.5885 23.048 60.8525 22.928C61.0925 22.832 61.3085 22.736 61.5005 22.64C61.6205 22.592 61.7405 22.52 61.8605 22.472C61.9565 22.448 62.0765 22.424 62.2685 22.376C62.4125 22.376 62.5805 22.352 62.8205 22.328C63.0125 22.328 63.2285 22.304 63.4685 22.304C63.6845 22.304 63.9005 22.328 64.1405 22.328C64.3325 22.352 64.5245 22.376 64.6925 22.376C65.2925 22.496 65.6045 22.736 65.6045 23.12C65.6045 23.408 65.4845 23.624 65.2685 23.816C65.0285 24.008 64.7165 24.128 64.3085 24.176C63.7805 24.224 63.2045 24.296 62.5325 24.344C61.8365 24.44 61.1165 24.512 60.3485 24.608C59.3165 24.752 58.2605 24.872 57.2045 25.016C56.1005 25.16 55.0685 25.304 54.1085 25.448L51.4445 25.856C50.6285 26 50.0045 26.12 49.5725 26.24C49.3805 26.288 49.2125 26.336 49.0445 26.432C48.8525 26.48 48.6845 26.552 48.5405 26.648C48.2525 26.792 47.9645 26.912 47.6765 27.008C47.3645 27.104 47.0525 27.104 46.7165 27.032C46.2365 26.912 45.8045 26.768 45.4205 26.576C44.9885 26.384 44.7245 26.24 44.5805 26.144C44.3645 26.024 44.2685 25.88 44.2685 25.664C44.2685 25.424 44.3645 25.256 44.5565 25.16C44.7245 25.088 44.9645 25.04 45.2525 25.016C45.7085 25.04 46.2125 25.04 46.7885 24.992C47.3165 24.968 47.7965 24.92 48.2285 24.872C48.3965 24.872 48.6845 24.824 49.0685 24.776C49.4285 24.728 49.8605 24.68 50.3885 24.608C50.8685 24.56 51.4205 24.488 52.0445 24.392C52.6445 24.32 53.2685 24.248 53.8925 24.152V21.128C53.3165 21.224 52.7645 21.296 52.2365 21.344L50.5805 21.56C49.1885 21.752 48.5165 21.152 48.5165 19.736V17.624C48.5165 17.432 48.4205 17.264 48.2525 17.12C48.0605 16.976 47.6765 16.856 47.1485 16.736C46.9565 16.688 46.8125 16.64 46.7165 16.544C46.5965 16.496 46.5485 16.376 46.5485 16.184C46.5485 16.04 46.6205 15.872 46.8125 15.728C46.9565 15.608 47.1965 15.536 47.5325 15.488C47.6765 15.464 47.9405 15.44 48.3245 15.416C48.6605 15.416 49.0445 15.44 49.4765 15.488C49.7405 15.536 49.9565 15.584 50.1485 15.656L58.8605 14.456V11.216C58.6445 11.24 58.3565 11.264 57.9725 11.312C57.5645 11.384 57.1325 11.456 56.6525 11.504L55.1645 11.72C54.6365 11.816 54.1325 11.888 53.6765 11.936C53.1965 12.032 52.7645 12.104 52.3805 12.152C51.9725 12.248 51.6605 12.296 51.4445 12.344C51.3005 12.392 51.1805 12.416 51.0605 12.464C50.9165 12.536 50.7725 12.608 50.6525 12.68C50.4365 12.8 50.2205 12.896 50.0285 12.968C49.7885 13.064 49.5485 13.064 49.2845 12.992C49.0445 12.944 48.8285 12.872 48.6125 12.776C48.3725 12.704 48.1805 12.608 47.9885 12.512C47.7725 12.44 47.6045 12.368 47.4605 12.272C47.3165 12.2 47.1965 12.152 47.1485 12.104C47.0525 12.032 47.0045 11.96 46.9805 11.888C46.9325 11.84 46.9085 11.768 46.9085 11.672C46.9085 11.48 46.9805 11.312 47.1485 11.216C47.2925 11.12 47.5085 11.096 47.7725 11.096C48.1565 11.144 48.5405 11.144 48.9725 11.144C49.3805 11.144 49.7645 11.12 50.1005 11.072C50.2925 11.072 50.6045 11.024 51.0125 10.952C51.3965 10.904 51.8285 10.856 52.3085 10.784C52.7885 10.736 53.2925 10.664 53.8445 10.568C54.3725 10.52 54.8765 10.448 55.4045 10.352C55.9085 10.304 56.3885 10.232 56.8205 10.16C57.2285 10.112 57.5645 10.04 57.8525 9.992C58.0925 9.944 58.3085 9.872 58.4525 9.824C58.5725 9.776 58.6925 9.728 58.7885 9.656C58.8845 9.608 59.0045 9.56 59.1245 9.512C59.2205 9.464 59.3405 9.44 59.5085 9.392C59.7005 9.392 59.9405 9.368 60.1805 9.344C60.3965 9.344 60.6125 9.368 60.8285 9.392C61.0205 9.44 61.2125 9.512 61.3565 9.584C61.4765 9.68 61.5485 9.824 61.5485 9.968C61.5485 10.064 61.5245 10.16 61.5005 10.256C61.4525 10.376 61.4285 10.472 61.4045 10.544C61.3565 10.64 61.3325 10.736 61.2845 10.88C61.2125 11.024 61.1645 11.24 61.1405 11.48L60.8045 14.168C61.3325 14.168 61.5965 14.36 61.5965 14.768C61.5965 15.056 61.4765 15.248 61.2845 15.368C61.0685 15.512 60.8045 15.608 60.4925 15.632C58.8365 15.872 57.2045 16.088 55.5965 16.28C53.9645 16.52 52.3325 16.736 50.7005 16.928V19.616C50.7005 20 50.8445 20.168 51.1565 20.12L58.7405 19.088ZM84.6948 11.576C84.6468 11.912 84.5988 12.32 84.5508 12.8C84.4548 13.304 84.3828 13.856 84.2868 14.432C84.1908 15.032 84.0708 15.656 83.9748 16.28C83.8308 16.952 83.7108 17.576 83.6148 18.152C83.4708 18.752 83.3508 19.304 83.2548 19.784C83.1108 20.312 82.9908 20.72 82.8948 21.008C82.7508 21.344 82.6068 21.536 82.4628 21.632C82.2948 21.728 82.1508 21.776 82.0068 21.776C81.6228 21.776 81.4788 21.488 81.5748 20.936C81.6228 20.504 81.6948 19.88 81.7668 19.088C81.8148 18.32 81.8868 17.504 81.9588 16.592L82.1028 13.928C82.1268 13.064 82.1508 12.272 82.1748 11.576L81.4308 11.672C80.8068 11.768 80.1348 11.84 79.4148 11.936C78.6468 12.056 77.9268 12.152 77.2308 12.248L75.2868 12.56C74.7108 12.68 74.2788 12.776 73.9908 12.824C73.7988 12.872 73.6548 12.92 73.5348 12.968C73.3908 13.064 73.2468 13.136 73.1508 13.184C72.9108 13.328 72.6708 13.424 72.4308 13.52C72.1908 13.64 71.9268 13.664 71.6388 13.592C71.2068 13.496 70.7748 13.352 70.3908 13.136C69.9828 12.944 69.7188 12.824 69.5988 12.728C69.4068 12.632 69.3348 12.488 69.3348 12.32C69.3348 12.128 69.4068 11.984 69.5748 11.888C69.7188 11.816 69.9348 11.768 70.1988 11.744C70.5828 11.768 70.9668 11.768 71.3748 11.72C71.7588 11.696 72.1188 11.672 72.4548 11.624C72.6228 11.624 72.9348 11.576 73.3908 11.504C73.8228 11.456 74.3028 11.384 74.8788 11.288C75.4308 11.24 76.0308 11.144 76.6788 11.048C77.3028 10.976 77.9268 10.88 78.5268 10.784C79.1028 10.712 79.6548 10.64 80.1588 10.544C80.6388 10.496 81.0468 10.424 81.3348 10.352C81.5268 10.328 81.6708 10.28 81.8148 10.232C81.9108 10.184 82.0068 10.136 82.1028 10.064L82.4148 9.92C82.5108 9.872 82.6308 9.824 82.7748 9.8C82.9908 9.776 83.2308 9.752 83.5188 9.728C83.7828 9.728 84.0468 9.728 84.2868 9.752C84.5028 9.8 84.6948 9.848 84.8628 9.92C85.0068 10.016 85.1028 10.16 85.1028 10.328C85.1028 10.424 85.0788 10.496 85.0548 10.568C85.0068 10.664 84.9588 10.76 84.9348 10.832C84.8868 10.928 84.8388 11.024 84.8148 11.12C84.7668 11.24 84.7188 11.384 84.6948 11.576ZM86.8788 23.936C86.3508 23.984 85.7748 24.056 85.1028 24.104C84.4068 24.2 83.6868 24.272 82.9188 24.368C81.8868 24.512 80.8308 24.632 79.7748 24.776C78.6708 24.92 77.6388 25.064 76.6788 25.208L74.0148 25.616C73.1988 25.76 72.5748 25.904 72.1428 26C71.9508 26.048 71.7828 26.096 71.6148 26.192C71.4228 26.24 71.2548 26.312 71.1108 26.408C70.8228 26.552 70.5348 26.672 70.2468 26.768C69.9348 26.864 69.6228 26.864 69.2868 26.792C68.8068 26.672 68.3748 26.528 67.9908 26.336C67.5588 26.144 67.2948 26 67.1508 25.904C66.9348 25.808 66.8388 25.64 66.8388 25.424C66.8388 25.184 66.9348 25.016 67.1268 24.92C67.2948 24.848 67.5348 24.8 67.8228 24.776C68.2788 24.8 68.7828 24.8 69.3588 24.752C69.8868 24.728 70.3668 24.68 70.7988 24.632C71.0148 24.608 71.4228 24.56 71.9988 24.464C72.5508 24.416 73.1988 24.32 73.9428 24.224C74.6628 24.128 75.4548 24.032 76.2948 23.912C77.1108 23.816 77.9268 23.696 78.7188 23.576C79.4868 23.48 80.1828 23.384 80.8308 23.264C81.4548 23.168 81.9348 23.096 82.2708 23.024C82.7748 22.928 83.1588 22.808 83.4228 22.688C83.6628 22.592 83.8788 22.496 84.0708 22.4C84.1908 22.352 84.3108 22.28 84.4308 22.232C84.5268 22.208 84.6468 22.184 84.8388 22.136C84.9828 22.136 85.1508 22.112 85.3908 22.088C85.5828 22.088 85.7988 22.064 86.0388 22.064C86.2548 22.064 86.4708 22.088 86.7108 22.088C86.9028 22.112 87.0948 22.136 87.2628 22.136C87.8628 22.256 88.1748 22.496 88.1748 22.88C88.1748 23.168 88.0548 23.384 87.8388 23.576C87.5988 23.768 87.2868 23.888 86.8788 23.936ZM107.625 19.016C107.625 19.376 107.601 19.808 107.601 20.288C107.577 20.816 107.529 21.296 107.457 21.752C107.361 22.232 107.241 22.664 107.097 23C106.905 23.36 106.665 23.552 106.377 23.576C106.233 23.6 106.137 23.576 106.041 23.504C105.945 23.456 105.849 23.312 105.801 23.12C105.705 22.928 105.657 22.664 105.633 22.328C105.585 21.992 105.561 21.56 105.561 21.032V9.344C105.561 9.032 105.417 8.792 105.129 8.624C104.841 8.48 104.409 8.336 103.857 8.192C103.665 8.168 103.521 8.12 103.425 8.024C103.305 7.952 103.257 7.832 103.257 7.64C103.257 7.496 103.329 7.352 103.521 7.208C103.665 7.088 103.905 6.992 104.241 6.944C104.385 6.944 104.697 6.92 105.153 6.896C105.585 6.896 106.041 6.896 106.473 6.944C106.833 6.992 107.145 7.064 107.433 7.16C107.697 7.28 107.841 7.424 107.841 7.616C107.841 7.784 107.817 7.952 107.769 8.144C107.721 8.288 107.697 8.456 107.673 8.6C107.625 8.768 107.625 8.936 107.625 9.128V19.016ZM104.937 26.984C105.105 26.936 105.249 26.888 105.393 26.816C105.513 26.72 105.633 26.648 105.777 26.552C105.897 26.432 106.017 26.336 106.161 26.288C106.257 26.216 106.401 26.168 106.593 26.144C106.857 26.096 107.121 26.096 107.409 26.096C107.673 26.096 107.937 26.096 108.225 26.144C108.465 26.192 108.681 26.288 108.825 26.456C108.969 26.6 109.041 26.768 109.041 26.96C109.041 27.488 108.657 27.8 107.937 27.896C106.401 28.088 104.889 28.28 103.425 28.496C101.937 28.688 100.425 28.88 98.8892 29.096C97.4972 29.288 96.8252 28.664 96.8252 27.272V24.872C96.8252 24.584 96.6812 24.344 96.4172 24.152C96.1292 24.008 95.7212 23.864 95.1692 23.744C94.9772 23.72 94.8332 23.672 94.7372 23.576C94.6172 23.504 94.5692 23.384 94.5692 23.192C94.5692 23.048 94.6412 22.88 94.8332 22.736C94.9772 22.616 95.2172 22.544 95.5532 22.496C95.6972 22.472 96.0092 22.448 96.4652 22.424C96.8972 22.424 97.3532 22.448 97.7852 22.472C98.1452 22.52 98.4332 22.616 98.6492 22.76C98.8412 22.928 98.9372 23.096 98.9372 23.264V27.272C98.9372 27.464 98.9612 27.608 99.0572 27.68C99.1052 27.728 99.2252 27.752 99.3932 27.728L104.937 26.984ZM101.361 14.696C101.361 15.512 101.217 16.232 100.953 16.88C100.665 17.552 100.281 18.152 99.8012 18.632C99.2972 19.136 98.7212 19.544 98.0732 19.832C97.4012 20.144 96.7052 20.336 95.9852 20.432C95.2412 20.528 94.5452 20.504 93.8972 20.336C93.2252 20.192 92.6732 19.928 92.1932 19.544C91.6892 19.184 91.3052 18.704 91.0412 18.104C90.7532 17.528 90.6092 16.832 90.6092 16.016C90.6092 15.224 90.7532 14.504 91.0412 13.832C91.3052 13.184 91.6892 12.608 92.1932 12.104C92.6732 11.624 93.2252 11.216 93.8972 10.904C94.5452 10.616 95.2412 10.4 95.9852 10.304C96.7052 10.208 97.4012 10.232 98.0732 10.376C98.7212 10.544 99.2972 10.808 99.8012 11.168C100.281 11.552 100.665 12.032 100.953 12.608C101.217 13.208 101.361 13.904 101.361 14.696ZM99.1532 14.984C99.1532 13.88 98.8412 13.064 98.2652 12.536C97.6412 12.032 96.8972 11.84 95.9852 11.96C95.0492 12.08 94.2812 12.464 93.7052 13.112C93.1052 13.784 92.8172 14.672 92.8172 15.776C92.8172 16.856 93.1052 17.648 93.7052 18.176C94.2812 18.704 95.0492 18.92 95.9852 18.8C96.4172 18.752 96.8492 18.608 97.2572 18.392C97.6412 18.2 97.9772 17.912 98.2652 17.576C98.5292 17.264 98.7452 16.88 98.9132 16.424C99.0572 15.992 99.1532 15.512 99.1532 14.984Z" fill="#A7FFDF"/>
</g>
<g filter="url(#filter1_d_132_537)">
<mask id="path-2-inside-1_132_537" fill="white">
<path d="M25 38.7378H130V35.7378H25V38.7378Z"/>
</mask>
<path d="M130 38.7378H25V32.7378H130V38.7378Z" fill="#A7FFDF" mask="url(#path-2-inside-1_132_537)"/>
</g>
<defs>
<filter id="filter0_d_132_537" x="40.2685" y="0.895996" width="72.7726" height="30.3921" filterUnits="userSpaceOnUse" color-interpolation-filters="sRGB">
<feFlood flood-opacity="0" result="BackgroundImageFix"/>
<feColorMatrix in="SourceAlpha" type="matrix" values="0 0 0 0 0 0 0 0 0 0 0 0 0 0 0 0 0 0 127 0" result="hardAlpha"/>
<feOffset dy="-2"/>
<feGaussianBlur stdDeviation="2"/>
<feComposite in2="hardAlpha" operator="out"/>
<feColorMatrix type="matrix" values="0 0 0 0 0 0 0 0 0 0 0 0 0 0 0 0 0 0 0.25 0"/>
<feBlend mode="normal" in2="BackgroundImageFix" result="effect1_dropShadow_132_537"/>
<feBlend mode="normal" in="SourceGraphic" in2="effect1_dropShadow_132_537" result="shape"/>
</filter>
<filter id="filter1_d_132_537" x="0" y="8.73779" width="155" height="53" filterUnits="userSpaceOnUse" color-interpolation-filters="sRGB">
<feFlood flood-opacity="0" result="BackgroundImageFix"/>
<feColorMatrix in="SourceAlpha" type="matrix" values="0 0 0 0 0 0 0 0 0 0 0 0 0 0 0 0 0 0 127 0" result="hardAlpha"/>
<feMorphology radius="5" operator="dilate" in="SourceAlpha" result="effect1_dropShadow_132_537"/>
<feOffset dy="-2"/>
<feGaussianBlur stdDeviation="10"/>
<feComposite in2="hardAlpha" operator="out"/>
<feColorMatrix type="matrix" values="0 0 0 0 0.654167 0 0 0 0 1 0 0 0 0 0.8755 0 0 0 0.5 0"/>
<feBlend mode="normal" in2="BackgroundImageFix" result="effect1_dropShadow_132_537"/>
<feBlend mode="normal" in="SourceGraphic" in2="effect1_dropShadow_132_537" result="shape"/>
</filter>
</defs>
</svg>
