<svg width="130" height="65" viewBox="0 0 130 65" fill="none" xmlns="http://www.w3.org/2000/svg">
<path d="M42.8816 18.0614C43.0256 18.0434 43.1516 18.0074 43.2596 17.9354C43.3496 17.8994 43.4396 17.8454 43.5296 17.7734L43.7996 17.6114C43.8716 17.5754 43.9796 17.5394 44.1236 17.5034C44.3216 17.4854 44.5196 17.4674 44.7356 17.4494C44.9336 17.4494 45.1316 17.4674 45.3476 17.4854C45.5276 17.5394 45.6896 17.6114 45.7976 17.7194C45.9056 17.8454 45.9596 17.9714 45.9596 18.0974C45.9596 18.5114 45.6716 18.7454 45.1316 18.8174C44.3936 18.9254 43.6736 19.0154 42.9716 19.0874C42.2516 19.1954 41.5496 19.2854 40.8296 19.3754V21.6254C41.4416 21.5534 41.9816 21.4634 42.4856 21.3914C42.9536 21.3194 43.3316 21.2654 43.6016 21.1934C43.9796 21.1214 44.2676 21.0314 44.4656 20.9414C44.6456 20.8694 44.8076 20.7974 44.9516 20.7254C45.0416 20.6894 45.1316 20.6354 45.2216 20.5994C45.2936 20.5814 45.3836 20.5634 45.5276 20.5274C45.6356 20.5274 45.7616 20.5094 45.9416 20.4914C46.0856 20.4914 46.2476 20.4734 46.4276 20.4734C46.5896 20.4734 46.7516 20.4914 46.9316 20.4914C47.0756 20.5094 47.2196 20.5274 47.3456 20.5274C47.7956 20.6174 48.0296 20.7974 48.0296 21.0854C48.0296 21.3014 47.9396 21.4634 47.7776 21.6074C47.5976 21.7514 47.3636 21.8414 47.0576 21.8774C46.6616 21.9134 46.2296 21.9674 45.7256 22.0034C45.2036 22.0754 44.6636 22.1294 44.0876 22.2014C43.3136 22.3094 42.5216 22.3994 41.7296 22.5074C40.9016 22.6154 40.1276 22.7234 39.4076 22.8314L37.4096 23.1374C36.7976 23.2454 36.3296 23.3354 36.0056 23.4254C35.8616 23.4614 35.7356 23.4974 35.6096 23.5694C35.4656 23.6054 35.3396 23.6594 35.2316 23.7314C35.0156 23.8394 34.7996 23.9294 34.5836 24.0014C34.3496 24.0734 34.1156 24.0734 33.8636 24.0194C33.5036 23.9294 33.1796 23.8214 32.8916 23.6774C32.5676 23.5334 32.3696 23.4254 32.2616 23.3534C32.0996 23.2634 32.0276 23.1554 32.0276 22.9934C32.0276 22.8134 32.0996 22.6874 32.2436 22.6154C32.3696 22.5614 32.5496 22.5254 32.7656 22.5074C33.1076 22.5254 33.4856 22.5254 33.9176 22.4894C34.3136 22.4714 34.6736 22.4354 34.9976 22.3994C35.1236 22.3994 35.3396 22.3634 35.6276 22.3274C35.8976 22.2914 36.2216 22.2554 36.6176 22.2014C36.9776 22.1654 37.3916 22.1114 37.8596 22.0394C38.3096 21.9854 38.7776 21.9314 39.2456 21.8594V19.5914C38.8136 19.6634 38.3996 19.7174 38.0036 19.7534L36.7616 19.9154C35.7176 20.0594 35.2136 19.6094 35.2136 18.5474V16.9634C35.2136 16.8194 35.1416 16.6934 35.0156 16.5854C34.8716 16.4774 34.5836 16.3874 34.1876 16.2974C34.0436 16.2614 33.9356 16.2254 33.8636 16.1534C33.7736 16.1174 33.7376 16.0274 33.7376 15.8834C33.7376 15.7754 33.7916 15.6494 33.9356 15.5414C34.0436 15.4514 34.2236 15.3974 34.4756 15.3614C34.5836 15.3434 34.7816 15.3254 35.0696 15.3074C35.3216 15.3074 35.6096 15.3254 35.9336 15.3614C36.1316 15.3974 36.2936 15.4334 36.4376 15.4874L42.9716 14.5874V12.1574C42.8096 12.1754 42.5936 12.1934 42.3056 12.2294C41.9996 12.2834 41.6756 12.3374 41.3156 12.3734L40.1996 12.5354C39.8036 12.6074 39.4256 12.6614 39.0836 12.6974C38.7236 12.7694 38.3996 12.8234 38.1116 12.8594C37.8056 12.9314 37.5716 12.9674 37.4096 13.0034C37.3016 13.0394 37.2116 13.0574 37.1216 13.0934C37.0136 13.1474 36.9056 13.2014 36.8156 13.2554C36.6536 13.3454 36.4916 13.4174 36.3476 13.4714C36.1676 13.5434 35.9876 13.5434 35.7896 13.4894C35.6096 13.4534 35.4476 13.3994 35.2856 13.3274C35.1056 13.2734 34.9616 13.2014 34.8176 13.1294C34.6556 13.0754 34.5296 13.0214 34.4216 12.9494C34.3136 12.8954 34.2236 12.8594 34.1876 12.8234C34.1156 12.7694 34.0796 12.7154 34.0616 12.6614C34.0256 12.6254 34.0076 12.5714 34.0076 12.4994C34.0076 12.3554 34.0616 12.2294 34.1876 12.1574C34.2956 12.0854 34.4576 12.0674 34.6556 12.0674C34.9436 12.1034 35.2316 12.1034 35.5556 12.1034C35.8616 12.1034 36.1496 12.0854 36.4016 12.0494C36.5456 12.0494 36.7796 12.0134 37.0856 11.9594C37.3736 11.9234 37.6976 11.8874 38.0576 11.8334C38.4176 11.7974 38.7956 11.7434 39.2096 11.6714C39.6056 11.6354 39.9836 11.5814 40.3796 11.5094C40.7576 11.4734 41.1176 11.4194 41.4416 11.3654C41.7476 11.3294 41.9996 11.2754 42.2156 11.2394C42.3956 11.2034 42.5576 11.1494 42.6656 11.1134C42.7556 11.0774 42.8456 11.0414 42.9176 10.9874C42.9896 10.9514 43.0796 10.9154 43.1696 10.8794C43.2416 10.8434 43.3316 10.8254 43.4576 10.7894C43.6016 10.7894 43.7816 10.7714 43.9616 10.7534C44.1236 10.7534 44.2856 10.7714 44.4476 10.7894C44.5916 10.8254 44.7356 10.8794 44.8436 10.9334C44.9336 11.0054 44.9876 11.1134 44.9876 11.2214C44.9876 11.2934 44.9696 11.3654 44.9516 11.4374C44.9156 11.5274 44.8976 11.5994 44.8796 11.6534C44.8436 11.7254 44.8256 11.7974 44.7896 11.9054C44.7356 12.0134 44.6996 12.1754 44.6816 12.3554L44.4296 14.3714C44.8256 14.3714 45.0236 14.5154 45.0236 14.8214C45.0236 15.0374 44.9336 15.1814 44.7896 15.2714C44.6276 15.3794 44.4296 15.4514 44.1956 15.4694C42.9536 15.6494 41.7296 15.8114 40.5236 15.9554C39.2996 16.1354 38.0756 16.2974 36.8516 16.4414V18.4574C36.8516 18.7454 36.9596 18.8714 37.1936 18.8354L42.8816 18.0614ZM62.3473 12.4274C62.3113 12.6794 62.2753 12.9854 62.2393 13.3454C62.1673 13.7234 62.1133 14.1374 62.0413 14.5694C61.9693 15.0194 61.8793 15.4874 61.8073 15.9554C61.6993 16.4594 61.6093 16.9274 61.5373 17.3594C61.4293 17.8094 61.3393 18.2234 61.2673 18.5834C61.1593 18.9794 61.0693 19.2854 60.9973 19.5014C60.8893 19.7534 60.7813 19.8974 60.6733 19.9694C60.5473 20.0414 60.4393 20.0774 60.3313 20.0774C60.0433 20.0774 59.9353 19.8614 60.0073 19.4474C60.0433 19.1234 60.0973 18.6554 60.1513 18.0614C60.1873 17.4854 60.2413 16.8734 60.2953 16.1894L60.4033 14.1914C60.4213 13.5434 60.4393 12.9494 60.4573 12.4274L59.8993 12.4994C59.4313 12.5714 58.9273 12.6254 58.3873 12.6974C57.8113 12.7874 57.2713 12.8594 56.7493 12.9314L55.2913 13.1654C54.8593 13.2554 54.5353 13.3274 54.3193 13.3634C54.1753 13.3994 54.0673 13.4354 53.9773 13.4714C53.8693 13.5434 53.7613 13.5974 53.6893 13.6334C53.5093 13.7414 53.3293 13.8134 53.1493 13.8854C52.9693 13.9754 52.7713 13.9934 52.5553 13.9394C52.2313 13.8674 51.9073 13.7594 51.6193 13.5974C51.3133 13.4534 51.1153 13.3634 51.0253 13.2914C50.8813 13.2194 50.8273 13.1114 50.8273 12.9854C50.8273 12.8414 50.8813 12.7334 51.0073 12.6614C51.1153 12.6074 51.2773 12.5714 51.4753 12.5534C51.7633 12.5714 52.0513 12.5714 52.3573 12.5354C52.6453 12.5174 52.9153 12.4994 53.1673 12.4634C53.2933 12.4634 53.5273 12.4274 53.8693 12.3734C54.1933 12.3374 54.5533 12.2834 54.9853 12.2114C55.3993 12.1754 55.8493 12.1034 56.3353 12.0314C56.8033 11.9774 57.2713 11.9054 57.7213 11.8334C58.1533 11.7794 58.5673 11.7254 58.9453 11.6534C59.3053 11.6174 59.6113 11.5634 59.8273 11.5094C59.9713 11.4914 60.0793 11.4554 60.1873 11.4194C60.2593 11.3834 60.3313 11.3474 60.4033 11.2934L60.6373 11.1854C60.7093 11.1494 60.7993 11.1134 60.9073 11.0954C61.0693 11.0774 61.2493 11.0594 61.4653 11.0414C61.6633 11.0414 61.8613 11.0414 62.0413 11.0594C62.2033 11.0954 62.3473 11.1314 62.4733 11.1854C62.5813 11.2574 62.6533 11.3654 62.6533 11.4914C62.6533 11.5634 62.6353 11.6174 62.6173 11.6714C62.5813 11.7434 62.5453 11.8154 62.5273 11.8694C62.4913 11.9414 62.4553 12.0134 62.4373 12.0854C62.4013 12.1754 62.3653 12.2834 62.3473 12.4274ZM63.9853 21.6974C63.5893 21.7334 63.1573 21.7874 62.6533 21.8234C62.1313 21.8954 61.5913 21.9494 61.0153 22.0214C60.2413 22.1294 59.4493 22.2194 58.6573 22.3274C57.8293 22.4354 57.0553 22.5434 56.3353 22.6514L54.3373 22.9574C53.7253 23.0654 53.2573 23.1734 52.9333 23.2454C52.7893 23.2814 52.6633 23.3174 52.5373 23.3894C52.3933 23.4254 52.2673 23.4794 52.1593 23.5514C51.9433 23.6594 51.7273 23.7494 51.5113 23.8214C51.2773 23.8934 51.0433 23.8934 50.7913 23.8394C50.4313 23.7494 50.1073 23.6414 49.8193 23.4974C49.4953 23.3534 49.2973 23.2454 49.1893 23.1734C49.0273 23.1014 48.9553 22.9754 48.9553 22.8134C48.9553 22.6334 49.0273 22.5074 49.1713 22.4354C49.2973 22.3814 49.4773 22.3454 49.6933 22.3274C50.0353 22.3454 50.4133 22.3454 50.8453 22.3094C51.2413 22.2914 51.6013 22.2554 51.9253 22.2194C52.0873 22.2014 52.3933 22.1654 52.8253 22.0934C53.2393 22.0574 53.7253 21.9854 54.2833 21.9134C54.8233 21.8414 55.4173 21.7694 56.0473 21.6794C56.6593 21.6074 57.2713 21.5174 57.8653 21.4274C58.4413 21.3554 58.9633 21.2834 59.4493 21.1934C59.9173 21.1214 60.2773 21.0674 60.5293 21.0134C60.9073 20.9414 61.1953 20.8514 61.3933 20.7614C61.5733 20.6894 61.7353 20.6174 61.8793 20.5454C61.9693 20.5094 62.0593 20.4554 62.1493 20.4194C62.2213 20.4014 62.3113 20.3834 62.4553 20.3474C62.5633 20.3474 62.6893 20.3294 62.8693 20.3114C63.0133 20.3114 63.1753 20.2934 63.3553 20.2934C63.5173 20.2934 63.6793 20.3114 63.8593 20.3114C64.0033 20.3294 64.1473 20.3474 64.2733 20.3474C64.7233 20.4374 64.9573 20.6174 64.9573 20.9054C64.9573 21.1214 64.8673 21.2834 64.7053 21.4274C64.5253 21.5714 64.2913 21.6614 63.9853 21.6974ZM70.653 20.9234C70.041 20.9954 69.501 20.9774 68.997 20.8334C68.475 20.7074 68.043 20.4914 67.683 20.1674C67.305 19.8794 67.017 19.5014 66.819 19.0334C66.603 18.5834 66.495 18.0614 66.495 17.4854C66.495 16.9094 66.603 16.3874 66.819 15.8834C67.017 15.3974 67.305 14.9654 67.683 14.5694C68.043 14.2094 68.475 13.8854 68.997 13.6334C69.501 13.3994 70.041 13.2374 70.653 13.1654C71.247 13.0934 71.805 13.1114 72.327 13.2194C72.831 13.3454 73.263 13.5434 73.641 13.8314C74.001 14.1194 74.289 14.4974 74.505 14.9294C74.703 15.3794 74.811 15.8834 74.811 16.4594C74.811 17.0354 74.703 17.5754 74.505 18.0794C74.289 18.6014 74.001 19.0514 73.641 19.4474C73.263 19.8434 72.831 20.1674 72.327 20.4194C71.805 20.6894 71.247 20.8514 70.653 20.9234ZM78.591 15.4874L78.987 15.4334C79.113 15.4154 79.239 15.3794 79.347 15.3074C79.455 15.2534 79.545 15.1814 79.635 15.1094C79.725 15.0374 79.815 14.9654 79.905 14.9114C79.977 14.8754 80.085 14.8394 80.229 14.8034C80.427 14.7854 80.625 14.7674 80.841 14.7674C81.039 14.7674 81.237 14.7854 81.453 14.8034C81.633 14.8574 81.795 14.9294 81.903 15.0374C82.011 15.1634 82.065 15.2894 82.065 15.4154C82.065 15.8294 81.777 16.0634 81.237 16.1354L78.591 16.4594V21.4094V22.5434C78.573 23.0114 78.537 23.4434 78.483 23.8754C78.411 24.2894 78.321 24.6494 78.213 24.9734C78.069 25.2794 77.889 25.4594 77.655 25.4954C77.241 25.5494 77.043 24.7934 77.043 23.2274V10.8614C77.043 10.6274 76.935 10.4474 76.719 10.3214C76.503 10.2134 76.179 10.1054 75.765 10.0154C75.621 9.99736 75.513 9.96136 75.441 9.88936C75.351 9.83536 75.315 9.74536 75.315 9.60136C75.315 9.49336 75.369 9.36736 75.513 9.25936C75.621 9.16936 75.801 9.11536 76.053 9.07936C76.161 9.06136 76.395 9.04336 76.737 9.02536C77.061 9.02536 77.403 9.04336 77.727 9.07936C77.997 9.11536 78.231 9.16936 78.447 9.24136C78.645 9.33136 78.753 9.43936 78.753 9.58336C78.753 9.70936 78.735 9.83536 78.699 9.97936C78.663 10.0874 78.645 10.1954 78.627 10.3034C78.591 10.4474 78.591 10.5734 78.591 10.7174V15.4874ZM70.653 14.3174C69.951 14.4074 69.375 14.6954 68.907 15.1814C68.439 15.6854 68.205 16.3874 68.205 17.2694C68.205 18.1694 68.439 18.7994 68.907 19.1954C69.375 19.5914 69.951 19.7534 70.653 19.6634C71.337 19.5734 71.931 19.2674 72.399 18.7634C72.867 18.2774 73.101 17.5754 73.101 16.6754C73.101 15.8114 72.867 15.1634 72.399 14.7674C71.931 14.3894 71.337 14.2454 70.653 14.3174ZM86.5908 13.7954C86.5908 13.3094 86.6808 12.8414 86.8968 12.4094C87.0948 11.9954 87.3828 11.6174 87.7608 11.2754C88.1208 10.9514 88.5528 10.6814 89.0748 10.4474C89.5788 10.2314 90.1548 10.0874 90.7668 10.0154C91.3788 9.94336 91.9368 9.96136 92.4588 10.0334C92.9628 10.1414 93.4128 10.3034 93.7908 10.5194C94.1508 10.7714 94.4568 11.0774 94.6728 11.4374C94.8708 11.8334 94.9788 12.2654 94.9788 12.7514C94.9788 13.2554 94.8708 13.7054 94.6728 14.1194C94.4568 14.5514 94.1508 14.9294 93.7908 15.2534C93.4128 15.5954 92.9628 15.8654 92.4588 16.0814C91.9368 16.3154 91.3788 16.4594 90.7668 16.5314C90.1548 16.6034 89.5788 16.6034 89.0748 16.4954C88.5528 16.4234 88.1208 16.2614 87.7608 16.0094C87.3828 15.7934 87.0948 15.4874 86.8968 15.0914C86.6808 14.7314 86.5908 14.2994 86.5908 13.7954ZM97.8228 17.5574C97.4268 17.5934 96.9948 17.6474 96.4908 17.6834C95.9688 17.7554 95.4108 17.8094 94.8348 17.8814C94.3308 17.9534 93.8448 18.0074 93.3408 18.0614L91.8108 18.2774C91.7928 18.5654 91.7568 18.8894 91.7208 19.2314C91.6668 19.5914 91.5768 19.8974 91.4508 20.1314C91.5408 20.1674 91.6308 20.2034 91.7388 20.2214C91.8108 20.2574 91.9008 20.2934 91.9908 20.3294C92.1888 20.4194 92.3148 20.5454 92.3508 20.7074C92.3868 20.8874 92.3508 21.0854 92.2608 21.2654C92.0988 21.5534 91.9368 21.7874 91.7748 22.0034C92.1348 22.1834 92.5128 22.3274 92.8908 22.4714C93.2508 22.6334 93.4848 22.7234 93.6108 22.7594C93.6828 22.7954 93.7728 22.7954 93.8808 22.7774H94.1508C94.2948 22.7774 94.4568 22.7594 94.6368 22.7594C94.7988 22.7594 94.9428 22.8134 95.0868 22.9034C95.3388 23.0474 95.5908 23.2094 95.8428 23.3894C96.0588 23.5694 96.2928 23.7854 96.5448 24.0374C96.6708 24.1814 96.7428 24.3254 96.7608 24.4874C96.7788 24.6134 96.7608 24.7394 96.6888 24.8654C96.5988 24.9734 96.4728 25.0634 96.3108 25.1354C96.2028 25.1714 96.0768 25.1714 95.9328 25.1714C95.7528 25.1354 95.5368 25.0634 95.2668 24.9194L91.0368 22.8854C90.6408 23.2814 90.2268 23.6594 89.7948 24.0194L88.3908 25.0094L86.8968 25.8734L85.4028 26.6474C85.2588 26.7014 85.1328 26.7374 84.9888 26.7554C84.8448 26.7554 84.7368 26.7374 84.6828 26.6654C84.6108 26.5934 84.5928 26.4854 84.6288 26.3594C84.6468 26.2154 84.7368 26.0894 84.9168 25.9994C85.4748 25.6574 86.0328 25.2974 86.5908 24.9194C87.1308 24.5234 87.6348 24.1274 88.1208 23.7314C88.5888 23.3174 89.0028 22.9214 89.3808 22.5074C89.7408 22.1114 90.0468 21.7334 90.2628 21.3554C90.2988 21.2834 90.2988 21.2114 90.2628 21.1394C90.1908 21.0674 90.0648 20.9774 89.9028 20.8874C89.7228 20.8154 89.5428 20.7434 89.3448 20.6714C89.1648 20.6174 89.0568 20.5274 89.0388 20.4194C89.0028 20.3294 89.0028 20.2394 89.0388 20.1314C89.1108 19.9154 89.3628 19.8074 89.7768 19.8074C89.9028 19.8254 90.0828 19.8434 90.2988 19.8614C90.2268 19.5374 90.2088 19.1054 90.2088 18.5834V18.5114C89.4348 18.6194 88.7508 18.7274 88.1388 18.8354C87.5268 18.9434 87.0408 19.0514 86.6988 19.1234C86.4468 19.1954 86.1948 19.3034 85.9428 19.4294C85.7448 19.5374 85.5468 19.6274 85.3488 19.6814C85.1328 19.7534 84.8988 19.7714 84.6468 19.6994C84.2868 19.6274 83.9628 19.5014 83.6748 19.3574C83.3508 19.2134 83.1528 19.1054 83.0448 19.0334C82.8828 18.9614 82.8108 18.8354 82.8108 18.6734C82.8108 18.4934 82.8828 18.3674 83.0268 18.2954C83.1528 18.2414 83.3328 18.2054 83.5488 18.1874C83.8908 18.2054 84.2688 18.2054 84.7008 18.1694C85.0968 18.1514 85.4568 18.1154 85.7808 18.0794C85.9428 18.0614 86.2488 18.0254 86.6808 17.9534C87.0948 17.9174 87.5808 17.8454 88.1568 17.7734C88.6968 17.7014 89.2908 17.6294 89.9388 17.5394C90.5688 17.4674 91.1808 17.3774 91.7748 17.2874C92.3508 17.2154 92.8908 17.1254 93.3768 17.0534C93.8448 16.9814 94.2048 16.9274 94.4568 16.8734C94.8348 16.8014 95.1228 16.7114 95.3208 16.6214C95.5008 16.5494 95.6268 16.4954 95.7348 16.4234C95.8068 16.3694 95.8968 16.3154 95.9868 16.2794C96.0588 16.2614 96.1488 16.2434 96.2928 16.2074C96.4008 16.2074 96.5268 16.1894 96.7068 16.1714C96.8508 16.1714 97.0128 16.1534 97.1928 16.1534C97.3548 16.1534 97.5168 16.1714 97.6968 16.1714C97.8408 16.1894 97.9848 16.2074 98.1108 16.2074C98.5608 16.2974 98.7948 16.4774 98.7948 16.7654C98.7948 16.9814 98.7048 17.1434 98.5428 17.2874C98.3628 17.4494 98.1288 17.5394 97.8228 17.5574ZM88.2468 13.5794C88.2468 14.2634 88.4808 14.7674 88.9668 15.0734C89.4348 15.3974 90.0468 15.5054 90.8028 15.3974C91.5588 15.3074 92.1708 15.0374 92.6568 14.6054C93.1248 14.1914 93.3768 13.6334 93.3768 12.9494C93.3768 12.2654 93.1248 11.7794 92.6568 11.4554C92.1708 11.1674 91.5588 11.0594 90.8028 11.1494C90.0468 11.2574 89.4348 11.5094 88.9668 11.9234C88.4808 12.3554 88.2468 12.8954 88.2468 13.5794Z" fill="white"/>
<g filter="url(#filter0_d_80_388)">
<mask id="path-2-inside-1_80_388" fill="white">
<path d="M25.3774 33.1804H104.623V35.4427H25.3774V33.1804Z"/>
</mask>
<path d="M104.623 32.4427H25.3774V38.4427H104.623V32.4427Z" fill="white" mask="url(#path-2-inside-1_80_388)"/>
</g>
<defs>
<filter id="filter0_d_80_388" x="0.377441" y="12.1804" width="129.245" height="52.2622" filterUnits="userSpaceOnUse" color-interpolation-filters="sRGB">
<feFlood flood-opacity="0" result="BackgroundImageFix"/>
<feColorMatrix in="SourceAlpha" type="matrix" values="0 0 0 0 0 0 0 0 0 0 0 0 0 0 0 0 0 0 127 0" result="hardAlpha"/>
<feMorphology radius="5" operator="dilate" in="SourceAlpha" result="effect1_dropShadow_80_388"/>
<feOffset dy="4"/>
<feGaussianBlur stdDeviation="10"/>
<feComposite in2="hardAlpha" operator="out"/>
<feColorMatrix type="matrix" values="0 0 0 0 1 0 0 0 0 1 0 0 0 0 1 0 0 0 0.5 0"/>
<feBlend mode="normal" in2="BackgroundImageFix" result="effect1_dropShadow_80_388"/>
<feBlend mode="normal" in="SourceGraphic" in2="effect1_dropShadow_80_388" result="shape"/>
</filter>
</defs>
</svg>
