<svg width="51" height="51" viewBox="0 0 51 51" fill="none" xmlns="http://www.w3.org/2000/svg">
<path fill-rule="evenodd" clip-rule="evenodd" d="M25.5 22.3125C25.9227 22.3125 26.3281 22.4804 26.627 22.7793C26.9258 23.0782 27.0938 23.4836 27.0938 23.9062V28.6875H31.875C32.2977 28.6875 32.7031 28.8554 33.002 29.1543C33.3008 29.4532 33.4688 29.8586 33.4688 30.2812C33.4688 30.7039 33.3008 31.1093 33.002 31.4082C32.7031 31.7071 32.2977 31.875 31.875 31.875H27.0938V36.6562C27.0938 37.0789 26.9258 37.4843 26.627 37.7832C26.3281 38.0821 25.9227 38.25 25.5 38.25C25.0773 38.25 24.6719 38.0821 24.373 37.7832C24.0742 37.4843 23.9062 37.0789 23.9062 36.6562V31.875H19.125C18.7023 31.875 18.2969 31.7071 17.998 31.4082C17.6992 31.1093 17.5312 30.7039 17.5312 30.2812C17.5312 29.8586 17.6992 29.4532 17.998 29.1543C18.2969 28.8554 18.7023 28.6875 19.125 28.6875H23.9062V23.9062C23.9062 23.4836 24.0742 23.0782 24.373 22.7793C24.6719 22.4804 25.0773 22.3125 25.5 22.3125Z" fill="#F8F8F8"/>
<path d="M12.75 4.78125H9.5625C7.87174 4.78125 6.25024 5.4529 5.05469 6.64844C3.85915 7.84399 3.1875 9.46549 3.1875 11.1562V44.625C3.1875 46.3158 3.85915 47.9373 5.05469 49.1328C6.25024 50.3284 7.87174 51 9.5625 51H41.4375C43.1283 51 44.7498 50.3284 45.9453 49.1328C47.1409 47.9373 47.8125 46.3158 47.8125 44.625V11.1562C47.8125 9.46549 47.1409 7.84399 45.9453 6.64844C44.7498 5.4529 43.1283 4.78125 41.4375 4.78125H38.25V7.96875H41.4375C42.2829 7.96875 43.0936 8.30457 43.6914 8.90235C44.2892 9.50012 44.625 10.3109 44.625 11.1562V44.625C44.625 45.4704 44.2892 46.2811 43.6914 46.8789C43.0936 47.4767 42.2829 47.8125 41.4375 47.8125H9.5625C8.71712 47.8125 7.90637 47.4767 7.3086 46.8789C6.71082 46.2811 6.375 45.4704 6.375 44.625V11.1562C6.375 10.3109 6.71082 9.50012 7.3086 8.90235C7.90637 8.30457 8.71712 7.96875 9.5625 7.96875H12.75V4.78125Z" fill="#F8F8F8"/>
<path d="M30.2812 3.1875C30.7039 3.1875 31.1093 3.35541 31.4082 3.6543C31.7071 3.95318 31.875 4.35856 31.875 4.78125V7.96875C31.875 8.39144 31.7071 8.79681 31.4082 9.0957C31.1093 9.39459 30.7039 9.5625 30.2812 9.5625H20.7188C20.2961 9.5625 19.8907 9.39459 19.5918 9.0957C19.2929 8.79681 19.125 8.39144 19.125 7.96875V4.78125C19.125 4.35856 19.2929 3.95318 19.5918 3.6543C19.8907 3.35541 20.2961 3.1875 20.7188 3.1875H30.2812ZM20.7188 0C19.4507 0 18.2346 0.503737 17.3379 1.4004C16.4412 2.29705 15.9375 3.51318 15.9375 4.78125V7.96875C15.9375 9.23682 16.4412 10.4529 17.3379 11.3496C18.2346 12.2463 19.4507 12.75 20.7188 12.75H30.2812C31.5493 12.75 32.7654 12.2463 33.6621 11.3496C34.5588 10.4529 35.0625 9.23682 35.0625 7.96875V4.78125C35.0625 3.51318 34.5588 2.29705 33.6621 1.4004C32.7654 0.503737 31.5493 0 30.2812 0L20.7188 0Z" fill="#F8F8F8"/>
</svg>
