<svg width="159" height="76" viewBox="0 0 159 76" fill="none" xmlns="http://www.w3.org/2000/svg">
<path d="M54.5114 28.716V30.228C54.4874 30.852 54.4394 31.428 54.3674 32.004C54.2714 32.556 54.1514 33.036 54.0074 33.468C53.8154 33.876 53.5754 34.116 53.2634 34.164C52.9994 34.188 52.8074 33.948 52.6634 33.468C52.5194 32.964 52.4474 32.196 52.4474 31.14V27.9C50.6954 28.524 48.8714 29.1 46.9994 29.628C45.0794 30.18 43.2074 30.66 41.3594 31.092C41.1674 31.14 40.9994 31.212 40.8794 31.284C40.7354 31.332 40.5914 31.404 40.4714 31.5C40.2554 31.62 40.0394 31.74 39.7994 31.86C39.5594 31.956 39.2714 31.956 38.9594 31.884C38.4554 31.764 37.9754 31.596 37.5194 31.404C37.0394 31.212 36.7034 31.02 36.5594 30.852C36.5114 30.804 36.4634 30.756 36.4154 30.684C36.3674 30.636 36.3434 30.564 36.3434 30.468C36.3434 30.252 36.4394 30.084 36.6314 29.988C36.7994 29.892 37.0394 29.844 37.3274 29.82C37.7834 29.844 38.2394 29.844 38.7194 29.796C39.1514 29.772 39.5834 29.724 39.9914 29.676C40.3274 29.628 40.7834 29.556 41.3594 29.436C41.9114 29.34 42.5594 29.22 43.2794 29.052V27.3C42.1514 27.3 41.2874 27.036 40.6634 26.508C40.0394 26.004 39.7274 25.308 39.7274 24.396C39.7274 23.892 39.8234 23.412 40.0394 22.932C40.2314 22.5 40.5434 22.092 40.9514 21.732C41.3354 21.396 41.8394 21.084 42.4154 20.844C42.9914 20.628 43.6394 20.46 44.3594 20.364C45.7994 20.196 46.9514 20.364 47.7674 20.892C48.5594 21.444 48.9674 22.236 48.9674 23.268C48.9674 24.18 48.6554 24.948 48.0314 25.62C47.3834 26.316 46.4954 26.796 45.3914 27.06V28.548C46.5914 28.26 47.8154 27.948 49.0634 27.612C50.2874 27.276 51.4154 26.94 52.4474 26.604V14.556C52.4474 14.244 52.3034 14.004 52.0154 13.836C51.7274 13.692 51.2954 13.548 50.7434 13.428C50.5514 13.404 50.4074 13.356 50.3114 13.26C50.1914 13.188 50.1434 13.068 50.1434 12.876C50.1434 12.732 50.2154 12.564 50.4074 12.42C50.5514 12.3 50.7914 12.228 51.1274 12.18C51.2714 12.156 51.5834 12.132 52.0394 12.108C52.4714 12.108 52.9274 12.132 53.3594 12.156C53.7194 12.204 54.0314 12.276 54.3194 12.372C54.5834 12.492 54.7274 12.636 54.7274 12.828C54.7274 13.02 54.7034 13.188 54.6554 13.38C54.6074 13.524 54.5834 13.668 54.5594 13.812C54.5114 14.004 54.5114 14.172 54.5114 14.364V28.716ZM46.7354 17.532C46.9514 17.484 47.1434 17.436 47.2874 17.34C47.4314 17.292 47.5514 17.22 47.6714 17.124C47.9114 16.932 48.1754 16.812 48.4874 16.764C48.7514 16.74 49.0394 16.716 49.3274 16.716C49.6154 16.716 49.9034 16.74 50.1914 16.764C50.7674 16.86 51.0554 17.148 51.0554 17.604C51.0554 18.156 50.6714 18.468 49.9034 18.564L48.7514 18.708C48.0794 18.804 47.4074 18.876 46.7594 18.972C46.0874 19.068 45.4394 19.164 44.8394 19.236C44.2154 19.332 43.6634 19.428 43.1354 19.524C42.5834 19.62 42.1034 19.716 41.7194 19.788C41.5274 19.836 41.3834 19.884 41.2874 19.932C41.1434 20.028 41.0234 20.1 40.9034 20.172C40.6874 20.316 40.4714 20.412 40.2554 20.508C40.0154 20.604 39.7274 20.628 39.4394 20.556C39.1994 20.508 38.9834 20.46 38.7914 20.364C38.5514 20.292 38.3594 20.196 38.1674 20.1C37.9754 20.028 37.8074 19.956 37.6634 19.86C37.4954 19.788 37.3754 19.716 37.3274 19.668C37.1354 19.572 37.0634 19.428 37.0634 19.26C37.0634 19.044 37.1354 18.876 37.3274 18.78C37.4714 18.708 37.6874 18.66 37.9514 18.66C38.3594 18.684 38.7674 18.684 39.1754 18.636C39.5594 18.636 39.9434 18.588 40.3274 18.54L42.0794 18.324C42.3674 18.3 42.6554 18.252 42.9434 18.204C43.2074 18.18 43.5194 18.132 43.8794 18.06C44.2154 18.012 44.5994 17.94 45.0794 17.844C45.5114 17.772 46.0634 17.676 46.7354 17.532ZM41.8394 24.06C41.8394 24.636 42.0554 25.044 42.5114 25.332C42.9434 25.644 43.5674 25.74 44.3594 25.644C45.1274 25.572 45.7274 25.332 46.1834 24.9C46.6154 24.516 46.8314 24.036 46.8314 23.46C46.8314 22.884 46.6154 22.452 46.1834 22.164C45.7274 21.9 45.1274 21.804 44.3594 21.876C43.5674 21.972 42.9434 22.212 42.5114 22.596C42.0554 23.004 41.8394 23.484 41.8394 24.06ZM47.1674 15.612C47.1674 15.876 47.0474 16.092 46.8074 16.26C46.5434 16.452 46.2554 16.572 45.9434 16.644C45.3674 16.788 44.8634 16.908 44.3834 16.98C43.8794 17.076 43.3034 17.172 42.6314 17.22C42.4394 17.268 42.2474 17.244 42.0554 17.172C41.8634 17.124 41.6714 17.028 41.5034 16.908C41.3114 16.812 41.1194 16.692 40.9754 16.548C40.8074 16.404 40.6874 16.284 40.5914 16.14C40.4954 16.044 40.4714 15.924 40.4714 15.78C40.4714 15.636 40.5434 15.492 40.7354 15.396C40.8794 15.324 41.1194 15.3 41.4314 15.324C41.5994 15.372 41.7914 15.396 42.0314 15.396C42.2474 15.42 42.4634 15.42 42.7034 15.42C42.8714 15.42 43.0874 15.42 43.3274 15.396C43.5674 15.396 43.8314 15.372 44.1194 15.324C44.4074 15.3 44.7194 15.252 45.0074 15.204C45.2714 15.156 45.5594 15.108 45.8714 15.06C46.2794 15.012 46.5914 15.012 46.8314 15.06C47.0474 15.132 47.1674 15.324 47.1674 15.612ZM61.2417 19.164C61.2417 18.54 61.3617 17.94 61.6257 17.412C61.8657 16.908 62.2017 16.452 62.6577 16.044C63.0897 15.66 63.5937 15.324 64.1937 15.06C64.7697 14.82 65.4177 14.676 66.0897 14.58C66.7617 14.508 67.3857 14.508 67.9857 14.604C68.5617 14.724 69.0657 14.916 69.5217 15.18C69.9537 15.468 70.2897 15.852 70.5537 16.308C70.7937 16.788 70.9137 17.34 70.9137 17.964C70.9137 18.612 70.7937 19.188 70.5537 19.692C70.2897 20.22 69.9537 20.7 69.5217 21.084C69.0657 21.492 68.5617 21.804 67.9857 22.044C67.3857 22.308 66.7617 22.476 66.0897 22.548C65.4177 22.644 64.7697 22.62 64.1937 22.5C63.5937 22.404 63.0897 22.212 62.6577 21.924C62.2017 21.66 61.8657 21.3 61.6257 20.82C61.3617 20.364 61.2417 19.812 61.2417 19.164ZM73.0737 26.604C72.8337 26.7 72.6417 26.796 72.5457 26.892C72.4017 26.988 72.2817 27.06 72.1617 27.108C72.0177 27.18 71.8257 27.204 71.5617 27.156C71.4177 27.156 71.2737 27.108 71.1297 27.06C70.9617 27.012 70.7937 26.964 70.6497 26.916C70.4577 26.868 70.3137 26.82 70.1697 26.748C70.0257 26.7 69.9057 26.628 69.8097 26.58C69.6657 26.508 69.5697 26.436 69.5217 26.34C69.4257 26.292 69.4017 26.196 69.4017 26.052C69.4017 25.932 69.4257 25.812 69.5217 25.716C69.5937 25.644 69.7377 25.596 69.9777 25.548C70.4097 25.5 70.6977 25.452 70.8897 25.428C71.0577 25.428 71.2017 25.428 71.3457 25.404C71.7537 25.356 72.2817 25.284 72.9057 25.188C73.5297 25.116 74.1297 25.044 74.7057 24.948V14.604C74.7057 14.292 74.5617 14.052 74.2737 13.884C73.9857 13.74 73.5537 13.596 73.0017 13.452C72.8097 13.428 72.6657 13.38 72.5697 13.284C72.4497 13.212 72.4017 13.092 72.4017 12.9C72.4017 12.756 72.4737 12.612 72.6657 12.468C72.8097 12.348 73.0497 12.252 73.3857 12.204C73.5297 12.204 73.8417 12.18 74.2977 12.156C74.7297 12.156 75.1857 12.156 75.6177 12.204C75.9777 12.252 76.2897 12.324 76.5777 12.42C76.8417 12.54 76.9857 12.684 76.9857 12.876C76.9857 13.044 76.9617 13.212 76.9137 13.404C76.8657 13.548 76.8417 13.716 76.8177 13.86C76.7697 14.028 76.7697 14.196 76.7697 14.388V25.092C76.7697 25.452 76.7457 25.884 76.7457 26.364C76.7217 26.892 76.6737 27.372 76.6017 27.828C76.5057 28.308 76.3857 28.74 76.2417 29.076C76.0497 29.436 75.8097 29.628 75.5217 29.652C75.3777 29.676 75.2817 29.652 75.1857 29.58C75.0897 29.532 74.9937 29.388 74.9457 29.196C74.8497 29.004 74.8017 28.74 74.7777 28.404C74.7297 28.068 74.7057 27.636 74.7057 27.108V26.292C74.4177 26.34 74.1537 26.364 73.9137 26.412C73.6497 26.46 73.3617 26.532 73.0737 26.604ZM63.5937 25.692C63.4017 25.74 63.2337 25.788 63.1137 25.86C62.9697 25.956 62.8257 26.028 62.7057 26.1C62.4897 26.244 62.2737 26.34 62.0337 26.436C61.7937 26.532 61.5057 26.556 61.1937 26.484C60.6897 26.388 60.2097 26.22 59.7537 25.98C59.2737 25.788 58.9377 25.596 58.7937 25.452C58.7457 25.404 58.6977 25.356 58.6497 25.284C58.6017 25.236 58.5777 25.164 58.5777 25.068C58.5777 24.852 58.6737 24.684 58.8657 24.588C59.0337 24.492 59.2737 24.444 59.5617 24.42C60.0177 24.42 60.4737 24.42 60.9537 24.372C61.3857 24.372 61.8177 24.324 62.2257 24.276C62.7297 24.228 63.4257 24.108 64.2897 23.916C65.1297 23.772 66.0657 23.556 67.0977 23.316C68.1057 23.076 69.1377 22.812 70.2417 22.524C71.2977 22.236 72.3297 21.948 73.2897 21.636C73.4817 21.588 73.6737 21.54 73.9137 21.54C74.1297 21.564 74.2497 21.708 74.2497 21.948C74.2497 22.14 74.1537 22.308 73.9617 22.452C73.7697 22.62 73.5777 22.74 73.4097 22.812C72.3537 23.22 71.3457 23.58 70.3857 23.868C69.4017 24.18 68.3937 24.468 67.3857 24.732L67.3137 25.932C67.2657 26.364 67.1937 26.772 67.1217 27.132C67.0257 27.516 66.8817 27.852 66.7377 28.092C66.5697 28.356 66.3537 28.5 66.1137 28.524C65.8497 28.572 65.6337 28.404 65.4897 28.044C65.3217 27.708 65.2497 27.012 65.2497 25.956V25.284C64.9617 25.38 64.6977 25.452 64.4337 25.5C64.1457 25.572 63.8577 25.644 63.5937 25.692ZM74.1297 32.388C74.2977 32.34 74.4417 32.292 74.5857 32.22C74.7057 32.124 74.8257 32.028 74.9697 31.932C75.0897 31.836 75.2097 31.74 75.3537 31.692C75.4497 31.62 75.5937 31.572 75.7857 31.548C76.3137 31.452 76.8417 31.452 77.4177 31.548C77.6577 31.596 77.8737 31.692 78.0177 31.86C78.1617 32.004 78.2337 32.172 78.2337 32.364C78.2337 32.892 77.8497 33.18 77.1297 33.276C75.4737 33.492 73.8417 33.708 72.2337 33.948C70.6017 34.14 68.9457 34.356 67.3137 34.572C65.9217 34.764 65.2497 34.164 65.2497 32.772V31.524C65.2497 31.236 65.1057 30.996 64.8417 30.804C64.5537 30.66 64.1457 30.516 63.5937 30.396C63.4017 30.348 63.2577 30.3 63.1617 30.204C63.0417 30.156 62.9937 30.036 62.9937 29.844C62.9937 29.7 63.0657 29.532 63.2577 29.388C63.4017 29.268 63.6417 29.196 63.9777 29.148C64.1217 29.124 64.4337 29.1 64.8897 29.076C65.3217 29.076 65.7777 29.1 66.2097 29.124C66.5697 29.172 66.8577 29.244 67.0737 29.388C67.2657 29.556 67.3617 29.724 67.3617 29.892V32.748C67.3617 33.108 67.5057 33.276 67.8177 33.228L74.1297 32.388ZM68.7537 18.228C68.7537 17.484 68.5137 16.932 68.0577 16.548C67.5777 16.212 66.9057 16.092 66.0897 16.188C65.2257 16.284 64.5777 16.572 64.1217 17.028C63.6417 17.508 63.4257 18.132 63.4257 18.876C63.4257 19.644 63.6417 20.196 64.1217 20.532C64.5777 20.916 65.2257 21.036 66.0897 20.94C66.9057 20.844 67.5777 20.532 68.0577 20.052C68.5137 19.596 68.7537 18.996 68.7537 18.228ZM98.068 20.916L98.596 20.844C98.764 20.82 98.932 20.772 99.076 20.676C99.22 20.604 99.34 20.508 99.46 20.412C99.58 20.316 99.7 20.22 99.82 20.148C99.916 20.1 100.06 20.052 100.252 20.004C100.516 19.98 100.78 19.956 101.068 19.956C101.332 19.956 101.596 19.98 101.884 20.004C102.124 20.076 102.34 20.172 102.484 20.316C102.628 20.484 102.7 20.652 102.7 20.82C102.7 21.372 102.316 21.684 101.596 21.78L98.068 22.212V28.812V30.324C98.044 30.948 97.996 31.524 97.924 32.1C97.828 32.652 97.708 33.132 97.564 33.564C97.372 33.972 97.132 34.212 96.82 34.26C96.268 34.332 96.004 33.324 96.004 31.236V14.748C96.004 14.436 95.86 14.196 95.572 14.028C95.284 13.884 94.852 13.74 94.3 13.62C94.108 13.596 93.964 13.548 93.868 13.452C93.748 13.38 93.7 13.26 93.7 13.068C93.7 12.924 93.772 12.756 93.964 12.612C94.108 12.492 94.348 12.42 94.684 12.372C94.828 12.348 95.14 12.324 95.596 12.3C96.028 12.3 96.484 12.324 96.916 12.372C97.276 12.42 97.588 12.492 97.876 12.588C98.14 12.708 98.284 12.852 98.284 13.044C98.284 13.212 98.26 13.38 98.212 13.572C98.164 13.716 98.14 13.86 98.116 14.004C98.068 14.196 98.068 14.364 98.068 14.556V20.916ZM89.452 17.316C89.764 17.268 90.004 17.172 90.196 17.028L90.508 16.884C90.604 16.836 90.724 16.788 90.868 16.74C91.084 16.74 91.324 16.716 91.564 16.692C91.804 16.692 92.02 16.692 92.236 16.716C92.428 16.764 92.596 16.836 92.74 16.908C92.86 17.004 92.932 17.148 92.932 17.316C92.932 17.46 92.884 17.58 92.812 17.724C92.716 17.868 92.62 18.012 92.524 18.132C92.476 18.204 92.428 18.252 92.38 18.3C92.332 18.372 92.284 18.444 92.26 18.516C91.204 21.132 89.884 23.46 88.252 25.524C86.596 27.588 84.628 29.46 82.372 31.14C82.18 31.26 82.036 31.332 81.892 31.332C81.724 31.308 81.604 31.26 81.532 31.164C81.436 31.092 81.412 30.972 81.436 30.828C81.436 30.708 81.508 30.564 81.676 30.372C83.452 28.692 85.036 26.868 86.428 24.924C87.82 23.004 88.924 20.868 89.764 18.54L87.58 18.876C86.908 18.996 86.356 19.116 85.924 19.212C85.756 19.26 85.612 19.308 85.492 19.356C85.348 19.452 85.252 19.524 85.156 19.596C84.964 19.74 84.772 19.836 84.556 19.908C84.316 20.004 84.076 20.028 83.812 19.956C83.38 19.86 82.948 19.74 82.564 19.548C82.156 19.404 81.892 19.284 81.772 19.188C81.58 19.092 81.508 18.948 81.508 18.756C81.508 18.564 81.58 18.42 81.748 18.324C81.892 18.276 82.108 18.228 82.372 18.204C82.756 18.228 83.14 18.228 83.548 18.18C83.932 18.156 84.292 18.108 84.628 18.06C85.18 18.012 85.9 17.892 86.812 17.748C87.7 17.628 88.588 17.484 89.452 17.316ZM110.27 24.588C109.526 24.684 108.83 24.66 108.182 24.516C107.51 24.396 106.958 24.156 106.478 23.82C105.974 23.484 105.59 23.052 105.326 22.476C105.038 21.948 104.894 21.3 104.894 20.532C104.894 19.764 105.038 19.068 105.326 18.444C105.59 17.844 105.974 17.316 106.478 16.836C106.958 16.404 107.51 16.02 108.182 15.732C108.83 15.468 109.526 15.276 110.27 15.18C110.99 15.084 111.686 15.108 112.358 15.228C113.006 15.372 113.582 15.588 114.086 15.924C114.566 16.26 114.95 16.716 115.238 17.244C115.502 17.796 115.646 18.444 115.646 19.212C115.646 19.98 115.502 20.652 115.238 21.276C114.95 21.9 114.566 22.452 114.086 22.884C113.582 23.364 113.006 23.724 112.358 24.012C111.686 24.3 110.99 24.492 110.27 24.588ZM121.91 30.372C121.91 30.732 121.886 31.116 121.886 31.548C121.862 31.98 121.814 32.388 121.742 32.772C121.646 33.132 121.526 33.444 121.382 33.732C121.19 33.996 120.95 34.14 120.662 34.188C120.494 34.212 120.35 34.164 120.254 34.044C120.11 33.9 120.014 33.684 119.966 33.372L113.15 34.212C113.054 34.548 112.934 34.836 112.79 35.076C112.598 35.316 112.382 35.436 112.118 35.484C111.974 35.484 111.878 35.46 111.782 35.412C111.686 35.316 111.59 35.196 111.542 35.004C111.446 34.812 111.398 34.548 111.374 34.212C111.326 33.876 111.302 33.444 111.302 32.94V28.86C111.302 28.572 111.182 28.332 110.942 28.14C110.678 27.996 110.27 27.852 109.718 27.708C109.526 27.684 109.382 27.636 109.286 27.54C109.166 27.492 109.118 27.372 109.118 27.18C109.118 27.036 109.19 26.868 109.382 26.724C109.526 26.604 109.766 26.532 110.102 26.484C110.246 26.46 110.534 26.436 110.966 26.412C111.35 26.412 111.782 26.436 112.214 26.484C112.574 26.532 112.862 26.604 113.078 26.748C113.27 26.916 113.366 27.084 113.366 27.252V28.86L119.846 28.068V27.228C119.846 26.94 119.726 26.7 119.486 26.508C119.222 26.34 118.814 26.196 118.262 26.076C118.07 26.052 117.926 26.004 117.83 25.908C117.71 25.836 117.662 25.716 117.662 25.524C117.662 25.38 117.734 25.212 117.926 25.068C118.07 24.948 118.31 24.876 118.646 24.828C118.79 24.804 119.078 24.78 119.51 24.756C119.894 24.756 120.326 24.78 120.758 24.828C121.118 24.876 121.406 24.948 121.622 25.092C121.814 25.26 121.91 25.428 121.91 25.596V30.372ZM110.27 16.86C109.334 16.98 108.566 17.316 107.99 17.892C107.39 18.492 107.102 19.284 107.102 20.292C107.102 21.276 107.39 21.996 107.99 22.428C108.566 22.908 109.334 23.076 110.27 22.956C111.182 22.836 111.926 22.476 112.55 21.852C113.126 21.276 113.438 20.484 113.438 19.5C113.438 18.492 113.126 17.772 112.55 17.316C111.926 16.884 111.182 16.74 110.27 16.86ZM121.91 19.332C121.91 19.692 121.886 20.124 121.886 20.604C121.862 21.132 121.814 21.612 121.742 22.068C121.646 22.548 121.526 22.98 121.382 23.316C121.19 23.676 120.95 23.868 120.662 23.892C120.518 23.916 120.422 23.892 120.326 23.82C120.23 23.772 120.134 23.628 120.086 23.436C119.99 23.244 119.942 22.98 119.918 22.644C119.87 22.308 119.846 21.876 119.846 21.348V14.604C119.846 14.292 119.702 14.052 119.414 13.884C119.126 13.74 118.694 13.596 118.142 13.452C117.95 13.428 117.806 13.38 117.71 13.284C117.59 13.212 117.542 13.092 117.542 12.9C117.542 12.756 117.614 12.612 117.806 12.468C117.95 12.348 118.19 12.252 118.526 12.204C118.67 12.204 118.982 12.18 119.438 12.156C119.87 12.156 120.326 12.156 120.758 12.204C121.118 12.252 121.43 12.324 121.718 12.42C121.982 12.54 122.126 12.684 122.126 12.876C122.126 13.044 122.102 13.212 122.054 13.404C122.006 13.548 121.982 13.716 121.958 13.86C121.91 14.028 121.91 14.196 121.91 14.388V19.332ZM113.366 30.324V32.172C113.366 32.364 113.342 32.556 113.342 32.748L119.846 31.956V29.532L113.366 30.324Z" fill="white"/>
<g filter="url(#filter0_d_34_421)">
<mask id="path-2-inside-1_34_421" fill="white">
<path d="M27 44H132V47H27V44Z"/>
</mask>
<path d="M132 44H27V50H132V44Z" fill="white" mask="url(#path-2-inside-1_34_421)"/>
</g>
<defs>
<filter id="filter0_d_34_421" x="2" y="23" width="155" height="53" filterUnits="userSpaceOnUse" color-interpolation-filters="sRGB">
<feFlood flood-opacity="0" result="BackgroundImageFix"/>
<feColorMatrix in="SourceAlpha" type="matrix" values="0 0 0 0 0 0 0 0 0 0 0 0 0 0 0 0 0 0 127 0" result="hardAlpha"/>
<feMorphology radius="5" operator="dilate" in="SourceAlpha" result="effect1_dropShadow_34_421"/>
<feOffset dy="4"/>
<feGaussianBlur stdDeviation="10"/>
<feComposite in2="hardAlpha" operator="out"/>
<feColorMatrix type="matrix" values="0 0 0 0 1 0 0 0 0 1 0 0 0 0 1 0 0 0 0.5 0"/>
<feBlend mode="normal" in2="BackgroundImageFix" result="effect1_dropShadow_34_421"/>
<feBlend mode="normal" in="SourceGraphic" in2="effect1_dropShadow_34_421" result="shape"/>
</filter>
</defs>
</svg>
