<svg width="155" height="62" viewBox="0 0 155 62" fill="none" xmlns="http://www.w3.org/2000/svg">
<g filter="url(#filter0_d_132_529)">
<path d="M51.5114 23.456V24.968C51.4874 25.592 51.4394 26.168 51.3674 26.744C51.2714 27.296 51.1514 27.776 51.0074 28.208C50.8154 28.616 50.5754 28.856 50.2634 28.904C49.9994 28.928 49.8074 28.688 49.6634 28.208C49.5194 27.704 49.4474 26.936 49.4474 25.88V22.64C47.6954 23.264 45.8714 23.84 43.9994 24.368C42.0794 24.92 40.2074 25.4 38.3594 25.832C38.1674 25.88 37.9994 25.952 37.8794 26.024C37.7354 26.072 37.5914 26.144 37.4714 26.24C37.2554 26.36 37.0394 26.48 36.7994 26.6C36.5594 26.696 36.2714 26.696 35.9594 26.624C35.4554 26.504 34.9754 26.336 34.5194 26.144C34.0394 25.952 33.7034 25.76 33.5594 25.592C33.5114 25.544 33.4634 25.496 33.4154 25.424C33.3674 25.376 33.3434 25.304 33.3434 25.208C33.3434 24.992 33.4394 24.824 33.6314 24.728C33.7994 24.632 34.0394 24.584 34.3274 24.56C34.7834 24.584 35.2394 24.584 35.7194 24.536C36.1514 24.512 36.5834 24.464 36.9914 24.416C37.3274 24.368 37.7834 24.296 38.3594 24.176C38.9114 24.08 39.5594 23.96 40.2794 23.792V22.04C39.1514 22.04 38.2874 21.776 37.6634 21.248C37.0394 20.744 36.7274 20.048 36.7274 19.136C36.7274 18.632 36.8234 18.152 37.0394 17.672C37.2314 17.24 37.5434 16.832 37.9514 16.472C38.3354 16.136 38.8394 15.824 39.4154 15.584C39.9914 15.368 40.6394 15.2 41.3594 15.104C42.7994 14.936 43.9514 15.104 44.7674 15.632C45.5594 16.184 45.9674 16.976 45.9674 18.008C45.9674 18.92 45.6554 19.688 45.0314 20.36C44.3834 21.056 43.4954 21.536 42.3914 21.8V23.288C43.5914 23 44.8154 22.688 46.0634 22.352C47.2874 22.016 48.4154 21.68 49.4474 21.344V9.296C49.4474 8.984 49.3034 8.744 49.0154 8.576C48.7274 8.432 48.2954 8.288 47.7434 8.168C47.5514 8.144 47.4074 8.096 47.3114 8C47.1914 7.928 47.1434 7.808 47.1434 7.616C47.1434 7.472 47.2154 7.304 47.4074 7.16C47.5514 7.04 47.7914 6.968 48.1274 6.92C48.2714 6.896 48.5834 6.872 49.0394 6.848C49.4714 6.848 49.9274 6.872 50.3594 6.896C50.7194 6.944 51.0314 7.016 51.3194 7.112C51.5834 7.232 51.7274 7.376 51.7274 7.568C51.7274 7.76 51.7034 7.928 51.6554 8.12C51.6074 8.264 51.5834 8.408 51.5594 8.552C51.5114 8.744 51.5114 8.912 51.5114 9.104V23.456ZM43.7354 12.272C43.9514 12.224 44.1434 12.176 44.2874 12.08C44.4314 12.032 44.5514 11.96 44.6714 11.864C44.9114 11.672 45.1754 11.552 45.4874 11.504C45.7514 11.48 46.0394 11.456 46.3274 11.456C46.6154 11.456 46.9034 11.48 47.1914 11.504C47.7674 11.6 48.0554 11.888 48.0554 12.344C48.0554 12.896 47.6714 13.208 46.9034 13.304L45.7514 13.448C45.0794 13.544 44.4074 13.616 43.7594 13.712C43.0874 13.808 42.4394 13.904 41.8394 13.976C41.2154 14.072 40.6634 14.168 40.1354 14.264C39.5834 14.36 39.1034 14.456 38.7194 14.528C38.5274 14.576 38.3834 14.624 38.2874 14.672C38.1434 14.768 38.0234 14.84 37.9034 14.912C37.6874 15.056 37.4714 15.152 37.2554 15.248C37.0154 15.344 36.7274 15.368 36.4394 15.296C36.1994 15.248 35.9834 15.2 35.7914 15.104C35.5514 15.032 35.3594 14.936 35.1674 14.84C34.9754 14.768 34.8074 14.696 34.6634 14.6C34.4954 14.528 34.3754 14.456 34.3274 14.408C34.1354 14.312 34.0634 14.168 34.0634 14C34.0634 13.784 34.1354 13.616 34.3274 13.52C34.4714 13.448 34.6874 13.4 34.9514 13.4C35.3594 13.424 35.7674 13.424 36.1754 13.376C36.5594 13.376 36.9434 13.328 37.3274 13.28L39.0794 13.064C39.3674 13.04 39.6554 12.992 39.9434 12.944C40.2074 12.92 40.5194 12.872 40.8794 12.8C41.2154 12.752 41.5994 12.68 42.0794 12.584C42.5114 12.512 43.0634 12.416 43.7354 12.272ZM38.8394 18.8C38.8394 19.376 39.0554 19.784 39.5114 20.072C39.9434 20.384 40.5674 20.48 41.3594 20.384C42.1274 20.312 42.7274 20.072 43.1834 19.64C43.6154 19.256 43.8314 18.776 43.8314 18.2C43.8314 17.624 43.6154 17.192 43.1834 16.904C42.7274 16.64 42.1274 16.544 41.3594 16.616C40.5674 16.712 39.9434 16.952 39.5114 17.336C39.0554 17.744 38.8394 18.224 38.8394 18.8ZM44.1674 10.352C44.1674 10.616 44.0474 10.832 43.8074 11C43.5434 11.192 43.2554 11.312 42.9434 11.384C42.3674 11.528 41.8634 11.648 41.3834 11.72C40.8794 11.816 40.3034 11.912 39.6314 11.96C39.4394 12.008 39.2474 11.984 39.0554 11.912C38.8634 11.864 38.6714 11.768 38.5034 11.648C38.3114 11.552 38.1194 11.432 37.9754 11.288C37.8074 11.144 37.6874 11.024 37.5914 10.88C37.4954 10.784 37.4714 10.664 37.4714 10.52C37.4714 10.376 37.5434 10.232 37.7354 10.136C37.8794 10.064 38.1194 10.04 38.4314 10.064C38.5994 10.112 38.7914 10.136 39.0314 10.136C39.2474 10.16 39.4634 10.16 39.7034 10.16C39.8714 10.16 40.0874 10.16 40.3274 10.136C40.5674 10.136 40.8314 10.112 41.1194 10.064C41.4074 10.04 41.7194 9.992 42.0074 9.944C42.2714 9.896 42.5594 9.848 42.8714 9.8C43.2794 9.752 43.5914 9.752 43.8314 9.8C44.0474 9.872 44.1674 10.064 44.1674 10.352ZM58.2417 13.904C58.2417 13.28 58.3617 12.68 58.6257 12.152C58.8657 11.648 59.2017 11.192 59.6577 10.784C60.0897 10.4 60.5937 10.064 61.1937 9.8C61.7697 9.56 62.4177 9.416 63.0897 9.32C63.7617 9.248 64.3857 9.248 64.9857 9.344C65.5617 9.464 66.0657 9.656 66.5217 9.92C66.9537 10.208 67.2897 10.592 67.5537 11.048C67.7937 11.528 67.9137 12.08 67.9137 12.704C67.9137 13.352 67.7937 13.928 67.5537 14.432C67.2897 14.96 66.9537 15.44 66.5217 15.824C66.0657 16.232 65.5617 16.544 64.9857 16.784C64.3857 17.048 63.7617 17.216 63.0897 17.288C62.4177 17.384 61.7697 17.36 61.1937 17.24C60.5937 17.144 60.0897 16.952 59.6577 16.664C59.2017 16.4 58.8657 16.04 58.6257 15.56C58.3617 15.104 58.2417 14.552 58.2417 13.904ZM70.0737 21.344C69.8337 21.44 69.6417 21.536 69.5457 21.632C69.4017 21.728 69.2817 21.8 69.1617 21.848C69.0177 21.92 68.8257 21.944 68.5617 21.896C68.4177 21.896 68.2737 21.848 68.1297 21.8C67.9617 21.752 67.7937 21.704 67.6497 21.656C67.4577 21.608 67.3137 21.56 67.1697 21.488C67.0257 21.44 66.9057 21.368 66.8097 21.32C66.6657 21.248 66.5697 21.176 66.5217 21.08C66.4257 21.032 66.4017 20.936 66.4017 20.792C66.4017 20.672 66.4257 20.552 66.5217 20.456C66.5937 20.384 66.7377 20.336 66.9777 20.288C67.4097 20.24 67.6977 20.192 67.8897 20.168C68.0577 20.168 68.2017 20.168 68.3457 20.144C68.7537 20.096 69.2817 20.024 69.9057 19.928C70.5297 19.856 71.1297 19.784 71.7057 19.688V9.344C71.7057 9.032 71.5617 8.792 71.2737 8.624C70.9857 8.48 70.5537 8.336 70.0017 8.192C69.8097 8.168 69.6657 8.12 69.5697 8.024C69.4497 7.952 69.4017 7.832 69.4017 7.64C69.4017 7.496 69.4737 7.352 69.6657 7.208C69.8097 7.088 70.0497 6.992 70.3857 6.944C70.5297 6.944 70.8417 6.92 71.2977 6.896C71.7297 6.896 72.1857 6.896 72.6177 6.944C72.9777 6.992 73.2897 7.064 73.5777 7.16C73.8417 7.28 73.9857 7.424 73.9857 7.616C73.9857 7.784 73.9617 7.952 73.9137 8.144C73.8657 8.288 73.8417 8.456 73.8177 8.6C73.7697 8.768 73.7697 8.936 73.7697 9.128V19.832C73.7697 20.192 73.7457 20.624 73.7457 21.104C73.7217 21.632 73.6737 22.112 73.6017 22.568C73.5057 23.048 73.3857 23.48 73.2417 23.816C73.0497 24.176 72.8097 24.368 72.5217 24.392C72.3777 24.416 72.2817 24.392 72.1857 24.32C72.0897 24.272 71.9937 24.128 71.9457 23.936C71.8497 23.744 71.8017 23.48 71.7777 23.144C71.7297 22.808 71.7057 22.376 71.7057 21.848V21.032C71.4177 21.08 71.1537 21.104 70.9137 21.152C70.6497 21.2 70.3617 21.272 70.0737 21.344ZM60.5937 20.432C60.4017 20.48 60.2337 20.528 60.1137 20.6C59.9697 20.696 59.8257 20.768 59.7057 20.84C59.4897 20.984 59.2737 21.08 59.0337 21.176C58.7937 21.272 58.5057 21.296 58.1937 21.224C57.6897 21.128 57.2097 20.96 56.7537 20.72C56.2737 20.528 55.9377 20.336 55.7937 20.192C55.7457 20.144 55.6977 20.096 55.6497 20.024C55.6017 19.976 55.5777 19.904 55.5777 19.808C55.5777 19.592 55.6737 19.424 55.8657 19.328C56.0337 19.232 56.2737 19.184 56.5617 19.16C57.0177 19.16 57.4737 19.16 57.9537 19.112C58.3857 19.112 58.8177 19.064 59.2257 19.016C59.7297 18.968 60.4257 18.848 61.2897 18.656C62.1297 18.512 63.0657 18.296 64.0977 18.056C65.1057 17.816 66.1377 17.552 67.2417 17.264C68.2977 16.976 69.3297 16.688 70.2897 16.376C70.4817 16.328 70.6737 16.28 70.9137 16.28C71.1297 16.304 71.2497 16.448 71.2497 16.688C71.2497 16.88 71.1537 17.048 70.9617 17.192C70.7697 17.36 70.5777 17.48 70.4097 17.552C69.3537 17.96 68.3457 18.32 67.3857 18.608C66.4017 18.92 65.3937 19.208 64.3857 19.472L64.3137 20.672C64.2657 21.104 64.1937 21.512 64.1217 21.872C64.0257 22.256 63.8817 22.592 63.7377 22.832C63.5697 23.096 63.3537 23.24 63.1137 23.264C62.8497 23.312 62.6337 23.144 62.4897 22.784C62.3217 22.448 62.2497 21.752 62.2497 20.696V20.024C61.9617 20.12 61.6977 20.192 61.4337 20.24C61.1457 20.312 60.8577 20.384 60.5937 20.432ZM71.1297 27.128C71.2977 27.08 71.4417 27.032 71.5857 26.96C71.7057 26.864 71.8257 26.768 71.9697 26.672C72.0897 26.576 72.2097 26.48 72.3537 26.432C72.4497 26.36 72.5937 26.312 72.7857 26.288C73.3137 26.192 73.8417 26.192 74.4177 26.288C74.6577 26.336 74.8737 26.432 75.0177 26.6C75.1617 26.744 75.2337 26.912 75.2337 27.104C75.2337 27.632 74.8497 27.92 74.1297 28.016C72.4737 28.232 70.8417 28.448 69.2337 28.688C67.6017 28.88 65.9457 29.096 64.3137 29.312C62.9217 29.504 62.2497 28.904 62.2497 27.512V26.264C62.2497 25.976 62.1057 25.736 61.8417 25.544C61.5537 25.4 61.1457 25.256 60.5937 25.136C60.4017 25.088 60.2577 25.04 60.1617 24.944C60.0417 24.896 59.9937 24.776 59.9937 24.584C59.9937 24.44 60.0657 24.272 60.2577 24.128C60.4017 24.008 60.6417 23.936 60.9777 23.888C61.1217 23.864 61.4337 23.84 61.8897 23.816C62.3217 23.816 62.7777 23.84 63.2097 23.864C63.5697 23.912 63.8577 23.984 64.0737 24.128C64.2657 24.296 64.3617 24.464 64.3617 24.632V27.488C64.3617 27.848 64.5057 28.016 64.8177 27.968L71.1297 27.128ZM65.7537 12.968C65.7537 12.224 65.5137 11.672 65.0577 11.288C64.5777 10.952 63.9057 10.832 63.0897 10.928C62.2257 11.024 61.5777 11.312 61.1217 11.768C60.6417 12.248 60.4257 12.872 60.4257 13.616C60.4257 14.384 60.6417 14.936 61.1217 15.272C61.5777 15.656 62.2257 15.776 63.0897 15.68C63.9057 15.584 64.5777 15.272 65.0577 14.792C65.5137 14.336 65.7537 13.736 65.7537 12.968ZM95.068 15.656L95.596 15.584C95.764 15.56 95.932 15.512 96.076 15.416C96.22 15.344 96.34 15.248 96.46 15.152C96.58 15.056 96.7 14.96 96.82 14.888C96.916 14.84 97.06 14.792 97.252 14.744C97.516 14.72 97.78 14.696 98.068 14.696C98.332 14.696 98.596 14.72 98.884 14.744C99.124 14.816 99.34 14.912 99.484 15.056C99.628 15.224 99.7 15.392 99.7 15.56C99.7 16.112 99.316 16.424 98.596 16.52L95.068 16.952V23.552V25.064C95.044 25.688 94.996 26.264 94.924 26.84C94.828 27.392 94.708 27.872 94.564 28.304C94.372 28.712 94.132 28.952 93.82 29C93.268 29.072 93.004 28.064 93.004 25.976V9.488C93.004 9.176 92.86 8.936 92.572 8.768C92.284 8.624 91.852 8.48 91.3 8.36C91.108 8.336 90.964 8.288 90.868 8.192C90.748 8.12 90.7 8 90.7 7.808C90.7 7.664 90.772 7.496 90.964 7.352C91.108 7.232 91.348 7.16 91.684 7.112C91.828 7.088 92.14 7.064 92.596 7.04C93.028 7.04 93.484 7.064 93.916 7.112C94.276 7.16 94.588 7.232 94.876 7.328C95.14 7.448 95.284 7.592 95.284 7.784C95.284 7.952 95.26 8.12 95.212 8.312C95.164 8.456 95.14 8.6 95.116 8.744C95.068 8.936 95.068 9.104 95.068 9.296V15.656ZM86.452 12.056C86.764 12.008 87.004 11.912 87.196 11.768L87.508 11.624C87.604 11.576 87.724 11.528 87.868 11.48C88.084 11.48 88.324 11.456 88.564 11.432C88.804 11.432 89.02 11.432 89.236 11.456C89.428 11.504 89.596 11.576 89.74 11.648C89.86 11.744 89.932 11.888 89.932 12.056C89.932 12.2 89.884 12.32 89.812 12.464C89.716 12.608 89.62 12.752 89.524 12.872C89.476 12.944 89.428 12.992 89.38 13.04C89.332 13.112 89.284 13.184 89.26 13.256C88.204 15.872 86.884 18.2 85.252 20.264C83.596 22.328 81.628 24.2 79.372 25.88C79.18 26 79.036 26.072 78.892 26.072C78.724 26.048 78.604 26 78.532 25.904C78.436 25.832 78.412 25.712 78.436 25.568C78.436 25.448 78.508 25.304 78.676 25.112C80.452 23.432 82.036 21.608 83.428 19.664C84.82 17.744 85.924 15.608 86.764 13.28L84.58 13.616C83.908 13.736 83.356 13.856 82.924 13.952C82.756 14 82.612 14.048 82.492 14.096C82.348 14.192 82.252 14.264 82.156 14.336C81.964 14.48 81.772 14.576 81.556 14.648C81.316 14.744 81.076 14.768 80.812 14.696C80.38 14.6 79.948 14.48 79.564 14.288C79.156 14.144 78.892 14.024 78.772 13.928C78.58 13.832 78.508 13.688 78.508 13.496C78.508 13.304 78.58 13.16 78.748 13.064C78.892 13.016 79.108 12.968 79.372 12.944C79.756 12.968 80.14 12.968 80.548 12.92C80.932 12.896 81.292 12.848 81.628 12.8C82.18 12.752 82.9 12.632 83.812 12.488C84.7 12.368 85.588 12.224 86.452 12.056ZM107.27 19.328C106.526 19.424 105.83 19.4 105.182 19.256C104.51 19.136 103.958 18.896 103.478 18.56C102.974 18.224 102.59 17.792 102.326 17.216C102.038 16.688 101.894 16.04 101.894 15.272C101.894 14.504 102.038 13.808 102.326 13.184C102.59 12.584 102.974 12.056 103.478 11.576C103.958 11.144 104.51 10.76 105.182 10.472C105.83 10.208 106.526 10.016 107.27 9.92C107.99 9.824 108.686 9.848 109.358 9.968C110.006 10.112 110.582 10.328 111.086 10.664C111.566 11 111.95 11.456 112.238 11.984C112.502 12.536 112.646 13.184 112.646 13.952C112.646 14.72 112.502 15.392 112.238 16.016C111.95 16.64 111.566 17.192 111.086 17.624C110.582 18.104 110.006 18.464 109.358 18.752C108.686 19.04 107.99 19.232 107.27 19.328ZM118.91 25.112C118.91 25.472 118.886 25.856 118.886 26.288C118.862 26.72 118.814 27.128 118.742 27.512C118.646 27.872 118.526 28.184 118.382 28.472C118.19 28.736 117.95 28.88 117.662 28.928C117.494 28.952 117.35 28.904 117.254 28.784C117.11 28.64 117.014 28.424 116.966 28.112L110.15 28.952C110.054 29.288 109.934 29.576 109.79 29.816C109.598 30.056 109.382 30.176 109.118 30.224C108.974 30.224 108.878 30.2 108.782 30.152C108.686 30.056 108.59 29.936 108.542 29.744C108.446 29.552 108.398 29.288 108.374 28.952C108.326 28.616 108.302 28.184 108.302 27.68V23.6C108.302 23.312 108.182 23.072 107.942 22.88C107.678 22.736 107.27 22.592 106.718 22.448C106.526 22.424 106.382 22.376 106.286 22.28C106.166 22.232 106.118 22.112 106.118 21.92C106.118 21.776 106.19 21.608 106.382 21.464C106.526 21.344 106.766 21.272 107.102 21.224C107.246 21.2 107.534 21.176 107.966 21.152C108.35 21.152 108.782 21.176 109.214 21.224C109.574 21.272 109.862 21.344 110.078 21.488C110.27 21.656 110.366 21.824 110.366 21.992V23.6L116.846 22.808V21.968C116.846 21.68 116.726 21.44 116.486 21.248C116.222 21.08 115.814 20.936 115.262 20.816C115.07 20.792 114.926 20.744 114.83 20.648C114.71 20.576 114.662 20.456 114.662 20.264C114.662 20.12 114.734 19.952 114.926 19.808C115.07 19.688 115.31 19.616 115.646 19.568C115.79 19.544 116.078 19.52 116.51 19.496C116.894 19.496 117.326 19.52 117.758 19.568C118.118 19.616 118.406 19.688 118.622 19.832C118.814 20 118.91 20.168 118.91 20.336V25.112ZM107.27 11.6C106.334 11.72 105.566 12.056 104.99 12.632C104.39 13.232 104.102 14.024 104.102 15.032C104.102 16.016 104.39 16.736 104.99 17.168C105.566 17.648 106.334 17.816 107.27 17.696C108.182 17.576 108.926 17.216 109.55 16.592C110.126 16.016 110.438 15.224 110.438 14.24C110.438 13.232 110.126 12.512 109.55 12.056C108.926 11.624 108.182 11.48 107.27 11.6ZM118.91 14.072C118.91 14.432 118.886 14.864 118.886 15.344C118.862 15.872 118.814 16.352 118.742 16.808C118.646 17.288 118.526 17.72 118.382 18.056C118.19 18.416 117.95 18.608 117.662 18.632C117.518 18.656 117.422 18.632 117.326 18.56C117.23 18.512 117.134 18.368 117.086 18.176C116.99 17.984 116.942 17.72 116.918 17.384C116.87 17.048 116.846 16.616 116.846 16.088V9.344C116.846 9.032 116.702 8.792 116.414 8.624C116.126 8.48 115.694 8.336 115.142 8.192C114.95 8.168 114.806 8.12 114.71 8.024C114.59 7.952 114.542 7.832 114.542 7.64C114.542 7.496 114.614 7.352 114.806 7.208C114.95 7.088 115.19 6.992 115.526 6.944C115.67 6.944 115.982 6.92 116.438 6.896C116.87 6.896 117.326 6.896 117.758 6.944C118.118 6.992 118.43 7.064 118.718 7.16C118.982 7.28 119.126 7.424 119.126 7.616C119.126 7.784 119.102 7.952 119.054 8.144C119.006 8.288 118.982 8.456 118.958 8.6C118.91 8.768 118.91 8.936 118.91 9.128V14.072ZM110.366 25.064V26.912C110.366 27.104 110.342 27.296 110.342 27.488L116.846 26.696V24.272L110.366 25.064Z" fill="white"/>
</g>
<g filter="url(#filter1_d_132_529)">
<mask id="path-2-inside-1_132_529" fill="white">
<path d="M25 38.7378H130V35.7378H25V38.7378Z"/>
</mask>
<path d="M130 38.7378H25V32.7378H130V38.7378Z" fill="white" mask="url(#path-2-inside-1_132_529)"/>
</g>
<defs>
<filter id="filter0_d_132_529" x="29.3434" y="0.8479" width="93.7829" height="31.3762" filterUnits="userSpaceOnUse" color-interpolation-filters="sRGB">
<feFlood flood-opacity="0" result="BackgroundImageFix"/>
<feColorMatrix in="SourceAlpha" type="matrix" values="0 0 0 0 0 0 0 0 0 0 0 0 0 0 0 0 0 0 127 0" result="hardAlpha"/>
<feOffset dy="-2"/>
<feGaussianBlur stdDeviation="2"/>
<feComposite in2="hardAlpha" operator="out"/>
<feColorMatrix type="matrix" values="0 0 0 0 0 0 0 0 0 0 0 0 0 0 0 0 0 0 0.25 0"/>
<feBlend mode="normal" in2="BackgroundImageFix" result="effect1_dropShadow_132_529"/>
<feBlend mode="normal" in="SourceGraphic" in2="effect1_dropShadow_132_529" result="shape"/>
</filter>
<filter id="filter1_d_132_529" x="0" y="8.73779" width="155" height="53" filterUnits="userSpaceOnUse" color-interpolation-filters="sRGB">
<feFlood flood-opacity="0" result="BackgroundImageFix"/>
<feColorMatrix in="SourceAlpha" type="matrix" values="0 0 0 0 0 0 0 0 0 0 0 0 0 0 0 0 0 0 127 0" result="hardAlpha"/>
<feMorphology radius="5" operator="dilate" in="SourceAlpha" result="effect1_dropShadow_132_529"/>
<feOffset dy="-2"/>
<feGaussianBlur stdDeviation="10"/>
<feComposite in2="hardAlpha" operator="out"/>
<feColorMatrix type="matrix" values="0 0 0 0 1 0 0 0 0 1 0 0 0 0 1 0 0 0 0.5 0"/>
<feBlend mode="normal" in2="BackgroundImageFix" result="effect1_dropShadow_132_529"/>
<feBlend mode="normal" in="SourceGraphic" in2="effect1_dropShadow_132_529" result="shape"/>
</filter>
</defs>
</svg>
