<svg width="386" height="72" viewBox="0 0 386 72" fill="none" xmlns="http://www.w3.org/2000/svg">
<mask id="path-1-inside-1_81_403" fill="white">
<path d="M0 0H386V72H0V0Z"/>
</mask>
<path d="M386 70.2H0V73.8H386V70.2Z" fill="white" mask="url(#path-1-inside-1_81_403)"/>
<path d="M39.652 25.726L40.84 25.564C41.218 25.51 41.596 25.402 41.92 25.186C42.244 25.024 42.514 24.808 42.784 24.592C43.054 24.376 43.324 24.16 43.594 23.998C43.81 23.89 44.134 23.782 44.566 23.674C45.16 23.62 45.754 23.566 46.402 23.566C46.996 23.566 47.59 23.62 48.238 23.674C48.778 23.836 49.264 24.052 49.588 24.376C49.912 24.754 50.074 25.132 50.074 25.51C50.074 26.752 49.21 27.454 47.59 27.67L39.652 28.642V43.492V46.894C39.598 48.298 39.49 49.594 39.328 50.89C39.112 52.132 38.842 53.212 38.518 54.184C38.086 55.102 37.546 55.642 36.844 55.75C35.602 55.912 35.008 53.644 35.008 48.946V36.688C33.064 37.66 30.958 38.578 28.798 39.442C26.584 40.414 24.424 41.224 22.372 41.926C20.212 42.682 18.214 43.33 16.378 43.816C14.488 44.356 12.868 44.734 11.572 44.842C9.68202 45.112 8.38602 44.788 7.63002 43.924C6.82002 43.114 6.44202 41.764 6.44202 39.928V24.43C6.44202 23.782 6.17202 23.242 5.63202 22.864C5.03802 22.54 4.12002 22.216 2.87802 21.892C2.44602 21.838 2.12202 21.73 1.90602 21.514C1.63602 21.352 1.52802 21.082 1.52802 20.65C1.52802 20.326 1.69002 20.002 2.12202 19.678C2.44602 19.408 2.98602 19.192 3.74202 19.084C3.85002 19.084 4.12002 19.084 4.55202 19.03C4.87602 19.03 5.30802 18.976 5.84802 18.922H7.36002C7.84602 18.976 8.33202 19.03 8.87202 19.03C9.03402 19.084 9.19602 19.084 9.35802 19.084C9.46602 19.084 9.57402 19.138 9.73602 19.138L19.402 17.734C19.78 17.68 20.104 17.572 20.428 17.356C20.698 17.194 20.968 16.978 21.292 16.708C21.562 16.492 21.832 16.33 22.156 16.168C22.372 16.06 22.696 15.952 23.128 15.844C23.722 15.79 24.424 15.736 25.234 15.682C25.99 15.682 26.692 15.682 27.34 15.79C27.88 15.898 28.366 16.114 28.69 16.438C29.014 16.816 29.176 17.194 29.176 17.572C29.176 18.814 28.312 19.516 26.692 19.732C24.154 20.11 21.616 20.434 19.132 20.758L11.464 21.892V39.658C11.464 40.09 11.518 40.306 11.68 40.36C11.788 40.468 11.95 40.522 12.274 40.468C15.892 40.036 19.618 39.172 23.506 37.93C27.34 36.742 31.174 35.338 35.008 33.718V11.848C35.008 11.146 34.684 10.606 34.036 10.228C33.388 9.904 32.416 9.58 31.174 9.31C30.742 9.256 30.418 9.148 30.202 8.932C29.932 8.77 29.824 8.5 29.824 8.068C29.824 7.744 29.986 7.366 30.418 7.042C30.742 6.772 31.282 6.61 32.038 6.502C32.362 6.448 33.064 6.394 34.09 6.34C35.062 6.34 36.088 6.394 37.06 6.502C37.87 6.61 38.572 6.772 39.22 6.988C39.814 7.258 40.138 7.582 40.138 8.014C40.138 8.392 40.084 8.77 39.976 9.202C39.868 9.526 39.814 9.85 39.76 10.174C39.652 10.606 39.652 10.984 39.652 11.416V25.726ZM83.7932 26.968C84.2252 26.914 84.6032 26.806 84.9272 26.59C85.1972 26.428 85.4672 26.266 85.7372 26.05L86.5472 25.564C86.7632 25.456 87.0872 25.348 87.5192 25.24C88.1132 25.186 88.7072 25.132 89.3552 25.132C89.9492 25.132 90.5432 25.186 91.1912 25.24C91.7312 25.348 92.2172 25.618 92.5412 25.942C92.8652 26.32 93.0272 26.698 93.0272 27.076C93.0272 28.318 92.1632 29.02 90.5432 29.182L79.0952 30.694C75.3152 31.234 71.4812 31.774 67.5932 32.26C64.4612 32.692 62.9492 31.288 62.9492 28.102V25.294C62.9492 24.862 62.7332 24.484 62.3552 24.16C61.9232 23.89 61.0592 23.62 59.8712 23.296C59.4392 23.242 59.1152 23.134 58.8992 22.918C58.6292 22.756 58.5212 22.486 58.5212 22.054C58.5212 21.73 58.6832 21.352 59.1152 21.028C59.4392 20.758 59.9792 20.596 60.7352 20.488C61.0592 20.488 61.6532 20.434 62.5172 20.38C63.2732 20.38 64.1372 20.434 65.1092 20.488C65.7572 20.596 66.2432 20.758 66.5672 20.92L84.0632 18.436V12.982C83.3072 13.09 82.3352 13.198 81.0392 13.36C79.6892 13.576 78.2852 13.738 76.8812 13.954C75.3692 14.17 73.9652 14.386 72.6692 14.602L69.5372 15.25C69.2132 15.358 68.9432 15.466 68.6732 15.574C68.3492 15.736 68.0252 15.898 67.7552 16.006C67.2692 16.276 66.7832 16.492 66.3512 16.654C65.8112 16.87 65.2712 16.87 64.6772 16.708C64.1372 16.6 63.6512 16.492 63.1652 16.276C62.6252 16.114 62.1932 15.898 61.7612 15.682C61.2752 15.52 60.8972 15.358 60.5732 15.142C60.2492 14.98 59.9792 14.818 59.8712 14.71C59.4932 14.44 59.3312 14.116 59.3312 13.738C59.3312 13.306 59.4932 12.928 59.8712 12.712C60.1952 12.55 60.6812 12.496 61.2752 12.496C62.1392 12.604 63.0032 12.604 63.9752 12.55C64.8932 12.55 65.7572 12.55 66.5132 12.442C67.1612 12.388 68.1872 12.28 69.5912 12.064C70.8872 11.902 72.3452 11.686 73.8572 11.47L78.2852 10.822C79.6892 10.606 80.8772 10.444 81.7952 10.228C82.3352 10.12 82.8212 10.012 83.1452 9.85C83.4152 9.742 83.6852 9.634 83.9012 9.472C84.1172 9.364 84.3872 9.256 84.6572 9.148C84.8732 9.04 85.1432 8.986 85.5212 8.932C85.9532 8.932 86.4932 8.878 87.0332 8.824C87.5192 8.824 88.0052 8.878 88.4912 8.932C88.9232 9.04 89.3552 9.148 89.6792 9.31C89.9492 9.526 90.1112 9.85 90.1112 10.174C90.1112 10.606 90.0032 11.038 89.7872 11.47C89.6792 11.686 89.5712 11.956 89.4632 12.226C89.3552 12.55 89.2472 13.036 89.1932 13.576C89.0852 14.332 88.9772 15.034 88.8692 15.682L88.5452 17.842C89.6252 17.842 90.2192 18.274 90.2192 19.138C90.2192 19.786 89.9492 20.218 89.5172 20.488C89.0312 20.812 88.4372 21.028 87.7352 21.136L77.7452 22.432C74.3972 22.918 71.1032 23.35 67.7552 23.782V27.886C67.7552 28.372 67.8092 28.696 68.0252 28.804C68.1332 29.02 68.4032 29.074 68.7812 29.02L83.7932 26.968ZM97.3472 35.068C96.1592 35.176 94.8632 35.338 93.3512 35.446C91.7852 35.662 90.1112 35.824 88.3832 36.04C86.0612 36.364 83.6852 36.634 81.2552 36.958C78.7712 37.282 76.4492 37.606 74.2352 37.93C71.9672 38.308 69.9692 38.632 68.1872 38.902C66.3512 39.226 64.9472 39.55 63.9752 39.766C63.2192 39.982 62.4632 40.306 61.7072 40.684C61.1132 41.008 60.5192 41.278 59.9252 41.44C59.2772 41.656 58.5752 41.71 57.8192 41.494C56.7392 41.278 55.7672 40.9 54.9032 40.468C53.9312 40.036 53.3372 39.712 53.0132 39.496C52.5272 39.28 52.3112 38.902 52.3112 38.416C52.3112 37.876 52.5272 37.498 52.9592 37.282C53.3372 37.12 53.8772 37.012 54.5252 36.958C55.5512 37.012 56.6852 37.012 57.9812 36.904C59.1692 36.85 60.2492 36.742 61.2212 36.634C61.7072 36.58 62.6252 36.472 63.9212 36.256C65.1632 36.148 66.6212 35.932 68.3492 35.716C69.9692 35.5 71.7512 35.284 73.6952 35.014C75.5852 34.798 77.4212 34.528 79.2032 34.258C80.9312 34.042 82.5512 33.772 84.0092 33.556C85.4132 33.34 86.4932 33.178 87.2492 33.016C88.3832 32.8 89.2472 32.53 89.8412 32.26C90.3812 32.044 90.7592 31.882 91.0832 31.666C91.2992 31.504 91.5692 31.342 91.8392 31.234C92.0552 31.18 92.3252 31.126 92.7572 31.018C93.0812 31.018 93.4592 30.964 93.9992 30.91C94.4312 30.91 94.9172 30.856 95.4572 30.856C95.9432 30.856 96.4292 30.91 96.9692 30.91C97.4012 30.964 97.8332 31.018 98.2112 31.018C99.5612 31.288 100.263 31.828 100.263 32.692C100.263 33.34 99.9932 33.826 99.5072 34.258C98.9672 34.744 98.2652 35.014 97.3472 35.068ZM84.6572 51.862C85.0352 51.754 85.3592 51.646 85.6832 51.484C85.9532 51.268 86.2232 51.052 86.5472 50.836C86.8172 50.62 87.0872 50.404 87.4112 50.296C87.6272 50.134 87.9512 50.026 88.3832 49.972C88.9772 49.864 89.5712 49.864 90.2192 49.864C90.8132 49.864 91.4072 49.864 92.0552 49.972C92.5952 50.08 93.0812 50.296 93.4052 50.674C93.7292 50.998 93.8912 51.376 93.8912 51.808C93.8912 52.348 93.6752 52.78 93.2972 53.212C92.8652 53.536 92.2172 53.752 91.4072 53.86C87.5192 54.346 83.7932 54.832 80.1212 55.372C76.4492 55.858 72.6692 56.344 68.8352 56.884C65.7032 57.316 64.1912 55.912 64.1912 52.78V48.838C64.1912 48.19 63.8672 47.65 63.2732 47.218C62.6252 46.894 61.7072 46.57 60.4652 46.3C60.0332 46.246 59.7092 46.138 59.4932 45.922C59.2232 45.76 59.1152 45.49 59.1152 45.058C59.1152 44.734 59.2772 44.356 59.7092 44.032C60.0332 43.762 60.5732 43.6 61.3292 43.492C61.6532 43.438 62.3552 43.384 63.3812 43.33C64.3532 43.33 65.3792 43.384 66.3512 43.438C67.1612 43.546 67.8092 43.762 68.2952 44.086C68.7272 44.41 68.9432 44.788 68.9432 45.166V52.726C68.9432 53.536 69.2672 53.914 69.9692 53.806L84.6572 51.862ZM144.149 16.222H144.311C145.283 16.114 145.931 16.06 146.363 16.006C146.741 16.006 147.065 15.952 147.389 15.898C148.253 15.79 149.333 15.682 150.683 15.466C151.979 15.304 153.275 15.142 154.571 14.926V11.524C154.571 10.822 154.247 10.282 153.599 9.904C152.951 9.58 151.979 9.256 150.737 8.932C150.305 8.878 149.981 8.77 149.765 8.554C149.495 8.392 149.387 8.122 149.387 7.69C149.387 7.366 149.549 7.042 149.981 6.718C150.305 6.448 150.845 6.232 151.601 6.124C151.925 6.124 152.627 6.07 153.653 6.016C154.625 6.016 155.651 6.016 156.623 6.124C157.433 6.232 158.135 6.394 158.783 6.61C159.377 6.88 159.701 7.204 159.701 7.636C159.701 8.014 159.647 8.392 159.539 8.824C159.431 9.148 159.377 9.526 159.323 9.85C159.215 10.228 159.215 10.606 159.215 11.038V22C159.215 22.81 159.161 23.782 159.161 24.862C159.107 26.05 158.999 27.13 158.837 28.156C158.621 29.236 158.351 30.208 158.027 30.964C157.595 31.774 157.055 32.206 156.407 32.26C156.083 32.314 155.867 32.26 155.651 32.098C155.435 31.99 155.219 31.666 155.111 31.234C154.895 30.802 154.787 30.208 154.733 29.452C154.625 28.696 154.571 27.724 154.571 26.536V25.942C154.031 26.05 153.491 26.104 153.005 26.212C152.465 26.32 151.925 26.482 151.331 26.59C150.791 26.806 150.359 27.022 150.143 27.238C149.819 27.454 149.549 27.616 149.279 27.724C148.955 27.886 148.523 27.94 147.929 27.832C147.389 27.778 146.741 27.616 145.985 27.346C145.175 27.13 144.581 26.914 144.149 26.644C144.149 27.454 144.095 28.264 144.041 29.074C143.933 29.938 143.825 30.748 143.663 31.45C143.447 32.206 143.123 32.8 142.799 33.286C142.421 33.826 141.935 34.096 141.341 34.15C141.017 34.204 140.693 34.096 140.477 33.826C140.207 33.61 139.991 33.232 139.829 32.584L127.463 34.096C127.247 34.96 126.977 35.608 126.653 36.148C126.221 36.742 125.735 37.066 125.087 37.12C124.493 37.228 124.061 36.85 123.737 36.04C123.413 35.284 123.251 33.718 123.251 31.342V20.488C123.251 19.84 122.981 19.3 122.441 18.868C121.847 18.49 120.929 18.166 119.687 17.896C119.255 17.842 118.931 17.734 118.715 17.518C118.445 17.356 118.337 17.086 118.337 16.654C118.337 16.33 118.499 15.952 118.931 15.628C119.255 15.358 119.795 15.196 120.551 15.088C120.875 15.034 121.523 14.98 122.495 14.98C123.359 14.98 124.331 15.034 125.303 15.088C126.113 15.196 126.761 15.412 127.247 15.736C127.679 16.06 127.895 16.438 127.895 16.816V21.19L139.505 19.786V16.33C139.505 15.682 139.235 15.142 138.695 14.71C138.101 14.332 137.183 14.008 135.941 13.738C135.509 13.684 135.185 13.576 134.969 13.36C134.699 13.198 134.591 12.928 134.591 12.496C134.591 12.172 134.753 11.794 135.185 11.47C135.509 11.2 136.049 11.038 136.805 10.93C137.129 10.876 137.777 10.822 138.749 10.822C139.613 10.822 140.585 10.876 141.557 10.93C142.367 11.038 143.015 11.254 143.501 11.578C143.933 11.902 144.149 12.28 144.149 12.658V16.222ZM153.923 52.078C154.301 51.97 154.625 51.862 154.949 51.7C155.219 51.484 155.489 51.322 155.813 51.106C156.083 50.89 156.353 50.674 156.677 50.566C156.893 50.404 157.217 50.296 157.649 50.242C158.243 50.134 158.837 50.134 159.485 50.134C160.079 50.08 160.673 50.08 161.321 50.188C161.861 50.296 162.347 50.566 162.671 50.944C162.995 51.268 163.157 51.592 163.157 52.024C163.157 52.564 162.941 52.996 162.563 53.428C162.131 53.752 161.483 54.022 160.673 54.13C157.109 54.562 153.599 55.048 150.197 55.534C146.741 55.966 143.231 56.398 139.667 56.938C136.535 57.316 135.023 55.912 135.023 52.78V49.918C135.023 49.486 134.807 49.108 134.429 48.784C133.997 48.514 133.133 48.244 131.945 47.92C131.513 47.866 131.189 47.758 130.973 47.542C130.703 47.38 130.595 47.11 130.595 46.678C130.595 46.354 130.757 45.976 131.189 45.652C131.513 45.382 132.053 45.22 132.809 45.112C133.133 45.112 133.727 45.058 134.591 45.004C135.347 45.004 136.211 45.058 137.183 45.112C137.831 45.22 138.317 45.382 138.641 45.544L153.923 43.33V37.822C153.275 37.93 152.411 38.038 151.331 38.146C150.197 38.362 149.063 38.524 147.875 38.686C146.633 38.902 145.445 39.118 144.365 39.28C143.231 39.496 142.313 39.712 141.611 39.82C141.287 39.928 140.963 40.09 140.693 40.198C140.369 40.36 140.099 40.522 139.883 40.63C139.451 40.954 139.019 41.17 138.533 41.332C137.993 41.548 137.399 41.602 136.805 41.44C136.265 41.332 135.779 41.224 135.347 41.008C134.807 40.9 134.375 40.738 133.943 40.522C133.511 40.414 133.133 40.252 132.863 40.036C132.539 39.928 132.269 39.82 132.161 39.712C131.945 39.604 131.837 39.442 131.729 39.28C131.621 39.172 131.567 38.956 131.567 38.74C131.567 38.308 131.729 37.984 132.107 37.768C132.431 37.606 132.917 37.498 133.511 37.498C134.375 37.552 135.239 37.498 136.157 37.39C137.021 37.336 137.831 37.282 138.587 37.174C139.235 37.12 140.153 37.012 141.287 36.85C142.367 36.742 143.501 36.58 144.689 36.364L148.253 35.824C149.441 35.662 150.467 35.5 151.385 35.284C151.925 35.176 152.411 35.014 152.735 34.906C153.005 34.798 153.275 34.69 153.491 34.528C153.707 34.42 153.977 34.312 154.247 34.204C154.463 34.096 154.733 34.042 155.111 33.934C155.543 33.934 156.083 33.88 156.623 33.826C157.109 33.826 157.595 33.88 158.027 33.934C158.459 34.042 158.783 34.204 159.107 34.366C159.377 34.582 159.539 34.906 159.539 35.23C159.539 35.446 159.485 35.662 159.431 35.878C159.323 36.148 159.269 36.364 159.215 36.526C159.107 36.742 159.053 36.958 158.999 37.282C158.891 37.606 158.729 38.092 158.621 38.632L158.297 40.63C158.189 41.332 158.027 42.034 157.919 42.736C159.161 42.736 159.809 43.168 159.809 44.086C159.809 44.734 159.539 45.166 159.107 45.382C158.621 45.652 158.027 45.814 157.325 45.868C154.409 46.3 151.493 46.678 148.577 47.056C145.607 47.488 142.691 47.866 139.775 48.244V52.78C139.775 53.59 140.099 53.968 140.801 53.86L153.923 52.078ZM127.895 24.484V29.56C127.895 29.992 127.841 30.37 127.841 30.748L139.505 29.344V23.08L127.895 24.484ZM151.277 18.598C150.737 18.814 150.305 19.03 150.089 19.246C149.765 19.462 149.495 19.624 149.225 19.732C148.901 19.894 148.469 19.948 147.875 19.84C147.335 19.786 146.687 19.624 145.985 19.354C145.229 19.138 144.581 18.922 144.149 18.652V24.214H144.365C145.337 24.106 145.985 23.998 146.417 23.944C146.795 23.944 147.119 23.944 147.443 23.89C148.307 23.782 149.387 23.674 150.737 23.458C152.033 23.296 153.275 23.134 154.571 22.918V17.95C154.031 18.058 153.491 18.112 153.005 18.166C152.465 18.274 151.871 18.436 151.277 18.598ZM187.966 17.572C188.668 17.464 189.208 17.248 189.64 16.924L190.342 16.6C190.558 16.492 190.828 16.384 191.152 16.33C191.638 16.276 192.178 16.222 192.718 16.168C193.258 16.168 193.744 16.222 194.23 16.276C194.662 16.384 195.04 16.492 195.364 16.654C195.634 16.87 195.796 17.194 195.796 17.572C195.796 17.896 195.688 18.166 195.526 18.49C195.31 18.814 195.094 19.138 194.878 19.408C194.77 19.624 194.662 19.732 194.554 19.84C194.446 20.002 194.338 20.164 194.284 20.326C193.42 22.378 192.556 24.268 191.638 26.104C190.666 27.94 189.586 29.722 188.452 31.45C189.1 32.098 189.748 32.638 190.342 33.07C190.882 33.556 191.314 33.88 191.584 34.042C191.746 34.258 192.016 34.366 192.34 34.366C192.61 34.474 192.88 34.528 193.204 34.582C193.582 34.69 194.014 34.798 194.5 34.906C194.932 35.122 195.256 35.338 195.58 35.662C196.174 36.31 196.714 37.066 197.2 37.822C197.632 38.686 198.118 39.496 198.55 40.306C198.712 40.63 198.82 41.062 198.874 41.602C198.874 42.142 198.712 42.628 198.334 43.006C198.118 43.114 197.956 43.222 197.794 43.33C197.578 43.438 197.308 43.546 196.984 43.6C196.714 43.654 196.336 43.546 195.904 43.276C195.418 43.06 194.878 42.628 194.284 41.98C192.988 40.792 191.692 39.496 190.396 38.146L186.454 34.312C184.402 37.066 182.134 39.604 179.758 41.98C177.274 44.356 174.628 46.624 171.82 48.73C171.388 49 171.064 49.162 170.74 49.162C170.362 49.108 170.092 49 169.93 48.784C169.714 48.622 169.66 48.352 169.714 48.028C169.714 47.758 169.876 47.434 170.254 47.002C174.25 43.222 177.814 39.118 180.946 34.744C184.024 30.424 186.508 25.618 188.398 20.38C186.67 20.65 185.158 20.866 183.862 21.082C182.458 21.352 181.324 21.622 180.352 21.838C179.974 21.946 179.65 22.054 179.38 22.162C179.056 22.324 178.84 22.486 178.624 22.648C178.192 22.972 177.76 23.188 177.274 23.404C176.734 23.62 176.194 23.674 175.6 23.458C174.628 23.296 173.656 23.026 172.792 22.594C171.874 22.27 171.28 22 171.01 21.784C170.578 21.568 170.416 21.244 170.416 20.812C170.416 20.38 170.578 20.056 170.956 19.84C171.28 19.678 171.766 19.57 172.36 19.57C173.224 19.624 174.088 19.624 175.006 19.516C175.87 19.462 176.68 19.354 177.436 19.246C178.678 19.138 180.244 18.922 182.188 18.598C184.078 18.328 186.022 18.004 187.966 17.572ZM207.136 25.726L208.324 25.564C208.702 25.51 209.08 25.402 209.404 25.186C209.728 25.024 209.998 24.808 210.268 24.592C210.538 24.376 210.808 24.16 211.078 23.998C211.294 23.89 211.618 23.782 212.05 23.674C212.644 23.62 213.238 23.566 213.886 23.566C214.48 23.566 215.074 23.62 215.722 23.674C216.262 23.836 216.748 24.052 217.072 24.376C217.396 24.754 217.558 25.132 217.558 25.51C217.558 26.752 216.694 27.454 215.074 27.67L207.136 28.642V43.492V46.894C207.082 48.298 206.974 49.594 206.812 50.89C206.596 52.132 206.326 53.212 206.002 54.184C205.57 55.102 205.03 55.642 204.328 55.75C203.086 55.912 202.492 53.644 202.492 48.946V11.848C202.492 11.146 202.168 10.606 201.52 10.228C200.872 9.904 199.9 9.58 198.658 9.31C198.226 9.256 197.902 9.148 197.686 8.932C197.416 8.77 197.308 8.5 197.308 8.068C197.308 7.744 197.47 7.366 197.902 7.042C198.226 6.772 198.766 6.61 199.522 6.502C199.846 6.448 200.548 6.394 201.574 6.34C202.546 6.34 203.572 6.394 204.544 6.502C205.354 6.61 206.056 6.772 206.704 6.988C207.298 7.258 207.622 7.582 207.622 8.014C207.622 8.392 207.568 8.77 207.46 9.202C207.352 9.526 207.298 9.85 207.244 10.174C207.136 10.606 207.136 10.984 207.136 11.416V25.726ZM225.79 34.474C225.79 33.826 225.52 33.286 224.98 32.854C224.386 32.53 223.468 32.206 222.226 31.936C221.794 31.882 221.47 31.774 221.254 31.558C220.984 31.396 220.876 31.126 220.876 30.694C220.876 30.37 221.038 29.992 221.47 29.668C221.794 29.398 222.334 29.236 223.09 29.128C223.198 29.128 223.468 29.074 223.846 29.02C224.17 29.02 224.548 29.02 224.98 28.966H226.384C226.816 28.966 227.302 29.02 227.788 29.02L241.126 27.13V18.166C240.478 18.274 239.776 18.382 239.02 18.49C238.264 18.598 237.454 18.76 236.698 18.868C235.834 19.03 235.078 19.192 234.322 19.3C233.566 19.516 232.864 19.678 232.216 19.786C231.892 19.894 231.568 20.056 231.298 20.164C230.974 20.38 230.65 20.542 230.38 20.704C229.894 21.028 229.462 21.244 229.03 21.46C228.598 21.676 228.004 21.73 227.356 21.622C226.816 21.568 226.33 21.46 225.898 21.298C225.358 21.19 224.926 21.028 224.494 20.812C224.062 20.65 223.684 20.488 223.36 20.272C222.982 20.11 222.712 19.948 222.604 19.84C222.442 19.732 222.28 19.57 222.172 19.354C222.01 19.192 221.956 18.976 221.956 18.652C221.956 18.22 222.118 17.896 222.496 17.68C222.82 17.572 223.306 17.464 223.9 17.41C224.764 17.464 225.628 17.464 226.546 17.356C227.41 17.302 228.22 17.194 228.976 17.086C230.38 16.924 231.946 16.708 233.674 16.438C235.402 16.222 237.184 15.898 239.02 15.574C239.56 15.466 240.046 15.304 240.37 15.196C240.64 15.088 240.91 14.98 241.126 14.818C241.342 14.71 241.612 14.602 241.882 14.494C242.098 14.386 242.368 14.332 242.746 14.224C243.178 14.224 243.718 14.17 244.258 14.116C244.744 14.116 245.23 14.17 245.662 14.224C246.094 14.332 246.418 14.494 246.742 14.656C247.012 14.872 247.174 15.196 247.174 15.52C247.174 15.736 247.12 15.898 247.066 16.114C246.958 16.33 246.85 16.6 246.742 16.924C246.526 17.248 246.364 17.896 246.256 18.922L245.176 26.59C246.31 26.59 246.904 27.022 246.904 27.94C246.904 28.588 246.634 29.02 246.202 29.29C245.716 29.614 245.122 29.83 244.42 29.884L237.616 30.856C235.348 31.18 233.08 31.504 230.812 31.774V40.792C230.812 41.548 231.082 41.872 231.622 41.764C233.674 41.548 235.834 41.116 237.994 40.576C240.1 40.09 242.206 39.496 244.312 38.74C246.364 38.092 248.416 37.336 250.468 36.472C252.466 35.716 254.41 34.906 256.3 34.042V11.47C256.3 10.768 255.976 10.228 255.328 9.85C254.68 9.526 253.708 9.202 252.466 8.932C252.034 8.878 251.71 8.77 251.494 8.554C251.224 8.392 251.116 8.122 251.116 7.69C251.116 7.366 251.278 6.988 251.71 6.664C252.034 6.394 252.574 6.232 253.33 6.124C253.654 6.07 254.356 6.016 255.382 5.962C256.354 5.962 257.38 6.016 258.352 6.124C259.162 6.232 259.864 6.394 260.512 6.61C261.106 6.88 261.43 7.204 261.43 7.636C261.43 8.014 261.376 8.392 261.268 8.824C261.16 9.148 261.106 9.472 261.052 9.796C260.944 10.228 260.944 10.606 260.944 11.038V43.114V46.516C260.89 47.92 260.782 49.216 260.62 50.512C260.404 51.754 260.134 52.888 259.81 53.86C259.378 54.778 258.838 55.264 258.136 55.372C256.894 55.534 256.3 53.266 256.3 48.568V36.904C254.302 37.876 252.142 38.902 249.874 39.874C247.552 40.9 245.23 41.818 242.962 42.628C240.64 43.492 238.426 44.248 236.374 44.842C234.268 45.49 232.432 45.868 230.92 46.03C229.03 46.246 227.734 45.976 226.978 45.112C226.168 44.302 225.79 42.952 225.79 41.116V34.474ZM323.46 27.616C323.46 28.426 323.406 29.29 323.406 30.262C323.352 31.234 323.244 32.152 323.082 33.016C322.866 33.88 322.596 34.636 322.272 35.23C321.84 35.878 321.3 36.256 320.652 36.31C320.274 36.364 319.95 36.256 319.734 35.986C319.464 35.77 319.248 35.338 319.086 34.582L312.12 35.446V44.14C313.956 43.924 315.576 43.654 317.088 43.438C318.492 43.222 319.626 43.06 320.436 42.844C321.57 42.628 322.434 42.358 323.028 42.088C323.568 41.872 324.054 41.656 324.486 41.44C324.756 41.332 325.026 41.17 325.296 41.062C325.512 41.008 325.782 40.954 326.214 40.846C326.538 40.846 326.916 40.792 327.456 40.738C327.888 40.738 328.374 40.684 328.914 40.684C329.4 40.684 329.886 40.738 330.426 40.738C330.858 40.792 331.29 40.846 331.668 40.846C333.018 41.116 333.72 41.656 333.72 42.52C333.72 43.168 333.45 43.654 332.964 44.086C332.424 44.518 331.722 44.788 330.804 44.896C329.616 45.004 328.32 45.166 326.808 45.274C325.242 45.49 323.622 45.652 321.894 45.868C319.572 46.192 317.196 46.462 314.82 46.786C312.336 47.11 310.014 47.434 307.854 47.758L301.86 48.676C300.024 49 298.62 49.27 297.648 49.54C297.216 49.648 296.838 49.756 296.46 49.972C296.028 50.08 295.65 50.242 295.326 50.458C294.678 50.782 294.03 51.052 293.382 51.268C292.68 51.484 291.978 51.484 291.222 51.322C290.142 51.052 289.17 50.728 288.306 50.296C287.334 49.864 286.74 49.54 286.416 49.324C285.93 49.054 285.714 48.73 285.714 48.244C285.714 47.704 285.93 47.326 286.362 47.11C286.74 46.948 287.28 46.84 287.928 46.786C288.954 46.84 290.088 46.84 291.384 46.732C292.572 46.678 293.652 46.57 294.624 46.462C295.002 46.462 295.65 46.354 296.514 46.246C297.324 46.138 298.296 46.03 299.484 45.868C300.564 45.76 301.806 45.598 303.21 45.382C304.56 45.22 305.964 45.058 307.368 44.842V36.04L299.538 37.012C299.322 37.768 299.052 38.416 298.728 38.902C298.296 39.442 297.81 39.712 297.216 39.766C296.892 39.82 296.676 39.766 296.46 39.55C296.244 39.442 296.028 39.118 295.92 38.686C295.704 38.254 295.596 37.66 295.542 36.904C295.434 36.148 295.38 35.176 295.38 33.988V20.434C295.38 19.786 295.11 19.246 294.57 18.814C293.976 18.49 293.058 18.166 291.816 17.842C291.384 17.788 291.06 17.68 290.844 17.464C290.574 17.356 290.466 17.086 290.466 16.654C290.466 16.33 290.628 15.952 291.06 15.628C291.384 15.358 291.924 15.142 292.68 15.034C293.004 15.034 293.652 14.98 294.624 14.926C295.488 14.926 296.46 14.98 297.432 15.088C298.242 15.196 298.89 15.358 299.376 15.682C299.808 16.06 300.024 16.438 300.024 16.816V22.972L318.816 20.65V16.006C318.816 15.358 318.546 14.818 318.006 14.386C317.412 14.008 316.494 13.684 315.252 13.414C314.82 13.36 314.496 13.252 314.28 13.036C314.01 12.874 313.902 12.604 313.902 12.172C313.902 11.848 314.064 11.47 314.496 11.146C314.82 10.876 315.36 10.714 316.116 10.606C316.44 10.606 317.088 10.552 318.06 10.498C318.924 10.498 319.896 10.552 320.868 10.606C321.678 10.714 322.326 10.93 322.812 11.254C323.244 11.578 323.46 11.956 323.46 12.334V27.616ZM300.024 26.266V32.368C300.024 32.8 299.97 33.232 299.97 33.664L318.816 31.342V23.944L300.024 26.266ZM377.645 43.114V46.516C377.591 47.92 377.483 49.216 377.321 50.512C377.105 51.754 376.835 52.888 376.511 53.86C376.079 54.778 375.539 55.264 374.837 55.372C373.595 55.534 373.001 53.266 373.001 48.568V11.47C373.001 10.768 372.677 10.228 372.029 9.85C371.381 9.526 370.409 9.202 369.167 8.932C368.735 8.878 368.411 8.77 368.195 8.554C367.925 8.392 367.817 8.122 367.817 7.69C367.817 7.366 367.979 6.988 368.411 6.664C368.735 6.394 369.275 6.232 370.031 6.124C370.355 6.07 371.057 6.016 372.083 5.962C373.055 5.962 374.081 6.016 375.053 6.124C375.863 6.232 376.565 6.394 377.213 6.61C377.807 6.88 378.131 7.204 378.131 7.636C378.131 8.014 378.077 8.392 377.969 8.824C377.861 9.148 377.807 9.472 377.753 9.796C377.645 10.228 377.645 10.606 377.645 11.038V43.114ZM356.855 17.41C357.557 17.302 358.097 17.086 358.529 16.762L359.231 16.438C359.447 16.33 359.717 16.222 360.041 16.168C360.527 16.114 361.067 16.06 361.607 16.006C362.147 16.006 362.633 16.06 363.119 16.114C363.551 16.222 363.929 16.33 364.253 16.492C364.523 16.708 364.685 17.032 364.685 17.41C364.685 17.734 364.577 18.004 364.415 18.328C364.199 18.652 363.983 18.976 363.767 19.246C363.659 19.462 363.551 19.57 363.443 19.678C363.335 19.84 363.227 20.002 363.173 20.164C360.797 25.996 357.827 31.234 354.155 35.878C350.429 40.522 346.001 44.734 340.925 48.514C340.061 49.054 339.467 49.108 339.035 48.622C338.819 48.406 338.765 48.136 338.819 47.812C338.819 47.542 338.981 47.218 339.359 46.84C343.355 43.06 346.919 38.956 350.051 34.528C353.183 30.208 355.667 25.402 357.557 20.164C355.721 20.488 354.101 20.758 352.643 20.974C351.131 21.244 349.889 21.46 348.917 21.676C348.539 21.784 348.215 21.892 347.945 22C347.621 22.216 347.405 22.378 347.189 22.54C346.757 22.864 346.325 23.08 345.839 23.242C345.299 23.458 344.759 23.512 344.165 23.35C343.193 23.134 342.221 22.864 341.357 22.432C340.439 22.108 339.845 21.838 339.575 21.622C339.143 21.406 338.981 21.082 338.981 20.704C338.981 20.272 339.143 19.948 339.521 19.732C339.845 19.57 340.331 19.462 340.925 19.408C341.789 19.462 342.653 19.462 343.571 19.354C344.435 19.3 345.245 19.246 346.001 19.138L350.915 18.436C352.913 18.166 354.911 17.842 356.855 17.41Z" fill="white"/>
</svg>
