<svg width="420" height="527" viewBox="0 0 420 527" fill="none" xmlns="http://www.w3.org/2000/svg">
<path d="M206.122 423.516C205.198 423.6 204.19 423.726 203.014 423.81C201.796 423.978 200.536 424.104 199.192 424.272L197.596 424.482V430.152C197.596 430.782 197.554 431.538 197.554 432.42C197.47 433.26 197.386 434.142 197.26 434.982C197.092 435.78 196.84 436.494 196.588 437.124C196.252 437.712 195.832 438.006 195.328 438.09C195.076 438.09 194.908 438.048 194.74 437.964C194.53 437.838 194.362 437.628 194.236 437.292C194.068 436.956 193.984 436.494 193.942 435.906C193.858 435.318 193.816 434.562 193.816 433.68V424.986C192.304 425.196 190.876 425.406 189.532 425.574C188.104 425.784 186.802 425.994 185.584 426.162V431.076C185.584 431.706 185.542 432.42 185.542 433.344C185.458 434.184 185.374 435.066 185.248 435.906C185.08 436.704 184.828 437.418 184.576 438.048C184.24 438.636 183.82 438.972 183.316 439.056C183.064 439.056 182.896 439.014 182.728 438.93C182.518 438.762 182.35 438.552 182.224 438.216C182.056 437.88 181.972 437.418 181.93 436.83C181.846 436.242 181.804 435.486 181.804 434.604V426.834C181.51 426.918 181.258 426.96 181.048 426.96C180.796 427.044 180.544 427.086 180.376 427.128C180.04 427.212 179.746 427.338 179.452 427.422L178.57 427.842C178.066 428.094 177.562 428.304 177.058 428.472C176.512 428.64 175.966 428.682 175.378 428.514C174.538 428.346 173.782 428.052 173.11 427.716C172.354 427.38 171.892 427.128 171.64 426.96C171.262 426.792 171.094 426.498 171.094 426.12C171.094 425.7 171.262 425.406 171.598 425.238C171.892 425.112 172.312 425.028 172.816 424.986C173.614 425.028 174.496 425.028 175.504 424.944C176.428 424.902 177.268 424.818 178.024 424.734C178.402 424.692 179.074 424.608 180.082 424.44C181.048 424.356 182.182 424.188 183.526 424.02C184.786 423.852 186.172 423.684 187.642 423.474C189.07 423.306 190.498 423.096 191.842 422.886C193.186 422.718 194.404 422.55 195.538 422.34C196.63 422.172 197.47 422.046 198.058 421.92C198.94 421.752 199.612 421.542 200.074 421.332C200.494 421.164 200.872 420.996 201.208 420.828C201.418 420.744 201.628 420.618 201.838 420.534C202.006 420.492 202.216 420.45 202.552 420.366C202.804 420.366 203.098 420.324 203.518 420.282C203.854 420.282 204.232 420.24 204.652 420.24C205.03 420.24 205.408 420.282 205.828 420.282C206.164 420.324 206.5 420.366 206.794 420.366C207.844 420.576 208.39 420.996 208.39 421.668C208.39 422.172 208.18 422.55 207.802 422.886C207.382 423.264 206.836 423.474 206.122 423.516ZM180.586 416.376C180.586 415.2 180.88 414.15 181.51 413.268C182.098 412.428 182.854 411.672 183.778 411.084C184.66 410.496 185.668 410.034 186.76 409.698C187.81 409.404 188.818 409.194 189.784 409.068C190.624 408.984 191.59 408.942 192.682 408.942C193.732 409.026 194.74 409.194 195.706 409.53C196.63 409.908 197.386 410.454 198.058 411.168C198.646 411.924 198.982 412.89 198.982 414.108C198.982 415.368 198.688 416.418 198.1 417.258C197.47 418.14 196.714 418.854 195.832 419.442C194.908 420.072 193.942 420.534 192.85 420.87C191.758 421.206 190.708 421.458 189.784 421.542C188.944 421.626 187.978 421.668 186.928 421.584C185.836 421.542 184.87 421.332 183.946 420.954C182.98 420.618 182.182 420.072 181.552 419.316C180.88 418.602 180.586 417.636 180.586 416.376ZM196.126 404.322C196.504 404.238 196.84 404.154 197.092 403.986C197.344 403.86 197.554 403.734 197.764 403.566C197.974 403.44 198.184 403.314 198.436 403.188C198.604 403.104 198.856 403.062 199.192 402.978C199.654 402.936 200.158 402.894 200.662 402.852C201.166 402.852 201.67 402.894 202.174 402.936C202.678 403.02 203.098 403.188 203.35 403.44C203.56 403.734 203.686 404.07 203.686 404.448C203.686 405.414 203.014 405.96 201.67 406.128L199.906 406.338C198.478 406.506 196.966 406.716 195.286 406.926C193.564 407.178 191.926 407.43 190.33 407.64L185.878 408.312L182.728 408.858C182.392 408.942 182.14 409.026 181.972 409.11C181.72 409.236 181.51 409.362 181.342 409.488C181.006 409.74 180.628 409.908 180.25 410.034C179.83 410.202 179.326 410.244 178.822 410.118C178.402 410.034 178.024 409.95 177.646 409.782C177.226 409.698 176.89 409.572 176.554 409.404C176.176 409.278 175.882 409.152 175.63 408.984C175.336 408.9 175.126 408.774 175.042 408.69C174.706 408.522 174.58 408.27 174.58 407.934C174.58 407.556 174.706 407.262 175.042 407.094C175.294 406.968 175.672 406.926 176.134 406.926C176.848 406.926 177.562 406.926 178.276 406.842C178.948 406.842 179.62 406.758 180.292 406.674L183.568 406.296C185.332 406.086 187.222 405.834 189.322 405.498C191.338 405.246 193.606 404.826 196.126 404.322ZM184.324 415.914C184.324 416.67 184.492 417.216 184.828 417.636C185.164 418.056 185.584 418.392 186.13 418.56C186.634 418.77 187.222 418.896 187.894 418.896C188.524 418.938 189.154 418.896 189.784 418.812C190.288 418.728 190.876 418.602 191.548 418.434C192.178 418.266 192.766 418.014 193.354 417.678C193.858 417.384 194.32 416.964 194.698 416.46C195.034 415.956 195.244 415.326 195.244 414.57C195.244 413.898 195.076 413.31 194.74 412.89C194.362 412.512 193.9 412.218 193.396 412.008C192.85 411.84 192.262 411.756 191.632 411.714C190.96 411.714 190.372 411.714 189.784 411.798C189.28 411.882 188.692 411.966 188.062 412.134C187.39 412.302 186.802 412.554 186.298 412.848C185.71 413.184 185.248 413.562 184.912 414.066C184.492 414.57 184.324 415.2 184.324 415.914ZM195.748 401.424C195.748 401.886 195.538 402.264 195.118 402.558C194.656 402.894 194.152 403.104 193.606 403.23C193.186 403.356 192.682 403.44 192.136 403.524C191.548 403.65 190.96 403.776 190.372 403.86C189.742 403.986 189.112 404.07 188.524 404.154C187.852 404.238 187.264 404.322 186.676 404.406L185.416 404.532C185.08 404.616 184.744 404.574 184.408 404.448C184.072 404.364 183.736 404.196 183.442 403.986C183.106 403.818 182.77 403.608 182.518 403.356C182.224 403.104 182.014 402.894 181.846 402.642C181.678 402.474 181.636 402.264 181.636 402.012C181.636 401.76 181.762 401.508 182.098 401.34C182.35 401.214 182.77 401.172 183.316 401.256C183.61 401.34 183.946 401.34 184.366 401.34C184.744 401.382 185.122 401.382 185.542 401.382C185.836 401.382 186.34 401.382 187.096 401.298C187.768 401.256 188.524 401.172 189.364 401.046C190.162 400.962 190.918 400.836 191.632 400.71C192.304 400.626 192.934 400.542 193.48 400.458C194.194 400.374 194.74 400.374 195.16 400.458C195.538 400.584 195.748 400.92 195.748 401.424ZM226.888 406.59C226.636 407.556 226.342 408.522 225.964 409.446C225.544 410.412 225.04 411.378 224.536 412.302C225.25 412.848 225.964 413.352 226.636 413.814C227.266 414.318 227.686 414.654 227.938 414.78C228.106 414.864 228.316 414.906 228.568 414.906L229.24 414.99C229.618 414.99 229.996 415.032 230.374 415.032C230.71 415.116 231.046 415.284 231.34 415.536L232.012 416.334C232.18 416.67 232.39 417.006 232.6 417.342C232.768 417.72 232.894 418.056 233.062 418.35C233.146 418.686 233.23 418.98 233.272 419.232C233.314 419.568 233.23 419.82 233.062 420.072C232.852 420.324 232.6 420.492 232.264 420.576C232.012 420.66 231.718 420.618 231.34 420.45C230.92 420.366 230.416 420.072 229.87 419.61L223.234 414.444C221.974 416.334 220.504 418.14 218.824 419.82C217.144 421.542 215.338 423.138 213.406 424.608C212.482 425.28 211.852 425.448 211.516 425.028C211.348 424.818 211.264 424.566 211.306 424.272C211.306 424.02 211.516 423.726 211.936 423.348C213.112 422.298 214.288 421.08 215.464 419.652C216.598 418.308 217.648 416.88 218.656 415.368C219.622 413.898 220.462 412.428 221.176 410.958C221.848 409.53 222.31 408.228 222.562 407.052C222.562 406.926 222.52 406.8 222.352 406.632C222.184 406.506 221.974 406.38 221.764 406.254C221.512 406.17 221.26 406.086 221.05 406.002C220.798 405.918 220.588 405.876 220.504 405.834C220.084 405.75 219.79 405.582 219.706 405.33C219.538 405.12 219.538 404.868 219.622 404.616C219.664 404.448 219.832 404.238 220.126 404.028C220.378 403.86 220.756 403.734 221.302 403.734C221.974 403.734 222.73 403.818 223.57 403.902C224.368 404.07 225.166 404.28 225.964 404.532C226.51 404.784 226.846 405.036 226.972 405.33C227.056 405.666 227.014 406.086 226.888 406.59ZM242.05 431.496C242.05 431.916 242.008 432.462 241.924 433.134C241.798 433.764 241.672 434.394 241.504 435.066C241.294 435.654 241.042 436.2 240.79 436.704C240.496 437.166 240.16 437.418 239.824 437.502C239.278 437.544 238.9 437.208 238.732 436.494C238.48 435.738 238.396 434.394 238.396 432.546V425.07C237.766 425.154 236.926 425.28 235.918 425.406L232.642 425.91C231.508 426.12 230.458 426.288 229.45 426.456C228.4 426.666 227.602 426.834 227.098 426.918C226.846 427.002 226.594 427.128 226.384 427.212C226.132 427.338 225.922 427.464 225.754 427.548C225.418 427.8 225.082 427.968 224.704 428.094C224.284 428.262 223.822 428.304 223.36 428.178C222.94 428.094 222.562 428.01 222.226 427.842C221.806 427.758 221.47 427.632 221.134 427.464C220.798 427.38 220.504 427.254 220.294 427.086C220.042 427.002 219.832 426.918 219.748 426.834C219.58 426.75 219.496 426.624 219.412 426.498C219.328 426.414 219.286 426.246 219.286 426.078C219.286 425.742 219.412 425.49 219.706 425.322C219.958 425.196 220.336 425.112 220.798 425.07C221.47 425.154 222.142 425.112 222.856 425.028C223.528 424.986 224.158 424.944 224.746 424.86C225.25 424.818 226.048 424.692 227.098 424.524C228.106 424.398 229.156 424.23 230.332 424.062L233.692 423.558C234.784 423.39 235.666 423.264 236.38 423.096C236.8 423.012 237.178 422.886 237.43 422.802C237.64 422.718 237.85 422.634 238.018 422.508C238.186 422.424 238.396 422.34 238.606 422.256C238.774 422.172 238.984 422.13 239.278 422.046C239.614 422.046 240.034 422.004 240.454 421.962C240.832 421.962 241.21 422.004 241.588 422.046C241.924 422.13 242.26 422.256 242.512 422.382C242.722 422.55 242.848 422.802 242.848 423.054C242.848 423.348 242.764 423.726 242.596 424.146C242.512 424.398 242.47 424.65 242.386 424.944C242.302 425.28 242.218 425.7 242.218 426.162L242.05 431.496ZM242.47 412.89C242.47 413.52 242.428 414.276 242.428 415.116C242.386 416.04 242.302 416.88 242.176 417.678C242.008 418.518 241.798 419.274 241.546 419.862C241.21 420.492 240.79 420.828 240.286 420.87C240.034 420.912 239.866 420.87 239.698 420.744C239.53 420.66 239.362 420.408 239.278 420.072C239.11 419.736 239.026 419.274 238.984 418.686C238.9 418.098 238.858 417.342 238.858 416.418V402.852C238.858 402.306 238.606 401.886 238.102 401.592C237.598 401.34 236.842 401.088 235.876 400.836C235.54 400.794 235.288 400.71 235.12 400.542C234.91 400.416 234.826 400.206 234.826 399.87C234.826 399.618 234.952 399.366 235.288 399.114C235.54 398.904 235.96 398.736 236.548 398.652C236.8 398.652 237.346 398.61 238.144 398.568C238.9 398.568 239.698 398.568 240.454 398.652C241.084 398.736 241.63 398.862 242.134 399.03C242.596 399.24 242.848 399.492 242.848 399.828C242.848 400.122 242.806 400.416 242.722 400.752C242.638 401.004 242.596 401.298 242.554 401.55C242.47 401.844 242.47 402.138 242.47 402.474V412.89Z" fill="white"/>
<g filter="url(#filter0_f_84_1029)">
<circle cx="322.5" cy="35.5" r="5.5" fill="white"/>
<circle cx="322.5" cy="35.5" r="4" stroke="white" stroke-width="3"/>
</g>
<g filter="url(#filter1_f_84_1029)">
<circle cx="218" cy="113" r="4" fill="white"/>
<circle cx="218" cy="113" r="2.5" stroke="white" stroke-width="3"/>
</g>
<g filter="url(#filter2_f_84_1029)">
<circle cx="132" cy="177" r="4" fill="white"/>
<circle cx="132" cy="177" r="2.5" stroke="white" stroke-width="3"/>
</g>
<g filter="url(#filter3_f_84_1029)">
<circle cx="210.5" cy="218.5" r="5.5" fill="white"/>
<circle cx="210.5" cy="218.5" r="4" stroke="white" stroke-width="3"/>
</g>
<g filter="url(#filter4_f_84_1029)">
<circle cx="279" cy="204" r="4" fill="white"/>
<circle cx="279" cy="204" r="2.5" stroke="white" stroke-width="3"/>
</g>
<g filter="url(#filter5_f_84_1029)">
<circle cx="131" cy="225" r="4" fill="white"/>
<circle cx="131" cy="225" r="2.5" stroke="white" stroke-width="3"/>
</g>
<g filter="url(#filter6_f_84_1029)">
<circle cx="105" cy="234" r="4" fill="white"/>
<circle cx="105" cy="234" r="2.5" stroke="white" stroke-width="3"/>
</g>
<g filter="url(#filter7_f_84_1029)">
<circle cx="95.5" cy="257.5" r="5.5" fill="white"/>
<circle cx="95.5" cy="257.5" r="4" stroke="white" stroke-width="3"/>
</g>
<g filter="url(#filter8_f_84_1029)">
<circle cx="173.5" cy="362.5" r="5.5" fill="white"/>
<circle cx="173.5" cy="362.5" r="4" stroke="white" stroke-width="3"/>
</g>
<g filter="url(#filter9_f_84_1029)">
<circle cx="184.5" cy="316.5" r="5.5" fill="white"/>
<circle cx="184.5" cy="316.5" r="4" stroke="white" stroke-width="3"/>
</g>
<g filter="url(#filter10_f_84_1029)">
<circle cx="243" cy="307" r="4" fill="white"/>
<circle cx="243" cy="307" r="2.5" stroke="white" stroke-width="3"/>
</g>
<g filter="url(#filter11_f_84_1029)">
<circle cx="261" cy="323" r="4" fill="white"/>
<circle cx="261" cy="323" r="2.5" stroke="white" stroke-width="3"/>
</g>
<g filter="url(#filter12_f_84_1029)">
<circle cx="307.5" cy="350.5" r="5.5" fill="white"/>
<circle cx="307.5" cy="350.5" r="4" stroke="white" stroke-width="3"/>
</g>
<path d="M323.13 35.8813L218.428 113.169" stroke="white" stroke-opacity="0.4" stroke-width="1.2" stroke-linecap="round"/>
<path d="M132.394 177.441L218.428 113.169" stroke="white" stroke-opacity="0.4" stroke-width="1.2" stroke-linecap="round"/>
<path d="M132.394 177.441L130.771 224.627" stroke="white" stroke-opacity="0.4" stroke-width="1.2" stroke-linecap="round"/>
<path d="M104.798 234.39L130.771 224.627" stroke="white" stroke-opacity="0.4" stroke-width="1.2" stroke-linecap="round"/>
<path d="M104.798 234.39L95.0582 257.983" stroke="white" stroke-opacity="0.4" stroke-width="1.2" stroke-linecap="round"/>
<path d="M173.788 362.932L95.0583 257.983" stroke="white" stroke-opacity="0.4" stroke-width="1.2" stroke-linecap="round"/>
<path d="M173.788 362.932L184.339 316.559" stroke="white" stroke-opacity="0.4" stroke-width="1.2" stroke-linecap="round"/>
<path d="M242.777 306.797L184.339 316.559" stroke="white" stroke-opacity="0.4" stroke-width="1.2" stroke-linecap="round"/>
<path d="M242.777 306.797L260.634 323.068" stroke="white" stroke-opacity="0.4" stroke-width="1.2" stroke-linecap="round"/>
<path d="M307.709 350.729L260.634 323.068" stroke="white" stroke-opacity="0.4" stroke-width="1.2" stroke-linecap="round"/>
<path d="M132.394 177.441L210.312 218.932" stroke="white" stroke-opacity="0.4" stroke-width="1.2" stroke-linecap="round"/>
<path d="M279.301 204.288L210.312 218.932" stroke="white" stroke-opacity="0.4" stroke-width="1.2" stroke-linecap="round"/>
<defs>
<filter id="filter0_f_84_1029" x="313" y="26" width="19" height="19" filterUnits="userSpaceOnUse" color-interpolation-filters="sRGB">
<feFlood flood-opacity="0" result="BackgroundImageFix"/>
<feBlend mode="normal" in="SourceGraphic" in2="BackgroundImageFix" result="shape"/>
<feGaussianBlur stdDeviation="2" result="effect1_foregroundBlur_84_1029"/>
</filter>
<filter id="filter1_f_84_1029" x="210" y="105" width="16" height="16" filterUnits="userSpaceOnUse" color-interpolation-filters="sRGB">
<feFlood flood-opacity="0" result="BackgroundImageFix"/>
<feBlend mode="normal" in="SourceGraphic" in2="BackgroundImageFix" result="shape"/>
<feGaussianBlur stdDeviation="2" result="effect1_foregroundBlur_84_1029"/>
</filter>
<filter id="filter2_f_84_1029" x="124" y="169" width="16" height="16" filterUnits="userSpaceOnUse" color-interpolation-filters="sRGB">
<feFlood flood-opacity="0" result="BackgroundImageFix"/>
<feBlend mode="normal" in="SourceGraphic" in2="BackgroundImageFix" result="shape"/>
<feGaussianBlur stdDeviation="2" result="effect1_foregroundBlur_84_1029"/>
</filter>
<filter id="filter3_f_84_1029" x="201" y="209" width="19" height="19" filterUnits="userSpaceOnUse" color-interpolation-filters="sRGB">
<feFlood flood-opacity="0" result="BackgroundImageFix"/>
<feBlend mode="normal" in="SourceGraphic" in2="BackgroundImageFix" result="shape"/>
<feGaussianBlur stdDeviation="2" result="effect1_foregroundBlur_84_1029"/>
</filter>
<filter id="filter4_f_84_1029" x="271" y="196" width="16" height="16" filterUnits="userSpaceOnUse" color-interpolation-filters="sRGB">
<feFlood flood-opacity="0" result="BackgroundImageFix"/>
<feBlend mode="normal" in="SourceGraphic" in2="BackgroundImageFix" result="shape"/>
<feGaussianBlur stdDeviation="2" result="effect1_foregroundBlur_84_1029"/>
</filter>
<filter id="filter5_f_84_1029" x="123" y="217" width="16" height="16" filterUnits="userSpaceOnUse" color-interpolation-filters="sRGB">
<feFlood flood-opacity="0" result="BackgroundImageFix"/>
<feBlend mode="normal" in="SourceGraphic" in2="BackgroundImageFix" result="shape"/>
<feGaussianBlur stdDeviation="2" result="effect1_foregroundBlur_84_1029"/>
</filter>
<filter id="filter6_f_84_1029" x="97" y="226" width="16" height="16" filterUnits="userSpaceOnUse" color-interpolation-filters="sRGB">
<feFlood flood-opacity="0" result="BackgroundImageFix"/>
<feBlend mode="normal" in="SourceGraphic" in2="BackgroundImageFix" result="shape"/>
<feGaussianBlur stdDeviation="2" result="effect1_foregroundBlur_84_1029"/>
</filter>
<filter id="filter7_f_84_1029" x="86" y="248" width="19" height="19" filterUnits="userSpaceOnUse" color-interpolation-filters="sRGB">
<feFlood flood-opacity="0" result="BackgroundImageFix"/>
<feBlend mode="normal" in="SourceGraphic" in2="BackgroundImageFix" result="shape"/>
<feGaussianBlur stdDeviation="2" result="effect1_foregroundBlur_84_1029"/>
</filter>
<filter id="filter8_f_84_1029" x="164" y="353" width="19" height="19" filterUnits="userSpaceOnUse" color-interpolation-filters="sRGB">
<feFlood flood-opacity="0" result="BackgroundImageFix"/>
<feBlend mode="normal" in="SourceGraphic" in2="BackgroundImageFix" result="shape"/>
<feGaussianBlur stdDeviation="2" result="effect1_foregroundBlur_84_1029"/>
</filter>
<filter id="filter9_f_84_1029" x="175" y="307" width="19" height="19" filterUnits="userSpaceOnUse" color-interpolation-filters="sRGB">
<feFlood flood-opacity="0" result="BackgroundImageFix"/>
<feBlend mode="normal" in="SourceGraphic" in2="BackgroundImageFix" result="shape"/>
<feGaussianBlur stdDeviation="2" result="effect1_foregroundBlur_84_1029"/>
</filter>
<filter id="filter10_f_84_1029" x="235" y="299" width="16" height="16" filterUnits="userSpaceOnUse" color-interpolation-filters="sRGB">
<feFlood flood-opacity="0" result="BackgroundImageFix"/>
<feBlend mode="normal" in="SourceGraphic" in2="BackgroundImageFix" result="shape"/>
<feGaussianBlur stdDeviation="2" result="effect1_foregroundBlur_84_1029"/>
</filter>
<filter id="filter11_f_84_1029" x="253" y="315" width="16" height="16" filterUnits="userSpaceOnUse" color-interpolation-filters="sRGB">
<feFlood flood-opacity="0" result="BackgroundImageFix"/>
<feBlend mode="normal" in="SourceGraphic" in2="BackgroundImageFix" result="shape"/>
<feGaussianBlur stdDeviation="2" result="effect1_foregroundBlur_84_1029"/>
</filter>
<filter id="filter12_f_84_1029" x="298" y="341" width="19" height="19" filterUnits="userSpaceOnUse" color-interpolation-filters="sRGB">
<feFlood flood-opacity="0" result="BackgroundImageFix"/>
<feBlend mode="normal" in="SourceGraphic" in2="BackgroundImageFix" result="shape"/>
<feGaussianBlur stdDeviation="2" result="effect1_foregroundBlur_84_1029"/>
</filter>
</defs>
</svg>
