<svg width="420" height="539" viewBox="0 0 420 539" fill="none" xmlns="http://www.w3.org/2000/svg">
<path d="M174.194 429.814C174.11 429.31 173.984 428.89 173.816 428.512C173.606 428.176 173.06 427.924 172.178 427.714C171.842 427.672 171.59 427.588 171.422 427.42C171.212 427.294 171.128 427.084 171.128 426.748C171.128 426.496 171.254 426.202 171.59 425.95C171.842 425.74 172.262 425.614 172.85 425.53C173.102 425.53 173.606 425.488 174.278 425.446C174.908 425.446 175.58 425.488 176.336 425.572C176.42 425.572 176.546 425.614 176.672 425.614C176.756 425.656 176.84 425.656 176.924 425.656L186.08 424.144C186.5 424.102 186.878 424.018 187.13 423.892C187.34 423.808 187.55 423.724 187.76 423.556C187.928 423.43 188.138 423.304 188.348 423.178C188.516 423.094 188.768 423.052 189.104 423.01C189.44 422.968 189.86 422.926 190.28 422.884C190.7 422.884 191.078 422.926 191.456 422.968C191.792 423.052 192.128 423.136 192.38 423.262C192.59 423.43 192.716 423.682 192.716 423.976C192.716 424.27 192.632 424.648 192.464 425.068C192.38 425.32 192.338 425.572 192.254 425.866C192.17 426.202 192.086 426.58 192.044 427C191.876 429.1 191.75 431.116 191.624 433.048C191.456 435.022 191.33 437.038 191.204 439.096C192.086 439.222 192.548 439.642 192.548 440.356C192.548 440.902 192.338 441.28 191.918 441.448C191.498 441.7 190.994 441.826 190.448 441.91L178.184 443.422C178.016 444.094 177.764 444.514 177.512 444.766C177.176 445.018 176.882 445.186 176.588 445.228C176 445.312 175.622 445.06 175.412 444.556C175.16 444.052 174.992 443.212 174.95 441.952L174.194 429.814ZM201.746 429.898L202.67 429.772C202.964 429.73 203.258 429.646 203.51 429.478C203.762 429.352 203.972 429.184 204.182 429.016C204.392 428.848 204.602 428.68 204.812 428.554C204.98 428.47 205.232 428.386 205.568 428.302C206.03 428.26 206.492 428.218 206.996 428.218C207.458 428.218 207.92 428.26 208.424 428.302C208.844 428.428 209.222 428.596 209.474 428.848C209.726 429.142 209.852 429.436 209.852 429.73C209.852 430.696 209.18 431.242 207.92 431.41L201.746 432.166V443.716V446.362C201.704 447.454 201.62 448.462 201.494 449.47C201.326 450.436 201.116 451.276 200.864 452.032C200.528 452.746 200.108 453.166 199.562 453.25C198.596 453.376 198.134 451.612 198.134 447.958V419.104C198.134 418.558 197.882 418.138 197.378 417.844C196.874 417.592 196.118 417.34 195.152 417.13C194.816 417.088 194.564 417.004 194.396 416.836C194.186 416.71 194.102 416.5 194.102 416.164C194.102 415.912 194.228 415.618 194.564 415.366C194.816 415.156 195.236 415.03 195.824 414.946C196.076 414.904 196.622 414.862 197.42 414.82C198.176 414.82 198.974 414.862 199.73 414.946C200.36 415.03 200.906 415.156 201.41 415.324C201.872 415.534 202.124 415.786 202.124 416.122C202.124 416.416 202.082 416.71 201.998 417.046C201.914 417.298 201.872 417.55 201.83 417.802C201.746 418.138 201.746 418.432 201.746 418.768V429.898ZM188.012 426.37C186.416 426.622 184.778 426.832 183.182 427.042C181.502 427.294 179.906 427.546 178.31 427.756C178.31 429.94 178.352 432.082 178.394 434.182C178.394 436.282 178.436 438.424 178.478 440.608V440.986L188.012 439.6V426.37ZM220.622 446.572C220.58 446.32 220.538 446.068 220.538 445.816C220.454 445.648 220.37 445.438 220.244 445.27C220.076 445.102 219.866 444.976 219.614 444.808C219.32 444.682 218.942 444.556 218.522 444.472C218.186 444.43 217.934 444.346 217.766 444.178C217.556 444.052 217.472 443.842 217.472 443.506C217.472 443.254 217.598 442.96 217.934 442.708C218.186 442.498 218.606 442.372 219.194 442.288C219.446 442.246 219.908 442.204 220.58 442.204C221.168 442.204 221.84 442.246 222.596 442.33L223.1 442.414L235.28 440.566C235.658 440.524 235.994 440.44 236.288 440.314C236.54 440.23 236.75 440.104 236.96 439.936C237.128 439.852 237.338 439.726 237.548 439.6C237.716 439.516 237.968 439.474 238.304 439.39C238.64 439.39 239.06 439.348 239.48 439.306C239.858 439.306 240.236 439.348 240.614 439.39C240.95 439.474 241.286 439.6 241.538 439.726C241.748 439.894 241.874 440.146 241.874 440.398C241.874 440.65 241.832 440.86 241.79 441.07L241.538 441.826C241.454 442.078 241.412 442.288 241.37 442.54C241.286 442.834 241.202 443.128 241.202 443.422C241.034 444.514 240.908 445.522 240.782 446.488C240.614 447.496 240.488 448.546 240.362 449.638C241.244 449.722 241.706 450.1 241.706 450.856C241.706 451.318 241.454 451.654 241.034 451.906C240.572 452.116 240.11 452.284 239.606 452.368C238.472 452.536 237.296 452.704 236.036 452.872C234.734 452.998 233.432 453.166 232.172 453.334L228.266 453.838C226.964 454.006 225.746 454.132 224.57 454.3C224.36 454.972 224.108 455.434 223.814 455.728C223.478 455.98 223.184 456.148 222.932 456.19C222.344 456.232 221.966 456.022 221.756 455.56C221.504 455.056 221.294 454.216 221.21 452.956L220.622 446.572ZM220.412 425.95C220.412 424.816 220.622 423.724 221.126 422.716C221.588 421.75 222.26 420.868 223.142 420.07C223.982 419.314 224.99 418.684 226.208 418.138C227.384 417.634 228.728 417.298 230.156 417.13C231.584 416.962 232.886 417.004 234.104 417.172C235.28 417.424 236.33 417.802 237.212 418.306C238.052 418.894 238.766 419.608 239.27 420.448C239.732 421.372 239.984 422.38 239.984 423.514C239.984 424.69 239.732 425.74 239.27 426.706C238.766 427.714 238.052 428.596 237.212 429.352C236.33 430.15 235.28 430.78 234.104 431.284C232.886 431.83 231.584 432.166 230.156 432.334C228.728 432.502 227.384 432.502 226.208 432.25C224.99 432.082 223.982 431.704 223.142 431.116C222.26 430.612 221.588 429.898 221.126 428.974C220.622 428.134 220.412 427.126 220.412 425.95ZM246.62 435.484C245.696 435.568 244.688 435.694 243.512 435.778C242.294 435.946 240.992 436.072 239.648 436.24C237.842 436.492 235.994 436.702 234.104 436.954C232.172 437.206 230.366 437.458 228.644 437.71C226.88 438.004 225.326 438.256 223.94 438.466C222.512 438.718 221.42 438.97 220.664 439.138C220.076 439.306 219.488 439.558 218.9 439.852C218.438 440.104 217.976 440.314 217.514 440.44C217.01 440.608 216.464 440.65 215.876 440.482C215.036 440.314 214.28 440.02 213.608 439.684C212.852 439.348 212.39 439.096 212.138 438.928C211.76 438.76 211.592 438.466 211.592 438.088C211.592 437.668 211.76 437.374 212.096 437.206C212.39 437.08 212.81 436.996 213.314 436.954C214.112 436.996 214.994 436.996 216.002 436.912C216.926 436.87 217.766 436.786 218.522 436.702C218.9 436.66 219.614 436.576 220.622 436.408C221.588 436.324 222.722 436.156 224.066 435.988C225.326 435.82 226.712 435.652 228.224 435.442C229.694 435.274 231.122 435.064 232.508 434.854C233.852 434.686 235.112 434.476 236.246 434.308C237.338 434.14 238.178 434.014 238.766 433.888C239.648 433.72 240.32 433.51 240.782 433.3C241.202 433.132 241.496 433.006 241.748 432.838C241.916 432.712 242.126 432.586 242.336 432.502C242.504 432.46 242.714 432.418 243.05 432.334C243.302 432.334 243.596 432.292 244.016 432.25C244.352 432.25 244.73 432.208 245.15 432.208C245.528 432.208 245.906 432.25 246.326 432.25C246.662 432.292 246.998 432.334 247.292 432.334C248.342 432.544 248.888 432.964 248.888 433.636C248.888 434.14 248.678 434.518 248.3 434.854C247.88 435.232 247.334 435.442 246.62 435.484ZM224.276 425.446C224.276 427.042 224.822 428.218 225.956 428.932C227.048 429.688 228.476 429.94 230.24 429.688C232.004 429.478 233.432 428.848 234.566 427.84C235.658 426.874 236.246 425.572 236.246 423.976C236.246 422.38 235.658 421.246 234.566 420.49C233.432 419.818 232.004 419.566 230.24 419.776C228.476 420.028 227.048 420.616 225.956 421.582C224.822 422.59 224.276 423.85 224.276 425.446ZM237.254 442.834C235.154 443.17 233.096 443.464 230.996 443.716L224.696 444.598C224.696 445.774 224.738 446.95 224.78 448.084C224.78 449.218 224.822 450.394 224.864 451.57V451.822L237.212 450.016C237.212 448.756 237.212 447.58 237.254 446.404V442.834Z" fill="white"/>
<path d="M119.465 113.543L112.688 85.8119" stroke="white" stroke-opacity="0.4" stroke-width="1.2" stroke-linecap="round"/>
<path d="M119.465 113.543L77.5659 118.473" stroke="white" stroke-opacity="0.4" stroke-width="1.2" stroke-linecap="round"/>
<path d="M119.465 113.543L108.991 204.746" stroke="white" stroke-opacity="0.4" stroke-width="1.2" stroke-linecap="round"/>
<path d="M108.991 204.746L58.4648 269.452" stroke="white" stroke-opacity="0.4" stroke-width="1.2" stroke-linecap="round"/>
<path d="M58.4646 269.451L121.93 395.781" stroke="white" stroke-opacity="0.4" stroke-width="1.2" stroke-linecap="round"/>
<path d="M148.425 266.987L108.991 204.746" stroke="white" stroke-opacity="0.4" stroke-width="1.2" stroke-linecap="round"/>
<path d="M148.425 266.987L182.931 378.526" stroke="white" stroke-opacity="0.4" stroke-width="1.2" stroke-linecap="round"/>
<path d="M119.465 113.543L165.062 128.949" stroke="white" stroke-opacity="0.4" stroke-width="1.2" stroke-linecap="round"/>
<path d="M224.214 136.344L165.062 128.949" stroke="white" stroke-opacity="0.4" stroke-width="1.2" stroke-linecap="round"/>
<path d="M224.214 136.344L312.943 131.414" stroke="white" stroke-opacity="0.4" stroke-width="1.2" stroke-linecap="round"/>
<path d="M224.214 136.344L187.86 58.6975" stroke="white" stroke-opacity="0.4" stroke-width="1.2" stroke-linecap="round"/>
<path d="M224.214 136.344L248.245 244.802" stroke="white" stroke-opacity="0.4" stroke-width="1.2" stroke-linecap="round"/>
<path d="M291.377 336.622L248.245 244.802" stroke="white" stroke-opacity="0.4" stroke-width="1.2" stroke-linecap="round"/>
<path d="M291.377 336.622L317.872 345.865" stroke="white" stroke-opacity="0.4" stroke-width="1.2" stroke-linecap="round"/>
<path d="M359.772 350.795L317.872 345.865" stroke="white" stroke-opacity="0.4" stroke-width="1.2" stroke-linecap="round"/>
<path d="M243.315 353.876L248.245 244.802" stroke="white" stroke-opacity="0.4" stroke-width="1.2" stroke-linecap="round"/>
<g filter="url(#filter0_f_84_418)">
<circle cx="78" cy="118" r="4" fill="white"/>
<circle cx="78" cy="118" r="2.5" stroke="white" stroke-width="3"/>
</g>
<g filter="url(#filter1_f_84_418)">
<circle cx="122" cy="396" r="4" fill="white"/>
<circle cx="122" cy="396" r="2.5" stroke="white" stroke-width="3"/>
</g>
<g filter="url(#filter2_f_84_418)">
<circle cx="182.5" cy="378.5" r="5.5" fill="white"/>
<circle cx="182.5" cy="378.5" r="4" stroke="white" stroke-width="3"/>
</g>
<g filter="url(#filter3_f_84_418)">
<circle cx="119" cy="114" r="4" fill="white"/>
<circle cx="119" cy="114" r="2.5" stroke="white" stroke-width="3"/>
</g>
<g filter="url(#filter4_f_84_418)">
<circle cx="112.5" cy="85.5" r="5.5" fill="white"/>
<circle cx="112.5" cy="85.5" r="4" stroke="white" stroke-width="3"/>
</g>
<g filter="url(#filter5_f_84_418)">
<circle cx="109" cy="205" r="4" fill="white"/>
<circle cx="109" cy="205" r="2.5" stroke="white" stroke-width="3"/>
</g>
<g filter="url(#filter6_f_84_418)">
<circle cx="166" cy="129" r="4" fill="white"/>
<circle cx="166" cy="129" r="2.5" stroke="white" stroke-width="3"/>
</g>
<g filter="url(#filter7_f_84_418)">
<circle cx="224" cy="136" r="4" fill="white"/>
<circle cx="224" cy="136" r="2.5" stroke="white" stroke-width="3"/>
</g>
<g filter="url(#filter8_f_84_418)">
<circle cx="360" cy="351" r="4" fill="white"/>
<circle cx="360" cy="351" r="2.5" stroke="white" stroke-width="3"/>
</g>
<g filter="url(#filter9_f_84_418)">
<circle cx="318" cy="346" r="4" fill="white"/>
<circle cx="318" cy="346" r="2.5" stroke="white" stroke-width="3"/>
</g>
<g filter="url(#filter10_f_84_418)">
<circle cx="248" cy="245" r="4" fill="white"/>
<circle cx="248" cy="245" r="2.5" stroke="white" stroke-width="3"/>
</g>
<g filter="url(#filter11_f_84_418)">
<circle cx="243" cy="354" r="4" fill="white"/>
<circle cx="243" cy="354" r="2.5" stroke="white" stroke-width="3"/>
</g>
<g filter="url(#filter12_f_84_418)">
<circle cx="290.5" cy="336.5" r="5.5" fill="white"/>
<circle cx="290.5" cy="336.5" r="4" stroke="white" stroke-width="3"/>
</g>
<g filter="url(#filter13_f_84_418)">
<circle cx="314" cy="131" r="4" fill="white"/>
<circle cx="314" cy="131" r="2.5" stroke="white" stroke-width="3"/>
</g>
<g filter="url(#filter14_f_84_418)">
<circle cx="149.762" cy="268.719" r="4" fill="white"/>
<circle cx="149.762" cy="268.719" r="2.5" stroke="white" stroke-width="3"/>
</g>
<g filter="url(#filter15_f_84_418)">
<circle cx="58" cy="269" r="4" fill="white"/>
<circle cx="58" cy="269" r="2.5" stroke="white" stroke-width="3"/>
</g>
<g filter="url(#filter16_f_84_418)">
<circle cx="187.5" cy="58.5" r="5.5" fill="white"/>
<circle cx="187.5" cy="58.5" r="4" stroke="white" stroke-width="3"/>
</g>
<defs>
<filter id="filter0_f_84_418" x="70" y="110" width="16" height="16" filterUnits="userSpaceOnUse" color-interpolation-filters="sRGB">
<feFlood flood-opacity="0" result="BackgroundImageFix"/>
<feBlend mode="normal" in="SourceGraphic" in2="BackgroundImageFix" result="shape"/>
<feGaussianBlur stdDeviation="2" result="effect1_foregroundBlur_84_418"/>
</filter>
<filter id="filter1_f_84_418" x="114" y="388" width="16" height="16" filterUnits="userSpaceOnUse" color-interpolation-filters="sRGB">
<feFlood flood-opacity="0" result="BackgroundImageFix"/>
<feBlend mode="normal" in="SourceGraphic" in2="BackgroundImageFix" result="shape"/>
<feGaussianBlur stdDeviation="2" result="effect1_foregroundBlur_84_418"/>
</filter>
<filter id="filter2_f_84_418" x="173" y="369" width="19" height="19" filterUnits="userSpaceOnUse" color-interpolation-filters="sRGB">
<feFlood flood-opacity="0" result="BackgroundImageFix"/>
<feBlend mode="normal" in="SourceGraphic" in2="BackgroundImageFix" result="shape"/>
<feGaussianBlur stdDeviation="2" result="effect1_foregroundBlur_84_418"/>
</filter>
<filter id="filter3_f_84_418" x="111" y="106" width="16" height="16" filterUnits="userSpaceOnUse" color-interpolation-filters="sRGB">
<feFlood flood-opacity="0" result="BackgroundImageFix"/>
<feBlend mode="normal" in="SourceGraphic" in2="BackgroundImageFix" result="shape"/>
<feGaussianBlur stdDeviation="2" result="effect1_foregroundBlur_84_418"/>
</filter>
<filter id="filter4_f_84_418" x="103" y="76" width="19" height="19" filterUnits="userSpaceOnUse" color-interpolation-filters="sRGB">
<feFlood flood-opacity="0" result="BackgroundImageFix"/>
<feBlend mode="normal" in="SourceGraphic" in2="BackgroundImageFix" result="shape"/>
<feGaussianBlur stdDeviation="2" result="effect1_foregroundBlur_84_418"/>
</filter>
<filter id="filter5_f_84_418" x="101" y="197" width="16" height="16" filterUnits="userSpaceOnUse" color-interpolation-filters="sRGB">
<feFlood flood-opacity="0" result="BackgroundImageFix"/>
<feBlend mode="normal" in="SourceGraphic" in2="BackgroundImageFix" result="shape"/>
<feGaussianBlur stdDeviation="2" result="effect1_foregroundBlur_84_418"/>
</filter>
<filter id="filter6_f_84_418" x="158" y="121" width="16" height="16" filterUnits="userSpaceOnUse" color-interpolation-filters="sRGB">
<feFlood flood-opacity="0" result="BackgroundImageFix"/>
<feBlend mode="normal" in="SourceGraphic" in2="BackgroundImageFix" result="shape"/>
<feGaussianBlur stdDeviation="2" result="effect1_foregroundBlur_84_418"/>
</filter>
<filter id="filter7_f_84_418" x="216" y="128" width="16" height="16" filterUnits="userSpaceOnUse" color-interpolation-filters="sRGB">
<feFlood flood-opacity="0" result="BackgroundImageFix"/>
<feBlend mode="normal" in="SourceGraphic" in2="BackgroundImageFix" result="shape"/>
<feGaussianBlur stdDeviation="2" result="effect1_foregroundBlur_84_418"/>
</filter>
<filter id="filter8_f_84_418" x="352" y="343" width="16" height="16" filterUnits="userSpaceOnUse" color-interpolation-filters="sRGB">
<feFlood flood-opacity="0" result="BackgroundImageFix"/>
<feBlend mode="normal" in="SourceGraphic" in2="BackgroundImageFix" result="shape"/>
<feGaussianBlur stdDeviation="2" result="effect1_foregroundBlur_84_418"/>
</filter>
<filter id="filter9_f_84_418" x="310" y="338" width="16" height="16" filterUnits="userSpaceOnUse" color-interpolation-filters="sRGB">
<feFlood flood-opacity="0" result="BackgroundImageFix"/>
<feBlend mode="normal" in="SourceGraphic" in2="BackgroundImageFix" result="shape"/>
<feGaussianBlur stdDeviation="2" result="effect1_foregroundBlur_84_418"/>
</filter>
<filter id="filter10_f_84_418" x="240" y="237" width="16" height="16" filterUnits="userSpaceOnUse" color-interpolation-filters="sRGB">
<feFlood flood-opacity="0" result="BackgroundImageFix"/>
<feBlend mode="normal" in="SourceGraphic" in2="BackgroundImageFix" result="shape"/>
<feGaussianBlur stdDeviation="2" result="effect1_foregroundBlur_84_418"/>
</filter>
<filter id="filter11_f_84_418" x="235" y="346" width="16" height="16" filterUnits="userSpaceOnUse" color-interpolation-filters="sRGB">
<feFlood flood-opacity="0" result="BackgroundImageFix"/>
<feBlend mode="normal" in="SourceGraphic" in2="BackgroundImageFix" result="shape"/>
<feGaussianBlur stdDeviation="2" result="effect1_foregroundBlur_84_418"/>
</filter>
<filter id="filter12_f_84_418" x="281" y="327" width="19" height="19" filterUnits="userSpaceOnUse" color-interpolation-filters="sRGB">
<feFlood flood-opacity="0" result="BackgroundImageFix"/>
<feBlend mode="normal" in="SourceGraphic" in2="BackgroundImageFix" result="shape"/>
<feGaussianBlur stdDeviation="2" result="effect1_foregroundBlur_84_418"/>
</filter>
<filter id="filter13_f_84_418" x="306" y="123" width="16" height="16" filterUnits="userSpaceOnUse" color-interpolation-filters="sRGB">
<feFlood flood-opacity="0" result="BackgroundImageFix"/>
<feBlend mode="normal" in="SourceGraphic" in2="BackgroundImageFix" result="shape"/>
<feGaussianBlur stdDeviation="2" result="effect1_foregroundBlur_84_418"/>
</filter>
<filter id="filter14_f_84_418" x="141.762" y="260.719" width="16" height="16" filterUnits="userSpaceOnUse" color-interpolation-filters="sRGB">
<feFlood flood-opacity="0" result="BackgroundImageFix"/>
<feBlend mode="normal" in="SourceGraphic" in2="BackgroundImageFix" result="shape"/>
<feGaussianBlur stdDeviation="2" result="effect1_foregroundBlur_84_418"/>
</filter>
<filter id="filter15_f_84_418" x="50" y="261" width="16" height="16" filterUnits="userSpaceOnUse" color-interpolation-filters="sRGB">
<feFlood flood-opacity="0" result="BackgroundImageFix"/>
<feBlend mode="normal" in="SourceGraphic" in2="BackgroundImageFix" result="shape"/>
<feGaussianBlur stdDeviation="2" result="effect1_foregroundBlur_84_418"/>
</filter>
<filter id="filter16_f_84_418" x="178" y="49" width="19" height="19" filterUnits="userSpaceOnUse" color-interpolation-filters="sRGB">
<feFlood flood-opacity="0" result="BackgroundImageFix"/>
<feBlend mode="normal" in="SourceGraphic" in2="BackgroundImageFix" result="shape"/>
<feGaussianBlur stdDeviation="2" result="effect1_foregroundBlur_84_418"/>
</filter>
</defs>
</svg>
