<svg width="439" height="494" viewBox="0 0 439 494" fill="none" xmlns="http://www.w3.org/2000/svg">
<path d="M206.033 424.512C205.613 424.68 205.277 424.848 205.109 425.016C204.857 425.184 204.647 425.31 204.437 425.394C204.185 425.52 203.849 425.562 203.387 425.478C203.135 425.478 202.883 425.394 202.631 425.31C202.337 425.268 202.043 425.184 201.791 425.058C201.455 424.974 201.203 424.89 200.951 424.764C200.699 424.68 200.489 424.554 200.321 424.47C200.069 424.344 199.901 424.218 199.817 424.05C199.649 423.966 199.607 423.798 199.607 423.546C199.607 423.336 199.649 423.126 199.817 422.958C199.943 422.832 200.195 422.748 200.615 422.664C201.371 422.58 201.875 422.538 202.211 422.496C202.505 422.496 202.757 422.454 203.009 422.412C203.765 422.328 204.773 422.202 205.949 422.034C207.125 421.866 208.217 421.74 209.309 421.572V414.852C209.309 414.306 209.057 413.886 208.553 413.592C208.049 413.34 207.293 413.088 206.327 412.836C205.991 412.794 205.739 412.71 205.571 412.542C205.361 412.416 205.277 412.206 205.277 411.87C205.277 411.618 205.403 411.366 205.739 411.114C205.991 410.904 206.411 410.736 206.999 410.652C207.251 410.652 207.797 410.61 208.595 410.568C209.351 410.568 210.149 410.568 210.905 410.652C211.535 410.736 212.081 410.862 212.585 411.03C213.047 411.24 213.299 411.492 213.299 411.828C213.299 412.122 213.257 412.416 213.173 412.752C213.089 413.004 213.047 413.298 213.005 413.55C212.921 413.844 212.921 414.138 212.921 414.474V431.778C212.921 432.408 212.879 433.164 212.879 434.004C212.837 434.928 212.753 435.768 212.627 436.566C212.459 437.406 212.249 438.162 211.997 438.75C211.661 439.38 211.241 439.716 210.737 439.758C210.485 439.8 210.317 439.758 210.149 439.632C209.981 439.548 209.813 439.296 209.729 438.96C209.561 438.624 209.477 438.162 209.435 437.574C209.351 436.986 209.309 436.23 209.309 435.306V423.882C208.721 423.966 208.217 424.05 207.713 424.134L206.033 424.512ZM196.919 419.052C196.457 420.942 195.701 422.874 194.693 424.806C195.449 425.562 196.121 426.192 196.793 426.738C197.423 427.326 197.801 427.662 197.969 427.704C198.137 427.83 198.347 427.872 198.599 427.872C198.809 427.872 199.019 427.914 199.271 427.956C199.607 428.04 199.985 428.082 200.363 428.124C200.699 428.208 200.993 428.418 201.245 428.67C201.413 428.922 201.623 429.216 201.875 429.552C202.043 429.93 202.211 430.308 202.379 430.644C202.505 431.022 202.631 431.358 202.757 431.694C202.841 432.03 202.883 432.324 202.883 432.576C202.883 432.912 202.799 433.206 202.631 433.416C202.379 433.668 202.085 433.836 201.749 433.878C201.539 433.962 201.245 433.878 200.825 433.626C200.405 433.416 199.943 433.122 199.481 432.702C198.473 431.862 197.465 430.98 196.457 429.972L193.349 427.116C192.131 429.048 190.745 430.854 189.149 432.576C187.553 434.34 185.789 435.978 183.857 437.448C182.933 438.12 182.303 438.288 181.967 437.868C181.799 437.658 181.715 437.406 181.757 437.112C181.757 436.86 181.967 436.566 182.387 436.188C183.563 435.138 184.697 433.878 185.831 432.45C186.923 431.022 187.973 429.552 188.897 427.998C189.821 426.486 190.577 425.016 191.249 423.504C191.879 422.034 192.341 420.732 192.593 419.556C192.593 419.388 192.551 419.262 192.383 419.094C192.215 418.968 192.005 418.842 191.795 418.716C191.543 418.632 191.291 418.548 191.081 418.464C190.829 418.422 190.619 418.38 190.535 418.338C189.737 418.128 189.443 417.708 189.653 417.078C189.695 416.91 189.863 416.7 190.157 416.49C190.409 416.322 190.787 416.196 191.333 416.196C192.005 416.196 192.761 416.28 193.601 416.364C194.399 416.532 195.197 416.742 195.995 417.036C196.541 417.246 196.877 417.498 197.003 417.792C197.087 418.128 197.045 418.548 196.919 419.052ZM208.217 445.722C208.511 445.638 208.763 445.554 209.015 445.428C209.225 445.26 209.435 445.134 209.687 444.966C209.897 444.756 210.107 444.588 210.359 444.504C210.527 444.378 210.779 444.294 211.115 444.252C211.577 444.168 212.039 444.168 212.543 444.168C213.005 444.168 213.467 444.168 213.971 444.252C214.391 444.336 214.769 444.504 215.021 444.798C215.273 445.05 215.399 445.344 215.399 445.68C215.399 446.604 214.727 447.15 213.467 447.318C210.779 447.654 208.133 447.99 205.571 448.368C202.967 448.704 200.321 449.04 197.633 449.418C195.197 449.754 194.021 448.662 194.021 446.226V442.026C194.021 441.522 193.769 441.102 193.307 440.766C192.803 440.514 192.089 440.262 191.123 440.052C190.787 440.01 190.535 439.926 190.367 439.758C190.157 439.632 190.073 439.422 190.073 439.086C190.073 438.834 190.199 438.54 190.535 438.288C190.787 438.078 191.207 437.952 191.795 437.868C192.047 437.826 192.593 437.784 193.391 437.742C194.147 437.742 194.945 437.784 195.701 437.826C196.331 437.91 196.835 438.078 197.213 438.33C197.549 438.624 197.717 438.918 197.717 439.212V446.226C197.717 446.562 197.759 446.814 197.927 446.94C198.011 447.024 198.221 447.066 198.515 447.024L208.217 445.722ZM246.413 421.824L250.109 421.362V414.684C250.109 414.138 249.857 413.718 249.353 413.424C248.849 413.172 248.093 412.92 247.127 412.71C246.791 412.626 246.539 412.542 246.371 412.374C246.161 412.29 246.077 412.08 246.077 411.744C246.077 411.492 246.203 411.198 246.539 410.946C246.791 410.736 247.211 410.61 247.799 410.526C248.051 410.484 248.597 410.442 249.395 410.4C250.151 410.4 250.949 410.442 251.705 410.484C252.335 410.568 252.881 410.694 253.385 410.862C253.847 411.072 254.099 411.324 254.099 411.66C254.099 411.954 254.057 412.29 253.973 412.626C253.889 412.878 253.847 413.13 253.805 413.382C253.721 413.676 253.721 413.97 253.721 414.306V425.688C253.721 426.318 253.679 427.074 253.679 427.914C253.637 428.838 253.553 429.678 253.427 430.518C253.259 431.358 253.049 432.072 252.797 432.66C252.461 433.29 252.041 433.626 251.537 433.71C251.075 433.794 250.739 433.5 250.487 432.87C250.235 432.282 250.109 431.064 250.109 429.216V423.924L246.413 424.386V426.528C246.413 427.158 246.371 427.914 246.371 428.754C246.329 429.678 246.245 430.518 246.119 431.316C245.951 432.156 245.741 432.912 245.489 433.5C245.153 434.13 244.733 434.466 244.229 434.508C243.809 434.592 243.473 434.34 243.221 433.752C242.969 433.206 242.801 432.114 242.801 430.434C241.499 431.022 240.197 431.568 238.895 432.072C237.551 432.576 236.291 433.038 235.115 433.416C233.855 433.836 232.721 434.214 231.671 434.466C230.579 434.76 229.613 434.97 228.773 435.054C227.303 435.264 226.295 435.012 225.707 434.34C225.077 433.71 224.783 432.66 224.783 431.232V423.294C224.783 422.79 224.573 422.37 224.153 422.034C223.691 421.782 222.977 421.53 222.011 421.32C221.675 421.278 221.423 421.194 221.255 421.026C221.045 420.9 220.961 420.69 220.961 420.354C220.961 420.102 221.087 419.808 221.423 419.556C221.675 419.346 222.095 419.22 222.683 419.136C222.767 419.136 222.977 419.136 223.313 419.094C223.565 419.094 223.901 419.052 224.321 419.01H225.497C225.875 419.01 226.253 419.052 226.673 419.052C226.799 419.136 226.925 419.136 227.093 419.136C227.177 419.136 227.303 419.178 227.429 419.178L231.923 418.506C232.217 418.464 232.469 418.38 232.721 418.212C232.931 418.086 233.141 417.918 233.393 417.75C233.603 417.582 233.813 417.456 234.065 417.288C234.233 417.204 234.485 417.12 234.821 417.078C235.283 417.036 235.829 416.994 236.459 416.952C237.047 416.952 237.593 416.952 238.097 416.994C238.517 417.078 238.895 417.288 239.147 417.54C239.399 417.834 239.525 418.128 239.525 418.422C239.525 419.388 238.853 419.934 237.593 420.06C236.165 420.312 234.695 420.522 233.225 420.69C231.713 420.9 230.201 421.11 228.689 421.278V425.478L231.713 425.058C232.007 425.016 232.259 424.932 232.511 424.764C232.721 424.638 232.931 424.47 233.183 424.26C233.393 424.092 233.603 423.966 233.855 423.84C234.023 423.756 234.275 423.672 234.611 423.588C235.073 423.546 235.619 423.504 236.249 423.462C236.837 423.462 237.383 423.462 237.887 423.546C238.307 423.63 238.685 423.798 238.937 424.05C239.189 424.344 239.315 424.638 239.315 424.932C239.315 425.352 239.105 425.73 238.769 426.024C238.391 426.36 237.929 426.528 237.383 426.612C236.081 426.822 234.653 427.032 233.141 427.2C231.587 427.41 230.117 427.578 228.689 427.746V430.98C228.689 431.652 228.899 431.946 229.319 431.862C231.545 431.61 233.771 431.148 236.039 430.476C238.223 429.846 240.491 429.048 242.801 428.082V417.96C242.801 417.414 242.549 416.994 242.045 416.7C241.541 416.448 240.785 416.196 239.819 415.986C239.483 415.944 239.231 415.86 239.063 415.692C238.853 415.566 238.769 415.356 238.769 415.02C238.769 414.768 238.895 414.474 239.231 414.222C239.483 414.012 239.903 413.886 240.491 413.802C240.743 413.76 241.289 413.718 242.087 413.676C242.843 413.676 243.641 413.718 244.397 413.802C245.027 413.886 245.573 414.012 246.077 414.18C246.539 414.39 246.791 414.642 246.791 414.978C246.791 415.272 246.749 415.566 246.665 415.902C246.581 416.154 246.539 416.406 246.497 416.658C246.413 416.994 246.413 417.288 246.413 417.624V421.824ZM253.133 443.37C253.133 443.79 253.091 444.336 253.007 445.008C252.881 445.638 252.755 446.268 252.587 446.94C252.377 447.528 252.125 448.074 251.873 448.578C251.579 449.04 251.243 449.292 250.907 449.376C250.361 449.418 249.983 449.082 249.815 448.368C249.563 447.612 249.479 446.268 249.479 444.42V437.784C248.849 437.868 248.009 437.994 247.001 438.12L243.767 438.624C242.633 438.792 241.583 438.96 240.575 439.128C239.525 439.338 238.727 439.506 238.223 439.632C237.971 439.716 237.719 439.8 237.509 439.884C237.257 440.052 237.047 440.178 236.879 440.262C236.543 440.472 236.207 440.64 235.829 440.808C235.409 440.976 234.947 441.018 234.485 440.892C233.729 440.724 232.973 440.514 232.301 440.178C231.545 439.884 231.083 439.674 230.873 439.506C230.537 439.338 230.411 439.086 230.411 438.75C230.411 438.414 230.537 438.162 230.831 437.994C231.083 437.91 231.461 437.826 231.923 437.784C232.595 437.826 233.267 437.826 233.981 437.742C234.653 437.7 235.283 437.616 235.871 437.532C236.375 437.49 237.173 437.406 238.223 437.238C239.231 437.112 240.281 436.944 241.457 436.776L244.775 436.272C245.867 436.104 246.749 435.978 247.463 435.81C247.883 435.726 248.261 435.6 248.513 435.516C248.723 435.432 248.933 435.348 249.101 435.222C249.269 435.138 249.479 435.054 249.689 434.97C249.857 434.886 250.067 434.844 250.361 434.76C250.697 434.76 251.117 434.718 251.537 434.676C251.915 434.676 252.293 434.718 252.671 434.76C253.007 434.844 253.343 434.97 253.595 435.096C253.805 435.264 253.931 435.516 253.931 435.768C253.931 436.062 253.847 436.398 253.679 436.818C253.595 437.07 253.553 437.364 253.469 437.658C253.385 437.994 253.301 438.414 253.301 438.876L253.133 443.37Z" fill="white"/>
<g filter="url(#filter0_f_84_882)">
<path d="M297.148 224.958C298.187 227.812 296.716 230.968 293.861 232.007C291.007 233.046 287.851 231.574 286.812 228.72C285.773 225.866 287.245 222.71 290.099 221.671C292.953 220.632 296.109 222.103 297.148 224.958Z" fill="white"/>
<path d="M295.739 225.471C296.494 227.547 295.424 229.842 293.348 230.598C291.272 231.353 288.977 230.283 288.221 228.207C287.466 226.131 288.536 223.836 290.612 223.08C292.688 222.325 294.983 223.395 295.739 225.471Z" stroke="white" stroke-width="3"/>
</g>
<g filter="url(#filter1_f_84_882)">
<path d="M389.914 164.058C390.669 166.133 389.599 168.429 387.523 169.184C385.447 169.94 383.152 168.87 382.396 166.794C381.641 164.718 382.711 162.422 384.787 161.667C386.863 160.911 389.158 161.982 389.914 164.058Z" fill="white"/>
<path d="M388.504 164.571C388.976 165.868 388.307 167.303 387.01 167.775C385.713 168.247 384.278 167.578 383.806 166.281C383.333 164.983 384.002 163.549 385.3 163.076C386.597 162.604 388.032 163.273 388.504 164.571Z" stroke="white" stroke-width="3"/>
</g>
<g filter="url(#filter2_f_84_882)">
<path d="M387.167 121.426C387.923 123.502 386.852 125.797 384.776 126.553C382.701 127.308 380.405 126.238 379.65 124.162C378.894 122.086 379.964 119.791 382.04 119.035C384.116 118.279 386.412 119.35 387.167 121.426Z" fill="white"/>
<path d="M385.758 121.939C386.23 123.236 385.561 124.671 384.263 125.143C382.966 125.615 381.531 124.946 381.059 123.649C380.587 122.351 381.256 120.917 382.553 120.445C383.851 119.972 385.285 120.641 385.758 121.939Z" stroke="white" stroke-width="3"/>
</g>
<g filter="url(#filter3_f_84_882)">
<path d="M340.86 116.997C341.615 119.073 340.545 121.368 338.469 122.124C336.393 122.879 334.098 121.809 333.342 119.733C332.587 117.657 333.657 115.362 335.733 114.606C337.809 113.85 340.104 114.921 340.86 116.997Z" fill="white"/>
<path d="M339.45 117.51C339.922 118.807 339.253 120.242 337.956 120.714C336.658 121.186 335.224 120.517 334.752 119.22C334.279 117.922 334.948 116.488 336.246 116.016C337.543 115.543 338.978 116.212 339.45 117.51Z" stroke="white" stroke-width="3"/>
</g>
<g filter="url(#filter4_f_84_882)">
<path d="M337.211 203.459C337.967 205.535 336.897 207.83 334.821 208.586C332.745 209.341 330.449 208.271 329.694 206.195C328.938 204.119 330.009 201.824 332.085 201.068C334.16 200.313 336.456 201.383 337.211 203.459Z" fill="white"/>
<path d="M335.802 203.972C336.274 205.269 335.605 206.704 334.308 207.176C333.01 207.648 331.576 206.979 331.103 205.682C330.631 204.385 331.3 202.95 332.598 202.478C333.895 202.006 335.33 202.674 335.802 203.972Z" stroke="white" stroke-width="3"/>
</g>
<g filter="url(#filter5_f_84_882)">
<path d="M125.86 260.165C126.616 262.241 125.545 264.536 123.469 265.292C121.394 266.048 119.098 264.977 118.343 262.901C117.587 260.825 118.657 258.53 120.733 257.774C122.809 257.019 125.105 258.089 125.86 260.165Z" fill="white"/>
<path d="M124.451 260.678C124.923 261.976 124.254 263.41 122.956 263.882C121.659 264.355 120.224 263.686 119.752 262.388C119.28 261.091 119.949 259.656 121.246 259.184C122.544 258.712 123.978 259.381 124.451 260.678Z" stroke="white" stroke-width="3"/>
</g>
<g filter="url(#filter6_f_84_882)">
<path d="M219.206 139.46C220.245 142.314 218.773 145.47 215.919 146.509C213.064 147.548 209.908 146.076 208.869 143.222C207.83 140.367 209.302 137.211 212.156 136.172C215.011 135.133 218.167 136.605 219.206 139.46Z" fill="white"/>
<path d="M217.796 139.973C218.552 142.048 217.481 144.344 215.406 145.099C213.33 145.855 211.034 144.785 210.279 142.709C209.523 140.633 210.593 138.337 212.669 137.582C214.745 136.826 217.041 137.897 217.796 139.973Z" stroke="white" stroke-width="3"/>
</g>
<g filter="url(#filter7_f_84_882)">
<circle cx="232.976" cy="336.641" r="5.5" transform="rotate(-20 232.976 336.641)" fill="white"/>
<circle cx="232.976" cy="336.641" r="4" transform="rotate(-20 232.976 336.641)" stroke="white" stroke-width="3"/>
</g>
<g filter="url(#filter8_f_84_882)">
<circle cx="251.005" cy="197.589" r="4" transform="rotate(-20 251.005 197.589)" fill="white"/>
<circle cx="251.005" cy="197.589" r="2.5" transform="rotate(-20 251.005 197.589)" stroke="white" stroke-width="3"/>
</g>
<g filter="url(#filter9_f_84_882)">
<circle cx="246.928" cy="279.951" r="4" transform="rotate(-20 246.928 279.951)" fill="white"/>
<circle cx="246.928" cy="279.951" r="2.5" transform="rotate(-20 246.928 279.951)" stroke="white" stroke-width="3"/>
</g>
<g filter="url(#filter10_f_84_882)">
<circle cx="183.102" cy="259.55" r="4" transform="rotate(-20 183.102 259.55)" fill="white"/>
<circle cx="183.102" cy="259.55" r="2.5" transform="rotate(-20 183.102 259.55)" stroke="white" stroke-width="3"/>
</g>
<g filter="url(#filter11_f_84_882)">
<circle cx="115.202" cy="333.216" r="4" transform="rotate(-20 115.202 333.216)" fill="white"/>
<circle cx="115.202" cy="333.216" r="2.5" transform="rotate(-20 115.202 333.216)" stroke="white" stroke-width="3"/>
</g>
<g filter="url(#filter12_f_84_882)">
<circle cx="60.9556" cy="350.832" r="4" transform="rotate(-20 60.9556 350.832)" fill="white"/>
<circle cx="60.9556" cy="350.832" r="2.5" transform="rotate(-20 60.9556 350.832)" stroke="white" stroke-width="3"/>
</g>
<g filter="url(#filter13_f_84_882)">
<circle cx="31.2067" cy="292.488" r="4" transform="rotate(-20 31.2067 292.488)" fill="white"/>
<circle cx="31.2067" cy="292.488" r="2.5" transform="rotate(-20 31.2067 292.488)" stroke="white" stroke-width="3"/>
</g>
<path d="M31.1977 292.551L122.414 260.954" stroke="white" stroke-opacity="0.4" stroke-width="1.2" stroke-linecap="round"/>
<path d="M183.422 259.242L122.414 260.954" stroke="white" stroke-opacity="0.4" stroke-width="1.2" stroke-linecap="round"/>
<path d="M183.422 259.242L292.707 227.358" stroke="white" stroke-opacity="0.4" stroke-width="1.2" stroke-linecap="round"/>
<path d="M250.342 197.795L292.707 227.357" stroke="white" stroke-opacity="0.4" stroke-width="1.2" stroke-linecap="round"/>
<path d="M247.162 280.236L292.707 227.358" stroke="white" stroke-opacity="0.4" stroke-width="1.2" stroke-linecap="round"/>
<path d="M334.126 204.391L292.707 227.358" stroke="white" stroke-opacity="0.4" stroke-width="1.2" stroke-linecap="round"/>
<path d="M334.126 204.391L337.686 118.654" stroke="white" stroke-opacity="0.4" stroke-width="1.2" stroke-linecap="round"/>
<path d="M383.352 122.551L337.686 118.654" stroke="white" stroke-opacity="0.4" stroke-width="1.2" stroke-linecap="round"/>
<path d="M383.352 122.551L386.139 164.941" stroke="white" stroke-opacity="0.4" stroke-width="1.2" stroke-linecap="round"/>
<path d="M334.126 204.391L386.139 164.941" stroke="white" stroke-opacity="0.4" stroke-width="1.2" stroke-linecap="round"/>
<path d="M247.162 280.236L233.901 337.148" stroke="white" stroke-opacity="0.4" stroke-width="1.2" stroke-linecap="round"/>
<path d="M250.342 197.795L215.019 141.994" stroke="white" stroke-opacity="0.4" stroke-width="1.2" stroke-linecap="round"/>
<path d="M183.422 259.242L115.423 332.92" stroke="white" stroke-opacity="0.4" stroke-width="1.2" stroke-linecap="round"/>
<path d="M61.1921 351.08L115.423 332.92" stroke="white" stroke-opacity="0.4" stroke-width="1.2" stroke-linecap="round"/>
<defs>
<filter id="filter0_f_84_882" x="282.479" y="217.337" width="19.0029" height="19.0029" filterUnits="userSpaceOnUse" color-interpolation-filters="sRGB">
<feFlood flood-opacity="0" result="BackgroundImageFix"/>
<feBlend mode="normal" in="SourceGraphic" in2="BackgroundImageFix" result="shape"/>
<feGaussianBlur stdDeviation="2" result="effect1_foregroundBlur_84_882"/>
</filter>
<filter id="filter1_f_84_882" x="378.154" y="157.425" width="16.0022" height="16.0022" filterUnits="userSpaceOnUse" color-interpolation-filters="sRGB">
<feFlood flood-opacity="0" result="BackgroundImageFix"/>
<feBlend mode="normal" in="SourceGraphic" in2="BackgroundImageFix" result="shape"/>
<feGaussianBlur stdDeviation="2" result="effect1_foregroundBlur_84_882"/>
</filter>
<filter id="filter2_f_84_882" x="375.407" y="114.793" width="16.0022" height="16.0022" filterUnits="userSpaceOnUse" color-interpolation-filters="sRGB">
<feFlood flood-opacity="0" result="BackgroundImageFix"/>
<feBlend mode="normal" in="SourceGraphic" in2="BackgroundImageFix" result="shape"/>
<feGaussianBlur stdDeviation="2" result="effect1_foregroundBlur_84_882"/>
</filter>
<filter id="filter3_f_84_882" x="329.1" y="110.364" width="16.0022" height="16.0022" filterUnits="userSpaceOnUse" color-interpolation-filters="sRGB">
<feFlood flood-opacity="0" result="BackgroundImageFix"/>
<feBlend mode="normal" in="SourceGraphic" in2="BackgroundImageFix" result="shape"/>
<feGaussianBlur stdDeviation="2" result="effect1_foregroundBlur_84_882"/>
</filter>
<filter id="filter4_f_84_882" x="325.452" y="196.826" width="16.0022" height="16.0022" filterUnits="userSpaceOnUse" color-interpolation-filters="sRGB">
<feFlood flood-opacity="0" result="BackgroundImageFix"/>
<feBlend mode="normal" in="SourceGraphic" in2="BackgroundImageFix" result="shape"/>
<feGaussianBlur stdDeviation="2" result="effect1_foregroundBlur_84_882"/>
</filter>
<filter id="filter5_f_84_882" x="114.1" y="253.532" width="16.0022" height="16.0022" filterUnits="userSpaceOnUse" color-interpolation-filters="sRGB">
<feFlood flood-opacity="0" result="BackgroundImageFix"/>
<feBlend mode="normal" in="SourceGraphic" in2="BackgroundImageFix" result="shape"/>
<feGaussianBlur stdDeviation="2" result="effect1_foregroundBlur_84_882"/>
</filter>
<filter id="filter6_f_84_882" x="204.536" y="131.839" width="19.0029" height="19.0029" filterUnits="userSpaceOnUse" color-interpolation-filters="sRGB">
<feFlood flood-opacity="0" result="BackgroundImageFix"/>
<feBlend mode="normal" in="SourceGraphic" in2="BackgroundImageFix" result="shape"/>
<feGaussianBlur stdDeviation="2" result="effect1_foregroundBlur_84_882"/>
</filter>
<filter id="filter7_f_84_882" x="223.475" y="327.14" width="19.0029" height="19.0029" filterUnits="userSpaceOnUse" color-interpolation-filters="sRGB">
<feFlood flood-opacity="0" result="BackgroundImageFix"/>
<feBlend mode="normal" in="SourceGraphic" in2="BackgroundImageFix" result="shape"/>
<feGaussianBlur stdDeviation="2" result="effect1_foregroundBlur_84_882"/>
</filter>
<filter id="filter8_f_84_882" x="243.004" y="189.588" width="16.0022" height="16.0022" filterUnits="userSpaceOnUse" color-interpolation-filters="sRGB">
<feFlood flood-opacity="0" result="BackgroundImageFix"/>
<feBlend mode="normal" in="SourceGraphic" in2="BackgroundImageFix" result="shape"/>
<feGaussianBlur stdDeviation="2" result="effect1_foregroundBlur_84_882"/>
</filter>
<filter id="filter9_f_84_882" x="238.927" y="271.949" width="16.0022" height="16.0022" filterUnits="userSpaceOnUse" color-interpolation-filters="sRGB">
<feFlood flood-opacity="0" result="BackgroundImageFix"/>
<feBlend mode="normal" in="SourceGraphic" in2="BackgroundImageFix" result="shape"/>
<feGaussianBlur stdDeviation="2" result="effect1_foregroundBlur_84_882"/>
</filter>
<filter id="filter10_f_84_882" x="175.101" y="251.549" width="16.0022" height="16.0022" filterUnits="userSpaceOnUse" color-interpolation-filters="sRGB">
<feFlood flood-opacity="0" result="BackgroundImageFix"/>
<feBlend mode="normal" in="SourceGraphic" in2="BackgroundImageFix" result="shape"/>
<feGaussianBlur stdDeviation="2" result="effect1_foregroundBlur_84_882"/>
</filter>
<filter id="filter11_f_84_882" x="107.201" y="325.215" width="16.0022" height="16.0022" filterUnits="userSpaceOnUse" color-interpolation-filters="sRGB">
<feFlood flood-opacity="0" result="BackgroundImageFix"/>
<feBlend mode="normal" in="SourceGraphic" in2="BackgroundImageFix" result="shape"/>
<feGaussianBlur stdDeviation="2" result="effect1_foregroundBlur_84_882"/>
</filter>
<filter id="filter12_f_84_882" x="52.9545" y="342.831" width="16.0022" height="16.0022" filterUnits="userSpaceOnUse" color-interpolation-filters="sRGB">
<feFlood flood-opacity="0" result="BackgroundImageFix"/>
<feBlend mode="normal" in="SourceGraphic" in2="BackgroundImageFix" result="shape"/>
<feGaussianBlur stdDeviation="2" result="effect1_foregroundBlur_84_882"/>
</filter>
<filter id="filter13_f_84_882" x="23.2056" y="284.487" width="16.0022" height="16.0022" filterUnits="userSpaceOnUse" color-interpolation-filters="sRGB">
<feFlood flood-opacity="0" result="BackgroundImageFix"/>
<feBlend mode="normal" in="SourceGraphic" in2="BackgroundImageFix" result="shape"/>
<feGaussianBlur stdDeviation="2" result="effect1_foregroundBlur_84_882"/>
</filter>
</defs>
</svg>
