<svg width="46" height="46" viewBox="0 0 46 46" fill="none" xmlns="http://www.w3.org/2000/svg">
<path d="M44.5195 22.71C44.5195 34.7553 34.755 44.52 22.7098 44.52C10.6646 44.52 0.9 34.7553 0.9 22.71C0.9 10.6647 10.6646 0.9 22.7098 0.9C34.755 0.9 44.5195 10.6647 44.5195 22.71Z" stroke="white" stroke-width="1.8"/>
<path d="M22.2245 8.44556L16.2304 12.3366L9.63232 9.60636L11.4783 16.5067L6.84473 21.9401L13.9745 22.3139L17.7193 28.4048L19.8075 22.952L33.2589 36.2809L34.896 34.6438L34.8896 34.6374L36.9907 32.5426L35.3536 30.9055L33.2525 33.0003L32.0665 31.8143L33.4329 30.4479L31.7958 28.8108L30.4294 30.1772L29.3337 29.0815L32.8851 25.5237L31.248 23.8866L27.6966 27.4444L21.5607 21.4245L27.2196 20.0645L21.6702 15.5657L22.2245 8.44556Z" fill="#F8F8F8"/>
</svg>